<?xml version="1.0" encoding="utf-8"?>
<!-- Generator: Adobe Illustrator 22.1.0, SVG Export Plug-In . SVG Version: 6.00 Build 0)  -->
<svg version="1.1" id="Layer_1" xmlns="http://www.w3.org/2000/svg" xmlns:xlink="http://www.w3.org/1999/xlink" x="0px" y="0px"
	 viewBox="0 0 256 256" style="enable-background:new 0 0 256 256;" xml:space="preserve">
<style type="text/css">
	.st0{fill:#F6D67A;}
	.st1{fill:#E77CAE;}
	.st2{fill:#AC6535;}
	.st3{fill:#EB573B;}
	.st4{fill:#464646;}
	.st5{fill:#F5B31F;}
	.st6{fill:#9B592D;}
	.st7{fill:#9B5B2F;}
	.st8{fill:#E8A41A;}
	.st9{fill:#6D6E71;}
	.st10{fill:#E5A21C;}
	.st11{fill:#C66395;}
	.st12{fill:#E09F1E;}
	.st13{fill:#FFFFFF;}
	.st14{fill:#DDB95E;}
	.st15{fill:#EAC771;}
	.st16{fill:#F9F6CD;}
	.st17{fill:#009345;}
	.st18{fill:#008438;}
	.st19{fill:#EAA51B;}
	.st20{opacity:0.1;}
	.st21{fill:#FFD11D;}
	.st22{fill:#FFE37B;}
	.st23{fill:#FFA755;}
	.st24{fill:#FFEC97;}
	.st25{fill:#BC7532;}
	.st26{fill:#EFEFEF;}
	.st27{fill:#60ACF7;}
	.st28{fill:#876C6C;}
	.st29{fill:#1DDCFF;}
	.st30{fill:#BDF3FF;}
	.st31{fill:#EFCA70;}
	.st32{fill:#EFA91D;}
	.st33{fill:#8FAE3C;}
	.st34{fill:#92A5AC;}
	.st35{fill:#E8E3BA;}
	.st36{fill:#F79932;}
	.st37{fill:#F4F4F4;}
	.st38{fill:#FFDF8F;}
	.st39{fill:#EAE5B9;}
	.st40{fill:#7E9E6A;}
	.st41{fill:#94B57F;}
	.st42{fill:#9B5D8C;}
	.st43{fill:#96557A;}
	.st44{fill:#C3755A;}
	.st45{fill:#9BD7DD;}
	.st46{fill:#90CAD3;}
	.st47{fill:#F7F7F7;}
	.st48{fill:#AFE6EF;}
	.st49{fill:#FFFAEB;}
	.st50{fill:#F4EFC3;}
	.st51{fill:#F9F9F9;}
	.st52{fill:#FFE5C4;}
	.st53{fill:#FFB024;}
	.st54{fill:#FFC612;}
	.st55{fill:#FFCE31;}
	.st56{fill:#A05C2D;}
	.st57{fill:#1DCAF2;}
	.st58{fill:#00B0E0;}
	.st59{fill:#F2A355;}
	.st60{fill:#D68032;}
	.st61{fill:#66625D;}
	.st62{fill:#54504D;}
	.st63{fill:#B76955;}
	.st64{fill:#EFE8B4;}
	.st65{fill:#B93226;}
	.st66{fill:#EFEABF;}
	.st67{fill:#90C056;}
	.st68{opacity:0.15;}
	.st69{fill:#E8C56D;}
	.st70{fill:#F7BE4B;}
	.st71{fill:#E0A338;}
	.st72{fill:#F68455;}
	.st73{fill:#E26F47;}
	.st74{fill:#EC754B;}
	.st75{fill:#4AA5BA;}
	.st76{opacity:0.5;}
	.st77{fill:#A0B1B5;}
	.st78{opacity:0.7;}
	.st79{fill:#00ADEE;}
	.st80{fill:#F4D4B3;}
	.st81{fill:#F9D97A;}
	.st82{fill:#EDC96E;}
	.st83{fill:none;}
	.st84{fill:#AF6535;}
	.st85{fill:#F18BB4;}
	.st86{fill:#B3E4FF;}
	.st87{fill:#97DFFF;}
	.st88{fill:#D06E3C;}
	.st89{fill:#B55931;}
	.st90{fill:#DA4F4B;}
	.st91{fill:#EFCAA8;}
	.st92{fill:#EA7CB1;}
	.st93{fill:#EA7DAE;}
	.st94{fill:#BC7646;}
	.st95{fill:#00A1C6;}
	.st96{fill:#FCC230;}
	.st97{fill:#F2EBB1;}
	.st98{fill:#F9D6AF;}
	.st99{fill:#D34735;}
	.st100{fill:#E5A21A;}
	.st101{fill:#849E33;}
	.st102{fill:#EFBB14;}
	.st103{fill:#D8402B;}
	.st104{fill:#829B34;}
	.st105{fill:#F88916;}
	.st106{fill:#E27513;}
	.st107{fill:#FFB41F;}
	.st108{fill:#8AA538;}
	.st109{fill:#BE6BB2;}
	.st110{fill:#AA5BA3;}
	.st111{fill:#FFDF66;}
	.st112{fill:#F4BA00;}
	.st113{fill:#E28529;}
	.st114{fill:#FF9945;}
	.st115{fill:#BA6C45;}
	.st116{fill:#EDBA15;}
	.st117{fill:#E0452F;}
	.st118{fill:#F7F2D5;}
	.st119{fill:#4C4E51;}
	.st120{fill:#EA615D;}
	.st121{fill:#DD4A36;}
	.st122{fill:#F6AF72;}
	.st123{fill:#E8955D;}
	.st124{fill:#E4C074;}
	.st125{fill:#EAE4C3;}
	.st126{fill:#BF3522;}
	.st127{fill:#D13E33;}
	.st128{fill:#AA5EA3;}
	.st129{fill:#DD443C;}
	.st130{fill:#AA5FA3;}
	.st131{fill:#B7C536;}
	.st132{fill:#F2872F;}
	.st133{fill:#AF5FA7;}
	.st134{fill:#E29F17;}
	.st135{fill:#FFC86E;}
	.st136{fill:#A55937;}
	.st137{fill:#D8422E;}
	.st138{fill:#C3556D;}
	.st139{fill:#B24965;}
	.st140{fill:#D1A962;}
	.st141{fill:#A3961A;}
	.st142{fill:#AFA51D;}
	.st143{fill:#968A1C;}
</style>
<g>
	<g>
		<g>
			<g>
				<g>
					<g>
						<path class="st3" d="M248.8,26.7c0,4.2-11.9,41.4-26.7,57.3c-7.7,8.3-12,10.7-15.1,12.5c-2.8,1.5-4.3,2.4-7.5,7.3
							c-3.5,5.2-8.7,19-13.8,32.4c-7.2,18.8-11.8,30.5-15.5,34.4c-2.4,2.6-4.8,6.1-7.2,9.4c-4,5.7-7.7,11-12.2,13.9
							c-1.2,0.8-2.5,1.5-3.7,2.2c-5.2,3.1-10.2,6-15.6,13.3c-2.8,3.8-4.8,8.8-6.9,14.2c-3,7.6-6.2,15.5-12.1,21.2
							c-1.6,1.5-2.9,2.8-4,3.9c-5.3,5.2-5.9,5.7-10.1,7.1c-0.5,0.2-1.1,0.3-1.7,0.3c-3.1,0-5.6-2.4-9.6-6.4c-0.5-0.5-1-1-1.5-1.5
							c-0.1-0.1-0.1-0.1-0.2-0.2c-3-3-6.8-6.4-11.3-9.3c-4.1-2.6-8.1-4.3-12.3-5.3c-1.9-0.4-3.2-2.1-3.1-4c0-0.7,0.4-7.1,8.1-14.5
							c2.4-2.3,4.3-3.8,5.9-5c2.9-2.2,4.7-3.6,8.1-9.2c1.9-3.1,3.2-6.5,4.7-10c2.6-6.5,5.5-13.9,12.6-20.6c3.7-3.5,7.8-6.5,11.7-9.4
							c7.2-5.2,14.6-10.6,20.9-19.9c6.2-9.1,10.3-20.7,13.5-29.9c2-5.8,3.8-10.8,5.7-14.2c0.9-1.6,1.7-3.5,2.7-5.6
							c3.7-8.3,8.7-19.7,25.6-32.1c12.9-9.4,13.7-19.6,14.6-29.6c0.4-4.5,0.8-8.7,2.2-12.5c3.6-9.4,5.4-11.8,8.5-11.8
							c0.5,0,0.9,0.1,1.4,0.2c1.6,0.1,5.2,0.6,9.8,1.6c4.8,1.2,9.4,2.8,13.6,4.9c0.6,0.3,1.1,0.5,1.6,0.8l1.2,0.6
							C243.6,19.4,248.8,21.9,248.8,26.7z"/>
					</g>
				</g>
			</g>
		</g>
		<g>
			<g>
				<g>
					<g>
						<path class="st52" d="M233.2,18c-1.4,4.9-14.1,47.8-21.4,56.5c-2.2,2.7-5.7,6.2-9.6,10.2c-8.4,8.7-20,20.5-23.5,28.2
							c-1.5,3.4-3.3,8.2-5.4,13.7c-5,13.5-11.3,30.2-18.8,40.1c-4.9,6.3-10.9,11.8-16.8,17.1c-6.7,6.1-13.1,11.8-16.9,18.2
							c-1.9,3.2-4.1,7.4-6.5,11.8c-7.2,13.4-15.3,28.6-23.7,34.6c-0.7,0.5-1.5,0.7-2.3,0.7c-1,0-2-0.4-2.8-1.1
							c-3-3-6.8-6.4-11.3-9.3c-1-0.6-1.7-1.7-1.8-2.9c-0.1-1.2,0.3-2.4,1.1-3.3c0.1-0.1,11.5-11.7,16.3-25.7
							c5-14.5,14.3-21.9,31.2-35.4c2.1-1.6,4.2-3.4,6.5-5.2c18.8-15.1,23.3-32.7,26-48c2.5-14.3,14.5-35.4,27.7-42.9
							c9.9-5.6,19.8-29.1,19.7-39c-0.1-11.7,9.1-26.8,9.5-27.4c0.9-1.5,2.7-2.2,4.4-1.8c4.8,1.2,9.4,2.8,13.6,4.9
							c0.6,0.3,1.1,0.5,1.6,0.8l1.2,0.6C232.8,14.2,233.7,16.2,233.2,18z"/>
					</g>
				</g>
			</g>
		</g>
	</g>
	<g>
		<g>
			<g>
				<g>
					<g>
						<path class="st3" d="M178.7,49.2c-2.1,2.1-4.5,4.3-7.1,6.7c-7.2,6.4-15.3,13.7-19.9,22.9c-2.6,5.1-4.2,10.4-5.9,16.1
							c-2.6,8.6-5.3,17.5-11.6,26.2c-3,4.1-5.2,7.6-7.1,10.8c-4.6,7.4-8.2,13.2-17.1,18.1c-3.1,1.7-6.2,3.1-9.2,4.4
							c-8.8,3.9-14.2,6.6-16,12.9c-3.2,11.8-6.5,23.9-18.5,37c-6,6.6-8.8,8.2-11.3,9.5c-1.1,0.6-1.7,0.8-3.7,3.8
							c-5,7.3-6.3,12.2-6.4,12.3c-0.3,1.3-1.3,2.3-2.6,2.8c-0.4,0.1-0.9,0.2-1.3,0.2c-0.9,0-1.7-0.3-2.4-0.8c-0.1,0-5.1-3.9-11-7.5
							c-3.8-2.3-7.1-3.9-9.9-4.9c-2.4-0.9-3.9-1.1-4.7-1.1c-0.3,0-0.5,0-0.7,0.1c-1.1,0.2-2.2,0-3.1-0.7c-0.9-0.6-1.5-1.6-1.6-2.7
							c-0.1-0.6-2.1-15.9,3.8-25.9c3.2-5.3,8.4-10,13.1-14c3.3-2.9,6.7-5.9,7.9-8c1.3-2.4,3.2-7.2,5.1-12.4c2.7-7,5.8-15,8.8-20.4
							c3.6-6.3,15.8-17,26.7-26.3c5.7-4.9,11.1-9.6,12.9-11.7c1.8-2.1,5.1-12,8-20.7c4.8-14.3,10.2-30.4,16.2-37.3
							c5.1-5.9,9.1-7.8,12.3-9.3c3-1.4,5.1-2.4,8.1-6.9c6.3-9.6,7.6-17.3,7.7-17.4c0.2-1.5,1.4-2.8,2.9-3.2
							c0.2-0.1,5.2-1.4,11.4-1.4c2.4,0,4.6,0.2,6.7,0.6c0.1,0,0.2,0,0.2,0c3,0.6,5.8,1.6,8.2,3c3,1.8,5.3,3.2,7.3,4.6
							c8.6,5.7,12.7,9.9,13.7,14.1C190.2,28.7,186.9,40.8,178.7,49.2z"/>
					</g>
				</g>
			</g>
		</g>
		<g>
			<g>
				<g>
					<g>
						<path class="st52" d="M176.6,12.2c-0.2,0.9-4.2,22.9-18.8,36.4c-13.5,12.5-23.2,29-31.4,53.7c-6.1,18.2-15,22.4-23.7,26.5
							c-4.5,2.1-8.7,4.1-12.8,8.2c-1.7,1.7-3.3,3.3-4.7,4.7c-9,9-12.1,12-15.3,22.8c-0.5,1.5-0.9,3-1.3,4.3
							c-3.2,10.9-5,16.9-14,25.1c-9.5,8.6-15.6,14.9-21.3,28.5c-0.4,1.1-1.3,1.9-2.4,2.3c-0.4,0.1-0.8,0.2-1.2,0.2
							c-0.7,0-1.4-0.2-2.1-0.6c-3.8-2.3-7.1-4-9.9-4.9c-1.6-0.6-2.6-2.1-2.6-3.8c0-1.3,0.2-13.1,6.7-22.6c3.2-4.7,6.2-6.6,9.1-8.3
							c3.2-2,6.8-4.2,12.4-11.4c5-6.3,5.9-11.4,7.1-17.3c1.2-6.1,2.5-13,8.8-21c5.6-7.1,11.2-10.8,16.7-14.5
							c6.3-4.2,12.9-8.5,20.2-18.5c7.3-10,9.5-17.4,11.6-24.6c1.9-6.4,3.7-12.4,8.6-19.2c2.3-3.1,3.9-5.5,5.3-7.6
							c4.9-7.2,7.1-10.5,20.8-21.5C157.3,17.2,154.9,6,154.8,5.5c-0.4-1.5,0.1-3,1.3-4c0.9-0.8,2.2-1.1,3.3-0.9c3,0.6,5.8,1.6,8.2,3
							c3,1.8,5.3,3.2,7.3,4.6C176.2,9.1,176.9,10.7,176.6,12.2z"/>
					</g>
				</g>
			</g>
		</g>
	</g>
</g>
</svg>
