<?xml version="1.0" encoding="utf-8"?>
<!-- Generator: Adobe Illustrator 22.1.0, SVG Export Plug-In . SVG Version: 6.00 Build 0)  -->
<svg version="1.1" id="Layer_1" xmlns="http://www.w3.org/2000/svg" xmlns:xlink="http://www.w3.org/1999/xlink" x="0px" y="0px"
	 viewBox="0 0 256 256" style="enable-background:new 0 0 256 256;" xml:space="preserve">
<style type="text/css">
	.st0{fill:#F6D67A;}
	.st1{fill:#E77CAE;}
	.st2{fill:#AC6535;}
	.st3{fill:#EB573B;}
	.st4{fill:#464646;}
	.st5{fill:#F5B31F;}
	.st6{fill:#9B592D;}
	.st7{fill:#9B5B2F;}
	.st8{fill:#E8A41A;}
	.st9{fill:#6D6E71;}
	.st10{fill:#E5A21C;}
	.st11{fill:#C66395;}
	.st12{fill:#E09F1E;}
	.st13{fill:#FFFFFF;}
	.st14{fill:#DDB95E;}
	.st15{fill:#EAC771;}
	.st16{fill:#F9F6CD;}
	.st17{fill:#009345;}
	.st18{fill:#008438;}
	.st19{fill:#EAA51B;}
	.st20{opacity:0.1;}
	.st21{fill:#FFD11D;}
	.st22{fill:#FFE37B;}
	.st23{fill:#FFA755;}
	.st24{fill:#FFEC97;}
	.st25{fill:#BC7532;}
	.st26{fill:#EFEFEF;}
	.st27{fill:#60ACF7;}
	.st28{fill:#876C6C;}
	.st29{fill:#1DDCFF;}
	.st30{fill:#BDF3FF;}
	.st31{fill:#EFCA70;}
	.st32{fill:#EFA91D;}
	.st33{fill:#8FAE3C;}
	.st34{fill:#92A5AC;}
	.st35{fill:#E8E3BA;}
	.st36{fill:#F79932;}
	.st37{fill:#F4F4F4;}
	.st38{fill:#FFDF8F;}
	.st39{fill:#EAE5B9;}
	.st40{fill:#7E9E6A;}
	.st41{fill:#94B57F;}
	.st42{fill:#9B5D8C;}
	.st43{fill:#96557A;}
	.st44{fill:#C3755A;}
	.st45{fill:#9BD7DD;}
	.st46{fill:#90CAD3;}
	.st47{fill:#F7F7F7;}
	.st48{fill:#AFE6EF;}
	.st49{fill:#FFFAEB;}
	.st50{fill:#F4EFC3;}
	.st51{fill:#F9F9F9;}
	.st52{fill:#FFE5C4;}
	.st53{fill:#FFB024;}
	.st54{fill:#FFC612;}
	.st55{fill:#FFCE31;}
	.st56{fill:#A05C2D;}
	.st57{fill:#1DCAF2;}
	.st58{fill:#00B0E0;}
	.st59{fill:#F2A355;}
	.st60{fill:#D68032;}
	.st61{fill:#66625D;}
	.st62{fill:#54504D;}
	.st63{fill:#B76955;}
	.st64{fill:#EFE8B4;}
	.st65{fill:#B93226;}
	.st66{fill:#EFEABF;}
	.st67{fill:#90C056;}
	.st68{opacity:0.15;}
	.st69{fill:#E8C56D;}
	.st70{fill:#F7BE4B;}
	.st71{fill:#E0A338;}
	.st72{fill:#F68455;}
	.st73{fill:#E26F47;}
	.st74{fill:#EC754B;}
	.st75{fill:#4AA5BA;}
	.st76{opacity:0.5;}
	.st77{fill:#A0B1B5;}
	.st78{opacity:0.7;}
	.st79{fill:#00ADEE;}
	.st80{fill:#F4D4B3;}
	.st81{fill:#F9D97A;}
	.st82{fill:#EDC96E;}
	.st83{fill:none;}
	.st84{fill:#AF6535;}
	.st85{fill:#F18BB4;}
	.st86{fill:#B3E4FF;}
	.st87{fill:#97DFFF;}
	.st88{fill:#D06E3C;}
	.st89{fill:#B55931;}
	.st90{fill:#DA4F4B;}
	.st91{fill:#EFCAA8;}
	.st92{fill:#EA7CB1;}
	.st93{fill:#EA7DAE;}
	.st94{fill:#BC7646;}
	.st95{fill:#00A1C6;}
	.st96{fill:#FCC230;}
	.st97{fill:#F2EBB1;}
	.st98{fill:#F9D6AF;}
	.st99{fill:#D34735;}
	.st100{fill:#E5A21A;}
	.st101{fill:#849E33;}
	.st102{fill:#EFBB14;}
	.st103{fill:#D8402B;}
	.st104{fill:#829B34;}
	.st105{fill:#F88916;}
	.st106{fill:#E27513;}
	.st107{fill:#FFB41F;}
	.st108{fill:#8AA538;}
	.st109{fill:#BE6BB2;}
	.st110{fill:#AA5BA3;}
	.st111{fill:#FFDF66;}
	.st112{fill:#F4BA00;}
	.st113{fill:#E28529;}
	.st114{fill:#FF9945;}
	.st115{fill:#BA6C45;}
	.st116{fill:#EDBA15;}
	.st117{fill:#E0452F;}
	.st118{fill:#F7F2D5;}
	.st119{fill:#4C4E51;}
	.st120{fill:#EA615D;}
	.st121{fill:#DD4A36;}
	.st122{fill:#F6AF72;}
	.st123{fill:#E8955D;}
	.st124{fill:#E4C074;}
	.st125{fill:#EAE4C3;}
	.st126{fill:#BF3522;}
	.st127{fill:#D13E33;}
	.st128{fill:#AA5EA3;}
	.st129{fill:#DD443C;}
	.st130{fill:#AA5FA3;}
	.st131{fill:#B7C536;}
	.st132{fill:#F2872F;}
	.st133{fill:#AF5FA7;}
	.st134{fill:#E29F17;}
	.st135{fill:#FFC86E;}
	.st136{fill:#A55937;}
	.st137{fill:#D8422E;}
	.st138{fill:#C3556D;}
	.st139{fill:#B24965;}
	.st140{fill:#D1A962;}
	.st141{fill:#A3961A;}
	.st142{fill:#AFA51D;}
	.st143{fill:#968A1C;}
</style>
<g>
	<g>
		<g>
			<g>
				<g>
					<path class="st51" d="M250,160.8c-3,24.4-21.8,27.6-39.9,30.8c-4.7,0.8-9.6,1.7-14.3,2.9c-0.3,0.1-0.7,0.1-1,0.1
						c-0.8,0-1.6-0.2-2.3-0.7c-1-0.7-1.6-1.7-1.7-2.9l-0.2-2.2c-1.1-11.4,7.2-15.8,14.5-19.6c2.3-1.2,4.7-2.5,6.9-4
						c5.1-3.5,6-7.5,7.8-14.6c0.8-3.3,1.7-7.1,3.3-11.6c1.3-3.8,1.9-7.9,2-13.2c0-1.6,1-3,2.4-3.6c1.5-0.6,3.1-0.3,4.3,0.7
						C241.3,131.7,252.1,144,250,160.8z"/>
				</g>
			</g>
		</g>
	</g>
	<g>
		<g>
			<g>
				<g>
					<g>
						<path class="st51" d="M183.9,62.7c-2.5,5.7-2,22.4-1.6,34.5c0.5,13.6,0.6,20.8-1,24.3c-1.3,2.8-4.8,7.3-9.2,13.1
							c-5.9,7.6-14.7,19.1-15.6,23.9c-0.9,4.9-1,12.7-1.1,19.6c-0.1,5.8-0.1,10.8-0.7,13.8c-0.7,3.7-3.3,7.2-6.1,10.9
							c-2.8,3.8-5.8,7.7-6.6,11.7c-1.2,5.7,2.4,15.8,4.8,20.8c0.8,1.6,0.3,3.6-1.1,4.8c-8.1,6.7-17.3,10-28.3,10
							c-33.7,0-56.6-19-68.1-56.4c-4.6-14.9-14.2-24.4-23.6-33.6c-10.1-10-19.7-19.5-21.5-34.4C1.1,98.3,32.6,83,55.6,71.8
							c2.2-1.1,4.3-2.1,6.2-3.1c6.9-3.4,13.7-14.2,20.8-25.6C95.4,22.9,109.7,0,133.9,0c1.8,0,3.7,0.1,5.6,0.4
							c32.3,4.7,38.6,32.5,44,57l0.6,2.8C184.4,61,184.3,61.9,183.9,62.7z"/>
					</g>
				</g>
			</g>
		</g>
	</g>
	<g>
		<g>
			<g>
				<g>
					<ellipse class="st21" cx="92.7" cy="134" rx="40" ry="40.1"/>
				</g>
			</g>
		</g>
	</g>
	<g>
		<g>
			<g>
				<g>
					<path class="st3" d="M211.9,54.8c-8.7,10.1-9.5,12.7-11.5,19.5c-0.6,2.1-1.4,4.8-2.6,8.1c-1.1,3.1-1.6,6.4-1.4,10.6
						c0,2,0.2,4,0.3,6.1c0.6,7.7,1.2,16.4-2.8,27.9c-4.1,11.7-9.9,16.8-15,21.4c-3.9,3.5-7.3,6.5-9.6,12.3
						c-2.6,6.3-1.7,11.5-0.6,17.4c1.1,6.2,2.3,13.3-1,21.5c-3.6,8.9-7.3,11.9-10.1,14.1c-2,1.6-3,2.5-3.9,5.4
						c-0.9,2.9-1,6.8-0.2,11.2c0.5,3.2,1.3,5.8,1.6,6.7c0.2,0.5,0.4,1.1,0.4,1.7c0,2.2-1.8,4-4,4h0c-0.4,0-0.9-0.1-1.3-0.2
						c-2.9-1-4.5-1.2-5.3-1.2c-0.3,0-0.5,0-0.5,0c-1.8,0.4-3.6-0.5-4.4-2.1l-0.2-0.4c-1.8-3.8-7.4-16.7-5.4-25.9
						c1.2-5.7,4.9-10.6,8.1-14.8c2.1-2.8,4.3-5.7,4.6-7.5c0.4-2.3,0.5-7.3,0.5-12.5c0.1-7.2,0.2-15.4,1.2-20.9
						c1.2-6.2,8.1-15.7,17.1-27.3c3.6-4.7,7.4-9.6,8.3-11.6c0.9-2.1,0.5-12.8,0.2-20.6c-0.5-15.1-1-30.7,2.2-38l0.2-0.4
						c3.2-6.6,6.8-8.7,9.5-10.2c2.4-1.4,3.6-2.1,4.8-6.1c2.7-9.6,1.2-17.3,1.2-17.4c-0.4-2,0.8-4,2.7-4.6c0.2-0.1,4.6-1.4,10.7-1.4
						c2.5,0,5,0.2,7.4,0.7c1.1,0.2,2.1,0.9,2.6,1.8C219.3,27.6,223,41.9,211.9,54.8z"/>
				</g>
			</g>
		</g>
	</g>
	<g>
		<g>
			<g>
				<g>
					<path class="st52" d="M215.9,111.5c-0.1,3.3,0,6.8,0.1,10.6c0.7,19.3-7.4,24-14.6,28.1c-3.6,2.1-6.8,3.9-9.1,7.7
						c-1.1,1.8-2.1,3.4-3,4.8c-5.6,9.1-7.3,11.8-6.6,22.5c0.1,1.5,0.2,3,0.3,4.3c0.2,2.7,0.4,5,0.4,7.2c0.3,7.1-0.5,12.5-5.3,19.2
						c-6.1,8.5-9.8,14.4-10.4,28.3c-0.1,1.4-0.8,2.6-2,3.3c-0.6,0.4-1.3,0.5-2,0.5c-0.6,0-1.2-0.1-1.8-0.4
						c-4.7-2.4-8.7-4.1-11.9-5.2c-1.2-0.4-2.1-1.3-2.5-2.5c-0.2-0.6-1.4-4-2.1-8.4c-0.9-5.7-0.8-10.7,0.5-14.8
						c1.6-5.2,4.2-7.4,6.6-9.2c2.4-1.9,4.9-4,7.7-10.9c2.5-6.2,1.6-11.3,0.5-17.2c-1.1-6.3-2.3-13.4,1.1-21.8
						c3.1-7.5,7.5-11.4,11.7-15.3c4.8-4.3,9.4-8.3,12.8-18c3.5-9.9,2.9-17.4,2.4-24.6c-0.1-2.1-0.3-4.3-0.4-6.5
						c-0.1-5.2,0.5-9.3,1.9-13.4c1.1-3.1,1.8-5.6,2.5-7.7c2.3-7.8,3.6-11.4,13.1-22.4c10.1-11.7,3.1-23.4,3-23.5
						c-0.4-0.6-0.6-1.4-0.6-2.1c0-1.2,0.5-2.3,1.4-3.1c0.9-0.8,2.1-1.1,3.3-0.8c3.1,0.6,6.1,1.6,8.8,3c3.4,1.7,6.3,3.2,8.9,4.6
						c1,0.6,1.8,1.6,2,2.8c0.2,1,4.3,23.7-5.5,37.8C219.8,78.9,216.3,92.3,215.9,111.5z"/>
				</g>
			</g>
		</g>
	</g>
	<g>
		<g>
			<g>
				<g>
					<path class="st3" d="M248.2,68.8c-1.3,2.2-3,4.5-4.7,6.9c-4.6,6.4-9.9,13.6-11,22.6c-0.6,5.1-0.3,10.5,0.1,16.2
						c0.2,3.7,0.5,7.5,0.5,11.3c0,6.1-0.8,11.1-2.4,15.7c-1.4,4.1-2.3,7.6-3.1,10.8c-1.8,7.5-3.4,14-11,19.3
						c-2.5,1.8-5.1,3.1-7.7,4.5c-7.3,3.9-10.8,6-10.3,11.8l0.2,2.2c1.1,11.9,1.5,23.6-5.1,36.1c-3.7,7.1-6.1,8.9-8.4,10.3
						c-0.2,0.1-0.5,0.3-0.5,0.3c0,0-0.4,0.4-1.1,2.6c-1.9,6.3-1.8,10.8-1.8,11.9c0,0.2,0.1,0.5,0.1,0.7c0,2.2-1.8,4-4,4
						c-0.3,0-0.5,0-0.8-0.1c-0.5-0.1-0.9-0.3-1.3-0.5c-0.1,0-6.6-4-13.9-7.8c-1.4-0.7-2.3-2.2-2.2-3.7c0.7-15.8,5.2-23.1,11.9-32.6
						c3.5-4.9,4-8.6,3.8-14.3c-0.1-2-0.2-4.2-0.4-6.8c-0.1-1.4-0.2-2.8-0.3-4.4c-0.9-13.3,2-17.9,7.8-27.2c0.9-1.4,1.9-3,2.9-4.7
						c3.4-5.6,7.9-8.2,11.9-10.5c6.4-3.7,11.1-6.4,10.6-20.9c-0.1-4-0.2-7.6-0.1-11c0.4-20.6,4.4-35.8,12.7-47.7
						c7.9-11.3,4.3-31.5,4.2-31.7c-0.3-1.5,0.3-3.1,1.6-4s2.9-1,4.3-0.3c10,5.5,15.5,9.7,17.8,13.5C252.5,47.6,253.4,60,248.2,68.8z
						"/>
				</g>
			</g>
		</g>
	</g>
</g>
</svg>
