<?xml version="1.0" encoding="utf-8"?>
<!-- Generator: Adobe Illustrator 22.1.0, SVG Export Plug-In . SVG Version: 6.00 Build 0)  -->
<svg version="1.1" id="Layer_1" xmlns="http://www.w3.org/2000/svg" xmlns:xlink="http://www.w3.org/1999/xlink" x="0px" y="0px"
	 viewBox="0 0 256 256" style="enable-background:new 0 0 256 256;" xml:space="preserve">
<style type="text/css">
	.st0{fill:#F6D67A;}
	.st1{fill:#E77CAE;}
	.st2{fill:#AC6535;}
	.st3{fill:#EB573B;}
	.st4{fill:#464646;}
	.st5{fill:#F5B31F;}
	.st6{fill:#9B592D;}
	.st7{fill:#9B5B2F;}
	.st8{fill:#E8A41A;}
	.st9{fill:#6D6E71;}
	.st10{fill:#E5A21C;}
	.st11{fill:#C66395;}
	.st12{fill:#E09F1E;}
	.st13{fill:#FFFFFF;}
	.st14{fill:#DDB95E;}
	.st15{fill:#EAC771;}
	.st16{fill:#F9F6CD;}
	.st17{fill:#009345;}
	.st18{fill:#008438;}
	.st19{fill:#EAA51B;}
	.st20{opacity:0.1;}
	.st21{fill:#FFD11D;}
	.st22{fill:#FFE37B;}
	.st23{fill:#FFA755;}
	.st24{fill:#FFEC97;}
	.st25{fill:#BC7532;}
	.st26{fill:#EFEFEF;}
	.st27{fill:#60ACF7;}
	.st28{fill:#876C6C;}
	.st29{fill:#1DDCFF;}
	.st30{fill:#BDF3FF;}
	.st31{fill:#EFCA70;}
	.st32{fill:#EFA91D;}
	.st33{fill:#8FAE3C;}
	.st34{fill:#92A5AC;}
	.st35{fill:#E8E3BA;}
	.st36{fill:#F79932;}
	.st37{fill:#F4F4F4;}
	.st38{fill:#FFDF8F;}
	.st39{fill:#EAE5B9;}
	.st40{fill:#7E9E6A;}
	.st41{fill:#94B57F;}
	.st42{fill:#9B5D8C;}
	.st43{fill:#96557A;}
	.st44{fill:#C3755A;}
	.st45{fill:#9BD7DD;}
	.st46{fill:#90CAD3;}
	.st47{fill:#F7F7F7;}
	.st48{fill:#AFE6EF;}
	.st49{fill:#FFFAEB;}
	.st50{fill:#F4EFC3;}
	.st51{fill:#F9F9F9;}
	.st52{fill:#FFE5C4;}
	.st53{fill:#FFB024;}
	.st54{fill:#FFC612;}
	.st55{fill:#FFCE31;}
	.st56{fill:#A05C2D;}
	.st57{fill:#1DCAF2;}
	.st58{fill:#00B0E0;}
	.st59{fill:#F2A355;}
	.st60{fill:#D68032;}
	.st61{fill:#66625D;}
	.st62{fill:#54504D;}
	.st63{fill:#B76955;}
	.st64{fill:#EFE8B4;}
	.st65{fill:#B93226;}
	.st66{fill:#EFEABF;}
	.st67{fill:#90C056;}
	.st68{opacity:0.15;}
	.st69{fill:#E8C56D;}
	.st70{fill:#F7BE4B;}
	.st71{fill:#E0A338;}
	.st72{fill:#F68455;}
	.st73{fill:#E26F47;}
	.st74{fill:#EC754B;}
	.st75{fill:#4AA5BA;}
	.st76{opacity:0.5;}
	.st77{fill:#A0B1B5;}
	.st78{opacity:0.7;}
	.st79{fill:#00ADEE;}
	.st80{fill:#F4D4B3;}
	.st81{fill:#F9D97A;}
	.st82{fill:#EDC96E;}
	.st83{fill:none;}
	.st84{fill:#AF6535;}
	.st85{fill:#F18BB4;}
	.st86{fill:#B3E4FF;}
	.st87{fill:#97DFFF;}
	.st88{fill:#D06E3C;}
	.st89{fill:#B55931;}
	.st90{fill:#DA4F4B;}
	.st91{fill:#EFCAA8;}
	.st92{fill:#EA7CB1;}
	.st93{fill:#EA7DAE;}
	.st94{fill:#BC7646;}
	.st95{fill:#00A1C6;}
	.st96{fill:#FCC230;}
	.st97{fill:#F2EBB1;}
	.st98{fill:#F9D6AF;}
	.st99{fill:#D34735;}
	.st100{fill:#E5A21A;}
	.st101{fill:#849E33;}
	.st102{fill:#EFBB14;}
	.st103{fill:#D8402B;}
	.st104{fill:#829B34;}
	.st105{fill:#F88916;}
	.st106{fill:#E27513;}
	.st107{fill:#FFB41F;}
	.st108{fill:#8AA538;}
	.st109{fill:#BE6BB2;}
	.st110{fill:#AA5BA3;}
	.st111{fill:#FFDF66;}
	.st112{fill:#F4BA00;}
	.st113{fill:#E28529;}
	.st114{fill:#FF9945;}
	.st115{fill:#BA6C45;}
	.st116{fill:#EDBA15;}
	.st117{fill:#E0452F;}
	.st118{fill:#F7F2D5;}
	.st119{fill:#4C4E51;}
	.st120{fill:#EA615D;}
	.st121{fill:#DD4A36;}
	.st122{fill:#F6AF72;}
	.st123{fill:#E8955D;}
	.st124{fill:#E4C074;}
	.st125{fill:#EAE4C3;}
	.st126{fill:#BF3522;}
	.st127{fill:#D13E33;}
	.st128{fill:#AA5EA3;}
	.st129{fill:#DD443C;}
	.st130{fill:#AA5FA3;}
	.st131{fill:#B7C536;}
	.st132{fill:#F2872F;}
	.st133{fill:#AF5FA7;}
	.st134{fill:#E29F17;}
	.st135{fill:#FFC86E;}
	.st136{fill:#A55937;}
	.st137{fill:#D8422E;}
	.st138{fill:#C3556D;}
	.st139{fill:#B24965;}
	.st140{fill:#D1A962;}
	.st141{fill:#A3961A;}
	.st142{fill:#AFA51D;}
	.st143{fill:#968A1C;}
</style>
<g>
	<g>
		<g>
			<g>
				<g>
					<path class="st15" d="M200.4,27.9c-0.6,1.8-2.4,2.9-4.2,2.6c-15.3-1.8-32.4-2-48.5-2c-50.8,0-100.4,2.9-100.4,37.8
						c0,19.2,4.3,26.8,19,33.7c0.1,0,0.2,0.1,0.2,0.1c10.9,6.1,9.6,19.5,8.5,31.3c-0.2,2.6-0.5,5.3-0.6,7.9l-0.8,16.4
						c-1.1,21.8-2.9,57.7-3.8,75.9c-0.1,2.1-1.9,3.8-4,3.8H25.9c-1.1,0-2.1-0.4-2.9-1.2c-0.8-0.8-1.1-1.9-1.1-2.9
						c0,0,4.5-89.5,5.2-103.6c0.1-2.8,0.4-5.5,0.6-8.2c1.2-12.4,1.5-20.2-4.3-23.5C5.9,87.6,0,77.3,0,55c0-19.5,12.2-32.8,36.2-39.5
						C57,9.7,84.4,9.2,108.4,9.2c30.1,0,64.1,0.9,85.4,11.2c1.8,0.8,3.5,1.8,5,2.7C200.3,24.1,201,26.1,200.4,27.9z"/>
				</g>
			</g>
		</g>
	</g>
	<g>
		<g>
			<g>
				<g>
					<path class="st0" d="M228.2,130.8c0.2,2.7,0.5,5.5,0.7,8.2c0.7,13.5,4.9,96.7,5.2,103.2c0,0.2,0,0.4,0,0.6c0,2.2-1.8,4-4,4
						c0,0,0,0,0,0h-165c-1.1,0-2.1-0.4-2.9-1.2c-0.8-0.8-1.2-1.9-1.1-2.9c0,0,0.1-1.4,0.2-3.8c0.1-1.9,0.2-4.5,0.4-7.6
						c0.9-18.1,2.7-54,3.8-75.9l0.8-16.4c0.1-2.8,0.4-5.6,0.7-8.3c1.2-12.4,1.5-20.2-4.3-23.5c-17.5-8.3-23.4-18.7-23.4-40.9
						c0-19.5,12.2-32.8,36.2-39.5c20.8-5.8,48.2-6.3,72.2-6.3c16.4,0,33.7,0.2,49.4,2.1c5.9,0.7,11.1,1.5,15.9,2.6
						c28.9,6.2,43,19.7,43,41.2c0,22.2-5.9,32.6-23.4,40.9C226.8,110.6,227.1,118.4,228.2,130.8z"/>
				</g>
			</g>
		</g>
	</g>
</g>
</svg>
