<?xml version="1.0" encoding="utf-8"?>
<!-- Generator: Adobe Illustrator 22.1.0, SVG Export Plug-In . SVG Version: 6.00 Build 0)  -->
<svg version="1.1" id="Layer_1" xmlns="http://www.w3.org/2000/svg" xmlns:xlink="http://www.w3.org/1999/xlink" x="0px" y="0px"
	 viewBox="0 0 256 256" style="enable-background:new 0 0 256 256;" xml:space="preserve">
<style type="text/css">
	.st0{fill:#F6D67A;}
	.st1{fill:#E77CAE;}
	.st2{fill:#AC6535;}
	.st3{fill:#EB573B;}
	.st4{fill:#464646;}
	.st5{fill:#F5B31F;}
	.st6{fill:#9B592D;}
	.st7{fill:#9B5B2F;}
	.st8{fill:#E8A41A;}
	.st9{fill:#6D6E71;}
	.st10{fill:#E5A21C;}
	.st11{fill:#C66395;}
	.st12{fill:#E09F1E;}
	.st13{fill:#FFFFFF;}
	.st14{fill:#DDB95E;}
	.st15{fill:#EAC771;}
	.st16{fill:#F9F6CD;}
	.st17{fill:#009345;}
	.st18{fill:#008438;}
	.st19{fill:#EAA51B;}
	.st20{opacity:0.1;}
	.st21{fill:#FFD11D;}
	.st22{fill:#FFE37B;}
	.st23{fill:#FFA755;}
	.st24{fill:#FFEC97;}
	.st25{fill:#BC7532;}
	.st26{fill:#EFEFEF;}
	.st27{fill:#60ACF7;}
	.st28{fill:#876C6C;}
	.st29{fill:#1DDCFF;}
	.st30{fill:#BDF3FF;}
	.st31{fill:#EFCA70;}
	.st32{fill:#EFA91D;}
	.st33{fill:#8FAE3C;}
	.st34{fill:#92A5AC;}
	.st35{fill:#E8E3BA;}
	.st36{fill:#F79932;}
	.st37{fill:#F4F4F4;}
	.st38{fill:#FFDF8F;}
	.st39{fill:#EAE5B9;}
	.st40{fill:#7E9E6A;}
	.st41{fill:#94B57F;}
	.st42{fill:#9B5D8C;}
	.st43{fill:#96557A;}
	.st44{fill:#C3755A;}
	.st45{fill:#9BD7DD;}
	.st46{fill:#90CAD3;}
	.st47{fill:#F7F7F7;}
	.st48{fill:#AFE6EF;}
	.st49{fill:#FFFAEB;}
	.st50{fill:#F4EFC3;}
	.st51{fill:#F9F9F9;}
	.st52{fill:#FFE5C4;}
	.st53{fill:#FFB024;}
	.st54{fill:#FFC612;}
	.st55{fill:#FFCE31;}
	.st56{fill:#A05C2D;}
	.st57{fill:#1DCAF2;}
	.st58{fill:#00B0E0;}
	.st59{fill:#F2A355;}
	.st60{fill:#D68032;}
	.st61{fill:#66625D;}
	.st62{fill:#54504D;}
	.st63{fill:#B76955;}
	.st64{fill:#EFE8B4;}
	.st65{fill:#B93226;}
	.st66{fill:#EFEABF;}
	.st67{fill:#90C056;}
	.st68{opacity:0.15;}
	.st69{fill:#E8C56D;}
	.st70{fill:#F7BE4B;}
	.st71{fill:#E0A338;}
	.st72{fill:#F68455;}
	.st73{fill:#E26F47;}
	.st74{fill:#EC754B;}
	.st75{fill:#4AA5BA;}
	.st76{opacity:0.5;}
	.st77{fill:#A0B1B5;}
	.st78{opacity:0.7;}
	.st79{fill:#00ADEE;}
	.st80{fill:#F4D4B3;}
	.st81{fill:#F9D97A;}
	.st82{fill:#EDC96E;}
	.st83{fill:none;}
	.st84{fill:#AF6535;}
	.st85{fill:#F18BB4;}
	.st86{fill:#B3E4FF;}
	.st87{fill:#97DFFF;}
	.st88{fill:#D06E3C;}
	.st89{fill:#B55931;}
	.st90{fill:#DA4F4B;}
	.st91{fill:#EFCAA8;}
	.st92{fill:#EA7CB1;}
	.st93{fill:#EA7DAE;}
	.st94{fill:#BC7646;}
	.st95{fill:#00A1C6;}
	.st96{fill:#FCC230;}
	.st97{fill:#F2EBB1;}
	.st98{fill:#F9D6AF;}
	.st99{fill:#D34735;}
	.st100{fill:#E5A21A;}
	.st101{fill:#849E33;}
	.st102{fill:#EFBB14;}
	.st103{fill:#D8402B;}
	.st104{fill:#829B34;}
	.st105{fill:#F88916;}
	.st106{fill:#E27513;}
	.st107{fill:#FFB41F;}
	.st108{fill:#8AA538;}
	.st109{fill:#BE6BB2;}
	.st110{fill:#AA5BA3;}
	.st111{fill:#FFDF66;}
	.st112{fill:#F4BA00;}
	.st113{fill:#E28529;}
	.st114{fill:#FF9945;}
	.st115{fill:#BA6C45;}
	.st116{fill:#EDBA15;}
	.st117{fill:#E0452F;}
	.st118{fill:#F7F2D5;}
	.st119{fill:#4C4E51;}
	.st120{fill:#EA615D;}
	.st121{fill:#DD4A36;}
	.st122{fill:#F6AF72;}
	.st123{fill:#E8955D;}
	.st124{fill:#E4C074;}
	.st125{fill:#EAE4C3;}
	.st126{fill:#BF3522;}
	.st127{fill:#D13E33;}
	.st128{fill:#AA5EA3;}
	.st129{fill:#DD443C;}
	.st130{fill:#AA5FA3;}
	.st131{fill:#B7C536;}
	.st132{fill:#F2872F;}
	.st133{fill:#AF5FA7;}
	.st134{fill:#E29F17;}
	.st135{fill:#FFC86E;}
	.st136{fill:#A55937;}
	.st137{fill:#D8422E;}
	.st138{fill:#C3556D;}
	.st139{fill:#B24965;}
	.st140{fill:#D1A962;}
	.st141{fill:#A3961A;}
	.st142{fill:#AFA51D;}
	.st143{fill:#968A1C;}
</style>
<g>
	<g>
		<g>
			<g>
				<g>
					<path class="st67" d="M255.1,69.5l-15.8,19.1c-0.8,0.9-1.9,1.5-3.1,1.5c-0.6,0-1.2-0.1-1.8-0.4c-1.7-0.8-2.5-2.8-2.1-4.6
						c2.2-8.8,1.5-17.4-2.1-24.1c0-0.1-0.1-0.1-0.1-0.2c-1.2-2.2-2.7-4.2-4.4-6c-5.2-5.2-12.3-7.9-20.5-7.9h-0.5
						c-1.1,0-2.1-0.4-2.9-1.1c-0.8-0.8-1.2-1.8-1.2-2.8c0-4.3-1-8.3-2.9-11.6c-0.9-1.6-2-3.1-3.3-4.4c-4.1-4.1-9.7-6.2-16.1-6.2
						c-5.7,0-11.7,1.7-17.2,4.9c-1.2,0.7-2.6,0.7-3.8,0.1c-1.2-0.6-2-1.8-2.1-3.2l-0.2-2.1c-0.1-1.3,0.4-2.6,1.4-3.5
						c19.2-15.7,23.6-15.7,25.2-15.7c0.1,0,0.3,0,0.4,0c5.9,0.4,7,5.1,7.5,7.2c0.9-0.6,2-1.5,2.8-2.1c2.9-2.3,5.7-4.4,8.7-4.4
						c1.1,0,2,0.3,2.9,0.8c3,1.8,3.8,5.7,4.8,10.2c0.3,1.4,0.7,3.4,1.2,4.7c0.9-0.5,1.9-1.2,2.8-1.8c3.8-2.5,8.5-5.6,13.3-5.6
						c2.8,0,5.3,1,7.3,3c6.2,6.2,2.8,13.4,1,17.3c-0.2,0.3-0.3,0.6-0.5,1c1.2,0,2.7-0.1,4.3-0.2c1.7-0.1,3.5-0.2,5.2-0.2
						c3.3,0,7.4,0.4,9.8,3.4c3.6,4.4,1.2,10.7-1.1,16.8c-1,2.6-2.1,5.6-2.2,7.2c-0.1,3,3.9,4.8,3.9,4.8c1.2,0.5,2,1.5,2.3,2.7
						C256.2,67.3,255.9,68.6,255.1,69.5z"/>
				</g>
			</g>
		</g>
	</g>
	<g>
		<g>
			<g>
				<g>
					<path class="st4" d="M189.3,49.9c-1.2,0-2.3-0.5-3.1-1.4c-0.2-0.3-0.5-0.6-0.9-1c-5.4-5.4-12.8-8.2-21.3-8.2
						c-1.2,0-2.5,0.1-3.7,0.2c-1.1,0.1-2.2-0.2-3-1c-0.8-0.7-1.3-1.8-1.4-2.9c-0.2-4.4-0.5-8.8-0.9-13.1c-0.2-1.6,0.6-3.1,2-3.9
						c6.8-3.9,14.1-6,21.2-6c8.5,0,16.3,3,21.8,8.6c1.8,1.8,3.4,3.9,4.7,6.1c2.6,4.6,3.9,9.8,3.9,15.5c0,2.2-1.8,4-4,4
						c-2.5,0-5,0.3-7.5,0.8c-2.1,0.4-4.3,1-6.5,1.9C190.2,49.8,189.8,49.9,189.3,49.9z M164,31.2c10.3,0,19.6,3.6,26.4,10
						c1.7-0.5,3.4-1,5.1-1.3c1.6-0.3,3.2-0.6,4.8-0.8c-0.4-2.9-1.3-5.5-2.6-7.9c-0.9-1.6-2-3.1-3.3-4.4c-4.1-4.1-9.7-6.2-16.1-6.2
						c-5,0-10.1,1.3-15,3.7c0.2,2.3,0.4,4.5,0.5,6.8C163.8,31.2,163.9,31.2,164,31.2z"/>
				</g>
			</g>
		</g>
	</g>
	<g>
		<g>
			<g>
				<g>
					<path class="st3" d="M208.6,42.9c0,2.2-1.8,4-4,4c-2.5,0-5,0.3-7.5,0.8c-2.1,0.4-4.3,1-6.5,1.9c-0.4,0.2-0.9,0.2-1.4,0.2
						c-1.1,0-2.3-0.5-3.1-1.4c-0.2-0.3-0.6-0.6-0.9-1c-5.4-5.4-12.8-8.2-21.3-8.2c-1.2,0-2.5,0.1-3.7,0.2c-1.1,0.1-2.2-0.2-3-1
						c-0.8-0.7-1.3-1.8-1.4-2.9c-0.2-4.4-0.5-8.8-0.9-13.1c-0.2-1.6,0.6-3.1,2-3.9c6.8-3.9,14.1-6,21.2-6c8.5,0,16.2,3,21.8,8.6
						c1.8,1.8,3.4,3.9,4.6,6.1C207.2,31.9,208.6,37.2,208.6,42.9z"/>
				</g>
			</g>
		</g>
	</g>
	<g>
		<g>
			<g>
				<g>
					<path class="st67" d="M182.4,12.9c-1.4-0.2-2.8-0.2-4.2-0.2c-1.1,0-2.2,0-3.3,0.2c3.5-2.3,5.5-3.3,6.4-3.6
						c0.1,0.3,0.2,0.7,0.2,1C181.8,11,182,11.9,182.4,12.9z"/>
				</g>
			</g>
		</g>
	</g>
	<g class="st68">
		<g>
			<g>
				<g>
					<polygon class="st4" points="187.7,74.2 187.4,75.8 186.6,74.6 					"/>
				</g>
			</g>
		</g>
	</g>
	<g class="st68">
		<g>
			<g>
				<g>
					<polygon class="st4" points="189.8,79.2 186.7,80.2 187.2,76.9 187.4,75.8 					"/>
				</g>
			</g>
		</g>
	</g>
	<g>
		<g>
			<g>
				<g>
					<path class="st4" d="M233.7,97.5c-0.3,0-0.6,0-0.9-0.1c-6.1-1.3-13.6-2.1-22.3-2.2c-1.3,0-2.5-0.7-3.3-1.8
						c-0.7-1.1-0.9-2.5-0.4-3.7l4.8-12.3l-13.9,4.2c-1.4,0.4-2.8,0.1-3.9-0.9c-1-1-1.5-2.4-1.2-3.8c0.8-4,1.1-7.9,0.7-11.5
						c-0.6-6.6-3.1-12.4-7.1-16.9c-0.9-1-1.2-2.3-0.9-3.6c0.3-1.3,1.3-2.3,2.5-2.8c2.6-1,5.1-1.7,7.6-2.2c3-0.6,6-1,9-1l0.6,0
						c10.2,0,19.5,3.6,26.1,10.3c2.2,2.3,4.2,4.8,5.7,7.6c0,0.1,0.1,0.2,0.1,0.2c4.7,8.6,5.7,19.3,2.9,30.2
						c-0.7,2.7-1.6,5.3-2.7,7.9C236.7,96.5,235.3,97.5,233.7,97.5z M216.4,87.3c5.4,0.3,10.4,0.8,14.8,1.6c0.4-1.2,0.8-2.5,1.1-3.7
						c2.3-8.8,1.5-17.4-2.1-24.2c0-0.1-0.1-0.1-0.1-0.2c-1.2-2.2-2.7-4.2-4.4-6c-5.2-5.2-12.3-7.9-20.5-7.9l-0.5,0
						c-2.5,0-5,0.3-7.5,0.8c-0.4,0.1-0.8,0.2-1.2,0.3c3,4.9,4.9,10.5,5.5,16.6c0.2,2.4,0.3,4.9,0.1,7.5l15.7-4.7
						c1.5-0.4,3.1,0,4.1,1.1c1,1.1,1.3,2.7,0.8,4.2L216.4,87.3z"/>
				</g>
			</g>
		</g>
	</g>
	<g>
		<g>
			<g>
				<g>
					<path class="st4" d="M155.3,99.3c-1.1,0-2.1-0.4-2.9-1.2c-0.9-0.9-1.3-2.2-1-3.5l0.1-0.3c0.1-0.8,0.3-1.6,0.4-2.4
						c0.1-0.6,0.2-1.1,0.3-1.6l0.2-1.1c0.3-1.5,1.3-2.7,2.8-3.1l62.1-18.7c1.5-0.4,3.1,0,4.1,1.1c1,1.1,1.3,2.7,0.8,4.2l-7.7,19.9
						c-0.6,1.5-2.1,2.6-3.7,2.6c0,0,0,0-0.1,0c-5.8-0.1-12,0.1-18.8,0.5c-3.8,0.2-7.8,0.5-12,0.9c-4.3,0.4-8.9,0.9-13.7,1.4
						c-3.5,0.4-6.9,0.8-10.1,1.3C155.7,99.3,155.5,99.3,155.3,99.3z M211.6,77.4l-39,11.8c2.2-0.2,4.3-0.4,6.4-0.6
						c4.3-0.4,8.4-0.7,12.3-0.9c5.9-0.3,11.4-0.5,16.6-0.5L211.6,77.4z"/>
				</g>
			</g>
		</g>
	</g>
	<g>
		<g>
			<g>
				<g>
					<path class="st4" d="M156.3,93.9c-1,0-1.9-0.3-2.6-1c-1-0.9-1.5-2.3-1.3-3.7c0.3-1.8,0.6-3.7,0.9-5.8c0.5-3.2,0.9-6.4,1.2-9.3
						c0.8-7.2,1.3-14.4,1.6-21.6c0.1-1.8,1.3-3.4,3.1-3.8c9.7-2.3,27.3-6.4,27.3-6.4c1.3-0.3,2.6,0.1,3.6,0.9c1,0.9,1.4,2.2,1.3,3.5
						l-0.1,0.4c0,0,0,0.1,0,0.1L185,83.1c-0.3,1.5-1.3,2.7-2.8,3.1l-24.8,7.5C157,93.9,156.6,93.9,156.3,93.9z M163.9,55.9
						c-0.3,6.4-0.8,12.8-1.5,19.2c-0.3,3-0.7,6.1-1.2,9.3l16.4-5l0.1-0.5l4.7-27.2C177.2,52.7,169.8,54.5,163.9,55.9z"/>
				</g>
			</g>
		</g>
	</g>
	<g>
		<g>
			<g>
				<g>
					<path class="st4" d="M181.1,86.4c-1,0-1.9-0.3-2.7-1c-1-0.9-1.5-2.3-1.3-3.7l0.5-3l4.7-27.2c-6,1.4-15.3,3.6-21.4,5
						c-1.2,0.3-2.5,0-3.5-0.8c-1-0.8-1.5-2-1.5-3.2c0.2-5.6,0.2-11.3-0.1-17c-0.1-2.1,1.5-3.9,3.6-4.1c1.5-0.1,3-0.2,4.5-0.2
						c10.6,0,20.1,3.8,27,10.6c0.4,0.4,0.9,0.9,1.4,1.4c5.1,5.7,8.3,13.1,9.1,21.4c0.4,4.5,0.1,9.2-0.8,13.9c-0.3,1.4-1.4,2.6-2.8,3
						l-15.5,4.7C181.9,86.4,181.5,86.4,181.1,86.4z M190.1,53.9l-3.9,22.9l7-2.1c0.5-3.2,0.6-6.3,0.3-9.2
						C193,61.2,191.9,57.3,190.1,53.9z M164,39.2c0.1,2.8,0.1,5.6,0.1,8.4c5.6-1.3,12-2.8,16.6-3.9C176,40.8,170.3,39.2,164,39.2z"
						/>
				</g>
			</g>
		</g>
	</g>
	<g>
		<g>
			<g>
				<g>
					<path class="st2" d="M240.1,87.1c-0.7,2.7-1.6,5.3-2.7,7.9c-0.6,1.5-2.1,2.4-3.7,2.4c-0.3,0-0.6,0-0.8-0.1
						c-6.1-1.3-13.6-2.1-22.3-2.2c-1.3,0-2.5-0.7-3.2-1.8c-0.7-1.1-0.9-2.5-0.4-3.7l4.8-12.3l-13.9,4.2c-1.4,0.4-2.8,0.1-3.9-0.9
						c-1-0.9-1.5-2.4-1.2-3.8c0.8-4,1.1-7.8,0.7-11.5c-0.6-6.6-3.1-12.4-7.1-16.9c-0.9-1-1.2-2.4-0.9-3.6c0.3-1.3,1.2-2.3,2.5-2.8
						c2.6-1,5.1-1.7,7.6-2.2c3-0.6,6-1,9-1h0.6c10.2,0,19.5,3.7,26.1,10.3c2.2,2.2,4.2,4.8,5.7,7.6c0.1,0.1,0.1,0.2,0.1,0.2
						C241.8,65.6,242.9,76.3,240.1,87.1z"/>
				</g>
			</g>
		</g>
	</g>
	<g>
		<g>
			<g>
				<g>
					<path class="st2" d="M200.5,78.6c-0.3,1.4-1.3,2.6-2.8,3l-15.5,4.7c-0.4,0.1-0.8,0.2-1.1,0.2c-1,0-1.9-0.3-2.7-1
						c-1-0.9-1.5-2.3-1.3-3.7l0.5-3l4.7-27.2c-6,1.4-15.3,3.6-21.4,5c-1.2,0.3-2.5,0-3.5-0.8c-1-0.8-1.5-2-1.5-3.2
						c0.2-5.6,0.1-11.3-0.1-17c-0.1-2.1,1.5-3.9,3.6-4.1c1.5-0.1,3-0.2,4.5-0.2c10.5,0,20.1,3.8,27,10.6c0.4,0.4,0.9,0.9,1.4,1.4
						c5.1,5.8,8.3,13.1,9.1,21.4C201.8,69.1,201.5,73.8,200.5,78.6z"/>
				</g>
			</g>
		</g>
	</g>
	<g>
		<g>
			<g>
				<g>
					<path class="st23" d="M191.2,46.9l-0.1,0.4c0,0,0,0.1,0,0.1L185,83.1c-0.3,1.5-1.3,2.7-2.8,3.2l-24.8,7.5
						c-0.4,0.1-0.8,0.2-1.2,0.2c-1,0-1.9-0.3-2.6-1c-1-0.9-1.5-2.3-1.3-3.7c0.3-1.8,0.6-3.7,0.9-5.8c0.5-3.2,0.9-6.4,1.2-9.3
						c0.8-7.2,1.4-14.4,1.6-21.6c0-1.8,1.3-3.4,3.1-3.8c9.7-2.3,27.3-6.4,27.3-6.4c1.3-0.3,2.6,0.1,3.6,1
						C191,44.2,191.4,45.6,191.2,46.9z"/>
				</g>
			</g>
		</g>
	</g>
	<g>
		<g>
			<g>
				<g>
					<path class="st23" d="M222.1,72.6l-7.7,19.9c-0.6,1.5-2.1,2.6-3.7,2.6c0,0,0,0-0.1,0c-5.8-0.1-12,0.1-18.8,0.5
						c-3.8,0.2-7.9,0.5-12,0.9c-4.3,0.4-8.9,0.9-13.7,1.4c-3.5,0.4-6.9,0.8-10.1,1.3c-0.2,0-0.4,0-0.5,0c-1.1,0-2.1-0.4-2.9-1.2
						c-0.9-0.9-1.3-2.2-1.1-3.5l0.1-0.4c0.1-0.8,0.3-1.6,0.4-2.3c0.1-0.6,0.2-1.1,0.3-1.6l0.2-1.1c0.3-1.5,1.3-2.7,2.8-3.1
						l62.1-18.7c1.5-0.4,3.1,0,4.1,1.1C222.3,69.6,222.6,71.2,222.1,72.6z"/>
				</g>
			</g>
		</g>
	</g>
	<g>
		<g>
			<g>
				<g>
					<path class="st0" d="M164,52.8c-0.2,7.4-0.8,14.9-1.6,22.2c-0.3,3.1-0.8,6.3-1.2,9.6c-0.3,2.1-0.6,4.1-0.9,6l-0.2,1
						c-0.1,0.5-0.2,1.1-0.3,1.6c-0.1,0.7-0.3,1.5-0.4,2.4l-0.1,0.3c-0.3,1.7-1.6,2.9-3.2,3.2c-33.2,6-71.1,21.4-119.5,48.3
						c-0.6,0.3-1.3,0.5-1.9,0.5c-1.2,0-2.4-0.6-3.2-1.6c-1.2-1.6-1-3.8,0.4-5.2L156,17.1c1.1-1.1,2.7-1.5,4.2-0.9
						c1.5,0.5,2.5,1.9,2.6,3.4l0.2,2.1c0.4,4.4,0.8,9,0.9,13.5C164.1,41.1,164.2,47,164,52.8z"/>
				</g>
			</g>
		</g>
	</g>
	<g>
		<g>
			<g>
				<g>
					<path class="st0" d="M233.7,93.5c0,0-139,138.9-147.7,147.5c-8.7,8.7-24.8,13.8-32.7,5.9L9.9,203.5c-9-9-7.8-27,4.4-39.2
						L34.6,144c42.3-23.6,83.1-41.9,120.7-48.7c3.5-0.5,6.9-0.9,10.2-1.3c4.7-0.6,9.4-1.1,13.8-1.5c4.2-0.4,8.2-0.7,12.1-0.9
						c6.7-0.4,13.1-0.6,19.1-0.5C219.3,91.3,227.1,92,233.7,93.5z"/>
				</g>
			</g>
		</g>
	</g>
	<g>
		<g>
			<g>
				<g>
					<path class="st69" d="M63.9,254.8c-5.4,0-10-1.8-13.3-5.1L7.1,206.3C2.5,201.8,0,195.2,0,187.9c0-9.5,4.2-19.2,11.5-26.5
						l20.3-20.3c0.3-0.3,0.6-0.5,0.9-0.7c49.1-27.4,87.9-43,121.9-49.2c0.1,0,0.1,0,0.2,0c3.3-0.4,6.7-0.9,10.3-1.3
						c4.9-0.6,9.6-1.1,14-1.5c4.3-0.4,8.4-0.7,12.3-0.9c7-0.4,13.4-0.6,19.4-0.5c9.2,0.2,17.3,1,23.9,2.4c1.4,0.3,2.6,1.4,3,2.8
						c0.4,1.4,0,2.9-1,4c0,0-139,138.9-147.7,147.5C82.2,250.5,72.4,254.8,63.9,254.8z M37,147.2l-19.9,19.9
						c-5.8,5.8-9.2,13.4-9.2,20.8c0,5.2,1.7,9.7,4.7,12.7l43.5,43.4c1.8,1.8,4.4,2.7,7.7,2.7c6.3,0,14.3-3.6,19.4-8.7
						c7.6-7.6,116.3-116.2,142.2-142c-4.5-0.6-9.4-0.9-14.8-1c-5.8-0.1-12,0.1-18.8,0.5c-3.8,0.2-7.8,0.5-12,0.9
						c-4.3,0.4-8.9,0.9-13.7,1.4c-3.5,0.4-6.8,0.8-10.1,1.3C122.9,105.2,85.1,120.5,37,147.2z"/>
				</g>
			</g>
		</g>
	</g>
</g>
</svg>
