<?xml version="1.0" encoding="utf-8"?>
<!-- Generator: Adobe Illustrator 22.1.0, SVG Export Plug-In . SVG Version: 6.00 Build 0)  -->
<svg version="1.1" id="Layer_1" xmlns="http://www.w3.org/2000/svg" xmlns:xlink="http://www.w3.org/1999/xlink" x="0px" y="0px"
	 viewBox="0 0 256 256" style="enable-background:new 0 0 256 256;" xml:space="preserve">
<style type="text/css">
	.st0{fill:#F6D67A;}
	.st1{fill:#E77CAE;}
	.st2{fill:#AC6535;}
	.st3{fill:#EB573B;}
	.st4{fill:#464646;}
	.st5{fill:#F5B31F;}
	.st6{fill:#9B592D;}
	.st7{fill:#9B5B2F;}
	.st8{fill:#E8A41A;}
	.st9{fill:#6D6E71;}
	.st10{fill:#E5A21C;}
	.st11{fill:#C66395;}
	.st12{fill:#E09F1E;}
	.st13{fill:#FFFFFF;}
	.st14{fill:#DDB95E;}
	.st15{fill:#EAC771;}
	.st16{fill:#F9F6CD;}
	.st17{fill:#009345;}
	.st18{fill:#008438;}
	.st19{fill:#EAA51B;}
	.st20{opacity:0.1;}
	.st21{fill:#FFD11D;}
	.st22{fill:#FFE37B;}
	.st23{fill:#FFA755;}
	.st24{fill:#FFEC97;}
	.st25{fill:#BC7532;}
	.st26{fill:#EFEFEF;}
	.st27{fill:#60ACF7;}
	.st28{fill:#876C6C;}
	.st29{fill:#1DDCFF;}
	.st30{fill:#BDF3FF;}
	.st31{fill:#EFCA70;}
	.st32{fill:#EFA91D;}
	.st33{fill:#8FAE3C;}
	.st34{fill:#92A5AC;}
	.st35{fill:#E8E3BA;}
	.st36{fill:#F79932;}
	.st37{fill:#F4F4F4;}
	.st38{fill:#FFDF8F;}
	.st39{fill:#EAE5B9;}
	.st40{fill:#7E9E6A;}
	.st41{fill:#94B57F;}
	.st42{fill:#9B5D8C;}
	.st43{fill:#96557A;}
	.st44{fill:#C3755A;}
	.st45{fill:#9BD7DD;}
	.st46{fill:#90CAD3;}
	.st47{fill:#F7F7F7;}
	.st48{fill:#AFE6EF;}
	.st49{fill:#FFFAEB;}
	.st50{fill:#F4EFC3;}
	.st51{fill:#F9F9F9;}
	.st52{fill:#FFE5C4;}
	.st53{fill:#FFB024;}
	.st54{fill:#FFC612;}
	.st55{fill:#FFCE31;}
	.st56{fill:#A05C2D;}
	.st57{fill:#1DCAF2;}
	.st58{fill:#00B0E0;}
	.st59{fill:#F2A355;}
	.st60{fill:#D68032;}
	.st61{fill:#66625D;}
	.st62{fill:#54504D;}
	.st63{fill:#B76955;}
	.st64{fill:#EFE8B4;}
	.st65{fill:#B93226;}
	.st66{fill:#EFEABF;}
	.st67{fill:#90C056;}
	.st68{opacity:0.15;}
	.st69{fill:#E8C56D;}
	.st70{fill:#F7BE4B;}
	.st71{fill:#E0A338;}
	.st72{fill:#F68455;}
	.st73{fill:#E26F47;}
	.st74{fill:#EC754B;}
	.st75{fill:#4AA5BA;}
	.st76{opacity:0.5;}
	.st77{fill:#A0B1B5;}
	.st78{opacity:0.7;}
	.st79{fill:#00ADEE;}
	.st80{fill:#F4D4B3;}
	.st81{fill:#F9D97A;}
	.st82{fill:#EDC96E;}
	.st83{fill:none;}
	.st84{fill:#AF6535;}
	.st85{fill:#F18BB4;}
	.st86{fill:#B3E4FF;}
	.st87{fill:#97DFFF;}
	.st88{fill:#D06E3C;}
	.st89{fill:#B55931;}
	.st90{fill:#DA4F4B;}
	.st91{fill:#EFCAA8;}
	.st92{fill:#EA7CB1;}
	.st93{fill:#EA7DAE;}
	.st94{fill:#BC7646;}
	.st95{fill:#00A1C6;}
	.st96{fill:#FCC230;}
	.st97{fill:#F2EBB1;}
	.st98{fill:#F9D6AF;}
	.st99{fill:#D34735;}
	.st100{fill:#E5A21A;}
	.st101{fill:#849E33;}
	.st102{fill:#EFBB14;}
	.st103{fill:#D8402B;}
	.st104{fill:#829B34;}
	.st105{fill:#F88916;}
	.st106{fill:#E27513;}
	.st107{fill:#FFB41F;}
	.st108{fill:#8AA538;}
	.st109{fill:#BE6BB2;}
	.st110{fill:#AA5BA3;}
	.st111{fill:#FFDF66;}
	.st112{fill:#F4BA00;}
	.st113{fill:#E28529;}
	.st114{fill:#FF9945;}
	.st115{fill:#BA6C45;}
	.st116{fill:#EDBA15;}
	.st117{fill:#E0452F;}
	.st118{fill:#F7F2D5;}
	.st119{fill:#4C4E51;}
	.st120{fill:#EA615D;}
	.st121{fill:#DD4A36;}
	.st122{fill:#F6AF72;}
	.st123{fill:#E8955D;}
	.st124{fill:#E4C074;}
	.st125{fill:#EAE4C3;}
	.st126{fill:#BF3522;}
	.st127{fill:#D13E33;}
	.st128{fill:#AA5EA3;}
	.st129{fill:#DD443C;}
	.st130{fill:#AA5FA3;}
	.st131{fill:#B7C536;}
	.st132{fill:#F2872F;}
	.st133{fill:#AF5FA7;}
	.st134{fill:#E29F17;}
	.st135{fill:#FFC86E;}
	.st136{fill:#A55937;}
	.st137{fill:#D8422E;}
	.st138{fill:#C3556D;}
	.st139{fill:#B24965;}
	.st140{fill:#D1A962;}
	.st141{fill:#A3961A;}
	.st142{fill:#AFA51D;}
	.st143{fill:#968A1C;}
</style>
<g>
	<g>
		<g>
			<g>
				<g>
					<path class="st131" d="M252,128c0,34.2-14.6,65.1-38.1,86.9c-22.3,7.4-59.3,1.7-75.9-21.2c13.3-4.3,22.6-11.2,27.9-20.8
						c46.7-5.8,73.2-36.4,72.1-100.6C247,89,252,107.9,252,128z"/>
				</g>
			</g>
		</g>
	</g>
	<g>
		<g>
			<g>
				<g>
					<path class="st104" d="M193.3,222c-19.2,0-44.7-6.8-58.5-25.9c-0.8-1-1-2.4-0.6-3.6c0.4-1.2,1.4-2.2,2.6-2.6
						c12.2-3.9,20.8-10.3,25.6-18.9c0.6-1.1,1.7-1.9,3-2c47.2-5.9,69.6-37.5,68.6-96.5c0-1.8,1.2-3.5,3-3.9c1.8-0.5,3.7,0.4,4.5,2
						C251,88.1,256,108,256,128c0,34.3-14,66.2-39.3,89.9c-0.4,0.4-0.9,0.7-1.5,0.9C208.8,220.9,201.2,222,193.3,222z M144.7,195.6
						c12.6,13.5,32.8,18.4,48.5,18.4c6.7,0,13.2-0.9,18.6-2.6c23.3-22,36.1-51.6,36.1-83.4c0-12.8-2.2-25.6-6.4-37.6
						c-3.7,51-28.3,80-73.2,86.3C163.3,184.9,155.4,191.2,144.7,195.6z"/>
				</g>
			</g>
		</g>
	</g>
	<g>
		<g>
			<g>
				<g>
					<path class="st104" d="M177.3,220.4c-1.4,0-2.7-0.7-3.5-2c-1.1-1.9-0.4-4.4,1.5-5.5c0.4-0.2,28.8-16.8,33.2-38
						c0.5-2.2,2.6-3.6,4.7-3.1c2.2,0.5,3.6,2.6,3.1,4.7c-5.2,24.8-35.8,42.5-37.1,43.3C178.6,220.3,178,220.4,177.3,220.4z"/>
				</g>
			</g>
		</g>
	</g>
	<g>
		<g>
			<g>
				<g>
					<path class="st131" d="M166,173c-9.1-7.3-21.6-32.4,0-53.4c33.1-32.3,5.8-85.8-17.1-110.1c38.8,6,71.6,30,89.2,62.9
						C239.2,136.6,212.7,167.1,166,173z"/>
				</g>
			</g>
		</g>
	</g>
	<g>
		<g>
			<g>
				<g>
					<path class="st104" d="M166,177c-0.9,0-1.8-0.3-2.5-0.9c-6-4.8-12.8-15.8-13.4-28.4c-0.5-11.4,4-22.1,13.1-31
						c32-31.2,2.2-83.9-17.2-104.5c-1.2-1.2-1.4-3.1-0.6-4.6c0.8-1.5,2.5-2.3,4.2-2.1c39.2,6.1,73.6,30.4,92.1,65
						c0.3,0.6,0.5,1.2,0.5,1.8c1.1,63-24.3,98.2-75.6,104.6C166.3,177,166.1,177,166,177z M159.4,15.7c9,11.6,18.2,27.6,22.9,44.8
						c6.8,25.2,2.2,46.6-13.5,61.9c-7.5,7.3-11.1,15.7-10.7,24.9c0.5,9.7,5.4,17.7,9.2,21.4c45.7-6.4,67.6-37.6,66.8-95.3
						C218.5,44.8,191.1,23.8,159.4,15.7z"/>
				</g>
			</g>
		</g>
	</g>
	<g>
		<g>
			<g>
				<g>
					<path class="st104" d="M199.4,137.9c-1,0-2-0.4-2.7-1.1c-1.6-1.5-1.7-4-0.2-5.7c12.5-13.4,18.1-28.7,20.2-42.6
						c-5.6,9.9-14.9,20.8-30.3,31.5c-1.8,1.3-4.3,0.8-5.6-1c-1.3-1.8-0.8-4.3,1-5.6c31.3-21.6,35.5-43.5,34.7-56.2
						c-1-6.7-2.3-10.9-2.4-11c-0.6-2,0.4-4.2,2.4-5c2-0.8,4.2,0.2,5.1,2.1c0.1,0.3,1.8,4.2,2.6,10.7c3.1,17.4,5.2,53.6-21.9,82.5
						C201.5,137.4,200.5,137.9,199.4,137.9z"/>
				</g>
			</g>
		</g>
	</g>
	<g>
		<g>
			<g>
				<g>
					<path class="st131" d="M166,119.6c-21.6,21-9.1,46.1,0,53.4c-5.3,9.6-14.6,16.5-27.9,20.8c-5.3-7.3-8.5-16.3-8.5-27.2
						c0-45.1,11.2-64.5,0-63.6c-37.4,3.2-40-8.3-51.1-36.2C73,53,65,39.8,53.3,34.2C74.2,17.8,100.7,8,129.6,8
						c6.6,0,13,0.5,19.3,1.5C171.8,33.8,199.1,87.3,166,119.6z"/>
				</g>
			</g>
		</g>
	</g>
	<g>
		<g>
			<g>
				<g>
					<path class="st104" d="M138.1,197.8c-1.3,0-2.5-0.6-3.2-1.7c-6.1-8.4-9.2-18.4-9.2-29.5c0-19.8,2.1-34.4,3.6-45.1
						c0.9-6.2,1.8-12.5,1.2-14.5c-0.1,0-0.3,0-0.5,0c-4.2,0.4-7.9,0.5-11.3,0.5c-28.4,0-33.3-12.6-42.3-35.3c-0.5-1.3-1-2.6-1.6-3.9
						c-6.3-15.9-14.1-26.1-23.2-30.5c-1.2-0.6-2.1-1.8-2.3-3.2c-0.2-1.4,0.4-2.7,1.5-3.6c22.6-17.7,49.8-27,78.8-27
						c6.7,0,13.3,0.5,19.9,1.5c0.9,0.1,1.7,0.6,2.3,1.2c10.8,11.5,24.5,31.6,30.5,53.8c6.8,25.2,2.2,46.6-13.5,61.9
						c-7.5,7.3-11.1,15.7-10.7,24.9c0.5,10.8,6.5,19.4,10.4,22.5c1.5,1.2,1.9,3.4,1,5.1c-5.8,10.5-16,18.1-30.2,22.7
						C138.9,197.7,138.5,197.8,138.1,197.8z M130.3,99c3.2,0,5.1,1.4,6.1,2.5c3.2,3.7,2.4,9.5,0.7,21.1c-1.5,10.4-3.5,24.8-3.5,44
						c0,8.3,2,15.9,6.1,22.4c9.5-3.5,16.6-8.7,21.2-15.3c-5.2-5.6-10.3-15.2-10.8-26c-0.5-11.4,4-22.1,13.1-31
						c31.5-30.7,3.1-82.2-16.3-103.5c-5.7-0.8-11.5-1.2-17.3-1.2c-25.2,0-49,7.5-69.2,21.8C69,40,76.3,50.5,82.2,65.3
						c0.5,1.4,1.1,2.7,1.6,4c8.7,22,12,30.3,34.9,30.3c3.2,0,6.6-0.2,10.6-0.5C129.6,99,130,99,130.3,99z"/>
				</g>
			</g>
		</g>
	</g>
	<g>
		<g>
			<g>
				<g>
					<path class="st104" d="M71.6,56.7c-0.6,0-1.1-0.1-1.7-0.4c-2-0.9-2.9-3.3-1.9-5.3c4.9-10.5,12.8-18.3,23.4-23.3
						c2-0.9,4.4-0.1,5.3,2c0.9,2,0.1,4.4-2,5.3c-9,4.2-15.4,10.5-19.5,19.4C74.6,55.8,73.1,56.7,71.6,56.7z"/>
				</g>
			</g>
		</g>
	</g>
	<g>
		<g>
			<g>
				<g>
					<path class="st104" d="M86.5,89.9c-0.6,0-1.3-0.1-1.9-0.5c-2-1-2.7-3.4-1.7-5.4c18.8-35.8,55.1-45.5,56.6-45.9
						c2.1-0.6,4.3,0.7,4.9,2.9c0.5,2.1-0.7,4.3-2.9,4.9c-0.4,0.1-34.4,9.3-51.5,41.8C89.3,89.1,87.9,89.9,86.5,89.9z"/>
				</g>
			</g>
		</g>
	</g>
	<g>
		<g>
			<g>
				<g>
					<path class="st104" d="M92.7,99.1c-2.2,0-3.9-1.7-4-3.9c-0.1-2.2,1.7-4,3.9-4.1c31.9-0.9,45.8-8.6,46-8.7
						c1.9-1.1,4.4-0.4,5.5,1.5c1.1,1.9,0.5,4.3-1.4,5.5c-0.6,0.4-15.5,8.9-49.8,9.8C92.7,99.1,92.7,99.1,92.7,99.1z"/>
				</g>
			</g>
		</g>
	</g>
	<g>
		<g>
			<g>
				<g>
					<path class="st131" d="M213.9,214.9c-22,20.5-51.7,33-84.4,33C62,248,7.2,194.3,7.2,128c0-6.3,0.5-12.4,1.4-18.4c0,0,0,0,0,0
						C10.9,95.4,23,81.9,22.4,70C21.8,58,14.6,55.4,4,48.4c21.3-17.7,37.2-19.9,49.3-14.2C65,39.8,73,53,78.5,66.8
						c11.1,28,13.7,39.4,51.1,36.2c11.2-1,0,18.4,0,63.6c0,10.9,3.2,19.9,8.5,27.2C154.6,216.7,191.7,222.3,213.9,214.9z"/>
				</g>
			</g>
		</g>
	</g>
	<g>
		<g>
			<g>
				<g>
					<path class="st104" d="M129.6,252C59.9,252,3.2,196.4,3.2,128c0-6.4,0.5-12.8,1.5-19c0-0.1,0-0.2,0-0.3c1.2-7,4.4-13.6,7.5-20
						c3.3-6.8,6.5-13.1,6.2-18.5C18,62.1,14.1,59.6,6.3,54.6c-1.4-0.9-2.9-1.9-4.5-2.9C0.7,51,0.1,49.9,0,48.6
						c-0.1-1.3,0.5-2.5,1.4-3.3c14.3-11.9,27.5-17.9,39.3-17.9c5,0,9.8,1.1,14.3,3.2c10.9,5.2,20.1,16.9,27.2,34.7
						c0.5,1.4,1.1,2.7,1.6,3.9c8.7,22,12,30.3,34.9,30.3c3.2,0,6.6-0.2,10.6-0.5c3.9-0.3,6.1,1.2,7.2,2.5c3.2,3.7,2.4,9.5,0.7,21.1
						c-1.5,10.4-3.5,24.8-3.5,44c0,9.4,2.6,17.8,7.7,24.8c12,16.6,34.7,22.6,52,22.6c0,0,0,0,0,0c7.1,0,13.8-1,19.4-2.8
						c1.8-0.6,3.7,0.1,4.7,1.8c1,1.6,0.7,3.7-0.7,5C193.1,239.9,162.1,252,129.6,252z M12.5,110.4c-0.9,5.8-1.3,11.7-1.3,17.6
						c0,64,53.1,116,118.4,116c25.3,0,49.6-7.8,69.7-22.2c-2,0.1-4,0.2-6,0.2c0,0,0,0,0,0c-19.2,0-44.7-6.8-58.5-25.9
						c-6.1-8.4-9.2-18.4-9.2-29.5c0-19.8,2.1-34.4,3.6-45.1c0.8-5.9,1.8-12.5,1.2-14.5c-0.1,0-0.3,0-0.5,0
						c-4.2,0.4-7.9,0.5-11.3,0.5c-28.4,0-33.3-12.6-42.3-35.3c-0.5-1.3-1-2.6-1.6-3.9c-6.3-15.9-14.1-26.1-23.2-30.5
						c-3.4-1.6-7-2.4-10.8-2.4C32,35.4,22,39.6,10.8,48c8.4,5.3,15,9.6,15.6,21.8c0.4,7.5-3.2,14.8-7,22.5c-2.9,5.9-5.9,12-6.8,17.9
						C12.6,110.3,12.6,110.3,12.5,110.4z"/>
				</g>
			</g>
		</g>
	</g>
	<g>
		<g>
			<g>
				<g>
					<path class="st104" d="M72.6,238.2c-1.4,0-2.8-0.8-3.5-2.1C38.4,178.4,27.9,129.3,38,90.2c0.6-2.1,2.7-3.4,4.9-2.9
						c2.1,0.6,3.4,2.7,2.9,4.9c-9.5,37.1,0.7,84.2,30.4,140.1c1,2,0.3,4.4-1.7,5.4C73.8,238,73.2,238.2,72.6,238.2z"/>
				</g>
			</g>
		</g>
	</g>
	<g>
		<g>
			<g>
				<g>
					<path class="st104" d="M40.2,149.2c-1.5,0-3-0.9-3.6-2.3C31.1,135,25.3,126.6,19,121.2c-1.7-1.4-1.9-4-0.4-5.6
						c1.4-1.7,4-1.9,5.6-0.4c7.2,6.2,13.6,15.5,19.6,28.4c0.9,2,0.1,4.4-1.9,5.3C41.3,149.1,40.8,149.2,40.2,149.2z"/>
				</g>
			</g>
		</g>
	</g>
	<g>
		<g>
			<g>
				<g>
					<path class="st104" d="M113.5,251c-1.5,0-2.9-0.8-3.6-2.2c-0.8-1.6-19.8-39.7-27-69.4c-2.5-10.4-6.2-16.1-9.8-21.5
						c-6.5-9.8-12.5-19.1-10.8-50.2c0.1-2.2,2-3.9,4.2-3.8c2.2,0.1,3.9,2,3.8,4.2c-1.6,28.5,3.6,36.3,9.5,45.4
						c3.8,5.7,8,12.2,10.9,24c7,28.8,26.2,67.3,26.4,67.7c1,2,0.2,4.4-1.8,5.4C114.7,250.8,114.1,251,113.5,251z"/>
				</g>
			</g>
		</g>
	</g>
	<g>
		<g>
			<g>
				<g>
					<path class="st104" d="M78.3,162.6c-0.8,0-1.5-0.2-2.2-0.7c-1.8-1.2-2.3-3.7-1.1-5.5c7.1-10.7,15.8-20.1,25.8-27.9
						c1.7-1.4,4.3-1.1,5.6,0.7c1.4,1.7,1.1,4.3-0.7,5.6c-9.3,7.3-17.4,16.1-24,26C80.9,162,79.6,162.6,78.3,162.6z"/>
				</g>
			</g>
		</g>
	</g>
	<g>
		<g>
			<g>
				<g>
					<path class="st104" d="M86.7,182.4c-1.9,0-3.7-1.4-4-3.4c-0.3-2.2,1.2-4.2,3.4-4.5c10.6-1.6,17.9-6.1,22.2-13.7
						c1.1-1.9,3.5-2.6,5.4-1.5c1.9,1.1,2.6,3.5,1.5,5.4c-5.5,9.8-14.9,15.8-28,17.7C87.1,182.4,86.9,182.4,86.7,182.4z"/>
				</g>
			</g>
		</g>
	</g>
</g>
</svg>
