<?xml version="1.0" encoding="utf-8"?>
<!-- Generator: Adobe Illustrator 22.1.0, SVG Export Plug-In . SVG Version: 6.00 Build 0)  -->
<svg version="1.1" id="Layer_1" xmlns="http://www.w3.org/2000/svg" xmlns:xlink="http://www.w3.org/1999/xlink" x="0px" y="0px"
	 viewBox="0 0 256 256" style="enable-background:new 0 0 256 256;" xml:space="preserve">
<style type="text/css">
	.st0{fill:#F6D67A;}
	.st1{fill:#E77CAE;}
	.st2{fill:#AC6535;}
	.st3{fill:#EB573B;}
	.st4{fill:#464646;}
	.st5{fill:#F5B31F;}
	.st6{fill:#9B592D;}
	.st7{fill:#9B5B2F;}
	.st8{fill:#E8A41A;}
	.st9{fill:#6D6E71;}
	.st10{fill:#E5A21C;}
	.st11{fill:#C66395;}
	.st12{fill:#E09F1E;}
	.st13{fill:#FFFFFF;}
	.st14{fill:#DDB95E;}
	.st15{fill:#EAC771;}
	.st16{fill:#F9F6CD;}
	.st17{fill:#009345;}
	.st18{fill:#008438;}
	.st19{fill:#EAA51B;}
	.st20{opacity:0.1;}
	.st21{fill:#FFD11D;}
	.st22{fill:#FFE37B;}
	.st23{fill:#FFA755;}
	.st24{fill:#FFEC97;}
	.st25{fill:#BC7532;}
	.st26{fill:#EFEFEF;}
	.st27{fill:#60ACF7;}
	.st28{fill:#876C6C;}
	.st29{fill:#1DDCFF;}
	.st30{fill:#BDF3FF;}
	.st31{fill:#EFCA70;}
	.st32{fill:#EFA91D;}
	.st33{fill:#8FAE3C;}
	.st34{fill:#92A5AC;}
	.st35{fill:#E8E3BA;}
	.st36{fill:#F79932;}
	.st37{fill:#F4F4F4;}
	.st38{fill:#FFDF8F;}
	.st39{fill:#EAE5B9;}
	.st40{fill:#7E9E6A;}
	.st41{fill:#94B57F;}
	.st42{fill:#9B5D8C;}
	.st43{fill:#96557A;}
	.st44{fill:#C3755A;}
	.st45{fill:#9BD7DD;}
	.st46{fill:#90CAD3;}
	.st47{fill:#F7F7F7;}
	.st48{fill:#AFE6EF;}
	.st49{fill:#FFFAEB;}
	.st50{fill:#F4EFC3;}
	.st51{fill:#F9F9F9;}
	.st52{fill:#FFE5C4;}
	.st53{fill:#FFB024;}
	.st54{fill:#FFC612;}
	.st55{fill:#FFCE31;}
	.st56{fill:#A05C2D;}
	.st57{fill:#1DCAF2;}
	.st58{fill:#00B0E0;}
	.st59{fill:#F2A355;}
	.st60{fill:#D68032;}
	.st61{fill:#66625D;}
	.st62{fill:#54504D;}
	.st63{fill:#B76955;}
	.st64{fill:#EFE8B4;}
	.st65{fill:#B93226;}
	.st66{fill:#EFEABF;}
	.st67{fill:#90C056;}
	.st68{opacity:0.15;}
	.st69{fill:#E8C56D;}
	.st70{fill:#F7BE4B;}
	.st71{fill:#E0A338;}
	.st72{fill:#F68455;}
	.st73{fill:#E26F47;}
	.st74{fill:#EC754B;}
	.st75{fill:#4AA5BA;}
	.st76{opacity:0.5;}
	.st77{fill:#A0B1B5;}
	.st78{opacity:0.7;}
	.st79{fill:#00ADEE;}
	.st80{fill:#F4D4B3;}
	.st81{fill:#F9D97A;}
	.st82{fill:#EDC96E;}
	.st83{fill:none;}
	.st84{fill:#AF6535;}
	.st85{fill:#F18BB4;}
	.st86{fill:#B3E4FF;}
	.st87{fill:#97DFFF;}
	.st88{fill:#D06E3C;}
	.st89{fill:#B55931;}
	.st90{fill:#DA4F4B;}
	.st91{fill:#EFCAA8;}
	.st92{fill:#EA7CB1;}
	.st93{fill:#EA7DAE;}
	.st94{fill:#BC7646;}
	.st95{fill:#00A1C6;}
	.st96{fill:#FCC230;}
	.st97{fill:#F2EBB1;}
	.st98{fill:#F9D6AF;}
	.st99{fill:#D34735;}
	.st100{fill:#E5A21A;}
	.st101{fill:#849E33;}
	.st102{fill:#EFBB14;}
	.st103{fill:#D8402B;}
	.st104{fill:#829B34;}
	.st105{fill:#F88916;}
	.st106{fill:#E27513;}
	.st107{fill:#FFB41F;}
	.st108{fill:#8AA538;}
	.st109{fill:#BE6BB2;}
	.st110{fill:#AA5BA3;}
	.st111{fill:#FFDF66;}
	.st112{fill:#F4BA00;}
	.st113{fill:#E28529;}
	.st114{fill:#FF9945;}
	.st115{fill:#BA6C45;}
	.st116{fill:#EDBA15;}
	.st117{fill:#E0452F;}
	.st118{fill:#F7F2D5;}
	.st119{fill:#4C4E51;}
	.st120{fill:#EA615D;}
	.st121{fill:#DD4A36;}
	.st122{fill:#F6AF72;}
	.st123{fill:#E8955D;}
	.st124{fill:#E4C074;}
	.st125{fill:#EAE4C3;}
	.st126{fill:#BF3522;}
	.st127{fill:#D13E33;}
	.st128{fill:#AA5EA3;}
	.st129{fill:#DD443C;}
	.st130{fill:#AA5FA3;}
	.st131{fill:#B7C536;}
	.st132{fill:#F2872F;}
	.st133{fill:#AF5FA7;}
	.st134{fill:#E29F17;}
	.st135{fill:#FFC86E;}
	.st136{fill:#A55937;}
	.st137{fill:#D8422E;}
	.st138{fill:#C3556D;}
	.st139{fill:#B24965;}
	.st140{fill:#D1A962;}
	.st141{fill:#A3961A;}
	.st142{fill:#AFA51D;}
	.st143{fill:#968A1C;}
</style>
<g>
	<g>
		<g>
			<g>
				<g>
					<path class="st104" d="M222.5,138.4c-2.9,0-5.6-1.3-7.5-3.7c-2-2.4-3-5.8-3-9.6c-3.9-0.2-5.8-2.1-6.7-3.6
						c-1.2-2.2-1.1-4.7-0.4-7.2c-2.6-0.3-6.2-1.2-7.8-4.5c-1.7-3.4-0.4-7.1,1.5-10.3c-3.9-2.5-8.4-3.8-13.6-3.8
						c-6.8,0-15,2.2-24.3,6.5c-1.8,0.8-4,0.2-5.1-1.5c-1.1-1.7-0.7-3.9,0.8-5.2c12.4-10.3,26.4-15.5,41.6-15.5
						c6.4,0,13.1,0.9,20,2.7c2.1-2.2,5-3.5,8.4-3.5c5,0,10,2.7,12.6,6.6c0.6,0.9,1,1.8,1.3,2.7c0.2,0,0.4,0,0.6,0
						c4.3,0,8.3,2.8,10,7c0.9,2.2,1,4.4,0.4,6.5c2.9,2,4.7,5.7,4.7,10c0,5-2.4,9-6,10.8c0.4,3.9-0.5,7.3-2.5,9.9
						c-1.9,2.5-4.7,3.9-7.7,3.9c-2.6,0-5.5-1.1-8-3.7C229.1,136.9,225.4,138.4,222.5,138.4z M216.4,116.7c1.1,0,2.1,0.4,2.8,1.2
						c0.9,0.9,1.3,2.3,1.1,3.6c-1.1,5.3,0.4,7.6,0.8,8.2c0.4,0.5,0.8,0.7,1.3,0.7c1.3,0,3.8-2,4.9-7.5c0.4-1.8,1.9-3.1,3.8-3.2
						c1.9,0,3.5,1.2,4,2.9c1.1,4.1,3.2,6,4.7,6c0.5,0,1-0.3,1.4-0.8c1-1.4,1.2-4,0.4-7c-0.3-1.2-0.1-2.5,0.7-3.5
						c0.8-1,1.9-1.6,3.2-1.6c2.6,0,2.6-3.5,2.6-3.9c0-0.4-0.1-3.9-2.6-3.9c-1.6,0-3.1-1-3.7-2.5c-0.6-1.5-0.2-3.3,1-4.4
						c1-0.9,1.3-1.9,0.9-2.9c-0.4-1.1-1.5-1.9-2.6-1.9c-0.6,0-1.3,0.3-1.9,0.9c-1.4,1.3-3.5,1.5-5,0.4c-1.6-1.1-2.1-3.1-1.4-4.9
						c0.4-1,0.3-1.8-0.3-2.7c-1.1-1.7-3.7-3-5.9-3c-2.3,0-2.8,1.3-3,1.8c-0.8,1.9-2.9,2.8-4.8,2.2c-9.6-2.9-18.7-3.8-27-2.8
						c5.7,1,10.7,3.5,15,7.2c1.6,1.4,1.8,3.7,0.6,5.4c-2.2,2.9-2.7,4.5-2.8,5.1c0.4,0.2,1.4,0.4,3.2,0.4c0.9,0,2-0.1,3.2-0.2
						c1.5-0.2,3,0.5,3.8,1.8c0.8,1.3,0.9,2.9,0.1,4.2c-1.5,2.6-2,4.1-2.2,4.9c0.1,0,0.2,0,0.4,0c0.8,0,1.7-0.1,2.9-0.3
						C215.9,116.7,216.1,116.7,216.4,116.7z"/>
				</g>
			</g>
		</g>
	</g>
	<g>
		<g>
			<g>
				<g>
					<path class="st104" d="M159,102.5c-0.9,0-1.9-0.3-2.7-1c-1.6-1.5-1.8-4-0.3-5.6c0.5-0.6,1.1-1.2,1.6-1.8
						c11.9-13.6,17.6-24.6,17.8-34.6c-1.8-3.2-1.9-7.1,0-10.8c2.6-5.1,8.3-9.1,13.8-9.7c0-2,0.4-3.9,1.3-5.8c2.3-4.9,7.1-8,12.3-8
						c0.1,0,0.1,0,0.2,0c0.1-1.6,0.4-3.2,1.1-4.7c2.1-4.7,7-7.8,12-7.8c2.7,0,5.3,0.9,7.5,2.5c3.5-2.2,7-3.4,10.2-3.4
						c4.7,0,8.6,2.5,10,6.6c1.5,4.4,0.1,9.4-3.9,14c5.2,4.3,6.3,9.4,5.4,12.9c-1.1,4.5-5,7.5-10.1,7.8c1.1,3.2,1.2,6.3,0.1,9.1
						c-1.6,4-5.5,6.5-10.1,6.5c-0.8,0-1.7-0.1-2.7-0.3c0,1.9-0.5,3.8-1.2,5.7c-2.7,6.5-9.1,11.1-15.7,11.1c-3.3,0-6.5-1.1-9.3-3.2
						c-0.5,0-1,0-1.5,0c-10.3,0-20.6,5.7-31.3,17.5c-0.5,0.6-1,1.2-1.6,1.8C161.2,102.1,160.1,102.5,159,102.5z M190.6,46.9
						c-2.9,0-6.6,2.5-8.1,5.4c-1.1,2.1-0.2,3.2,0.1,3.6c0.5,0.7,0.8,1.5,0.8,2.3c0.1,6.2-1.4,12.6-4.7,19.4
						c6.4-2.9,12.9-4.1,19.5-3.5c0.8,0.1,1.6,0.4,2.3,1c1.6,1.4,3.3,2.1,5.1,2.1c3.4,0,6.9-2.6,8.3-6.1c0.7-1.8,1.5-5.2-1.7-8.3
						c-0.2-0.2-0.4-0.4-0.6-0.5c-1.6-1.5-1.7-4-0.2-5.6c1.5-1.6,4-1.7,5.6-0.3c0.2,0.2,0.4,0.4,0.7,0.6c2.6,2.3,5.3,3.7,7.5,3.7
						c0.9,0,2.2-0.3,2.7-1.5c0.8-1.9-0.3-5.5-4.3-9.3c-1.4-1.4-1.6-3.6-0.5-5.2c1.1-1.6,3.3-2.2,5.1-1.3c2.2,1.1,4.3,1.7,6,1.7
						c1.8,0,3.1-0.7,3.4-1.8c0.4-1.7-1.3-4.6-5.8-6.9c-1.2-0.6-2-1.8-2.2-3.2c-0.1-1.4,0.4-2.7,1.5-3.5c4.5-3.6,5.9-7.1,5.2-8.9
						c-0.4-1-1.5-1.2-2.4-1.2c-1.3,0-4.1,0.5-8,3.6c-1.7,1.4-4.1,1.1-5.5-0.5c-1.3-1.5-2.7-2.2-4.2-2.2c-1.9,0-3.9,1.3-4.7,3.1
						c-0.9,1.9-0.4,3.8,1.2,5.7c1.4,1.6,1.3,4.1-0.3,5.5c-1.6,1.5-4,1.4-5.5-0.1c-1.2-1.2-2.6-1.8-4-1.8c-2,0-4.1,1.4-5.1,3.4
						c-0.6,1.3-1,3.2,0.6,5.3c0.4,0.4,0.8,0.9,1.2,1.3c1.3,1.7,1,4-0.5,5.4c-1.6,1.4-3.9,1.3-5.4-0.1c-0.4-0.3-0.7-0.7-1-1.1
						C192,47,191.3,46.9,190.6,46.9z"/>
				</g>
			</g>
		</g>
	</g>
	<g>
		<g>
			<g>
				<g>
					<path class="st104" d="M159,102.5c-0.6,0-1.2-0.1-1.8-0.4c-1.6-0.8-2.5-2.6-2.1-4.4c3.5-16.6,3.7-29.2,0.5-39.1
						c-1.5,0.8-3.1,1.3-4.8,1.3c-3.2,0-6.1-1.7-7.7-4.5c-0.4-0.7-0.7-1.5-0.9-2.3c-0.1,0-0.3,0-0.4,0c-4,0-7.8-2.3-9.7-5.7
						c-0.7-1.2-1.1-2.4-1.2-3.7c-5.2-0.2-9.2-3.4-10.2-8.2c-0.6-2.8,0.1-6.5,3-9.6c-2.1-2.6-3.1-6.2-2.5-10
						c0.9-5.7,5.4-11.5,12.3-11.5c0.2,0,0.5,0,0.7,0c1.8-1.8,4.5-2.9,7.9-2.9c3.9,0,9.3,1.5,12.3,4.8c1.1-0.4,2.2-0.6,3.4-0.6
						c4.2,0,8.3,2.5,10.2,6.3c0.7,1.4,1.1,2.9,1.2,4.4c4.9,1.3,8.2,6.2,9.2,10.9c0.9,4.2-0.2,8-2.6,10.6
						c8.9,20.9,4.3,42.1-13.8,63.1C161.2,102.1,160.1,102.5,159,102.5z M157,47.7c0,0,0.1,0,0.1,0c1.5,0.1,2.8,0.9,3.4,2.2
						c4.4,8.8,6.1,19.4,4.9,32.7c8.4-14.9,8.9-29.4,1.7-44.1c-0.5-1-0.5-2.1-0.2-3.1c0.4-1,1.2-1.9,2.2-2.3c1.7-0.7,1.7-2.6,1.4-4
						c-0.5-2.6-2.5-4.9-4.1-4.9c-0.3,0-0.6,0.1-1,0.2c-1.6,0.7-3.6,0.2-4.7-1.2c-1.1-1.4-1.2-3.4-0.2-4.8c0.7-0.9,0.8-1.8,0.3-2.6
						c-0.6-1.1-1.9-2-3.1-2c-0.5,0-1.3,0.1-2,1.2c-1.1,1.6-3.2,2.1-4.9,1.3c-1.7-0.8-2.6-2.6-2.3-4.4c-0.5-0.9-3.4-2.4-6.5-2.4
						c-1.2,0-1.8,0.2-2,0.4c-0.3,1-1,1.9-1.9,2.4c-1,0.5-2.1,0.7-3.2,0.3c-0.5-0.2-1-0.3-1.5-0.3c-2.4,0-4.1,2.4-4.4,4.7
						c-0.2,1.5-0.2,4.1,2.8,5c1.6,0.5,2.7,2,2.8,3.6c0.1,1.7-0.9,3.2-2.5,3.9c-3.1,1.3-3.9,3.1-3.7,4.2c0.2,1.1,1.3,1.8,2.8,1.8
						c0.9,0,2-0.2,3.1-0.7c1.6-0.7,3.5-0.2,4.6,1.1c1.1,1.3,1.2,3.2,0.3,4.7c-0.6,1-0.7,1.9-0.3,2.7c0.5,0.9,1.6,1.6,2.7,1.6
						c0.9,0,1.6-0.5,2.2-1.4c1.2-1.8,3.6-2.4,5.5-1.3c1.9,1.2,2.5,3.6,1.3,5.5c-1,1.7-1,3-0.7,3.5c0.2,0.3,0.4,0.4,0.8,0.4
						c0.7,0,1.8-0.6,2.8-2.3C154.3,48.4,155.6,47.7,157,47.7z"/>
				</g>
			</g>
		</g>
	</g>
	<g>
		<g>
			<g>
				<g>
					<path class="st33" d="M159,98.5c17.9-8.3,33.5-10,45,0c-7.1,9.5-3.6,12.8,7.2,11.7c-5.1,8.7-3.2,12.2,5.3,10.5
						c-3.3,16.1,11.6,19.1,14.9,3c3.9,14.2,18,10.3,14.1-3.9c8.8,0,8.8-15.7,0-15.7c6.6-6.2-2.5-15.9-9.1-9.7
						c3.9-9-12.7-16.2-16.6-7.2C195.7,80.1,175.7,84.6,159,98.5z"/>
				</g>
			</g>
		</g>
	</g>
	<g>
		<g>
			<g>
				<g>
					<path class="st33" d="M159,98.5c11.8-13.5,24.5-21.7,38.9-20.4c12,10.6,28.5-8.2,16.6-18.8c13.3,12.7,25.1,0.2,11.9-12.4
						c14.7,7.5,21.9-6.6,7.2-14.1c14.3-11.5,4.1-24.2-10.2-12.7c-8.4-9.7-22.2,2.1-13.8,11.9c-9.2-9-22.5,4.5-13.2,13.5
						c-6.3-8.4-23.2,4.3-16.9,12.7C179.7,71.6,171.2,85,159,98.5z"/>
				</g>
			</g>
		</g>
	</g>
	<g>
		<g>
			<g>
				<g>
					<path class="st33" d="M159,98.5c3.7-17.5,4.6-33.8-2-46.9c-5.2,8.6-14.8,2.8-9.7-5.8c-4.9,7.7-16.2,0.5-11.3-7.2
						c-11.2,4.6-16.4-8.1-5.3-12.7c-10.6-3.4-5-20.5,5.5-17.1c1.5-6.4,17.8-2.5,16.3,3.9c5.2-7.3,16.5,0.7,11.3,8
						c8.6-3.7,15.5,12.3,6.9,16C181.2,58,176.2,78.6,159,98.5z"/>
				</g>
			</g>
		</g>
	</g>
	<g>
		<g>
			<g>
				<g>
					<path class="st104" d="M192.9,67.5c-1.1,0-2.3-0.5-3.1-1.4c-1.4-1.7-1.2-4.2,0.5-5.6c12.4-10.4,22-21.5,29-30.1
						c1.4-1.7,3.9-2,5.6-0.6c1.7,1.4,2,3.9,0.6,5.6c-7.2,8.9-17.2,20.5-30.1,31.2C194.7,67.2,193.8,67.5,192.9,67.5z"/>
				</g>
			</g>
		</g>
	</g>
	<g>
		<g>
			<g>
				<g>
					<path class="st104" d="M161.2,45.7c-1.4,0-2.7-0.7-3.4-1.9c-5.7-9.4-13.5-16.4-23.2-21c-2-0.9-2.9-3.3-1.9-5.3
						c0.9-2,3.3-2.9,5.3-1.9c11.1,5.2,20.1,13.3,26.6,24.1c1.1,1.9,0.5,4.3-1.3,5.5C162.6,45.5,161.9,45.7,161.2,45.7z"/>
				</g>
			</g>
		</g>
	</g>
	<g>
		<g>
			<g>
				<g>
					<path class="st104" d="M235.7,119.2c-1.4,0-2.8-0.8-3.5-2.1c-4.4-8.2-11.3-14.1-21-18.3c-2-0.9-3-3.2-2.1-5.2
						c0.9-2,3.2-3,5.2-2.1c11.3,4.8,19.7,12.1,24.9,21.8c1,1.9,0.3,4.4-1.6,5.4C236.9,119,236.3,119.2,235.7,119.2z"/>
				</g>
			</g>
		</g>
	</g>
	<g>
		<g>
			<g>
				<g>
					<path class="st105" d="M183.3,138.8c-0.4,4.1-3.6,11.6-26.1,29.4c-10.7,8.5-24.9,18.5-40.9,29c-11.7,7.6-24.4,15.5-36.7,22.7
						c-13.8,8.1-59.7,34.5-72.9,34.4c-1.5,0-2.7-0.3-3.8-0.9c-1-0.6-2.2-1.7-2.8-3.8c-2.7-10.7,20.8-51.1,35-74.3
						c7.5-12.1,15.6-24.7,23.5-36.3c10.8-15.9,21.1-29.8,29.8-40.4c11.5-14,19.9-21.6,25.7-23.4c2.3-0.7,4.8-1.1,7.4-1.1
						c12,0,27,8.1,40.3,21.6C173.2,107.3,184.8,124.6,183.3,138.8z"/>
				</g>
			</g>
		</g>
	</g>
	<g>
		<g>
			<g>
				<g>
					<path class="st106" d="M68.6,225.7c-1.5,0-2.8-0.8-3.6-2.2c-4.9-9.5-11.8-18-20.1-24.7c-1.7-1.4-2-3.9-0.6-5.6
						c1.4-1.7,3.9-2,5.6-0.6c9.2,7.4,16.9,16.8,22.3,27.3c1,2,0.2,4.4-1.7,5.4C69.8,225.6,69.2,225.7,68.6,225.7z"/>
				</g>
			</g>
		</g>
	</g>
	<g>
		<g>
			<g>
				<g>
					<path class="st106" d="M114.1,197.9c-1.4,0-2.8-0.8-3.6-2.2c-2.4-4.6-5.1-9.2-8.1-13.5c-1.3-1.8-0.8-4.3,1-5.6
						c1.8-1.3,4.3-0.8,5.6,1c3.2,4.6,6.1,9.4,8.7,14.4c1,2,0.2,4.4-1.7,5.4C115.4,197.7,114.7,197.9,114.1,197.9z"/>
				</g>
			</g>
		</g>
	</g>
	<g>
		<g>
			<g>
				<g>
					<path class="st106" d="M91.5,167c-1,0-2-0.4-2.8-1.2c-8.4-8.4-18.1-15.4-28.6-20.9c-2-1-2.7-3.4-1.7-5.4c1-2,3.4-2.7,5.4-1.7
						c11.2,5.9,21.5,13.4,30.5,22.3c1.6,1.6,1.6,4.1,0,5.7C93.5,166.6,92.5,167,91.5,167z"/>
				</g>
			</g>
		</g>
	</g>
	<g>
		<g>
			<g>
				<g>
					<path class="st106" d="M154.7,169.1c-1.4,0-2.7-0.7-3.5-2c-5-8.7-10.7-17-17.2-24.7c-1.4-1.7-1.2-4.2,0.5-5.6
						c1.7-1.4,4.2-1.2,5.6,0.5c6.8,8.1,12.8,16.8,18,25.9c1.1,1.9,0.4,4.4-1.5,5.5C156.1,168.9,155.4,169.1,154.7,169.1z"/>
				</g>
			</g>
		</g>
	</g>
	<g>
		<g>
			<g>
				<g>
					<path class="st106" d="M112,119.2c-0.9,0-1.7-0.3-2.5-0.9c-6.3-5-13-9.6-19.9-13.6c-1.9-1.1-2.6-3.6-1.4-5.5
						c1.1-1.9,3.6-2.6,5.5-1.4c7.3,4.2,14.3,9,20.9,14.3c1.7,1.4,2,3.9,0.6,5.6C114.3,118.7,113.1,119.2,112,119.2z"/>
				</g>
			</g>
		</g>
	</g>
</g>
</svg>
