<?xml version="1.0" encoding="utf-8"?>
<!-- Generator: Adobe Illustrator 22.1.0, SVG Export Plug-In . SVG Version: 6.00 Build 0)  -->
<svg version="1.1" id="Layer_1" xmlns="http://www.w3.org/2000/svg" xmlns:xlink="http://www.w3.org/1999/xlink" x="0px" y="0px"
	 viewBox="0 0 256 256" style="enable-background:new 0 0 256 256;" xml:space="preserve">
<style type="text/css">
	.st0{fill:#F6D67A;}
	.st1{fill:#E77CAE;}
	.st2{fill:#AC6535;}
	.st3{fill:#EB573B;}
	.st4{fill:#464646;}
	.st5{fill:#F5B31F;}
	.st6{fill:#9B592D;}
	.st7{fill:#9B5B2F;}
	.st8{fill:#E8A41A;}
	.st9{fill:#6D6E71;}
	.st10{fill:#E5A21C;}
	.st11{fill:#C66395;}
	.st12{fill:#E09F1E;}
	.st13{fill:#FFFFFF;}
	.st14{fill:#DDB95E;}
	.st15{fill:#EAC771;}
	.st16{fill:#F9F6CD;}
	.st17{fill:#009345;}
	.st18{fill:#008438;}
	.st19{fill:#EAA51B;}
	.st20{opacity:0.1;}
	.st21{fill:#FFD11D;}
	.st22{fill:#FFE37B;}
	.st23{fill:#FFA755;}
	.st24{fill:#FFEC97;}
	.st25{fill:#BC7532;}
	.st26{fill:#EFEFEF;}
	.st27{fill:#60ACF7;}
	.st28{fill:#876C6C;}
	.st29{fill:#1DDCFF;}
	.st30{fill:#BDF3FF;}
	.st31{fill:#EFCA70;}
	.st32{fill:#EFA91D;}
	.st33{fill:#8FAE3C;}
	.st34{fill:#92A5AC;}
	.st35{fill:#E8E3BA;}
	.st36{fill:#F79932;}
	.st37{fill:#F4F4F4;}
	.st38{fill:#FFDF8F;}
	.st39{fill:#EAE5B9;}
	.st40{fill:#7E9E6A;}
	.st41{fill:#94B57F;}
	.st42{fill:#9B5D8C;}
	.st43{fill:#96557A;}
	.st44{fill:#C3755A;}
	.st45{fill:#9BD7DD;}
	.st46{fill:#90CAD3;}
	.st47{fill:#F7F7F7;}
	.st48{fill:#AFE6EF;}
	.st49{fill:#FFFAEB;}
	.st50{fill:#F4EFC3;}
	.st51{fill:#F9F9F9;}
	.st52{fill:#FFE5C4;}
	.st53{fill:#FFB024;}
	.st54{fill:#FFC612;}
	.st55{fill:#FFCE31;}
	.st56{fill:#A05C2D;}
	.st57{fill:#1DCAF2;}
	.st58{fill:#00B0E0;}
	.st59{fill:#F2A355;}
	.st60{fill:#D68032;}
	.st61{fill:#66625D;}
	.st62{fill:#54504D;}
	.st63{fill:#B76955;}
	.st64{fill:#EFE8B4;}
	.st65{fill:#B93226;}
	.st66{fill:#EFEABF;}
	.st67{fill:#90C056;}
	.st68{opacity:0.15;}
	.st69{fill:#E8C56D;}
	.st70{fill:#F7BE4B;}
	.st71{fill:#E0A338;}
	.st72{fill:#F68455;}
	.st73{fill:#E26F47;}
	.st74{fill:#EC754B;}
	.st75{fill:#4AA5BA;}
	.st76{opacity:0.5;}
	.st77{fill:#A0B1B5;}
	.st78{opacity:0.7;}
	.st79{fill:#00ADEE;}
	.st80{fill:#F4D4B3;}
	.st81{fill:#F9D97A;}
	.st82{fill:#EDC96E;}
	.st83{fill:none;}
	.st84{fill:#AF6535;}
	.st85{fill:#F18BB4;}
	.st86{fill:#B3E4FF;}
	.st87{fill:#97DFFF;}
	.st88{fill:#D06E3C;}
	.st89{fill:#B55931;}
	.st90{fill:#DA4F4B;}
	.st91{fill:#EFCAA8;}
	.st92{fill:#EA7CB1;}
	.st93{fill:#EA7DAE;}
	.st94{fill:#BC7646;}
	.st95{fill:#00A1C6;}
	.st96{fill:#FCC230;}
	.st97{fill:#F2EBB1;}
	.st98{fill:#F9D6AF;}
	.st99{fill:#D34735;}
	.st100{fill:#E5A21A;}
	.st101{fill:#849E33;}
	.st102{fill:#EFBB14;}
	.st103{fill:#D8402B;}
	.st104{fill:#829B34;}
	.st105{fill:#F88916;}
	.st106{fill:#E27513;}
	.st107{fill:#FFB41F;}
	.st108{fill:#8AA538;}
	.st109{fill:#BE6BB2;}
	.st110{fill:#AA5BA3;}
	.st111{fill:#FFDF66;}
	.st112{fill:#F4BA00;}
	.st113{fill:#E28529;}
	.st114{fill:#FF9945;}
	.st115{fill:#BA6C45;}
	.st116{fill:#EDBA15;}
	.st117{fill:#E0452F;}
	.st118{fill:#F7F2D5;}
	.st119{fill:#4C4E51;}
	.st120{fill:#EA615D;}
	.st121{fill:#DD4A36;}
	.st122{fill:#F6AF72;}
	.st123{fill:#E8955D;}
	.st124{fill:#E4C074;}
	.st125{fill:#EAE4C3;}
	.st126{fill:#BF3522;}
	.st127{fill:#D13E33;}
	.st128{fill:#AA5EA3;}
	.st129{fill:#DD443C;}
	.st130{fill:#AA5FA3;}
	.st131{fill:#B7C536;}
	.st132{fill:#F2872F;}
	.st133{fill:#AF5FA7;}
	.st134{fill:#E29F17;}
	.st135{fill:#FFC86E;}
	.st136{fill:#A55937;}
	.st137{fill:#D8422E;}
	.st138{fill:#C3556D;}
	.st139{fill:#B24965;}
	.st140{fill:#D1A962;}
	.st141{fill:#A3961A;}
	.st142{fill:#AFA51D;}
	.st143{fill:#968A1C;}
</style>
<g>
	<g>
		<g>
			<g>
				<g>
					<polygon class="st52" points="197.1,252 98.4,252 143.3,198.3 					"/>
				</g>
			</g>
		</g>
	</g>
	<g>
		<g>
			<g>
				<g>
					<path class="st98" d="M197.1,256C197.1,256,197.1,256,197.1,256H98.4c-1.6,0-3-0.9-3.6-2.3c-0.7-1.4-0.4-3.1,0.6-4.3l44.9-53.7
						c0.7-0.9,1.8-1.4,2.9-1.4c1.1-0.1,2.2,0.4,3,1.2l53.6,53.5c0.9,0.7,1.4,1.8,1.4,3.1C201.1,254.2,199.3,256,197.1,256z
						 M106.9,248h80.5l-43.9-43.8L106.9,248z"/>
				</g>
			</g>
		</g>
	</g>
	<g>
		<g>
			<g>
				<g>
					<polygon class="st52" points="170.8,165.5 143.3,198.3 98.4,252 87.7,162 168,162 					"/>
				</g>
			</g>
		</g>
	</g>
	<g>
		<g>
			<g>
				<g>
					<path class="st98" d="M98.4,256c-0.4,0-0.8-0.1-1.1-0.2c-1.5-0.5-2.6-1.8-2.8-3.4l-10.7-90c-0.1-1.1,0.2-2.3,1-3.1
						c0.8-0.9,1.8-1.3,3-1.3H168c1.2,0,2.4,0.5,3.1,1.5l2.8,3.5c1.2,1.5,1.2,3.6,0,5.1l-72.4,86.5C100.7,255.5,99.5,256,98.4,256z
						 M92.2,166l9.1,76.3l63.8-76.3H92.2z"/>
				</g>
			</g>
		</g>
	</g>
	<g>
		<g>
			<g>
				<g>
					<path class="st2" d="M98.9,76.9l-6,11.5c-0.6,1.2-1.7,2-3,2.1c-0.2,0-0.3,0-0.5,0c-1.1,0-2.2-0.5-3-1.3L38.6,36.6
						c-0.7-0.8-1.1-1.9-1-2.9c0.1-1.1,0.6-2.1,1.4-2.8l10.5-9.1c0.8-0.7,1.8-1,2.9-1c1.1,0.1,2,0.6,2.7,1.4l43.3,50.2
						C99.5,73.6,99.7,75.4,98.9,76.9z"/>
				</g>
			</g>
		</g>
	</g>
	<g>
		<g>
			<g>
				<g>
					<polygon class="st52" points="214.4,103.3 212.4,120.6 134.6,120.6 120.6,103.3 					"/>
				</g>
			</g>
		</g>
	</g>
	<g>
		<g>
			<g>
				<g>
					<polygon class="st52" points="208.4,154.5 197.1,252 143.3,198.3 170.8,165.5 168,162 161.9,154.5 					"/>
				</g>
			</g>
		</g>
	</g>
	<g>
		<g>
			<g>
				<g>
					<path class="st98" d="M212.4,124.6h-77.8c-1.2,0-2.4-0.5-3.1-1.5l-14-17.3c-1-1.2-1.2-2.8-0.5-4.2c0.7-1.4,2.1-2.3,3.6-2.3
						h93.8c1.1,0,2.2,0.5,3,1.3c0.8,0.9,1.1,2,1,3.1l-2,17.3C216.1,123.1,214.4,124.6,212.4,124.6z M136.5,116.6h72.3l1.1-9.3H129
						L136.5,116.6z"/>
				</g>
			</g>
		</g>
	</g>
	<g>
		<g>
			<g>
				<g>
					<path class="st98" d="M197.1,256c-1,0-2.1-0.4-2.8-1.2l-53.8-53.7c-1.5-1.5-1.6-3.8-0.2-5.4l25.4-30.3l-6.8-8.4
						c-1-1.2-1.2-2.8-0.5-4.2c0.7-1.4,2.1-2.3,3.6-2.3h46.5c1.1,0,2.2,0.5,3,1.3c0.8,0.9,1.1,2,1,3.1l-11.3,97.5
						c-0.2,1.5-1.2,2.8-2.7,3.3C198,255.9,197.5,256,197.1,256z M148.7,198.1l45.4,45.3l9.8-84.8h-33.6l3.6,4.4
						c1.2,1.5,1.2,3.6,0,5.1L148.7,198.1z"/>
				</g>
			</g>
		</g>
	</g>
	<g>
		<g>
			<g>
				<g>
					<path class="st2" d="M113.3,56.8l-10.6,12.6c-0.8,0.9-1.9,1.4-3.1,1.4c-0.2,0-0.4,0-0.7-0.1c-1.4-0.2-2.6-1.2-3.1-2.5L74.1,12
						c-0.8-2,0.2-4.2,2.1-5.1l15-6.6c1-0.4,2.2-0.4,3.2,0c1,0.4,1.8,1.3,2.2,2.4l17.5,50.2C114.5,54.3,114.3,55.8,113.3,56.8z"/>
				</g>
			</g>
		</g>
	</g>
	<g>
		<g>
			<g>
				<g>
					<polygon class="st52" points="214.4,103.3 80.7,103.3 106.2,54.3 187.6,54.3 					"/>
				</g>
			</g>
		</g>
	</g>
	<g>
		<g>
			<g>
				<g>
					<path class="st98" d="M214.4,107.3C214.4,107.3,214.4,107.3,214.4,107.3H80.7c-1.4,0-2.7-0.7-3.4-1.9c-0.7-1.2-0.8-2.7-0.1-3.9
						l25.5-49c0.7-1.3,2.1-2.2,3.5-2.2h81.5c1.5,0,2.8,0.8,3.5,2.1l26.6,48.7c0.4,0.6,0.7,1.4,0.7,2.2
						C218.4,105.5,216.6,107.3,214.4,107.3z M87.3,99.3h120.4l-22.4-41h-76.6L87.3,99.3z"/>
				</g>
			</g>
		</g>
	</g>
	<g>
		<g>
			<g>
				<g>
					<polygon class="st52" points="140.6,128.2 83.6,128.2 80.7,103.3 120.6,103.3 134.6,120.6 					"/>
				</g>
			</g>
		</g>
	</g>
	<g>
		<g>
			<g>
				<g>
					<path class="st4" d="M168,166C168,166,168,166,168,166L168,166c-1.2,0-2.4-0.5-3.1-1.5l-6-7.5c-1.4-1.7-1.1-4.2,0.6-5.6
						c1.7-1.4,4.2-1.1,5.6,0.6l5.8,7.2c0.7,0.7,1.1,1.7,1.1,2.8C172,164.2,170.2,166,168,166z"/>
				</g>
			</g>
		</g>
	</g>
	<g>
		<g>
			<g>
				<g>
					<path class="st98" d="M140.7,132.2C140.7,132.2,140.7,132.2,140.7,132.2h-57c-2,0-3.7-1.5-4-3.5l-3-24.9
						c-0.1-1.1,0.2-2.3,1-3.1c0.8-0.9,1.8-1.3,3-1.3h39.9c1.2,0,2.4,0.5,3.1,1.5l19.8,24.6c0.7,0.7,1.1,1.7,1.1,2.8
						C144.7,130.4,142.9,132.2,140.7,132.2z M87.2,124.2h45.1l-13.6-16.9H85.2L87.2,124.2z"/>
				</g>
			</g>
		</g>
	</g>
	<g>
		<g>
			<g>
				<g>
					<polygon class="st65" points="168,162 168,162 161.9,154.5 					"/>
				</g>
			</g>
		</g>
	</g>
	<g>
		<g>
			<g>
				<g>
					<polygon class="st3" points="212.4,120.6 208.4,154.5 161.9,154.5 140.6,128.2 134.6,120.6 					"/>
				</g>
			</g>
		</g>
	</g>
	<g>
		<g>
			<g>
				<g>
					<path class="st99" d="M208.4,158.5h-46.5c-1.2,0-2.4-0.5-3.1-1.5l-27.4-33.9c-1-1.2-1.2-2.8-0.5-4.2c0.7-1.4,2.1-2.3,3.6-2.3
						h77.8c1.1,0,2.2,0.5,3,1.3c0.8,0.9,1.1,2,1,3.1l-3.9,33.9C212.2,157,210.4,158.5,208.4,158.5z M163.9,150.5h41l3-25.9h-64.9
						L163.9,150.5z"/>
				</g>
			</g>
		</g>
	</g>
	<g>
		<g>
			<g>
				<g>
					<polygon class="st3" points="168,162 87.7,162 83.6,128.2 140.6,128.2 161.9,154.5 					"/>
				</g>
			</g>
		</g>
	</g>
	<g>
		<g>
			<g>
				<g>
					<path class="st99" d="M168,166C168,166,168,166,168,166H87.7c-2,0-3.7-1.5-4-3.5l-4-33.9c-0.1-1.1,0.2-2.3,1-3.1
						c0.8-0.9,1.8-1.3,3-1.3h57c1.2,0,2.4,0.5,3.1,1.5l27.1,33.6c0.7,0.7,1.1,1.7,1.1,2.8C172,164.2,170.2,166,168,166z M91.2,158
						h68.4l-20.9-25.9H88.1L91.2,158z"/>
				</g>
			</g>
		</g>
	</g>
</g>
</svg>
