<?xml version="1.0" encoding="utf-8"?>
<!-- Generator: Adobe Illustrator 22.1.0, SVG Export Plug-In . SVG Version: 6.00 Build 0)  -->
<svg version="1.1" id="Layer_1" xmlns="http://www.w3.org/2000/svg" xmlns:xlink="http://www.w3.org/1999/xlink" x="0px" y="0px"
	 viewBox="0 0 256 256" style="enable-background:new 0 0 256 256;" xml:space="preserve">
<style type="text/css">
	.st0{fill:#F6D67A;}
	.st1{fill:#E77CAE;}
	.st2{fill:#AC6535;}
	.st3{fill:#EB573B;}
	.st4{fill:#464646;}
	.st5{fill:#F5B31F;}
	.st6{fill:#9B592D;}
	.st7{fill:#9B5B2F;}
	.st8{fill:#E8A41A;}
	.st9{fill:#6D6E71;}
	.st10{fill:#E5A21C;}
	.st11{fill:#C66395;}
	.st12{fill:#E09F1E;}
	.st13{fill:#FFFFFF;}
	.st14{fill:#DDB95E;}
	.st15{fill:#EAC771;}
	.st16{fill:#F9F6CD;}
	.st17{fill:#009345;}
	.st18{fill:#008438;}
	.st19{fill:#EAA51B;}
	.st20{opacity:0.1;}
	.st21{fill:#FFD11D;}
	.st22{fill:#FFE37B;}
	.st23{fill:#FFA755;}
	.st24{fill:#FFEC97;}
	.st25{fill:#BC7532;}
	.st26{fill:#EFEFEF;}
	.st27{fill:#60ACF7;}
	.st28{fill:#876C6C;}
	.st29{fill:#1DDCFF;}
	.st30{fill:#BDF3FF;}
	.st31{fill:#EFCA70;}
	.st32{fill:#EFA91D;}
	.st33{fill:#8FAE3C;}
	.st34{fill:#92A5AC;}
	.st35{fill:#E8E3BA;}
	.st36{fill:#F79932;}
	.st37{fill:#F4F4F4;}
	.st38{fill:#FFDF8F;}
	.st39{fill:#EAE5B9;}
	.st40{fill:#7E9E6A;}
	.st41{fill:#94B57F;}
	.st42{fill:#9B5D8C;}
	.st43{fill:#96557A;}
	.st44{fill:#C3755A;}
	.st45{fill:#9BD7DD;}
	.st46{fill:#90CAD3;}
	.st47{fill:#F7F7F7;}
	.st48{fill:#AFE6EF;}
	.st49{fill:#FFFAEB;}
	.st50{fill:#F4EFC3;}
	.st51{fill:#F9F9F9;}
	.st52{fill:#FFE5C4;}
	.st53{fill:#FFB024;}
	.st54{fill:#FFC612;}
	.st55{fill:#FFCE31;}
	.st56{fill:#A05C2D;}
	.st57{fill:#1DCAF2;}
	.st58{fill:#00B0E0;}
	.st59{fill:#F2A355;}
	.st60{fill:#D68032;}
	.st61{fill:#66625D;}
	.st62{fill:#54504D;}
	.st63{fill:#B76955;}
	.st64{fill:#EFE8B4;}
	.st65{fill:#B93226;}
	.st66{fill:#EFEABF;}
	.st67{fill:#90C056;}
	.st68{opacity:0.15;}
	.st69{fill:#E8C56D;}
	.st70{fill:#F7BE4B;}
	.st71{fill:#E0A338;}
	.st72{fill:#F68455;}
	.st73{fill:#E26F47;}
	.st74{fill:#EC754B;}
	.st75{fill:#4AA5BA;}
	.st76{opacity:0.5;}
	.st77{fill:#A0B1B5;}
	.st78{opacity:0.7;}
	.st79{fill:#00ADEE;}
	.st80{fill:#F4D4B3;}
	.st81{fill:#F9D97A;}
	.st82{fill:#EDC96E;}
	.st83{fill:none;}
	.st84{fill:#AF6535;}
	.st85{fill:#F18BB4;}
	.st86{fill:#B3E4FF;}
	.st87{fill:#97DFFF;}
	.st88{fill:#D06E3C;}
	.st89{fill:#B55931;}
	.st90{fill:#DA4F4B;}
	.st91{fill:#EFCAA8;}
	.st92{fill:#EA7CB1;}
	.st93{fill:#EA7DAE;}
	.st94{fill:#BC7646;}
	.st95{fill:#00A1C6;}
	.st96{fill:#FCC230;}
	.st97{fill:#F2EBB1;}
	.st98{fill:#F9D6AF;}
	.st99{fill:#D34735;}
	.st100{fill:#E5A21A;}
	.st101{fill:#849E33;}
	.st102{fill:#EFBB14;}
	.st103{fill:#D8402B;}
	.st104{fill:#829B34;}
	.st105{fill:#F88916;}
	.st106{fill:#E27513;}
	.st107{fill:#FFB41F;}
	.st108{fill:#8AA538;}
	.st109{fill:#BE6BB2;}
	.st110{fill:#AA5BA3;}
	.st111{fill:#FFDF66;}
	.st112{fill:#F4BA00;}
	.st113{fill:#E28529;}
	.st114{fill:#FF9945;}
	.st115{fill:#BA6C45;}
	.st116{fill:#EDBA15;}
	.st117{fill:#E0452F;}
	.st118{fill:#F7F2D5;}
	.st119{fill:#4C4E51;}
	.st120{fill:#EA615D;}
	.st121{fill:#DD4A36;}
	.st122{fill:#F6AF72;}
	.st123{fill:#E8955D;}
	.st124{fill:#E4C074;}
	.st125{fill:#EAE4C3;}
	.st126{fill:#BF3522;}
	.st127{fill:#D13E33;}
	.st128{fill:#AA5EA3;}
	.st129{fill:#DD443C;}
	.st130{fill:#AA5FA3;}
	.st131{fill:#B7C536;}
	.st132{fill:#F2872F;}
	.st133{fill:#AF5FA7;}
	.st134{fill:#E29F17;}
	.st135{fill:#FFC86E;}
	.st136{fill:#A55937;}
	.st137{fill:#D8422E;}
	.st138{fill:#C3556D;}
	.st139{fill:#B24965;}
	.st140{fill:#D1A962;}
	.st141{fill:#A3961A;}
	.st142{fill:#AFA51D;}
	.st143{fill:#968A1C;}
</style>
<g>
	<g>
		<g>
			<g>
				<g>
					<path class="st21" d="M84.7,76.9c-3.6-0.4-6.1-0.1-6.9,0.8c-1.3,1.6-1.3,9-0.4,19.1C70,93.9,59.8,91.6,49.8,90
						c7.4-18.6,16.1-34.8,19-35C71.1,54.9,77.5,64.2,84.7,76.9z"/>
				</g>
			</g>
		</g>
	</g>
	<g>
		<g>
			<g>
				<g>
					<path class="st21" d="M122.8,87.7c-0.9,1.4-1.9,2.9-2.8,4.4c-4.5,7.3-8.6,14.9-11.1,21.5H87.5c1.4-4,1.8-7.3,0.9-9.4
						c-1.1-2.7-5.2-5.2-11-7.4c-0.9-10-0.9-17.5,0.4-19.1c0.8-1,3.3-1.2,6.9-0.8c3.5,0.4,8.1,1.3,13.2,2.6
						C105.5,81.5,114.4,84.3,122.8,87.7z"/>
				</g>
			</g>
		</g>
	</g>
	<g>
		<g>
			<g>
				<g>
					<path class="st21" d="M160.7,113.5h-51.8c2.5-6.5,6.6-14.2,11.1-21.5c0.9-1.5,1.8-2.9,2.8-4.4c3.8-5.8,7.7-11.2,11.1-15.3
						c4.2-5.1,7.6-8.3,9-8c1.2,0.3,3.4,4.6,6,11C152.7,85.2,157.3,99.9,160.7,113.5z"/>
				</g>
			</g>
		</g>
	</g>
	<g>
		<g>
			<g>
				<g>
					<path class="st21" d="M176,108.4c-0.2,0.9,0.2,2.7,1.2,5.1h-16.5c-3.4-13.6-8-28.3-11.9-38.1c0.2-2.3,0.6-4.3,1.1-5.7
						c5.6-15,65.3,5.3,67.3,13.1c0.3,1.3-0.5,4.1-2.2,8C197.7,95.4,177,104.3,176,108.4z"/>
				</g>
			</g>
		</g>
	</g>
	<g>
		<g>
			<g>
				<g>
					<path class="st21" d="M237.4,113.5h-60.2c-0.9-2.4-1.4-4.2-1.2-5.1c1-4.1,21.6-13,39-17.6c11-2.9,20.7-4,23.3-1.1
						C240.8,92.4,239.9,102.1,237.4,113.5z"/>
				</g>
			</g>
		</g>
	</g>
	<g>
		<g>
			<g>
				<g>
					<path class="st21" d="M133.9,72.3c-3.4,4.1-7.3,9.5-11.1,15.3c-8.4-3.3-17.3-6.2-24.9-8.2c2.8-13.7,8.7-37.3,15.6-37.3
						C118.8,42.1,127.3,58,133.9,72.3z"/>
				</g>
			</g>
		</g>
	</g>
	<g>
		<g>
			<g>
				<g>
					<path class="st96" d="M77.4,100.8c-0.5,0-1-0.1-1.4-0.3c-6.7-2.6-16.3-4.9-26.8-6.5c-1.2-0.2-2.3-0.9-2.9-2
						c-0.6-1.1-0.7-2.3-0.2-3.5c3.7-9.3,7.8-18.1,11.4-24.8c5.6-10.4,8.3-12.5,11.1-12.7c0.1,0,0.2,0,0.3,0c2.3,0,5.8,0,19.3,23.9
						c0.7,1.3,0.7,2.9-0.1,4.2c-0.8,1.3-2.3,1.9-3.8,1.8c-1.4-0.1-2.6-0.2-3.3-0.1c-0.3,2-0.4,6.6,0.4,15.3c0,0.2,0.1,0.5,0.1,0.8
						C81.5,99,79.7,100.8,77.4,100.8C77.5,100.8,77.5,100.8,77.4,100.8z M55.4,86.9c6.5,1.2,12.5,2.6,17.6,4.1
						c-0.7-12.7,0.9-14.8,1.7-15.8c0.9-1.1,2-1.7,3.2-2.1c-4.3-7.2-7.2-11.2-8.9-13.1C66.3,63.6,61.1,73.2,55.4,86.9z"/>
				</g>
			</g>
		</g>
	</g>
	<g>
		<g>
			<g>
				<g>
					<path class="st96" d="M108.9,117.5H87.5c-1.3,0-2.5-0.6-3.2-1.7c-0.8-1-1-2.4-0.5-3.6c1.7-5,1.1-6.5,1-6.6c0-0.1-1-2.2-8.7-5.2
						c-1.4-0.5-2.4-1.9-2.6-3.4c-1.7-18.2,0.3-20.7,1.2-21.9c1.8-2.3,4.9-2.5,7.1-2.5c1,0,2.1,0.1,3.3,0.2c3.6,0.4,8.3,1.3,13.8,2.7
						c8,2.1,17,5,25.4,8.4c1.1,0.4,2,1.4,2.3,2.5c0.4,1.1,0.2,2.4-0.5,3.4c-0.9,1.3-1.8,2.7-2.7,4.3c-4.8,7.8-8.6,15-10.8,20.8
						C112,116.5,110.5,117.5,108.9,117.5z M92.6,109.5h13.6c3-7.1,7.3-14.5,10.4-19.6c0.1-0.1,0.1-0.2,0.2-0.3
						c-6.7-2.5-13.6-4.7-19.9-6.3c-5-1.3-9.4-2.2-12.6-2.5c-1.3-0.1-2.6-0.2-3.3-0.1c-0.3,1.8-0.4,5.9,0.2,13.3
						c6.1,2.6,9.6,5.4,10.9,8.6C92.9,104.4,93.1,106.7,92.6,109.5z"/>
				</g>
			</g>
		</g>
	</g>
	<g>
		<g>
			<g>
				<g>
					<path class="st96" d="M160.7,117.5C160.7,117.5,160.7,117.5,160.7,117.5h-51.8c-1.3,0-2.6-0.7-3.3-1.7
						c-0.7-1.1-0.9-2.5-0.4-3.7c3.1-7.9,7.9-16.4,11.5-22.1c1-1.6,1.9-3.1,2.8-4.5c3.8-5.8,7.8-11.3,11.4-15.7
						c7.2-8.7,9.9-9.4,11.8-9.4c0.4,0,0.8,0,1.2,0.1c2.1,0.5,4.2,1.9,8.7,13.5c3.9,10.1,8.5,24.6,11.9,38.2c0.2,0.4,0.2,0.9,0.2,1.4
						C164.7,115.7,162.9,117.5,160.7,117.5z M115,109.5h40.6c-3.1-11.7-7.1-24.1-10.4-32.6c-1.5-3.7-2.5-6-3.2-7.3
						c-1,1-2.6,2.6-4.9,5.3c-3.4,4.1-7.3,9.5-10.9,15c-0.9,1.3-1.8,2.7-2.7,4.3C120,99.6,117.1,104.9,115,109.5z"/>
				</g>
			</g>
		</g>
	</g>
	<g>
		<g>
			<g>
				<g>
					<path class="st96" d="M177.2,117.5C177.2,117.5,177.2,117.5,177.2,117.5h-16.5c-1.8,0-3.4-1.2-3.9-3
						c-3.3-13.1-7.9-27.9-11.7-37.6c-0.2-0.6-0.3-1.2-0.3-1.8c0.3-2.8,0.7-5,1.3-6.7c2-5.3,7.7-8,16.9-8c9.2,0,22.3,2.7,35.1,7.3
						c14.1,5,21.8,9.8,22.9,14.2c0.4,1.6,0.4,4-2.3,10.5c-0.5,1.1-1.5,2-2.7,2.3c-16.5,4.3-32.8,11.7-36,14.8
						c0.1,0.4,0.3,1.1,0.7,2.2c0.3,0.5,0.4,1.2,0.4,1.8C181.2,115.7,179.4,117.5,177.2,117.5z M163.8,109.5h8.2
						c-0.1-0.7,0-1.4,0.1-2c0.4-1.6,1.2-4.9,15.6-11.4c7.3-3.2,16.2-6.4,24.3-8.7c0.8-2,1-3.1,1.1-3.6c-3.9-4.2-31.9-15.5-50.1-15.5
						c-5.2,0-8.8,1.1-9.4,2.8c-0.2,0.6-0.5,1.8-0.8,3.7C156.5,84.2,160.6,97.1,163.8,109.5z"/>
				</g>
			</g>
		</g>
	</g>
	<g>
		<g>
			<g>
				<g>
					<path class="st96" d="M237.4,117.5h-60.2c-1.6,0-3.1-1-3.7-2.5c-1.4-3.4-1.8-5.7-1.3-7.5c0.4-1.6,1.2-4.9,15.6-11.4
						c7.9-3.5,17.7-6.9,26.3-9.2c5.1-1.3,12.4-3,18-3c4.4,0,7.4,1,9.3,3c1.3,1.5,4.9,5.4,0,27.3
						C240.9,116.2,239.3,117.5,237.4,117.5z M180.1,109.5h54.1c2.5-12.6,1.5-16.4,1.2-17.1c-0.3-0.1-1.2-0.4-3.3-0.4
						c-3.8,0-9.3,0.9-16,2.7C199.6,99,183.3,106.4,180.1,109.5C180.1,109.5,180.1,109.5,180.1,109.5z"/>
				</g>
			</g>
		</g>
	</g>
	<g>
		<g>
			<g>
				<g>
					<path class="st96" d="M122.8,91.7c-0.5,0-1-0.1-1.5-0.3c-8.1-3.2-16.8-6.1-24.4-8c-2.1-0.5-3.3-2.6-2.9-4.7
						c1.4-6.7,3.6-16.4,6.4-24.3c4-11.2,8-16.2,13.1-16.2c4.7,0,10.9,3.9,24,32.5c0.6,1.4,0.4,3-0.5,4.2c-3.4,4.1-7.3,9.5-10.9,15
						C125.4,91,124.1,91.7,122.8,91.7z M102.6,76.6c6,1.7,12.4,3.8,18.6,6.2c2.7-4,5.4-7.7,8-11c-9.9-21-14.6-24.9-15.7-25.5
						C111.6,47.5,107.3,55.2,102.6,76.6z"/>
				</g>
			</g>
		</g>
	</g>
	<g>
		<g>
			<g>
				<g>
					<path class="st21" d="M87.5,113.5H19.3c-2.7-11.8-4-21.4-2.7-23.4c1.8-3,17.1-2.6,33.2,0c9.9,1.6,20.2,3.9,27.6,6.7
						c5.8,2.2,9.9,4.7,11,7.4C89.3,106.2,88.9,109.4,87.5,113.5z"/>
				</g>
			</g>
		</g>
	</g>
	<g>
		<g>
			<g>
				<g>
					<path class="st96" d="M87.5,117.5H19.3c-1.9,0-3.5-1.3-3.9-3.1c-5-21.9-3.1-25-2.3-26.4c1.7-2.9,5.8-4,14.1-4
						c6.4,0,14.6,0.7,23.2,2.1c11.1,1.7,21.2,4.2,28.4,7c7.5,2.9,11.8,5.9,13.3,9.6c1.2,2.9,0.9,6.9-0.8,12.2
						C90.8,116.4,89.2,117.5,87.5,117.5z M22.5,109.5h62c0.6-2.8,0.3-3.8,0.3-3.8c0-0.1-1-2.2-8.7-5.2c-6.7-2.6-16.3-4.9-26.8-6.5
						c-8.1-1.3-16.1-2-22-2c-4.1,0-6.1,0.3-7.1,0.6C20.1,94.5,20.4,99.6,22.5,109.5z"/>
				</g>
			</g>
		</g>
	</g>
	<g>
		<g>
			<g>
				<g>
					<g>
						<path class="st16" d="M256,114.1c-0.2,1-4,25.7-12.4,50.8c-11.8,35.1-26.3,52.9-43.3,52.9H55.8c-17,0-31.5-17.8-43.3-52.9
							C4.1,139.8,0.2,115.1,0,114.1c-0.2-1.2,0.2-2.3,0.9-3.2c0.8-0.9,1.9-1.4,3-1.4h248c1.2,0,2.3,0.5,3,1.4
							C255.8,111.8,256.1,112.9,256,114.1z"/>
					</g>
				</g>
			</g>
		</g>
	</g>
</g>
</svg>
