<?xml version="1.0" encoding="utf-8"?>
<!-- Generator: Adobe Illustrator 22.1.0, SVG Export Plug-In . SVG Version: 6.00 Build 0)  -->
<svg version="1.1" id="Layer_1" xmlns="http://www.w3.org/2000/svg" xmlns:xlink="http://www.w3.org/1999/xlink" x="0px" y="0px"
	 viewBox="0 0 256 256" style="enable-background:new 0 0 256 256;" xml:space="preserve">
<style type="text/css">
	.st0{fill:#F6D67A;}
	.st1{fill:#E77CAE;}
	.st2{fill:#AC6535;}
	.st3{fill:#EB573B;}
	.st4{fill:#464646;}
	.st5{fill:#F5B31F;}
	.st6{fill:#9B592D;}
	.st7{fill:#9B5B2F;}
	.st8{fill:#E8A41A;}
	.st9{fill:#6D6E71;}
	.st10{fill:#E5A21C;}
	.st11{fill:#C66395;}
	.st12{fill:#E09F1E;}
	.st13{fill:#FFFFFF;}
	.st14{fill:#DDB95E;}
	.st15{fill:#EAC771;}
	.st16{fill:#F9F6CD;}
	.st17{fill:#009345;}
	.st18{fill:#008438;}
	.st19{fill:#EAA51B;}
	.st20{opacity:0.1;}
	.st21{fill:#FFD11D;}
	.st22{fill:#FFE37B;}
	.st23{fill:#FFA755;}
	.st24{fill:#FFEC97;}
	.st25{fill:#BC7532;}
	.st26{fill:#EFEFEF;}
	.st27{fill:#60ACF7;}
	.st28{fill:#876C6C;}
	.st29{fill:#1DDCFF;}
	.st30{fill:#BDF3FF;}
	.st31{fill:#EFCA70;}
	.st32{fill:#EFA91D;}
	.st33{fill:#8FAE3C;}
	.st34{fill:#92A5AC;}
	.st35{fill:#E8E3BA;}
	.st36{fill:#F79932;}
	.st37{fill:#F4F4F4;}
	.st38{fill:#FFDF8F;}
	.st39{fill:#EAE5B9;}
	.st40{fill:#7E9E6A;}
	.st41{fill:#94B57F;}
	.st42{fill:#9B5D8C;}
	.st43{fill:#96557A;}
	.st44{fill:#C3755A;}
	.st45{fill:#9BD7DD;}
	.st46{fill:#90CAD3;}
	.st47{fill:#F7F7F7;}
	.st48{fill:#AFE6EF;}
	.st49{fill:#FFFAEB;}
	.st50{fill:#F4EFC3;}
	.st51{fill:#F9F9F9;}
	.st52{fill:#FFE5C4;}
	.st53{fill:#FFB024;}
	.st54{fill:#FFC612;}
	.st55{fill:#FFCE31;}
	.st56{fill:#A05C2D;}
	.st57{fill:#1DCAF2;}
	.st58{fill:#00B0E0;}
	.st59{fill:#F2A355;}
	.st60{fill:#D68032;}
	.st61{fill:#66625D;}
	.st62{fill:#54504D;}
	.st63{fill:#B76955;}
	.st64{fill:#EFE8B4;}
	.st65{fill:#B93226;}
	.st66{fill:#EFEABF;}
	.st67{fill:#90C056;}
	.st68{opacity:0.15;}
	.st69{fill:#E8C56D;}
	.st70{fill:#F7BE4B;}
	.st71{fill:#E0A338;}
	.st72{fill:#F68455;}
	.st73{fill:#E26F47;}
	.st74{fill:#EC754B;}
	.st75{fill:#4AA5BA;}
	.st76{opacity:0.5;}
	.st77{fill:#A0B1B5;}
	.st78{opacity:0.7;}
	.st79{fill:#00ADEE;}
	.st80{fill:#F4D4B3;}
	.st81{fill:#F9D97A;}
	.st82{fill:#EDC96E;}
	.st83{fill:none;}
	.st84{fill:#AF6535;}
	.st85{fill:#F18BB4;}
	.st86{fill:#B3E4FF;}
	.st87{fill:#97DFFF;}
	.st88{fill:#D06E3C;}
	.st89{fill:#B55931;}
	.st90{fill:#DA4F4B;}
	.st91{fill:#EFCAA8;}
	.st92{fill:#EA7CB1;}
	.st93{fill:#EA7DAE;}
	.st94{fill:#BC7646;}
	.st95{fill:#00A1C6;}
	.st96{fill:#FCC230;}
	.st97{fill:#F2EBB1;}
	.st98{fill:#F9D6AF;}
	.st99{fill:#D34735;}
	.st100{fill:#E5A21A;}
	.st101{fill:#849E33;}
	.st102{fill:#EFBB14;}
	.st103{fill:#D8402B;}
	.st104{fill:#829B34;}
	.st105{fill:#F88916;}
	.st106{fill:#E27513;}
	.st107{fill:#FFB41F;}
	.st108{fill:#8AA538;}
	.st109{fill:#BE6BB2;}
	.st110{fill:#AA5BA3;}
	.st111{fill:#FFDF66;}
	.st112{fill:#F4BA00;}
	.st113{fill:#E28529;}
	.st114{fill:#FF9945;}
	.st115{fill:#BA6C45;}
	.st116{fill:#EDBA15;}
	.st117{fill:#E0452F;}
	.st118{fill:#F7F2D5;}
	.st119{fill:#4C4E51;}
	.st120{fill:#EA615D;}
	.st121{fill:#DD4A36;}
	.st122{fill:#F6AF72;}
	.st123{fill:#E8955D;}
	.st124{fill:#E4C074;}
	.st125{fill:#EAE4C3;}
	.st126{fill:#BF3522;}
	.st127{fill:#D13E33;}
	.st128{fill:#AA5EA3;}
	.st129{fill:#DD443C;}
	.st130{fill:#AA5FA3;}
	.st131{fill:#B7C536;}
	.st132{fill:#F2872F;}
	.st133{fill:#AF5FA7;}
	.st134{fill:#E29F17;}
	.st135{fill:#FFC86E;}
	.st136{fill:#A55937;}
	.st137{fill:#D8422E;}
	.st138{fill:#C3556D;}
	.st139{fill:#B24965;}
	.st140{fill:#D1A962;}
	.st141{fill:#A3961A;}
	.st142{fill:#AFA51D;}
	.st143{fill:#968A1C;}
</style>
<g>
	<g>
		<g>
			<g>
				<g>
					<path class="st26" d="M189.1,155.2c0,0.5,0,0.9,0,1.4c-0.1,2.1-1.9,3.8-4,3.8h-39.5c-7.3,0-23.5-4.6-40.6-9.5
						c-16.2-4.6-34.6-9.9-41.8-9.9H5.8c-1.2,0-2.3-0.5-3.1-1.5c-0.8-0.9-1.1-2.2-0.8-3.3c5.4-26.1,21.6-48.8,44.7-62.4
						c1.2-0.7,2.8-0.7,4,0c1.2,0.7,2,2,2,3.5v0.8h95.1c0.9,0,1.7,0.3,2.4,0.8C174.5,96.6,189.1,125.1,189.1,155.2z"/>
				</g>
			</g>
		</g>
	</g>
	<g>
		<g>
			<g>
				<g>
					<path class="st44" d="M171.8,202.4c-4.4,7.1-9.7,13.5-15.8,19.2h-123c-6.1-5.6-11.4-12.1-15.8-19.2H171.8z"/>
				</g>
			</g>
		</g>
	</g>
	<g>
		<g>
			<g>
				<g>
					<path class="st44" d="M185.1,156.4c-0.1,6.6-0.9,13-2.3,19.2H6.3C4.8,169,4,162.2,4,155.2V155c0-6.2,0.6-12.2,1.8-18
						c0,0,42.2,0,57.3,0c15.1,0,68.7,19.4,82.5,19.4H185.1z"/>
				</g>
			</g>
		</g>
	</g>
	<g>
		<g>
			<g>
				<g>
					<path class="st26" d="M144.9,34.4v22.1c0,2.2-1.8,4-4,4H48.7c-1,0-2-0.4-2.7-1.1L21.7,37.4c-1.2-1.1-1.6-2.9-1-4.4
						c0.6-1.5,2.1-2.6,3.7-2.6h116.5C143.1,30.4,144.9,32.2,144.9,34.4z"/>
				</g>
			</g>
		</g>
	</g>
	<g>
		<g>
			<g>
				<g>
					<path class="st44" d="M156.1,225.6h-123c-1,0-2-0.4-2.7-1.1c-6.4-5.9-11.9-12.6-16.5-20c-0.8-1.2-0.8-2.8-0.1-4
						c0.7-1.3,2-2,3.5-2h154.5c1.4,0,2.8,0.8,3.5,2c0.7,1.3,0.7,2.8-0.1,4c-4.5,7.4-10.1,14.1-16.5,20
						C158,225.2,157.1,225.6,156.1,225.6z M34.6,217.6h119.8c3.6-3.4,6.9-7.2,9.8-11.2H24.8C27.8,210.4,31.1,214.2,34.6,217.6z"/>
				</g>
			</g>
		</g>
	</g>
	<g>
		<g>
			<g>
				<g>
					<path class="st44" d="M182.8,179.5H6.3c-1.9,0-3.5-1.3-3.9-3.1C0.8,169.5,0,162.4,0,155.2V155c0-6.3,0.7-12.7,1.9-18.8
						c0.4-1.9,2-3.2,3.9-3.2h57.3c8.3,0,25.7,4.9,44,10.2c15.9,4.5,32.3,9.2,38.5,9.2h39.5c1.1,0,2.1,0.4,2.8,1.2
						c0.8,0.8,1.2,1.8,1.2,2.9c-0.1,6.8-0.9,13.5-2.4,20C186.3,178.2,184.7,179.5,182.8,179.5z M9.5,171.5h170
						c0.7-3.7,1.2-7.4,1.4-11.2h-35.3c-7.3,0-23.5-4.6-40.6-9.5c-16.2-4.6-34.6-9.9-41.8-9.9h-54c-0.8,4.6-1.2,9.3-1.2,14v0.2
						C8,160.7,8.5,166.2,9.5,171.5z"/>
				</g>
			</g>
		</g>
	</g>
	<g>
		<g>
			<g>
				<g>
					<path class="st28" d="M52.4,122.5H11.8c-2.2,0-4-1.8-4-4c0-2.2,1.8-4,4-4h40.6c2.2,0,4,1.8,4,4
						C56.4,120.7,54.6,122.5,52.4,122.5z"/>
				</g>
			</g>
		</g>
	</g>
	<g>
		<g>
			<g>
				<g>
					<path class="st28" d="M40.8,159H4c-2.2,0-4-1.8-4-4c0-2.2,1.8-4,4-4h36.8c2.2,0,4,1.8,4,4C44.8,157.2,43,159,40.8,159z"/>
				</g>
			</g>
		</g>
	</g>
	<g>
		<g>
			<g>
				<g>
					<path class="st28" d="M256,129.5c0,38.3-11.2,77-36.3,77H17.3c-1.4,0-2.7-0.7-3.4-1.9c-4-6.5-7.1-13.4-9.4-20.5
						c-0.8-2.4-1.5-5-2.1-7.6c-0.3-1.2,0-2.4,0.8-3.4c0.8-1,1.9-1.5,3.1-1.5h183.1c6.8,0,12.4-4.2,16.6-12.4
						c4-7.8,6.3-18.8,6.3-30.3c0-21.2-7.9-42.7-22.9-42.7H48.7c-2.2,0-4-1.8-4-4V56.5c0-2.2,1.8-4,4-4h171
						C244.8,52.5,256,91.2,256,129.5z"/>
				</g>
			</g>
		</g>
	</g>
</g>
</svg>
