<?xml version="1.0" encoding="utf-8"?>
<!-- Generator: Adobe Illustrator 22.1.0, SVG Export Plug-In . SVG Version: 6.00 Build 0)  -->
<svg version="1.1" id="Layer_1" xmlns="http://www.w3.org/2000/svg" xmlns:xlink="http://www.w3.org/1999/xlink" x="0px" y="0px"
	 viewBox="0 0 256 256" style="enable-background:new 0 0 256 256;" xml:space="preserve">
<style type="text/css">
	.st0{fill:#F6D67A;}
	.st1{fill:#E77CAE;}
	.st2{fill:#AC6535;}
	.st3{fill:#EB573B;}
	.st4{fill:#464646;}
	.st5{fill:#F5B31F;}
	.st6{fill:#9B592D;}
	.st7{fill:#9B5B2F;}
	.st8{fill:#E8A41A;}
	.st9{fill:#6D6E71;}
	.st10{fill:#E5A21C;}
	.st11{fill:#C66395;}
	.st12{fill:#E09F1E;}
	.st13{fill:#FFFFFF;}
	.st14{fill:#DDB95E;}
	.st15{fill:#EAC771;}
	.st16{fill:#F9F6CD;}
	.st17{fill:#009345;}
	.st18{fill:#008438;}
	.st19{fill:#EAA51B;}
	.st20{opacity:0.1;}
	.st21{fill:#FFD11D;}
	.st22{fill:#FFE37B;}
	.st23{fill:#FFA755;}
	.st24{fill:#FFEC97;}
	.st25{fill:#BC7532;}
	.st26{fill:#EFEFEF;}
	.st27{fill:#60ACF7;}
	.st28{fill:#876C6C;}
	.st29{fill:#1DDCFF;}
	.st30{fill:#BDF3FF;}
	.st31{fill:#EFCA70;}
	.st32{fill:#EFA91D;}
	.st33{fill:#8FAE3C;}
	.st34{fill:#92A5AC;}
	.st35{fill:#E8E3BA;}
	.st36{fill:#F79932;}
	.st37{fill:#F4F4F4;}
	.st38{fill:#FFDF8F;}
	.st39{fill:#EAE5B9;}
	.st40{fill:#7E9E6A;}
	.st41{fill:#94B57F;}
	.st42{fill:#9B5D8C;}
	.st43{fill:#96557A;}
	.st44{fill:#C3755A;}
	.st45{fill:#9BD7DD;}
	.st46{fill:#90CAD3;}
	.st47{fill:#F7F7F7;}
	.st48{fill:#AFE6EF;}
	.st49{fill:#FFFAEB;}
	.st50{fill:#F4EFC3;}
	.st51{fill:#F9F9F9;}
	.st52{fill:#FFE5C4;}
	.st53{fill:#FFB024;}
	.st54{fill:#FFC612;}
	.st55{fill:#FFCE31;}
	.st56{fill:#A05C2D;}
	.st57{fill:#1DCAF2;}
	.st58{fill:#00B0E0;}
	.st59{fill:#F2A355;}
	.st60{fill:#D68032;}
	.st61{fill:#66625D;}
	.st62{fill:#54504D;}
	.st63{fill:#B76955;}
	.st64{fill:#EFE8B4;}
	.st65{fill:#B93226;}
	.st66{fill:#EFEABF;}
	.st67{fill:#90C056;}
	.st68{opacity:0.15;}
	.st69{fill:#E8C56D;}
	.st70{fill:#F7BE4B;}
	.st71{fill:#E0A338;}
	.st72{fill:#F68455;}
	.st73{fill:#E26F47;}
	.st74{fill:#EC754B;}
	.st75{fill:#4AA5BA;}
	.st76{opacity:0.5;}
	.st77{fill:#A0B1B5;}
	.st78{opacity:0.7;}
	.st79{fill:#00ADEE;}
	.st80{fill:#F4D4B3;}
	.st81{fill:#F9D97A;}
	.st82{fill:#EDC96E;}
	.st83{fill:none;}
	.st84{fill:#AF6535;}
	.st85{fill:#F18BB4;}
	.st86{fill:#B3E4FF;}
	.st87{fill:#97DFFF;}
	.st88{fill:#D06E3C;}
	.st89{fill:#B55931;}
	.st90{fill:#DA4F4B;}
	.st91{fill:#EFCAA8;}
	.st92{fill:#EA7CB1;}
	.st93{fill:#EA7DAE;}
	.st94{fill:#BC7646;}
	.st95{fill:#00A1C6;}
	.st96{fill:#FCC230;}
	.st97{fill:#F2EBB1;}
	.st98{fill:#F9D6AF;}
	.st99{fill:#D34735;}
	.st100{fill:#E5A21A;}
	.st101{fill:#849E33;}
	.st102{fill:#EFBB14;}
	.st103{fill:#D8402B;}
	.st104{fill:#829B34;}
	.st105{fill:#F88916;}
	.st106{fill:#E27513;}
	.st107{fill:#FFB41F;}
	.st108{fill:#8AA538;}
	.st109{fill:#BE6BB2;}
	.st110{fill:#AA5BA3;}
	.st111{fill:#FFDF66;}
	.st112{fill:#F4BA00;}
	.st113{fill:#E28529;}
	.st114{fill:#FF9945;}
	.st115{fill:#BA6C45;}
	.st116{fill:#EDBA15;}
	.st117{fill:#E0452F;}
	.st118{fill:#F7F2D5;}
	.st119{fill:#4C4E51;}
	.st120{fill:#EA615D;}
	.st121{fill:#DD4A36;}
	.st122{fill:#F6AF72;}
	.st123{fill:#E8955D;}
	.st124{fill:#E4C074;}
	.st125{fill:#EAE4C3;}
	.st126{fill:#BF3522;}
	.st127{fill:#D13E33;}
	.st128{fill:#AA5EA3;}
	.st129{fill:#DD443C;}
	.st130{fill:#AA5FA3;}
	.st131{fill:#B7C536;}
	.st132{fill:#F2872F;}
	.st133{fill:#AF5FA7;}
	.st134{fill:#E29F17;}
	.st135{fill:#FFC86E;}
	.st136{fill:#A55937;}
	.st137{fill:#D8422E;}
	.st138{fill:#C3556D;}
	.st139{fill:#B24965;}
	.st140{fill:#D1A962;}
	.st141{fill:#A3961A;}
	.st142{fill:#AFA51D;}
	.st143{fill:#968A1C;}
</style>
<g>
	<g>
		<g>
			<g>
				<g>
					<path class="st21" d="M63.5,194l8.3-7.8c21.9-44.4,34.6-78.7,39.4-103.3C162.6,31.5,224.8-9.3,246.2,12
						c20.3,20.3-15.5,77.3-63.2,127C147.9,148,101.2,167.8,63.5,194z"/>
				</g>
			</g>
		</g>
	</g>
	<g>
		<g>
			<g>
				<g>
					<path class="st21" d="M185.9,141.8c-0.5,0.5-1.2,0.9-1.9,1.1c-30.6,7.8-77.7,26.3-118.2,54.4c-0.7,0.5-1.5,0.7-2.3,0.7
						c-1.2,0-2.3-0.5-3.1-1.5c-1.3-1.6-1.1-4,0.4-5.4l7.8-7.3c20.8-42.2,33.8-76.4,38.7-101.7c0.1-0.8,0.5-1.5,1.1-2.1
						c37.7-37.6,89.5-77.9,122-77.9c7.8,0,14,2.3,18.7,7C273.2,33.3,230.1,95.7,185.9,141.8z"/>
				</g>
			</g>
		</g>
	</g>
	<g>
		<g>
			<g>
				<g>
					<path class="st107" d="M106.2,153.7c-1,0-2-0.4-2.8-1.2c-1.6-1.6-1.6-4.1,0-5.7L218.1,32.4c1.6-1.6,4.1-1.6,5.7,0
						c1.6,1.6,1.6,4.1,0,5.7L109.1,152.6C108.3,153.4,107.3,153.7,106.2,153.7z"/>
				</g>
			</g>
		</g>
	</g>
	<g>
		<g>
			<g>
				<g>
					<path class="st107" d="M135.2,148.7c-1,0-2-0.4-2.8-1.2c-1.6-1.6-1.6-4.1,0-5.7L226,48.4c1.6-1.6,4.1-1.6,5.7,0
						c1.6,1.6,1.6,4.1,0,5.7L138,147.6C137.2,148.3,136.2,148.7,135.2,148.7z"/>
				</g>
			</g>
		</g>
	</g>
	<g>
		<g>
			<g>
				<g>
					<path class="st107" d="M111.3,124.9c-1,0-2-0.4-2.8-1.2c-1.6-1.6-1.6-4.1,0-5.7l93.6-93.5c1.6-1.6,4.1-1.6,5.7,0
						c1.6,1.6,1.6,4.1,0,5.7l-93.6,93.5C113.3,124.5,112.3,124.9,111.3,124.9z"/>
				</g>
			</g>
		</g>
	</g>
	<g>
		<g>
			<g>
				<g>
					<path class="st107" d="M204.7,91.5c-1.2,0-2.4-0.6-3.2-1.6c-10-13.5-21.9-25.4-35.4-35.4c-1.8-1.3-2.1-3.8-0.8-5.6
						c1.3-1.8,3.8-2.1,5.6-0.8c14.1,10.5,26.6,22.9,37.1,37.1c1.3,1.8,0.9,4.3-0.8,5.6C206.3,91.2,205.5,91.5,204.7,91.5z"/>
				</g>
			</g>
		</g>
	</g>
	<g>
		<g>
			<g>
				<g>
					<path class="st107" d="M219.7,71.4c-1.2,0-2.4-0.6-3.2-1.6c-8.5-11.6-18.7-21.8-30.4-30.3c-1.8-1.3-2.2-3.8-0.9-5.6
						c1.3-1.8,3.8-2.2,5.6-0.9c12.3,9,23,19.8,32.1,32c1.3,1.8,0.9,4.3-0.8,5.6C221.3,71.1,220.5,71.4,219.7,71.4z"/>
				</g>
			</g>
		</g>
	</g>
	<g>
		<g>
			<g>
				<g>
					<path class="st107" d="M189.9,111.8c-1.1,0-2.3-0.5-3.1-1.4c-12.6-14.9-26.5-28.8-41.4-41.4c-1.7-1.4-1.9-4-0.5-5.6
						c1.4-1.7,4-1.9,5.6-0.5c15.2,12.9,29.5,27.1,42.4,42.3c1.4,1.7,1.2,4.2-0.5,5.6C191.8,111.5,190.8,111.8,189.9,111.8z"/>
				</g>
			</g>
		</g>
	</g>
	<g>
		<g>
			<g>
				<g>
					<path class="st107" d="M174.3,131.3c-1.2,0-2.4-0.5-3.1-1.5C158,113,142.8,97.9,126.1,84.7c-1.7-1.4-2-3.9-0.7-5.6
						c1.4-1.7,3.9-2,5.6-0.7c17.2,13.6,32.9,29.2,46.4,46.4c1.4,1.7,1.1,4.2-0.7,5.6C176.1,131,175.2,131.3,174.3,131.3z"/>
				</g>
			</g>
		</g>
	</g>
	<g>
		<g>
			<g>
				<g>
					<path class="st107" d="M152.4,144.4c-1.2,0-2.4-0.6-3.2-1.6c-10-13.6-22.2-25.8-36.2-36.1c-1.8-1.3-2.2-3.8-0.8-5.6
						c1.3-1.8,3.8-2.2,5.6-0.8c14.7,10.9,27.4,23.6,37.9,37.8c1.3,1.8,0.9,4.3-0.9,5.6C154.1,144.2,153.2,144.4,152.4,144.4z"/>
				</g>
			</g>
		</g>
	</g>
	<g>
		<g>
			<g>
				<g>
					<path class="st33" d="M76.7,185.4c-0.4,0.9-0.9,1.8-1.3,2.7c-0.2,0.4-0.5,0.8-0.8,1.2l-8.3,7.8c-0.1,0.1-0.3,0.3-0.4,0.4
						c-9.4,6.5-18,13.3-25.5,20.1c-0.6,0.5-1.1,1-1.7,1.5c-0.5,0.5-1.1,1-1.6,1.5c-0.5,0.5-1.1,1-1.6,1.5c-0.5,0.5-1,1-1.6,1.6
						c-0.5,0.5-1,1-1.5,1.5c-0.5,0.5-1,1-1.5,1.6c-1.5,1.5-2.9,3.1-4.3,4.7c-0.5,0.5-0.9,1-1.4,1.6c-0.4,0.5-0.9,1-1.3,1.6
						c-0.4,0.5-0.9,1-1.3,1.6c-0.4,0.5-0.8,1-1.2,1.6c-0.2,0.3-0.5,0.6-0.7,0.9c-0.2,0.3-0.5,0.6-0.7,0.9c-0.7,1-1.4,1.9-2.1,2.9
						c-0.1,0.1-0.2,0.2-0.3,0.3c-1-0.8-2-1.7-3-2.7c6.3-8.8,14.2-17.4,23.1-25.5c7.9-7.2,16.6-14,25.9-20.4
						C67.8,191.1,72.2,188.2,76.7,185.4z"/>
				</g>
			</g>
		</g>
	</g>
	<g>
		<g>
			<g>
				<g>
					<path class="st33" d="M115.1,83.7c-4.7,24.2-16.5,56.1-35.1,95c-2.1,1.3-4.2,2.6-6.3,3.9c-4.2,2.6-8.3,5.4-12.4,8.2
						c-0.1,0.1-0.2,0.1-0.2,0.2l0,0c-1.7,1.2-3.4,2.4-5.1,3.6c-1.2,0.8-2.3,1.7-3.4,2.5c-6.3,4.7-12.2,9.6-17.5,14.4
						c-0.6,0.5-1.2,1.1-1.8,1.6c-0.6,0.5-1.1,1.1-1.7,1.6c-0.6,0.5-1.1,1.1-1.7,1.6c-1.5,1.5-3,3-4.5,4.5c-0.7,0.7-1.3,1.3-1.9,2
						c-0.5,0.5-1,1.1-1.5,1.6c-2.1,2.3-4.1,4.6-6,6.9c-0.3,0.4-0.7,0.8-1,1.2c-1.1,1.4-2.2,2.8-3.2,4.2c-0.2,0.2-0.3,0.5-0.5,0.7
						c-1.1,1.6-1,3.8,0.4,5.2c-30.7-30.7,6.1-80.8,35.6-121.1c18.1-24.6,36.8-50.1,29.8-59C75,60.8,71.7,60,67.1,60
						c-7.2,0-16.6,2.3-24.8,4.5c-1.9,0.5-3.8-0.4-4.7-2.1c-0.8-1.7-0.3-3.8,1.2-5C61.8,40.6,80.2,32,93.6,32
						c7.4,0,13.2,2.5,17.3,7.5C117.8,47.8,119.2,62.7,115.1,83.7z"/>
				</g>
			</g>
		</g>
		<g>
			<g>
				<g>
					<path class="st33" d="M73.6,182.6c-0.6,1.2-1.2,2.5-1.8,3.7l-8.3,7.8c-9.3,6.4-18,13.3-25.9,20.4c-8.9,8.1-16.8,16.6-23.1,25.5
						c-1-1-1.9-2-2.7-3c1-1.4,2.1-2.8,3.2-4.2c0.3-0.4,0.6-0.8,1-1.2c1.9-2.3,3.9-4.6,6-6.9c0.5-0.5,1-1.1,1.5-1.6
						c0.6-0.7,1.3-1.4,1.9-2c1.4-1.5,2.9-3,4.5-4.5c0.6-0.5,1.1-1.1,1.7-1.6c0.6-0.5,1.1-1.1,1.7-1.6c0.6-0.5,1.2-1.1,1.8-1.6
						c5.4-4.8,11.2-9.7,17.5-14.4c1.1-0.9,2.3-1.7,3.4-2.5c1.7-1.2,3.4-2.4,5.1-3.6l0,0c0.1-0.1,0.1-0.1,0.2-0.2
						C65.3,187.9,69.4,185.2,73.6,182.6z"/>
				</g>
			</g>
		</g>
	</g>
	<g>
		<g>
			<g>
				<g>
					<path class="st33" d="M73.6,182.6c-4.2,2.6-8.3,5.4-12.4,8.2c-0.1,0.1-0.2,0.1-0.2,0.2l0,0c-1.7,1.2-3.4,2.4-5.1,3.6
						c-1.2,0.8-2.3,1.7-3.4,2.5c-6.3,4.7-12.2,9.6-17.5,14.4c-0.6,0.5-1.2,1.1-1.8,1.6c-0.6,0.5-1.1,1.1-1.7,1.6
						c-0.6,0.5-1.1,1.1-1.7,1.6c-0.8,0.7-1.5,1.5-2.3,2.2c-0.8,0.8-1.5,1.5-2.2,2.2c-0.7,0.7-1.3,1.3-1.9,2c-0.5,0.5-1,1.1-1.5,1.6
						c-2.1,2.3-4.1,4.6-6,6.9c-0.3,0.4-0.7,0.8-1,1.2c-1.1,1.4-2.2,2.8-3.2,4.2c-0.2,0.2-0.3,0.5-0.5,0.7c-1.1,1.6-1,3.8,0.4,5.2
						c0.8,0.8,1.8,1.2,2.8,1.2c0.1,0,0.2,0,0.3,0c1-0.1,2-0.6,2.7-1.3c0.1-0.1,0.2-0.2,0.3-0.3c0.7-0.9,1.4-1.9,2.1-2.9l0,0
						c0.2-0.3,0.5-0.6,0.7-0.9c0.2-0.3,0.5-0.6,0.7-0.9c0.4-0.5,0.8-1,1.2-1.6c0.4-0.5,0.8-1,1.3-1.6c0.4-0.5,0.9-1,1.3-1.6
						c0.4-0.5,0.9-1,1.4-1.6c1.4-1.6,2.8-3.1,4.3-4.7c0.5-0.5,1-1,1.5-1.6c0.5-0.5,1-1,1.5-1.5c0.5-0.5,1-1,1.6-1.6
						c0.5-0.5,1.1-1,1.6-1.5c0.5-0.5,1.1-1,1.6-1.5c0.6-0.5,1.1-1,1.7-1.5c7.5-6.8,16.1-13.6,25.5-20.1c0.2-0.1,0.3-0.2,0.4-0.4
						l8.3-7.8c0.3-0.3,0.6-0.7,0.8-1.2c0.4-0.9,0.9-1.8,1.3-2.7c1.1-2.3,2.2-4.5,3.2-6.7C77.8,179.9,75.7,181.2,73.6,182.6z"/>
				</g>
			</g>
		</g>
	</g>
	<g>
		<g>
			<g>
				<g>
					<path class="st108" d="M73.6,182.6c-4.2,2.6-8.3,5.4-12.4,8.2c-0.1,0.1-0.2,0.1-0.2,0.2l0,0c-1.7,1.2-3.4,2.4-5.1,3.6
						c-1.2,0.8-2.3,1.7-3.4,2.5c-6.3,4.7-12.2,9.6-17.5,14.4c-0.6,0.5-1.2,1.1-1.8,1.6c-0.6,0.5-1.1,1.1-1.7,1.6
						c-0.6,0.5-1.1,1.1-1.7,1.6c-0.8,0.7-1.5,1.5-2.3,2.2c-0.8,0.8-1.5,1.5-2.2,2.2c-0.7,0.7-1.3,1.3-1.9,2c-0.5,0.5-1,1.1-1.5,1.6
						c-2.1,2.3-4.1,4.6-6,6.9c-0.3,0.4-0.7,0.8-1,1.2c-1.1,1.4-2.2,2.8-3.2,4.2c-0.2,0.2-0.3,0.5-0.5,0.7c-1.1,1.6-1,3.8,0.4,5.2
						c0.8,0.8,1.8,1.2,2.8,1.2c0.1,0,0.2,0,0.3,0c1-0.1,2-0.6,2.7-1.3c0.1-0.1,0.2-0.2,0.3-0.3c0.7-0.9,1.4-1.9,2.1-2.9
						c0.2-0.3,0.4-0.6,0.7-0.9c0.2-0.3,0.5-0.6,0.7-0.9c0.4-0.5,0.8-1,1.2-1.6c0.4-0.5,0.9-1,1.3-1.6c0.4-0.5,0.9-1,1.3-1.6
						c0.5-0.5,0.9-1,1.4-1.6c1.4-1.6,2.8-3.1,4.3-4.7c0.5-0.5,1-1,1.5-1.6c0.5-0.5,1-1,1.5-1.5c0.5-0.5,1-1,1.6-1.6
						c0.5-0.5,1.1-1,1.6-1.5c0.5-0.5,1.1-1,1.6-1.5c0.6-0.5,1.1-1,1.7-1.5c7.5-6.8,16.1-13.6,25.5-20.1c0.2-0.1,0.3-0.2,0.4-0.4
						l8.3-7.8c0.3-0.3,0.6-0.7,0.8-1.2c0.4-0.9,0.9-1.8,1.3-2.7c1.1-2.3,2.2-4.5,3.2-6.7C77.8,179.9,75.7,181.2,73.6,182.6z"/>
				</g>
			</g>
		</g>
		<g>
			<g>
				<g>
					<path class="st108" d="M225.8,195.7c-1.2,1.2-2.9,1.5-4.4,0.9c-1.5-0.6-2.5-2.1-2.4-3.7l0-1.6c0.2-10.2,0.2-16.3-8.5-25.1
						c-1.7-1.7-3.8-2.5-6.7-2.5c-13.8,0-38.3,18.1-64.1,37.3c-33.4,24.7-71.2,52.8-100.8,52.8h0c-10.8,0-19.9-3.7-27.2-11
						c0.8,0.8,1.8,1.2,2.8,1.2c0.1,0,0.2,0,0.3,0c1-0.1,2-0.6,2.7-1.3c0.1-0.1,0.2-0.2,0.3-0.3c0.7-0.9,1.4-1.9,2.1-2.9
						c0.2-0.3,0.4-0.6,0.7-0.9c0.2-0.3,0.5-0.6,0.7-0.9c0.4-0.5,0.8-1,1.2-1.6c0.4-0.5,0.9-1,1.3-1.6c0.4-0.5,0.9-1,1.3-1.6
						c0.5-0.5,0.9-1,1.4-1.6c1.4-1.6,2.8-3.1,4.3-4.7c0.5-0.5,1-1,1.5-1.6c0.5-0.5,1-1,1.5-1.5c0.5-0.5,1-1,1.6-1.6
						c0.5-0.5,1.1-1,1.6-1.5c0.5-0.5,1.1-1,1.6-1.5c0.6-0.5,1.1-1,1.7-1.5c7.5-6.8,16.1-13.6,25.5-20.1c0.2-0.1,0.3-0.2,0.4-0.4
						l8.3-7.8c0.3-0.3,0.6-0.7,0.8-1.2c0.4-0.9,0.9-1.8,1.3-2.7c1.1-2.3,2.2-4.5,3.2-6.7c36.5-22,75.4-36.7,102.1-43.5
						c14-3.6,26.2-5.5,35.4-5.5c8.8,0,14.7,1.7,18.1,5.1C243.3,142.6,243,178.5,225.8,195.7z"/>
				</g>
			</g>
		</g>
	</g>
	<g>
		<g>
			<g>
				<g>
					<path class="st33" d="M42.2,238.8c-1.9,0-3.6-1.4-3.9-3.4c-0.3-2.2,1.2-4.2,3.3-4.6c17.3-2.7,39.8-14.5,68.6-36.2
						c1.8-1.3,4.3-1,5.6,0.8c1.3,1.8,1,4.3-0.8,5.6c-29.9,22.5-53.5,34.8-72.2,37.7C42.6,238.8,42.4,238.8,42.2,238.8z"/>
				</g>
			</g>
		</g>
	</g>
</g>
</svg>
