<?xml version="1.0" encoding="utf-8"?>
<!-- Generator: Adobe Illustrator 22.1.0, SVG Export Plug-In . SVG Version: 6.00 Build 0)  -->
<svg version="1.1" id="Layer_1" xmlns="http://www.w3.org/2000/svg" xmlns:xlink="http://www.w3.org/1999/xlink" x="0px" y="0px"
	 viewBox="0 0 256 256" style="enable-background:new 0 0 256 256;" xml:space="preserve">
<style type="text/css">
	.st0{fill:#F6D67A;}
	.st1{fill:#E77CAE;}
	.st2{fill:#AC6535;}
	.st3{fill:#EB573B;}
	.st4{fill:#464646;}
	.st5{fill:#F5B31F;}
	.st6{fill:#9B592D;}
	.st7{fill:#9B5B2F;}
	.st8{fill:#E8A41A;}
	.st9{fill:#6D6E71;}
	.st10{fill:#E5A21C;}
	.st11{fill:#C66395;}
	.st12{fill:#E09F1E;}
	.st13{fill:#FFFFFF;}
	.st14{fill:#DDB95E;}
	.st15{fill:#EAC771;}
	.st16{fill:#F9F6CD;}
	.st17{fill:#009345;}
	.st18{fill:#008438;}
	.st19{fill:#EAA51B;}
	.st20{opacity:0.1;}
	.st21{fill:#FFD11D;}
	.st22{fill:#FFE37B;}
	.st23{fill:#FFA755;}
	.st24{fill:#FFEC97;}
	.st25{fill:#BC7532;}
	.st26{fill:#EFEFEF;}
	.st27{fill:#60ACF7;}
	.st28{fill:#876C6C;}
	.st29{fill:#1DDCFF;}
	.st30{fill:#BDF3FF;}
	.st31{fill:#EFCA70;}
	.st32{fill:#EFA91D;}
	.st33{fill:#8FAE3C;}
	.st34{fill:#92A5AC;}
	.st35{fill:#E8E3BA;}
	.st36{fill:#F79932;}
	.st37{fill:#F4F4F4;}
	.st38{fill:#FFDF8F;}
	.st39{fill:#EAE5B9;}
	.st40{fill:#7E9E6A;}
	.st41{fill:#94B57F;}
	.st42{fill:#9B5D8C;}
	.st43{fill:#96557A;}
	.st44{fill:#C3755A;}
	.st45{fill:#9BD7DD;}
	.st46{fill:#90CAD3;}
	.st47{fill:#F7F7F7;}
	.st48{fill:#AFE6EF;}
	.st49{fill:#FFFAEB;}
	.st50{fill:#F4EFC3;}
	.st51{fill:#F9F9F9;}
	.st52{fill:#FFE5C4;}
	.st53{fill:#FFB024;}
	.st54{fill:#FFC612;}
	.st55{fill:#FFCE31;}
	.st56{fill:#A05C2D;}
	.st57{fill:#1DCAF2;}
	.st58{fill:#00B0E0;}
	.st59{fill:#F2A355;}
	.st60{fill:#D68032;}
	.st61{fill:#66625D;}
	.st62{fill:#54504D;}
	.st63{fill:#B76955;}
	.st64{fill:#EFE8B4;}
	.st65{fill:#B93226;}
	.st66{fill:#EFEABF;}
	.st67{fill:#90C056;}
	.st68{opacity:0.15;}
	.st69{fill:#E8C56D;}
	.st70{fill:#F7BE4B;}
	.st71{fill:#E0A338;}
	.st72{fill:#F68455;}
	.st73{fill:#E26F47;}
	.st74{fill:#EC754B;}
	.st75{fill:#4AA5BA;}
	.st76{opacity:0.5;}
	.st77{fill:#A0B1B5;}
	.st78{opacity:0.7;}
	.st79{fill:#00ADEE;}
	.st80{fill:#F4D4B3;}
	.st81{fill:#F9D97A;}
	.st82{fill:#EDC96E;}
	.st83{fill:none;}
	.st84{fill:#AF6535;}
	.st85{fill:#F18BB4;}
	.st86{fill:#B3E4FF;}
	.st87{fill:#97DFFF;}
	.st88{fill:#D06E3C;}
	.st89{fill:#B55931;}
	.st90{fill:#DA4F4B;}
	.st91{fill:#EFCAA8;}
	.st92{fill:#EA7CB1;}
	.st93{fill:#EA7DAE;}
	.st94{fill:#BC7646;}
	.st95{fill:#00A1C6;}
	.st96{fill:#FCC230;}
	.st97{fill:#F2EBB1;}
	.st98{fill:#F9D6AF;}
	.st99{fill:#D34735;}
	.st100{fill:#E5A21A;}
	.st101{fill:#849E33;}
	.st102{fill:#EFBB14;}
	.st103{fill:#D8402B;}
	.st104{fill:#829B34;}
	.st105{fill:#F88916;}
	.st106{fill:#E27513;}
	.st107{fill:#FFB41F;}
	.st108{fill:#8AA538;}
	.st109{fill:#BE6BB2;}
	.st110{fill:#AA5BA3;}
	.st111{fill:#FFDF66;}
	.st112{fill:#F4BA00;}
	.st113{fill:#E28529;}
	.st114{fill:#FF9945;}
	.st115{fill:#BA6C45;}
	.st116{fill:#EDBA15;}
	.st117{fill:#E0452F;}
	.st118{fill:#F7F2D5;}
	.st119{fill:#4C4E51;}
	.st120{fill:#EA615D;}
	.st121{fill:#DD4A36;}
	.st122{fill:#F6AF72;}
	.st123{fill:#E8955D;}
	.st124{fill:#E4C074;}
	.st125{fill:#EAE4C3;}
	.st126{fill:#BF3522;}
	.st127{fill:#D13E33;}
	.st128{fill:#AA5EA3;}
	.st129{fill:#DD443C;}
	.st130{fill:#AA5FA3;}
	.st131{fill:#B7C536;}
	.st132{fill:#F2872F;}
	.st133{fill:#AF5FA7;}
	.st134{fill:#E29F17;}
	.st135{fill:#FFC86E;}
	.st136{fill:#A55937;}
	.st137{fill:#D8422E;}
	.st138{fill:#C3556D;}
	.st139{fill:#B24965;}
	.st140{fill:#D1A962;}
	.st141{fill:#A3961A;}
	.st142{fill:#AFA51D;}
	.st143{fill:#968A1C;}
</style>
<g>
	<g>
		<g>
			<g>
				<g>
					<path class="st5" d="M250.5,128c0,0.7,0,1.4,0,2.1c0,1.8-1.3,3.4-3.1,3.8c-0.3,0.1-0.6,0.1-0.9,0.1c-1.5,0-2.9-0.8-3.6-2.2
						c-4.2-8.2-10.5-16-16-19.9c-1.9-1.3-3.6-2.7-5-4.2c-2.9-2.9-4.8-5.9-5.8-9.3c-1.5-5-0.6-9.5,0.5-13.7c0.4-1.6,1.2-3.3,2.2-5.3
						c2.1-4.4,4.6-9.9,4.6-16.5c0-1.8,1.1-3.4,2.8-3.9c1.7-0.5,3.6,0.2,4.5,1.7C243.6,80.8,250.5,104.1,250.5,128z"/>
				</g>
			</g>
		</g>
		<g>
			<g>
				<g>
					<path class="st5" d="M243.2,169.8c-7.7,21.7-21.4,40.8-39.5,55.2c-0.7,0.6-1.6,0.9-2.5,0.9c-1,0-1.9-0.3-2.7-1
						c-1.5-1.3-1.8-3.5-0.7-5.1c4.2-6.5,6.6-14.8,8.7-22c2.6-9,4.9-16.8,10-20.9c3.8-3.1,8.5-5.4,13-7.6c2.6-1.3,5.4-2.7,7.8-4.1
						c1.4-0.9,3.3-0.7,4.6,0.3C243.3,166.4,243.8,168.2,243.2,169.8z"/>
				</g>
			</g>
		</g>
		<g>
			<g>
				<g>
					<path class="st5" d="M180.4,239.8c-17,8.2-35.2,12.4-54.2,12.4C57.7,252.1,1.9,196.5,1.9,128c0-2.6,0.1-5.2,0.3-7.9
						c0-0.1,0-0.2,0-0.2c0.1-1.4,0.2-2.7,0.3-4.1c0.2-1.7,1.3-3.1,3-3.5c1.6-0.4,3.3,0.2,4.3,1.6c2.8,4.1,8.8,7.6,14.6,11
						c6.9,4.1,14,8.3,18,14.4c1.7,2.6,2.7,5.4,3,8.3c0.5,5.6,0.1,12.9-0.3,20.5c-0.3,5.3-0.6,10.8-0.6,16.1
						c-0.1,9.5,0.6,22.8,7,29.2c2.1,2.1,5.1,3.5,9.3,4.2c2.6,0.5,5.5,0.7,9,0.7c6.9,0,14.5-0.9,21.9-1.8c6.7-0.8,13.1-1.6,18.4-1.6
						c3.4,0,6.2,0.3,8.5,1c3.3,1,7.4,2.7,12.2,4.6c10.1,4.1,22.7,9.2,34.6,11c4.8,0.7,9.1,0.9,12.9,0.5c1.9-0.2,3.7,1,4.3,2.9
						C183,236.9,182.1,238.9,180.4,239.8z"/>
				</g>
			</g>
		</g>
		<g>
			<g>
				<g>
					<path class="st5" d="M192.7,26.8c-0.6,1.8-2.4,2.9-4.3,2.6c-2.8-0.4-5.7-0.5-8.9-0.5c-5.9,0-11.6,0.6-16.7,1.2
						c-4.2,0.4-7.8,0.8-10.9,0.8c-3,0-5.2-0.4-7-1.2c-2.1-0.9-4.5-2.4-7.4-4c-8.1-4.7-19.1-11.1-30.4-11.1c-4.1,0-7.9,0.8-11.5,2.6
						c0,0-0.1,0.1-0.2,0.1c-7.1,3.5-14.1,13.1-18.7,20c-3.2,4.8-6.4,10.1-9.5,15.2c-9.6,15.7-17.8,29.2-27.1,31.9
						c-4.7,1.4-9.6,2.9-14.1,4.7c-5.3,2.1-9.3,4.4-12.2,7.1c-0.8,0.7-1.7,1-2.7,1c-0.7,0-1.5-0.2-2.1-0.6c-1.5-1-2.2-2.8-1.7-4.5
						c7.6-25,23.3-47.4,44.2-63.2C73.2,12.5,99,3.9,126.2,3.9c23,0,45.4,6.3,64.8,18.2C192.6,23.1,193.4,25,192.7,26.8z"/>
				</g>
			</g>
		</g>
	</g>
	<g>
		<g>
			<g>
				<g>
					<path class="st1" d="M250,128.2c-4.8-9.4-11.9-18.1-18.5-22.8c-1.5-1.1-2.9-2.2-4-3.3c-1.9-1.9-3.2-3.9-3.8-5.9
						c-0.8-2.9-0.4-5.8,0.6-9.3c0.3-0.9,1-2.4,1.7-4c2.1-4.6,5.4-11.6,5.3-19.9c-0.1-9.7-4.7-19.2-13.6-28.1
						c-7.5-7.5-16.7-11.8-28.3-13.4c-3.1-0.4-6.4-0.6-9.9-0.6c-6.3,0-12.3,0.6-17.6,1.2c-4,0.4-7.4,0.8-10,0.8
						c-2.3,0-3.3-0.3-3.7-0.5c-1.7-0.8-4-2.1-6.6-3.6c-8.4-4.9-21-12.2-34.4-12.2c-5.3,0-10.5,1.2-15.2,3.5c-0.1,0-0.1,0.1-0.2,0.1
						c-6.8,3.4-13.5,10.4-21.7,22.6c-3.3,5-6.6,10.3-9.7,15.5c-8,13-16.2,26.5-22.6,28.4c-4.9,1.4-10,3-14.9,4.9
						c-6.2,2.5-11,5.3-14.6,8.6c-5.6,5-8.4,11.3-8.4,18.5c0,3.5,1.1,6.8,3.2,9.8C7,124,13.8,128,20.3,131.8
						c6.1,3.6,12.4,7.4,15.4,11.9c1,1.5,1.6,3.1,1.7,4.7c0.5,5,0.1,12-0.3,19.3c-0.3,5.4-0.6,11-0.7,16.5c-0.1,11.8,0.9,26.5,9.4,35
						c3.2,3.2,7.8,5.4,13.4,6.4c3.1,0.6,6.5,0.9,10.5,0.9c7.4,0,15.2-1,22.8-1.9c6.5-0.8,12.6-1.6,17.5-1.6c2.6,0,4.7,0.2,6.2,0.7
						c2.9,0.9,6.9,2.5,11.5,4.4c10.5,4.2,23.5,9.5,36.4,11.5c3.5,0.6,6.8,0.8,9.9,0.8c1.8,0,3.5-0.1,5.1-0.3
						c4.6-0.5,8.8-1.8,12.3-3.7c5.3-2.8,9.6-6.9,13.2-12.4c4.8-7.5,7.4-16.3,9.7-24.1c2.1-7.4,4.2-14.4,7.4-16.9
						c3.1-2.5,7.2-4.6,11.5-6.7c2.8-1.4,5.7-2.8,8.4-4.5c4.8-2.9,11.5-7.8,13.8-16.5C257.2,148.1,255.3,138.4,250,128.2z
						 M126.2,94.6c18.5,0,33.5,15,33.5,33.4s-15,33.4-33.5,33.4c-18.5,0-33.5-15-33.5-33.4S107.7,94.6,126.2,94.6z"/>
				</g>
			</g>
		</g>
	</g>
	<g>
		<g>
			<g>
				<g>
					<g>
						<path class="st11" d="M112.9,43.4c-2.2,0-4-1.8-4-4v-7.6c0-2.2,1.8-4,4-4c2.2,0,4,1.8,4,4v7.6
							C116.9,41.6,115.1,43.4,112.9,43.4z"/>
					</g>
				</g>
			</g>
		</g>
		<g>
			<g>
				<g>
					<g>
						<path class="st11" d="M164.5,70.9c-0.4,0-0.8-0.1-1.1-0.2l-8.1-2.4c-2.1-0.6-3.3-2.8-2.7-5c0.6-2.1,2.8-3.3,5-2.7l8.1,2.4
							c2.1,0.6,3.3,2.8,2.7,5C167.8,69.8,166.2,70.9,164.5,70.9z"/>
					</g>
				</g>
			</g>
		</g>
		<g>
			<g>
				<g>
					<g>
						<path class="st11" d="M197,64.8c-1.1,0-2.2-0.5-3-1.4l-7.1-8.1c-1.5-1.7-1.3-4.2,0.4-5.6c1.7-1.5,4.2-1.3,5.6,0.4l7.1,8.1
							c1.5,1.7,1.3,4.2-0.4,5.6C198.9,64.4,198,64.8,197,64.8z"/>
					</g>
				</g>
			</g>
		</g>
		<g>
			<g>
				<g>
					<g>
						<path class="st11" d="M186.6,105.9c-0.5,0-1.1-0.1-1.6-0.3l-7.6-3.3c-2-0.9-2.9-3.2-2.1-5.3c0.9-2,3.2-2.9,5.3-2.1l7.6,3.3
							c2,0.9,2.9,3.2,2.1,5.3C189.6,105,188.1,105.9,186.6,105.9z"/>
					</g>
				</g>
			</g>
		</g>
		<g>
			<g>
				<g>
					<g>
						<path class="st11" d="M215.1,138.8c-0.5,0-1.1-0.1-1.6-0.3c-2-0.9-2.9-3.3-2-5.3l3.3-7.5c0.9-2,3.3-2.9,5.3-2
							c2,0.9,2.9,3.3,2,5.3l-3.3,7.5C218.1,137.9,216.6,138.8,215.1,138.8z"/>
					</g>
				</g>
			</g>
		</g>
		<g>
			<g>
				<g>
					<g>
						<path class="st11" d="M184,157.4c-0.5,0-1.1-0.1-1.6-0.3c-2-0.9-2.9-3.3-2-5.3l3.8-8.5c0.9-2,3.3-2.9,5.3-2
							c2,0.9,2.9,3.3,2,5.3l-3.8,8.5C186.9,156.5,185.5,157.4,184,157.4z"/>
					</g>
				</g>
			</g>
		</g>
		<g>
			<g>
				<g>
					<g>
						<path class="st11" d="M183,192c-1.8,0-3.4-1.2-3.9-2.9c-0.6-2.1,0.7-4.3,2.8-4.9l13.8-3.8c2.1-0.6,4.3,0.7,4.9,2.8
							c0.6,2.1-0.7,4.3-2.8,4.9l-13.8,3.8C183.7,192,183.4,192,183,192z"/>
					</g>
				</g>
			</g>
		</g>
		<g>
			<g>
				<g>
					<g>
						<path class="st11" d="M133.3,201.1c-2.2,0-4-1.8-4-4v-12.8c0-2.2,1.8-4,4-4s4,1.8,4,4v12.8
							C137.3,199.3,135.5,201.1,133.3,201.1z"/>
					</g>
				</g>
			</g>
		</g>
		<g>
			<g>
				<g>
					<g>
						<path class="st11" d="M160.4,223.2c-1.4,0-2.7-0.7-3.4-1.9c-1.1-1.9-0.5-4.4,1.4-5.5l9.5-5.7c1.9-1.1,4.4-0.5,5.5,1.4
							c1.1,1.9,0.5,4.4-1.4,5.5l-9.5,5.7C161.8,223,161.1,223.2,160.4,223.2z"/>
					</g>
				</g>
			</g>
		</g>
		<g>
			<g>
				<g>
					<g>
						<path class="st11" d="M82,199.2c-1.2,0-2.4-0.6-3.2-1.6l-8.1-10.9c-1.3-1.8-0.9-4.3,0.8-5.6c1.8-1.3,4.3-0.9,5.6,0.8l8.1,10.9
							c1.3,1.8,0.9,4.3-0.8,5.6C83.6,198.9,82.8,199.2,82,199.2z"/>
					</g>
				</g>
			</g>
		</g>
		<g>
			<g>
				<g>
					<g>
						<path class="st11" d="M82,153.1c-0.5,0-1-0.1-1.5-0.3l-10.9-4.3c-2.1-0.8-3.1-3.1-2.3-5.2c0.8-2.1,3.1-3.1,5.2-2.3l10.9,4.3
							c2.1,0.8,3.1,3.1,2.3,5.2C85.1,152.1,83.6,153.1,82,153.1z"/>
					</g>
				</g>
			</g>
		</g>
		<g>
			<g>
				<g>
					<g>
						<path class="st11" d="M36.8,117.5c-2.2,0-4-1.8-4-4V104c0-2.2,1.8-4,4-4c2.2,0,4,1.8,4,4v9.5C40.8,115.7,39,117.5,36.8,117.5z
							"/>
					</g>
				</g>
			</g>
		</g>
		<g>
			<g>
				<g>
					<g>
						<path class="st11" d="M71.1,102.6c-1.5,0-2.9-0.8-3.6-2.2L63.2,92c-1-2-0.2-4.4,1.7-5.4c2-1,4.4-0.2,5.4,1.7l4.3,8.3
							c1,2,0.2,4.4-1.7,5.4C72.3,102.4,71.7,102.6,71.1,102.6z"/>
					</g>
				</g>
			</g>
		</g>
		<g>
			<g>
				<g>
					<g>
						<path class="st11" d="M71,74.7c-0.7,0-1.3-0.2-1.9-0.5c-1.9-1.1-2.6-3.5-1.6-5.4l5.5-10c1.1-1.9,3.5-2.6,5.4-1.6
							c1.9,1.1,2.6,3.5,1.6,5.4l-5.5,10C73.8,74,72.5,74.7,71,74.7z"/>
					</g>
				</g>
			</g>
		</g>
		<g>
			<g>
				<g>
					<g>
						<path class="st11" d="M101,89.3c-0.7,0-1.4-0.2-2-0.5c-1.9-1.1-2.5-3.6-1.4-5.5l8.5-14.6c1.1-1.9,3.6-2.5,5.5-1.4
							c1.9,1.1,2.5,3.6,1.4,5.5l-8.5,14.6C103.7,88.6,102.4,89.3,101,89.3z"/>
					</g>
				</g>
			</g>
		</g>
	</g>
</g>
</svg>
