<svg id="Layer_3" enable-background="new 0 0 64 64" height="512" viewBox="0 0 64 64" width="512" xmlns="http://www.w3.org/2000/svg"><g><path d="m36.893 12.797c4.603 4.603 7.589 10.575 8.51 17.019l2.597 18.184-18.184-2.598c-6.444-.921-12.416-3.907-17.019-8.51-4.525-4.525-7.489-10.375-8.462-16.699l-2.302-14.965c-.136-.882.157-1.776.788-2.407.631-.631 1.525-.924 2.407-.788l14.966 2.302c6.324.973 12.174 3.937 16.699 8.462z" fill="#db9b7c"/><path d="m4.636 21.845c-.116-.547-.216-1.097-.301-1.652l-2.302-14.965c-.136-.882.157-1.776.788-2.407.631-.631 1.525-.924 2.407-.788l14.966 2.302c.554.085 1.105.186 1.652.302.741 1.635 1.154 3.451 1.154 5.363 0 7.18-5.82 13-13 13-1.913 0-3.729-.413-5.364-1.155z" fill="#efbe9a"/><path d="m32.216 45.745-2.4-.343c-6.444-.921-12.416-3.907-17.019-8.51-1.425-1.424-2.695-2.981-3.797-4.642v3.459c0 2.656 1.415 5.111 3.714 6.442l9.745 5.642c3.186 1.843 7.241 1.082 9.541-1.793z" fill="#e47c6e"/><path d="m47 40 1.54-3.08c2.194-4.389 2.345-9.521.412-14.032l-1.619-3.778c-2.596-6.056-8.509-10.01-15.083-10.108l.001-.002c1.661 1.102 3.217 2.372 4.642 3.797 4.603 4.603 7.589 10.575 8.51 17.019l1.457 10.204z" fill="#e47c6e"/><path d="m62 49c-3.21-1.926-7.037-2.547-10.692-1.735l-3.308.735-.735 3.308c-.812 3.655-.191 7.482 1.735 10.692l4-9z" fill="#e47c6e"/><g><path d="m12 9.999c-1.103 0-2-.897-2-2s.897-2 2-2 2 .897 2 2c-.001 1.103-.898 2-2 2z" fill="#606060"/></g><path d="m3.704 10.29-1.053-1.043.498 3.237c2.65 2.269 5.981 3.516 9.508 3.516h2.342v-2h-2.342c-3.382 0-6.56-1.317-8.953-3.71z" fill="#db9b7c"/><g><path d="m28 18.999h-4v-2h3.585l1.415-1.414v-3.585h2v4c0 .266-.105.52-.292.708l-2 2c-.188.186-.443.291-.708.291z" fill="#efbe9a"/></g><g><path d="m16 30.999h-4v-2h3.585l1.415-1.414v-3.585h2v4c0 .266-.105.52-.292.708l-2 2c-.188.186-.443.291-.708.291z" fill="#efbe9a"/></g><g><path d="m25 27.999h-4v-2h3.585l1.415-1.414v-3.585h2v4c0 .266-.105.52-.292.708l-2 2c-.188.186-.443.291-.708.291z" fill="#efbe9a"/></g><g><path d="m34 24.999h-4v-2h3.585l1.415-1.414v-3.585h2v4c0 .266-.105.52-.292.708l-2 2c-.188.186-.443.291-.708.291z" fill="#efbe9a"/></g><g><path d="m22 36.999h-4v-2h3.585l1.415-1.414v-3.585h2v4c0 .266-.105.52-.292.708l-2 2c-.188.186-.443.291-.708.291z" fill="#efbe9a"/></g><g><path d="m31 33.999h-4v-2h3.585l1.415-1.414v-3.585h2v4c0 .266-.105.52-.292.708l-2 2c-.188.186-.443.291-.708.291z" fill="#efbe9a"/></g><g><path d="m40 30.999h-3v-2h2.586l1.414-1.414v-2.585h2l.001 3c0 .265-.105.52-.293.708l-2 2c-.188.186-.443.291-.708.291z" fill="#efbe9a"/></g><g><path d="m28 42.999h-3v-2h2.586l1.414-1.414v-2.585h2l.001 3c0 .265-.105.52-.293.708l-2 2c-.188.186-.443.291-.708.291z" fill="#efbe9a"/></g><g><path d="m37 39.999h-4v-2h3.585l1.415-1.414v-3.585h2v4c0 .266-.105.52-.292.708l-2 2c-.188.186-.443.291-.708.291z" fill="#efbe9a"/></g><g fill="#c66b60"><path d="m47.333 19.111c-.311-.726-.672-1.419-1.074-2.082l-8.352-3.132c.875.967 1.688 1.981 2.426 3.046l7.234 2.713z"/><path d="m43.464 22.691 6.287 2.612c-.211-.818-.461-1.628-.798-2.415l-.043-.101-6.724-2.794c.465.88.901 1.776 1.278 2.698z"/><path d="m45.09 28.12 5.177 2.151c.035-.725.034-1.452-.025-2.176l-5.743-2.386c.23.793.426 1.597.591 2.411z"/><path d="m24.119 48.494-.971-4.856c-.758-.296-1.504-.621-2.235-.977l.958 4.789.589.341c.531.309 1.089.538 1.659.703z"/><path d="m12.458 36.536 2.258 6.773 2.612 1.512-1.864-5.592c-.926-.73-1.826-1.496-2.666-2.337-.117-.116-.226-.238-.34-.356z"/></g><g><path d="m62.514 48.142c-3.444-2.066-7.5-2.724-11.423-1.854l-2.254.501-.914-6.4 1.511-3.023c2.331-4.661 2.49-10.082.438-14.873l-1.619-3.778c-2.718-6.337-8.84-10.48-15.698-10.695-3.667-2.391-7.795-3.995-12.209-4.674l-14.967-2.303c-1.189-.181-2.412.217-3.266 1.07-.853.854-1.253 2.075-1.07 3.266l2.303 14.966c.677 4.403 2.274 8.519 4.654 12.179v3.185c0 3.002 1.614 5.802 4.212 7.307l9.745 5.642c1.34.776 2.804 1.151 4.249 1.151 2.404 0 4.751-1.045 6.407-2.996l14.176 2.025-.501 2.254c-.871 3.922-.213 7.979 1.854 11.423.181.301.507.485.857.485.021 0 .041-.001.061-.002.373-.023.702-.251.853-.592l3.844-8.648 8.649-3.844c.341-.151.569-.48.592-.853s-.165-.728-.484-.919zm-32.557-3.73c-6.189-.884-12.032-3.806-16.453-8.227-3.581-3.581-6.099-7.948-7.432-12.761 1.268.371 2.58.575 3.928.575 7.719 0 14-6.28 14-14 0-1.347-.204-2.659-.576-3.927 4.813 1.333 9.18 3.851 12.761 7.432 4.421 4.421 7.343 10.264 8.227 16.453l2.409 16.864zm-8.349 1.731-4.759-2.755-.824-2.472c1.609 1.144 3.331 2.116 5.125 2.938zm24.806-26.639 1.172 2.734-3.988-1.657c-.505-1.046-1.068-2.062-1.686-3.046l4.341 1.628c.052.114.111.224.161.341zm-1.701 3.706 3.883 1.613c.288.928.471 1.876.582 2.829l-3.518-1.462c-.267-1.009-.581-2.003-.947-2.98zm2.932 13.262-.22.439-1.034-7.237c-.053-.369-.137-.732-.203-1.098l3.107 1.291c-.059 2.268-.608 4.522-1.65 6.605zm-2.984-20.042-4.828-1.811c-.703-.878-1.436-1.732-2.233-2.529-.557-.557-1.135-1.087-1.726-1.596 3.526.897 6.638 2.99 8.787 5.936zm-41.134-12.903c.34-.339.803-.527 1.277-.527.09 0 .181.007.271.021l14.966 2.303c.365.056.721.141 1.083.21.571 1.418.876 2.914.876 4.465 0 6.617-5.383 12-12 12-1.551 0-3.048-.305-4.466-.875-.069-.361-.154-.717-.21-1.083l-1.026-6.668c2.437 1.701 5.325 2.626 8.359 2.626h2.342v-2h-2.342c-3.32 0-6.44-1.275-8.815-3.584l-.822-5.34c-.086-.565.103-1.143.507-1.548zm6.473 32.181v-.445c.659.805 1.345 1.591 2.09 2.336.335.335.694.642 1.043.961l1.105 3.316-1.023-.593c-1.984-1.147-3.215-3.283-3.215-5.575zm13.891 11.652-.518-2.588c2.037.75 4.145 1.312 6.301 1.62l.419.06c-1.764 1.362-4.096 1.722-6.202.908zm28.702 4.725c-.227.101-.407.281-.508.508l-3.144 7.074c-1.06-2.564-1.312-5.392-.701-8.143l.597-2.687 2.687-.597c2.753-.61 5.578-.358 8.143.701z"/><path d="m12 9.999c1.103 0 2-.897 2-2s-.897-2-2-2-2 .897-2 2 .896 2 2 2z"/><path d="m28.707 18.707 2-2c.188-.188.292-.442.292-.708v-4h-2v3.585l-1.414 1.414h-3.585v2h4c.265.001.519-.104.707-.291z"/><path d="m18.999 27.999v-4h-2v3.585l-1.414 1.414h-3.585v2h4c.266 0 .52-.105.708-.292l2-2c.186-.187.291-.441.291-.707z"/><path d="m27.707 25.707c.188-.188.292-.442.292-.708v-4h-2v3.585l-1.414 1.414h-3.585v2h4c.266 0 .52-.105.708-.292z"/><path d="m30 24.999h4c.266 0 .52-.105.708-.292l2-2c.188-.188.292-.442.292-.708v-4h-2v3.585l-1.414 1.414h-3.586z"/><path d="m22.999 33.585-1.414 1.414h-3.585v2h4c.266 0 .52-.105.708-.292l2-2c.188-.188.292-.442.292-.708v-4h-2v3.586z"/><path d="m33.999 30.999v-4h-2v3.585l-1.414 1.414h-3.585v2h4c.266 0 .52-.105.708-.292l2-2c.186-.187.291-.441.291-.707z"/><path d="m40.999 27.585-1.414 1.414h-2.585v2h3c.266 0 .52-.105.708-.292l2-2c.188-.188.292-.442.292-.708v-3h-2v2.586z"/><path d="m28.999 39.585-1.414 1.414h-2.585v2h3c.266 0 .52-.105.708-.292l2-2c.188-.188.292-.442.292-.708v-3h-2v2.586z"/><path d="m37.999 36.585-1.414 1.414h-3.585v2h4c.266 0 .52-.105.708-.292l2-2c.188-.188.292-.442.292-.708v-4h-2v3.586z"/></g></g></svg>