<?xml version="1.0" encoding="utf-8"?>
<!-- Generator: Adobe Illustrator 22.1.0, SVG Export Plug-In . SVG Version: 6.00 Build 0)  -->
<svg version="1.1" id="Layer_1" xmlns="http://www.w3.org/2000/svg" xmlns:xlink="http://www.w3.org/1999/xlink" x="0px" y="0px"
	 viewBox="0 0 256 256" style="enable-background:new 0 0 256 256;" xml:space="preserve">
<style type="text/css">
	.st0{fill:#F6D67A;}
	.st1{fill:#E77CAE;}
	.st2{fill:#AC6535;}
	.st3{fill:#EB573B;}
	.st4{fill:#464646;}
	.st5{fill:#F5B31F;}
	.st6{fill:#9B592D;}
	.st7{fill:#9B5B2F;}
	.st8{fill:#E8A41A;}
	.st9{fill:#6D6E71;}
	.st10{fill:#E5A21C;}
	.st11{fill:#C66395;}
	.st12{fill:#E09F1E;}
	.st13{fill:#FFFFFF;}
	.st14{fill:#DDB95E;}
	.st15{fill:#EAC771;}
	.st16{fill:#F9F6CD;}
	.st17{fill:#009345;}
	.st18{fill:#008438;}
	.st19{fill:#EAA51B;}
	.st20{opacity:0.1;}
	.st21{fill:#FFD11D;}
	.st22{fill:#FFE37B;}
	.st23{fill:#FFA755;}
	.st24{fill:#FFEC97;}
	.st25{fill:#BC7532;}
	.st26{fill:#EFEFEF;}
	.st27{fill:#60ACF7;}
	.st28{fill:#876C6C;}
	.st29{fill:#1DDCFF;}
	.st30{fill:#BDF3FF;}
	.st31{fill:#EFCA70;}
	.st32{fill:#EFA91D;}
	.st33{fill:#8FAE3C;}
	.st34{fill:#92A5AC;}
	.st35{fill:#E8E3BA;}
	.st36{fill:#F79932;}
	.st37{fill:#F4F4F4;}
	.st38{fill:#FFDF8F;}
	.st39{fill:#EAE5B9;}
	.st40{fill:#7E9E6A;}
	.st41{fill:#94B57F;}
	.st42{fill:#9B5D8C;}
	.st43{fill:#96557A;}
	.st44{fill:#C3755A;}
	.st45{fill:#9BD7DD;}
	.st46{fill:#90CAD3;}
	.st47{fill:#F7F7F7;}
	.st48{fill:#AFE6EF;}
	.st49{fill:#FFFAEB;}
	.st50{fill:#F4EFC3;}
	.st51{fill:#F9F9F9;}
	.st52{fill:#FFE5C4;}
	.st53{fill:#FFB024;}
	.st54{fill:#FFC612;}
	.st55{fill:#FFCE31;}
	.st56{fill:#A05C2D;}
	.st57{fill:#1DCAF2;}
	.st58{fill:#00B0E0;}
	.st59{fill:#F2A355;}
	.st60{fill:#D68032;}
	.st61{fill:#66625D;}
	.st62{fill:#54504D;}
	.st63{fill:#B76955;}
	.st64{fill:#EFE8B4;}
	.st65{fill:#B93226;}
	.st66{fill:#EFEABF;}
	.st67{fill:#90C056;}
	.st68{opacity:0.15;}
	.st69{fill:#E8C56D;}
	.st70{fill:#F7BE4B;}
	.st71{fill:#E0A338;}
	.st72{fill:#F68455;}
	.st73{fill:#E26F47;}
	.st74{fill:#EC754B;}
	.st75{fill:#4AA5BA;}
	.st76{opacity:0.5;}
	.st77{fill:#A0B1B5;}
	.st78{opacity:0.7;}
	.st79{fill:#00ADEE;}
	.st80{fill:#F4D4B3;}
	.st81{fill:#F9D97A;}
	.st82{fill:#EDC96E;}
	.st83{fill:none;}
	.st84{fill:#AF6535;}
	.st85{fill:#F18BB4;}
	.st86{fill:#B3E4FF;}
	.st87{fill:#97DFFF;}
	.st88{fill:#D06E3C;}
	.st89{fill:#B55931;}
	.st90{fill:#DA4F4B;}
	.st91{fill:#EFCAA8;}
	.st92{fill:#EA7CB1;}
	.st93{fill:#EA7DAE;}
	.st94{fill:#BC7646;}
	.st95{fill:#00A1C6;}
	.st96{fill:#FCC230;}
	.st97{fill:#F2EBB1;}
	.st98{fill:#F9D6AF;}
	.st99{fill:#D34735;}
	.st100{fill:#E5A21A;}
	.st101{fill:#849E33;}
	.st102{fill:#EFBB14;}
	.st103{fill:#D8402B;}
	.st104{fill:#829B34;}
	.st105{fill:#F88916;}
	.st106{fill:#E27513;}
	.st107{fill:#FFB41F;}
	.st108{fill:#8AA538;}
	.st109{fill:#BE6BB2;}
	.st110{fill:#AA5BA3;}
	.st111{fill:#FFDF66;}
	.st112{fill:#F4BA00;}
	.st113{fill:#E28529;}
	.st114{fill:#FF9945;}
	.st115{fill:#BA6C45;}
	.st116{fill:#EDBA15;}
	.st117{fill:#E0452F;}
	.st118{fill:#F7F2D5;}
	.st119{fill:#4C4E51;}
	.st120{fill:#EA615D;}
	.st121{fill:#DD4A36;}
	.st122{fill:#F6AF72;}
	.st123{fill:#E8955D;}
	.st124{fill:#E4C074;}
	.st125{fill:#EAE4C3;}
	.st126{fill:#BF3522;}
	.st127{fill:#D13E33;}
	.st128{fill:#AA5EA3;}
	.st129{fill:#DD443C;}
	.st130{fill:#AA5FA3;}
	.st131{fill:#B7C536;}
	.st132{fill:#F2872F;}
	.st133{fill:#AF5FA7;}
	.st134{fill:#E29F17;}
	.st135{fill:#FFC86E;}
	.st136{fill:#A55937;}
	.st137{fill:#D8422E;}
	.st138{fill:#C3556D;}
	.st139{fill:#B24965;}
	.st140{fill:#D1A962;}
	.st141{fill:#A3961A;}
	.st142{fill:#AFA51D;}
	.st143{fill:#968A1C;}
</style>
<g>
	<g>
		<g>
			<g>
				<g>
					<path class="st124" d="M157.5,94.3c-0.7,1.2-1.9,2.1-3.3,2.1c-1.4,0.1-2.8-0.6-3.5-1.8c-1.6-2.4-3-4.7-4.3-7l-0.2-0.3
						c-0.2-0.3-0.3-0.6-0.5-0.9c-0.3-0.5-0.6-1.1-0.9-1.7c-0.2-0.4-0.4-0.8-0.6-1.1c-0.1,3.7-0.4,7.7-0.7,11.9
						c-0.1,1.9-1.6,3.4-3.5,3.7c-1.9,0.2-3.7-0.9-4.3-2.8c-2.4-7.7-5-15.5-7.8-23.8c-3.2,9.3-6,18-8.6,26.3
						c-0.5,1.7-2.1,2.8-3.8,2.8c-0.1,0-0.3,0-0.4,0c-1.9-0.2-3.4-1.7-3.5-3.6c-0.4-5.2-0.8-10-0.9-14.5c-1.3,2.6-2.9,5.4-4.6,8.2
						c-1.1,1.8-3.5,2.4-5.4,1.4c-4.9-2.8-10.2-9-7.5-22.6c0.1-0.4,0.2-0.8,0.4-1.2c10.5-18.4,15.7-37.4,18.2-50.1
						c0.2-1,0.8-1.9,1.6-2.5l22.4-16c1.2-0.8,2.7-1,4-0.4c1.3,0.6,2.2,1.9,2.3,3.3c0,0.3,2.4,31.3,18.3,61.6c0.2,0.5,0.4,1,0.4,1.5
						C161.8,79.2,160.7,88.2,157.5,94.3z"/>
				</g>
			</g>
		</g>
	</g>
	<g>
		<g>
			<g>
				<g>
					<path class="st118" d="M161.7,204.1c0,28.3-8.9,47.8-33.7,47.9h-0.2c-0.4,0-0.7,0-1.1,0c-49.9-1.2-33.6-83-11.3-154.3
						c4.1-13,8.3-25.6,12.4-37.3c3.8,11,7.8,22.7,11.7,34.8C151.4,132.8,161.7,173.5,161.7,204.1z"/>
				</g>
			</g>
		</g>
	</g>
	<g>
		<g>
			<g>
				<g>
					<path class="st118" d="M130.7,252c-0.9,0-1.8,0-2.7,0c24.8-0.1,33.7-19.6,33.7-47.9c0-30.6-10.4-71.3-22.3-108.9
						c1.1-13.7,1.3-26-0.1-36.7c0.1,0.3,0.1,0.6,0.2,0.9c0.1,0.3,0.1,0.6,0.2,0.9c0.1,0.4,0.2,0.8,0.3,1.2c0.1,0.4,0.2,0.8,0.3,1.2
						c0.1,0.2,0.1,0.4,0.2,0.6c0.3,1,0.6,2.1,1,3.3c0.1,0.5,0.3,0.9,0.5,1.4c1.2,3.4,2.7,7.4,4.7,11.6c0.2,0.4,0.4,0.7,0.5,1.1
						c0.4,0.7,0.7,1.4,1.1,2.2c0.3,0.5,0.6,1.1,0.9,1.6c0.2,0.4,0.4,0.8,0.6,1.2c1.2,2.2,2.6,4.5,4.1,6.8c0.4,0.7,0.9,1.3,1.4,2
						c0.2,0.3,0.5,0.7,0.7,1c0.7,1,1.4,2,2.2,3c0.2,0.2,0.3,0.4,0.5,0.7c0.2,0.3,0.4,0.6,0.7,0.9c0.3,0.3,0.5,0.7,0.8,1
						c0.7,0.9,1.5,1.9,2.3,2.8c0.4,0.4,0.7,0.9,1.1,1.3c2.3,2.6,4.7,5.2,7.4,7.7C214,149.4,239.2,250.3,130.7,252z"/>
				</g>
			</g>
		</g>
	</g>
	<g>
		<g>
			<g>
				<g>
					<path class="st118" d="M126.7,252L126.7,252c-1.3,0-2.6,0-3.9,0c-107-2.4-82-102.6-39.2-139.1c8.2-7.9,14.3-15.8,18.9-23.2
						c8.3-13.4,11.6-25,12.8-31.2c-1.5,11.4-1.2,24.5,0.1,39.2C93,169,76.8,250.7,126.7,252z"/>
				</g>
			</g>
		</g>
	</g>
	<g>
		<g>
			<g>
				<g>
					<path class="st118" d="M122.7,252c-142.2-2.5-124.9-105.5-68-137.4c19.3-10.8,32.7-26.8,42.1-43.2c-1.9,9,0,15.1,5.5,18.3
						C97.9,97,91.7,105,83.6,112.8C40.8,149.3,15.7,249.6,122.7,252z"/>
				</g>
			</g>
		</g>
	</g>
	<g>
		<g>
			<g>
				<g>
					<path class="st118" d="M130.7,252c108.4-1.7,83.3-102.5,40.4-139.1c-2.7-2.6-5.1-5.2-7.4-7.7c-0.4-0.4-0.7-0.9-1.1-1.3
						c-0.8-0.9-1.6-1.9-2.3-2.8c-0.3-0.3-0.5-0.7-0.8-1c-0.2-0.3-0.4-0.6-0.7-0.9c-0.2-0.2-0.4-0.5-0.5-0.7c-0.8-1-1.5-2-2.2-3
						c-0.2-0.3-0.5-0.7-0.7-1c-0.5-0.7-0.9-1.3-1.4-2c2.8-5.3,3.8-13.8,2.8-25.3c9.4,17.9,23.5,35.7,44.4,47.4
						C258.5,146.6,275.6,250.7,130.7,252z"/>
				</g>
			</g>
		</g>
	</g>
	<g>
		<g>
			<g>
				<g>
					<path class="st125" d="M128,256h-0.2c-0.4,0-0.8,0-1.2,0c-11.9-0.3-21.1-4.8-27.3-13.5c-15.6-21.8-11.6-69.6,12.3-146
						c3.6-11.6,7.7-23.8,12.5-37.5c0.6-1.6,2.1-2.7,3.8-2.7c1.7,0,3.2,1.1,3.8,2.7c4.4,12.5,8.2,23.9,11.7,35
						c15.1,47.8,22.4,83.8,22.4,110.1C165.7,246.9,145.2,255.9,128,256C128,256,128,256,128,256z M127.8,72.6
						c-3.2,9.3-6,18-8.6,26.3c-22.8,72.8-27.3,119.6-13.5,138.9c4.7,6.6,11.6,9.9,21,10.2c0.3,0,0.7,0,1,0h0.2
						c20-0.1,29.7-14.4,29.7-43.9c0-25.5-7.2-60.7-22.1-107.7C133.2,88.7,130.6,80.8,127.8,72.6z"/>
				</g>
			</g>
		</g>
	</g>
	<g>
		<g>
			<g>
				<g>
					<path class="st125" d="M128,256c-2.2,0-4-1.8-4-4c0-2.2,1.8-4,4-4c20-0.1,29.8-14.4,29.8-43.9c0-25.5-7.2-60.7-22.1-107.7
						c-0.2-0.5-0.2-1-0.2-1.5c1.2-15.1,1.1-26.5-0.1-35.9c-0.3-2.1,1.2-4.1,3.3-4.5c2.1-0.4,4.1,1,4.6,3.1l0.2,0.9
						c0.1,0.3,0.1,0.6,0.2,0.8l0.6,2.2c0,0.2,0.1,0.3,0.1,0.5c0,0,0,0.1,0,0.1c0.3,1,0.6,2,0.9,3.1c0.1,0.4,0.2,0.7,0.4,1.1l0.1,0.3
						c1.2,3.7,2.8,7.4,4.5,11.1c0.2,0.4,0.3,0.7,0.5,1.1c0.3,0.7,0.7,1.4,1.1,2.1c0.3,0.5,0.6,1,0.8,1.6c0.2,0.3,0.3,0.6,0.5,0.8
						l0.2,0.3c1.2,2.1,2.5,4.3,4,6.5c0.4,0.6,0.8,1.3,1.3,1.9c0.2,0.3,0.5,0.7,0.7,1c0.7,1,1.4,1.9,2.1,2.9l0.2,0.2
						c0.1,0.1,0.2,0.3,0.3,0.4c0,0,0.1,0.1,0.1,0.1c0.2,0.3,0.4,0.5,0.6,0.8l0.8,1c0.7,0.9,1.5,1.8,2.2,2.7c0.4,0.5,0.7,0.8,1.1,1.2
						c2.2,2.5,4.6,5,7.1,7.4c26.4,22.5,46.9,68.7,34.2,104c-6.8,18.8-25.6,41.3-77.2,42.1C129.9,256,128.9,256,128,256z M143.5,94.7
						c14.9,47.4,22.2,83.2,22.2,109.4c0,21.2-5,34.1-12.2,41.7c24.3-4.6,40.4-16.4,46.9-34.6c11.2-31.1-7.5-74.4-32-95.3
						c-0.1-0.1-0.1-0.1-0.2-0.2c-2.7-2.6-5.3-5.3-7.6-8c-0.4-0.4-0.7-0.8-1.1-1.3c-0.9-1.1-1.7-2-2.5-3l-0.8-1
						c-0.2-0.3-0.5-0.6-0.7-0.9c-0.1-0.2-0.3-0.4-0.4-0.5l-0.1-0.2c-0.8-1.1-1.6-2.1-2.3-3.1c-0.3-0.4-0.5-0.7-0.7-1.1
						c-0.5-0.7-0.9-1.3-1.4-2c-1.6-2.4-3-4.7-4.3-7l-0.2-0.3c-0.2-0.3-0.3-0.6-0.5-0.9c-0.3-0.5-0.6-1.1-0.9-1.6
						c-0.2-0.4-0.4-0.8-0.6-1.2C144,87,143.8,90.7,143.5,94.7z"/>
				</g>
			</g>
		</g>
	</g>
	<g>
		<g>
			<g>
				<g>
					<path class="st125" d="M126.7,256c-1.3,0-2.7,0-4,0c-50.9-1.1-69.5-23.6-76.1-42.3c-12.6-35.3,8-81.3,34.3-103.8
						C88,103,94.1,95.5,99,87.5c8.1-13,11.2-24.3,12.3-29.9c0.4-2.1,2.5-3.5,4.6-3.1c2.1,0.4,3.6,2.3,3.3,4.5
						c-1.3,9.9-1.3,22.1,0.1,38.4c0,0.5,0,1-0.2,1.5c-22.8,72.8-27.3,119.6-13.5,138.9c4.7,6.6,11.6,9.9,21,10.2
						c2.2,0.1,3.9,1.8,3.9,4C130.7,254.2,128.9,256,126.7,256z M110.5,83.5c-1.3,2.6-2.9,5.4-4.6,8.2c-5.3,8.6-11.9,16.6-19.5,24
						c-0.1,0.1-0.1,0.1-0.2,0.2c-24.4,20.8-43.1,64-32.1,95.1c6.6,18.6,23.1,30.5,48,35c-1-1.1-2-2.3-2.9-3.5
						c-15.6-21.8-11.6-69.3,12.1-145.2C110.9,92.3,110.6,87.8,110.5,83.5z"/>
				</g>
			</g>
		</g>
	</g>
	<g>
		<g>
			<g>
				<g>
					<path class="st125" d="M122.7,256C122.7,256,122.7,256,122.7,256c-33.2-0.6-59.9-6.6-79.4-17.8c-17.2-9.9-28.5-24-32.7-40.8
						C2.8,166,20.9,128.9,52.8,111c16.4-9.2,30.1-23.2,40.6-41.7c1-1.7,3-2.5,4.9-1.8c1.8,0.7,2.9,2.6,2.5,4.5
						c-2,9.6,1.1,12.6,3.6,14c0.9,0.5,1.6,1.4,1.9,2.5c0.3,1.1,0.1,2.2-0.5,3.1c-5.3,8.6-11.9,16.6-19.5,24
						c-0.1,0.1-0.1,0.1-0.2,0.2c-24.4,20.8-43.1,64-32.1,95.1c8.3,23.4,32.1,36.1,68.7,37c2.2,0,4,1.8,4,4
						C126.7,254.2,125,256,122.7,256L122.7,256z M93.3,84.5C83.2,98.8,70.9,110.1,56.7,118c-28.9,16.2-45.3,49.4-38.3,77.4
						c3.7,14.6,13.7,27,28.9,35.8c5.2,3,11.1,5.7,17.5,7.9c-9.8-7.7-15.3-16.9-18.3-25.4c-12.6-35.3,8-81.3,34.3-103.8
						c6.2-6,11.7-12.5,16.2-19.3C95.5,89,94.2,87.1,93.3,84.5z"/>
				</g>
			</g>
		</g>
	</g>
	<g>
		<g>
			<g>
				<g>
					<path class="st125" d="M130.7,256c-2.2,0-4-1.8-4-4c0-2.2,1.7-4,3.9-4c37.2-0.6,61.4-13.3,69.8-36.8
						c11.2-31.1-7.5-74.4-32-95.3c-0.1-0.1-0.1-0.1-0.2-0.2c-2.7-2.6-5.3-5.3-7.6-8c-0.4-0.4-0.7-0.8-1.1-1.3c-0.9-1.1-1.7-2-2.5-3
						l-0.8-1c-0.2-0.3-0.5-0.6-0.7-0.9c-0.1-0.2-0.3-0.4-0.4-0.5l-0.1-0.2c-0.8-1.1-1.6-2.1-2.3-3.1c-0.3-0.4-0.5-0.7-0.7-1.1
						c-0.5-0.7-0.9-1.3-1.4-2c-0.8-1.2-0.9-2.8-0.2-4.1c2.4-4.6,3.2-12.4,2.4-23.1c-0.2-1.9,1-3.6,2.9-4.2c1.8-0.5,3.8,0.3,4.7,2
						c10.8,20.5,25.2,35.9,42.8,45.8c32,17.9,50.1,55.2,42.1,86.6c-4.3,16.9-15.9,31.1-33.4,41C191.9,249.8,164.7,255.7,130.7,256
						C130.8,256,130.7,256,130.7,256z M173.8,109.9c26.4,22.5,46.9,68.7,34.2,104c-3.1,8.7-8.9,18.2-19.3,26c7-2.3,13.4-5,19.1-8.3
						c15.6-8.8,25.8-21.3,29.6-36c7.2-28-9.3-61.4-38.2-77.6c-15.1-8.5-28-20.6-38.4-36.2c-0.4,4-1.2,7.4-2.3,10.2
						c0,0,0,0.1,0.1,0.1c0.2,0.3,0.5,0.7,0.7,1c0.7,1,1.4,2,2.2,2.9l0.2,0.2c0.1,0.1,0.2,0.3,0.3,0.4c0,0,0.1,0.1,0.1,0.1
						c0.2,0.3,0.4,0.5,0.6,0.8l0.8,1c0.7,0.9,1.5,1.8,2.3,2.7c0.4,0.5,0.7,0.8,1.1,1.2C168.9,105,171.3,107.5,173.8,109.9z"/>
				</g>
			</g>
		</g>
	</g>
</g>
</svg>
