<?xml version="1.0" encoding="utf-8"?>
<!-- Generator: Adobe Illustrator 22.1.0, SVG Export Plug-In . SVG Version: 6.00 Build 0)  -->
<svg version="1.1" id="Layer_1" xmlns="http://www.w3.org/2000/svg" xmlns:xlink="http://www.w3.org/1999/xlink" x="0px" y="0px"
	 viewBox="0 0 256 256" style="enable-background:new 0 0 256 256;" xml:space="preserve">
<style type="text/css">
	.st0{fill:#F6D67A;}
	.st1{fill:#E77CAE;}
	.st2{fill:#AC6535;}
	.st3{fill:#EB573B;}
	.st4{fill:#464646;}
	.st5{fill:#F5B31F;}
	.st6{fill:#9B592D;}
	.st7{fill:#9B5B2F;}
	.st8{fill:#E8A41A;}
	.st9{fill:#6D6E71;}
	.st10{fill:#E5A21C;}
	.st11{fill:#C66395;}
	.st12{fill:#E09F1E;}
	.st13{fill:#FFFFFF;}
	.st14{fill:#DDB95E;}
	.st15{fill:#EAC771;}
	.st16{fill:#F9F6CD;}
	.st17{fill:#009345;}
	.st18{fill:#008438;}
	.st19{fill:#EAA51B;}
	.st20{opacity:0.1;}
	.st21{fill:#FFD11D;}
	.st22{fill:#FFE37B;}
	.st23{fill:#FFA755;}
	.st24{fill:#FFEC97;}
	.st25{fill:#BC7532;}
	.st26{fill:#EFEFEF;}
	.st27{fill:#60ACF7;}
	.st28{fill:#876C6C;}
	.st29{fill:#1DDCFF;}
	.st30{fill:#BDF3FF;}
	.st31{fill:#EFCA70;}
	.st32{fill:#EFA91D;}
	.st33{fill:#8FAE3C;}
	.st34{fill:#92A5AC;}
	.st35{fill:#E8E3BA;}
	.st36{fill:#F79932;}
	.st37{fill:#F4F4F4;}
	.st38{fill:#FFDF8F;}
	.st39{fill:#EAE5B9;}
	.st40{fill:#7E9E6A;}
	.st41{fill:#94B57F;}
	.st42{fill:#9B5D8C;}
	.st43{fill:#96557A;}
	.st44{fill:#C3755A;}
	.st45{fill:#9BD7DD;}
	.st46{fill:#90CAD3;}
	.st47{fill:#F7F7F7;}
	.st48{fill:#AFE6EF;}
	.st49{fill:#FFFAEB;}
	.st50{fill:#F4EFC3;}
	.st51{fill:#F9F9F9;}
	.st52{fill:#FFE5C4;}
	.st53{fill:#FFB024;}
	.st54{fill:#FFC612;}
	.st55{fill:#FFCE31;}
	.st56{fill:#A05C2D;}
	.st57{fill:#1DCAF2;}
	.st58{fill:#00B0E0;}
	.st59{fill:#F2A355;}
	.st60{fill:#D68032;}
	.st61{fill:#66625D;}
	.st62{fill:#54504D;}
	.st63{fill:#B76955;}
	.st64{fill:#EFE8B4;}
	.st65{fill:#B93226;}
	.st66{fill:#EFEABF;}
	.st67{fill:#90C056;}
	.st68{opacity:0.15;}
	.st69{fill:#E8C56D;}
	.st70{fill:#F7BE4B;}
	.st71{fill:#E0A338;}
	.st72{fill:#F68455;}
	.st73{fill:#E26F47;}
	.st74{fill:#EC754B;}
	.st75{fill:#4AA5BA;}
	.st76{opacity:0.5;}
	.st77{fill:#A0B1B5;}
	.st78{opacity:0.7;}
	.st79{fill:#00ADEE;}
	.st80{fill:#F4D4B3;}
	.st81{fill:#F9D97A;}
	.st82{fill:#EDC96E;}
	.st83{fill:none;}
	.st84{fill:#AF6535;}
	.st85{fill:#F18BB4;}
	.st86{fill:#B3E4FF;}
	.st87{fill:#97DFFF;}
	.st88{fill:#D06E3C;}
	.st89{fill:#B55931;}
	.st90{fill:#DA4F4B;}
	.st91{fill:#EFCAA8;}
	.st92{fill:#EA7CB1;}
	.st93{fill:#EA7DAE;}
	.st94{fill:#BC7646;}
	.st95{fill:#00A1C6;}
	.st96{fill:#FCC230;}
	.st97{fill:#F2EBB1;}
	.st98{fill:#F9D6AF;}
	.st99{fill:#D34735;}
	.st100{fill:#E5A21A;}
	.st101{fill:#849E33;}
	.st102{fill:#EFBB14;}
	.st103{fill:#D8402B;}
	.st104{fill:#829B34;}
	.st105{fill:#F88916;}
	.st106{fill:#E27513;}
	.st107{fill:#FFB41F;}
	.st108{fill:#8AA538;}
	.st109{fill:#BE6BB2;}
	.st110{fill:#AA5BA3;}
	.st111{fill:#FFDF66;}
	.st112{fill:#F4BA00;}
	.st113{fill:#E28529;}
	.st114{fill:#FF9945;}
	.st115{fill:#BA6C45;}
	.st116{fill:#EDBA15;}
	.st117{fill:#E0452F;}
	.st118{fill:#F7F2D5;}
	.st119{fill:#4C4E51;}
	.st120{fill:#EA615D;}
	.st121{fill:#DD4A36;}
	.st122{fill:#F6AF72;}
	.st123{fill:#E8955D;}
	.st124{fill:#E4C074;}
	.st125{fill:#EAE4C3;}
	.st126{fill:#BF3522;}
	.st127{fill:#D13E33;}
	.st128{fill:#AA5EA3;}
	.st129{fill:#DD443C;}
	.st130{fill:#AA5FA3;}
	.st131{fill:#B7C536;}
	.st132{fill:#F2872F;}
	.st133{fill:#AF5FA7;}
	.st134{fill:#E29F17;}
	.st135{fill:#FFC86E;}
	.st136{fill:#A55937;}
	.st137{fill:#D8422E;}
	.st138{fill:#C3556D;}
	.st139{fill:#B24965;}
	.st140{fill:#D1A962;}
	.st141{fill:#A3961A;}
	.st142{fill:#AFA51D;}
	.st143{fill:#968A1C;}
</style>
<g>
	<g>
		<g>
			<g>
				<g>
					<g>
						<path class="st33" d="M162.5,17c-6,4.8-11.1,9.3-15.3,13.9c-0.2,0.2-0.3,0.4-0.5,0.6c0,0,0,0,0,0c-8.6,9.7-13,19.9-13.1,34.7
							c0,2.2-1.8,4-4,4h0c-2.2,0-4-1.8-4-4c0.1-12.7,3-22.5,8.6-31.3l-10.4,2.3c3.5,13.4,3,26.5-15.3,34.3c-1.3,0.5-2.7,0.4-3.8-0.4
							c-1.1-0.8-1.8-2.1-1.7-3.4l0.1-3.1l-22.7,8.9c-0.5,0.2-1,0.3-1.5,0.3c-1.1,0-2.1-0.4-2.9-1.2c-1.1-1.2-1.4-2.9-0.8-4.4l3.5-8
							c-1.6,0.4-3.3,0.7-4.9,0.7c-8,0-15.9-5.1-23.4-15.2c-1.1-1.5-1-3.5,0.2-5l0.8-1c6-7.2,11-13.1,19.8-14.8
							c-2.4-2.3-4.3-5-5.8-7.9c-0.5-1-0.6-2.2-0.2-3.3c0.4-1.1,1.2-1.9,2.3-2.3c7.4-2.9,14.6-4.5,21.4-4.7c-1-1.2-1.3-2.8-0.7-4.3
							C88.6,0.9,90,0,91.6,0h0c11.8,0.1,20.5,3.3,25.7,9.4c4.1,4.8,6.1,11.5,5.8,19.7l18.7-4.2c4.4-4.7,9.6-9.3,15.6-14.1
							c1.7-1.4,4.2-1.1,5.6,0.6C164.5,13.1,164.2,15.6,162.5,17z"/>
					</g>
				</g>
			</g>
		</g>
	</g>
	<g>
		<g>
			<g>
				<g>
					<g>
						<path class="st109" d="M170.8,139.1c-0.9,1.5-1.9,3-3.1,4.3c4.5,5.1,11.1,8.3,18.4,8.3c1.5,0,2.9-0.1,4.3-0.4
							c11.6-2,20.4-12.1,20.4-24.3c0-11.2-7.5-20.7-17.7-23.7c-2.2-0.6-4.5-1-6.9-1c-7.3,0-13.9,3.2-18.4,8.3
							c2.8,3.1,4.7,6.9,5.7,11.1c0.4,1.7,0.6,3.5,0.6,5.4C174,131.3,172.9,135.5,170.8,139.1z"/>
					</g>
				</g>
			</g>
		</g>
	</g>
	<g>
		<g>
			<g>
				<g>
					<g>
						<path class="st109" d="M153.2,163.7c0,2.5-0.4,5-1.1,7.3c9.8,1.1,17.9,8,20.8,17.1c11.8-1.8,20.9-12,20.9-24.4
							c0-4.5-1.2-8.8-3.4-12.5c-1.4,0.3-2.8,0.4-4.3,0.4c-7.3,0-13.9-3.2-18.4-8.3c-4.4,4.9-10.7,8.1-17.7,8.2
							C152.1,155.1,153.2,159.3,153.2,163.7z"/>
					</g>
				</g>
			</g>
		</g>
	</g>
	<g>
		<g>
			<g>
				<g>
					<g>
						<path class="st109" d="M103.9,163.7c0,2.6,0.4,5.1,1.1,7.4c0.8,2.4,1.9,4.7,3.3,6.7c4,5.7,10.2,9.6,17.5,10.4
							c0.9,0.1,1.8,0.2,2.7,0.2c1.3,0,2.6-0.1,3.9-0.3c6.8-1.1,12.7-5,16.4-10.4c1.4-2,2.5-4.3,3.2-6.7c0.7-2.3,1.1-4.7,1.1-7.3
							c0-4.4-1.1-8.5-3.2-12.1c-0.2,0-0.4,0-0.6,0c-0.6,0-1.1,0-1.6-0.1c-7.7-0.5-14.4-4.5-18.6-10.5c-4.3,6.2-11.4,10.3-19.5,10.5
							c-0.2,0-0.5,0-0.7,0c-0.6,0-1.2,0-1.8-0.1C105.1,155.1,103.9,159.2,103.9,163.7z"/>
					</g>
				</g>
			</g>
		</g>
	</g>
	<g>
		<g>
			<g>
				<g>
					<g>
						<path class="st109" d="M63.6,163.7c0,12.7,9.6,23.1,21.9,24.5c2.7-8.9,10.3-15.6,19.6-17.1c-0.7-2.3-1.1-4.8-1.1-7.4
							c0-4.4,1.2-8.6,3.2-12.2c-7.2-0.5-13.6-4.2-17.7-9.6c-4.5,5.9-11.6,9.7-19.6,9.7c-1,0-2-0.1-3-0.2
							C64.7,155,63.6,159.2,63.6,163.7z"/>
					</g>
				</g>
			</g>
		</g>
	</g>
	<g>
		<g>
			<g>
				<g>
					<g>
						<path class="st109" d="M129.2,209.6c4.4,6.4,11.8,10.6,20.2,10.6c0.9,0,1.8,0,2.7-0.1c12.3-1.4,21.9-11.8,21.9-24.5
							c0-2.6-0.4-5-1.1-7.4c-2.9-9.2-11-16.1-20.8-17.1c-0.7,2.4-1.8,4.7-3.2,6.7c-3.7,5.4-9.6,9.3-16.4,10.4
							c0.7,2.3,1.1,4.8,1.1,7.4c0,2.6-0.4,5.1-1.2,7.5C131.7,205.3,130.6,207.6,129.2,209.6z"/>
					</g>
				</g>
			</g>
		</g>
	</g>
	<g>
		<g>
			<g>
				<g>
					<g>
						<path class="st109" d="M84.3,195.5c0,12.3,9,22.5,20.8,24.4c1.3,0.2,2.6,0.3,3.9,0.3c8.4,0,15.8-4.2,20.2-10.6
							c1.4-2,2.5-4.2,3.3-6.6c0.8-2.4,1.2-4.9,1.2-7.5c0-2.6-0.4-5.1-1.1-7.4c-1.3,0.2-2.6,0.3-3.9,0.3c-0.9,0-1.8,0-2.7-0.2
							c-7.2-0.8-13.5-4.7-17.5-10.4c-1.4-2-2.6-4.3-3.3-6.7c-9.3,1.5-16.9,8.2-19.6,17.1C84.7,190.5,84.3,192.9,84.3,195.5z"/>
					</g>
				</g>
			</g>
		</g>
	</g>
	<g>
		<g>
			<g>
				<g>
					<g>
						<path class="st109" d="M103.9,227.3c0,13.6,11,24.7,24.6,24.7c13.6,0,24.6-11.1,24.6-24.7c0-2.6-0.4-5-1.1-7.3
							c-0.9,0.1-1.8,0.1-2.7,0.1c-8.4,0-15.8-4.2-20.2-10.6c-4.4,6.4-11.8,10.6-20.2,10.6c-1.3,0-2.6-0.1-3.9-0.3
							C104.3,222.2,103.9,224.7,103.9,227.3z"/>
					</g>
				</g>
			</g>
		</g>
	</g>
	<g>
		<g>
			<g>
				<g>
					<g>
						<path class="st109" d="M150.4,102.2c6.9,0.3,13.1,3.4,17.4,8.2c4.5-5.1,11.1-8.3,18.4-8.3c2.4,0,4.7,0.3,6.9,1
							c0.5-1.9,0.7-3.9,0.7-6c0-13.6-11-24.7-24.6-24.7c-7.2,0-13.7,3.1-18.2,8c1.4,3.1,2.2,6.6,2.2,10.2
							C153.2,94.9,152.2,98.8,150.4,102.2z"/>
					</g>
				</g>
			</g>
		</g>
	</g>
	<g>
		<g>
			<g>
				<g>
					<g>
						<path class="st109" d="M84.3,126.9c0,4.4,1.1,8.5,3.2,12.1c0.6,1,1.2,2,1.9,2.9c4.1,5.4,10.5,9.1,17.7,9.6
							c0.6,0.1,1.2,0.1,1.8,0.1c0.2,0,0.5,0,0.7,0c8.1-0.2,15.2-4.3,19.5-10.5c0.4-0.6,0.9-1.3,1.2-1.9c2-3.6,3.2-7.7,3.2-12.2
							c0-4.2-1-8.1-2.9-11.5c-0.5-0.9-1-1.7-1.6-2.6c-3.8-5.5-9.9-9.4-16.9-10.3c-1.1-0.1-2.2-0.2-3.3-0.2c-0.7,0-1.5,0-2.2,0.1
							c-7.1,0.6-13.3,4.2-17.4,9.6c-2.2,2.8-3.7,6.2-4.5,9.8C84.5,123.4,84.3,125.1,84.3,126.9z"/>
					</g>
				</g>
			</g>
		</g>
	</g>
	<g>
		<g>
			<g>
				<g>
					<g>
						<path class="st109" d="M63.6,97.2c0,1.9,0.2,3.8,0.7,5.7c1.8-0.4,3.7-0.7,5.6-0.7c8,0,15.1,3.8,19.6,9.7
							c4.1-5.3,10.3-9,17.4-9.6c-1.8-3.4-2.9-7.4-2.9-11.5c0-3.7,0.8-7.2,2.3-10.4c-4.5-4.8-10.9-7.8-18-7.8
							C74.6,72.6,63.6,83.6,63.6,97.2z"/>
					</g>
				</g>
			</g>
		</g>
	</g>
	<g>
		<g>
			<g>
				<g>
					<g>
						<path class="st109" d="M45.2,126.9c0,12.6,9.4,23,21.6,24.5c1,0.1,2,0.2,3,0.2c8,0,15.1-3.8,19.6-9.7
							c-0.7-0.9-1.3-1.9-1.9-2.9c-2-3.6-3.2-7.7-3.2-12.1c0-1.8,0.2-3.5,0.6-5.2c0.8-3.6,2.3-6.9,4.5-9.8
							c-4.5-5.9-11.6-9.7-19.6-9.7c-1.9,0-3.8,0.2-5.6,0.7C53.3,105.4,45.2,115.2,45.2,126.9z"/>
					</g>
				</g>
			</g>
		</g>
	</g>
	<g>
		<g>
			<g>
				<g>
					<g>
						<path class="st109" d="M130.4,139.1c-0.4,0.7-0.8,1.3-1.2,1.9c4.1,6,10.9,10,18.6,10.5c0.5,0,1.1,0.1,1.6,0.1
							c0.2,0,0.4,0,0.6,0c7.1-0.2,13.4-3.3,17.7-8.2c1.2-1.3,2.2-2.7,3.1-4.3c2-3.6,3.2-7.7,3.2-12.1c0-1.8-0.2-3.6-0.6-5.4
							c-0.9-4.2-2.9-8-5.7-11.1c-4.3-4.8-10.5-8-17.4-8.2c-0.3,0-0.7,0-1,0c-1.4,0-2.9,0.1-4.2,0.4c-6.6,1.1-12.3,4.9-16,10.2
							c0.6,0.8,1.1,1.7,1.6,2.6c1.8,3.4,2.9,7.4,2.9,11.5C133.6,131.3,132.4,135.5,130.4,139.1z"/>
					</g>
				</g>
			</g>
		</g>
	</g>
	<g>
		<g>
			<g>
				<g>
					<g>
						<path class="st109" d="M103.9,90.8c0,4.2,1,8.1,2.9,11.5c0.7-0.1,1.4-0.1,2.2-0.1c1.1,0,2.2,0.1,3.3,0.2
							c7,0.9,13.1,4.8,16.9,10.3c3.7-5.3,9.4-9.1,16-10.2c1.4-0.2,2.8-0.4,4.2-0.4c0.3,0,0.7,0,1,0c1.8-3.4,2.8-7.3,2.8-11.5
							c0-3.6-0.8-7.1-2.2-10.2c-3.7-8.3-11.9-14.1-21.5-14.5c-0.3,0-0.6,0-0.9,0c-9.9,0-18.4,5.9-22.4,14.3
							C104.7,83.6,103.9,87.1,103.9,90.8z"/>
					</g>
				</g>
			</g>
		</g>
	</g>
	<g>
		<g>
			<g>
				<g>
					<g>
						<path class="st130" d="M186.2,155.6c-8.2,0-16-3.5-21.4-9.6c-1.3-1.5-1.3-3.8,0-5.3c1-1.1,1.8-2.3,2.6-3.6
							c1.7-3.1,2.7-6.6,2.7-10.2c0-1.5-0.2-3-0.5-4.5c-0.8-3.4-2.4-6.6-4.7-9.3c-1.4-1.5-1.4-3.8,0-5.3c5.4-6.1,13.2-9.6,21.4-9.6
							c2.7,0,5.5,0.4,8.1,1.2c12.1,3.6,20.6,14.9,20.6,27.5c0,14-9.9,25.8-23.7,28.2C189.5,155.4,187.9,155.6,186.2,155.6z
							 M173.1,142.9c3.7,3,8.3,4.7,13,4.7c1.2,0,2.4-0.1,3.6-0.3c9.9-1.7,17.1-10.3,17.1-20.4c0-9.1-6.1-17.3-14.8-19.8
							c-1.9-0.6-3.8-0.8-5.8-0.8c-4.8,0-9.4,1.7-13,4.7c2,3,3.4,6.3,4.2,9.8c0.5,2,0.7,4.1,0.7,6.2c0,5-1.3,9.8-3.7,14.1
							C173.9,141.7,173.5,142.3,173.1,142.9z"/>
					</g>
				</g>
			</g>
		</g>
	</g>
	<g>
		<g>
			<g>
				<g>
					<g>
						<path class="st130" d="M172.9,192.1c-1.7,0-3.3-1.1-3.8-2.8c-2.4-7.8-9.3-13.5-17.4-14.4c-1.2-0.1-2.2-0.8-2.9-1.8
							c-0.7-1-0.8-2.2-0.5-3.4c0.6-2,0.9-4,0.9-6.1c0-3.6-0.9-7.1-2.7-10.1c-0.7-1.2-0.7-2.7,0-3.9c0.7-1.2,2-2,3.4-2
							c5.7-0.1,11.1-2.7,14.8-6.9c0.8-0.9,1.8-1.3,3-1.3h0c1.1,0,2.2,0.5,3,1.3c3.9,4.4,9.5,6.9,15.4,6.9c1.2,0,2.4-0.1,3.6-0.3
							c1.6-0.3,3.3,0.5,4.2,1.9c2.6,4.4,3.9,9.4,3.9,14.5c0,14.1-10.5,26.3-24.3,28.4C173.3,192.1,173.1,192.1,172.9,192.1z
							 M156.9,167.8c8.1,2.2,14.9,7.9,18.5,15.6c8.4-2.7,14.4-10.7,14.4-19.7c0-2.8-0.6-5.6-1.7-8.2c-0.7,0-1.3,0.1-2,0.1
							c-6.8,0-13.3-2.4-18.4-6.7c-3.5,2.9-7.6,4.9-12,6c0.9,2.8,1.4,5.8,1.4,8.8C157.2,165.1,157.1,166.4,156.9,167.8z"/>
					</g>
				</g>
			</g>
		</g>
	</g>
	<g>
		<g>
			<g>
				<g>
					<g>
						<path class="st130" d="M128.6,192.3c-1.1,0-2.2-0.1-3.2-0.2c-8.1-0.9-15.5-5.3-20.3-12.1c-1.7-2.4-3-5-3.9-7.8
							c-0.9-2.8-1.3-5.7-1.3-8.6c0-5,1.3-9.9,3.7-14.1c0.8-1.4,2.3-2.2,3.9-2c0.5,0,1,0.1,1.6,0.1c0.1,0,0.1,0,0.2,0
							c0.1,0,0.2,0,0.2,0c6.5-0.2,12.6-3.5,16.3-8.8c0.7-1.1,2-1.7,3.3-1.7h0c1.3,0,2.5,0.6,3.3,1.7c3.6,5.2,9.3,8.4,15.5,8.8
							c0.5,0,1,0,1.5,0.1c0,0,0.1,0,0.1,0c1.5-0.1,3.1,0.7,3.8,2c2.4,4.3,3.7,9.1,3.7,14.1c0,2.9-0.4,5.7-1.3,8.4
							c-0.8,2.8-2.1,5.4-3.8,7.8c-4.4,6.4-11.3,10.8-19,12.1C131.6,192.2,130.1,192.3,128.6,192.3z M109.6,155.6
							c-1.1,2.5-1.6,5.3-1.6,8.1c0,2.1,0.3,4.2,0.9,6.2c0.6,2,1.6,3.9,2.8,5.6c3.4,4.9,8.7,8.1,14.6,8.7c1.8,0.2,3.7,0.2,5.6-0.1
							c5.5-0.9,10.5-4.1,13.7-8.7c1.2-1.7,2.1-3.6,2.7-5.6c0.6-2,0.9-4,0.9-6.1c0-2.8-0.6-5.6-1.7-8.2c0,0,0,0-0.1,0
							c-7-0.5-13.4-3.4-18.3-8.3c-5.1,5.1-12,8.1-19.3,8.3C109.8,155.6,109.7,155.6,109.6,155.6z"/>
					</g>
				</g>
			</g>
		</g>
	</g>
	<g>
		<g>
			<g>
				<g>
					<g>
						<path class="st130" d="M85.4,192.2c-0.1,0-0.3,0-0.5,0c-14.5-1.6-25.4-13.9-25.4-28.5c0-5,1.3-9.9,3.8-14.3
							c0.8-1.4,2.4-2.2,4-2c0.8,0.1,1.6,0.2,2.5,0.2c6.5,0,12.4-3,16.4-8.1c0.8-1,1.9-1.6,3.2-1.6h0c1.2,0,2.4,0.6,3.2,1.6
							c3.6,4.7,9,7.6,14.8,8c1.4,0.1,2.6,0.9,3.2,2.1c0.6,1.2,0.6,2.7-0.1,3.9c-1.8,3.1-2.7,6.6-2.7,10.2c0,2.1,0.3,4.2,0.9,6.2
							c0.3,1.1,0.2,2.3-0.4,3.3c-0.6,1-1.6,1.7-2.8,1.8c-7.7,1.2-14.2,6.9-16.4,14.3C88.7,191.1,87.2,192.2,85.4,192.2z M69.2,155.6
							c-1.1,2.5-1.6,5.3-1.6,8.1c0,9.5,6.4,17.6,15.3,20c3.3-7.4,9.7-13.1,17.4-15.5c-0.2-1.5-0.3-3-0.3-4.5c0-3.1,0.5-6.2,1.5-9.1
							c-4.5-1.2-8.6-3.5-12-6.7c-5.3,5-12.2,7.7-19.6,7.7C69.6,155.6,69.4,155.6,69.2,155.6z"/>
					</g>
				</g>
			</g>
		</g>
	</g>
	<g>
		<g>
			<g>
				<g>
					<g>
						<path class="st130" d="M149.4,224.1c-9.4,0-18.2-4.6-23.5-12.3c-1-1.4-0.9-3.2,0-4.6c1.2-1.7,2.1-3.5,2.7-5.5
							c0.7-2,1-4.1,1-6.3c0-2.1-0.3-4.2-0.9-6.2c-0.3-1.1-0.2-2.3,0.4-3.3c0.6-1,1.6-1.7,2.8-1.8c5.5-0.9,10.5-4.1,13.7-8.7
							c1.2-1.7,2.1-3.6,2.7-5.6c0.6-1.8,2.4-3,4.3-2.8c11.3,1.2,20.8,9.1,24.2,19.9c0.9,2.8,1.3,5.7,1.3,8.6
							c0,14.7-11,26.9-25.5,28.5C151.5,224.1,150.4,224.1,149.4,224.1z M134.1,209.3c3.9,4.3,9.4,6.8,15.3,6.8c0.8,0,1.5,0,2.3-0.1
							c10.5-1.2,18.4-10,18.4-20.6c0-2.1-0.3-4.2-0.9-6.2c-2.1-6.8-7.6-12-14.4-13.8c-0.7,1.6-1.5,3-2.5,4.5
							c-3.6,5.2-8.9,9.1-14.9,11.1c0.2,1.5,0.3,3,0.3,4.5c0,3-0.5,5.9-1.4,8.7C135.7,206,135,207.7,134.1,209.3z"/>
					</g>
				</g>
			</g>
		</g>
	</g>
	<g>
		<g>
			<g>
				<g>
					<g>
						<path class="st130" d="M109,224.1c-1.5,0-3-0.1-4.5-0.4c-14-2.2-24.1-14.1-24.1-28.3c0-2.9,0.4-5.7,1.3-8.4
							c3.2-10.4,12.1-18.2,22.8-19.9c2-0.3,3.9,0.9,4.5,2.8c0.6,2,1.6,3.9,2.8,5.6c3.4,4.9,8.7,8.1,14.6,8.7
							c1.8,0.2,3.7,0.2,5.6-0.1c2-0.3,3.9,0.9,4.4,2.8c0.9,2.8,1.3,5.7,1.3,8.6c0,3-0.5,5.9-1.4,8.7c-0.9,2.7-2.1,5.3-3.8,7.7
							C127.1,219.5,118.3,224.1,109,224.1z M102.6,175.8c-6.3,2.1-11.4,7.1-13.4,13.6c-0.6,2-0.9,4-0.9,6.1
							c0,10.2,7.3,18.8,17.4,20.4c1.1,0.2,2.2,0.3,3.3,0.3c6.7,0,13.1-3.3,16.9-8.9c1.2-1.7,2.1-3.6,2.7-5.5c0.7-2,1-4.1,1-6.3
							c0-1-0.1-2.1-0.2-3.1c-1.4,0-2.7,0-4-0.2c-8.1-0.9-15.5-5.3-20.3-12.1C104.1,178.8,103.3,177.3,102.6,175.8z"/>
					</g>
				</g>
			</g>
		</g>
	</g>
	<g>
		<g>
			<g>
				<g>
					<g>
						<path class="st130" d="M128.6,256c-15.8,0-28.6-12.9-28.6-28.7c0-3,0.5-5.9,1.4-8.7c0.6-1.9,2.5-3,4.4-2.7
							c1.1,0.2,2.2,0.3,3.2,0.3c6.7,0,13.1-3.3,16.9-8.9c0.7-1.1,2-1.7,3.3-1.7c1.3,0,2.5,0.6,3.3,1.7c3.8,5.5,10.2,8.9,16.9,8.9
							c0.8,0,1.5,0,2.3-0.1c1.9-0.2,3.7,1,4.2,2.8c0.9,2.7,1.3,5.6,1.3,8.5C157.2,243.1,144.4,256,128.6,256z M108.2,224.1
							c-0.2,1-0.2,2.1-0.2,3.2c0,11.4,9.3,20.7,20.6,20.7c11.4,0,20.6-9.3,20.6-20.7c0-1.1-0.1-2.1-0.2-3.2
							c-7.5-0.1-14.6-3.2-19.8-8.4C123.7,221.3,116.1,224.3,108.2,224.1z"/>
					</g>
				</g>
			</g>
		</g>
	</g>
	<g>
		<g>
			<g>
				<g>
					<g>
						<path class="st130" d="M167.8,114.5c-1.1,0-2.2-0.5-3-1.3c-3.8-4.2-8.9-6.7-14.6-6.9c-1.4-0.1-2.6-0.8-3.3-2
							c-0.7-1.2-0.7-2.7-0.1-3.9c1.6-3,2.4-6.2,2.4-9.6c0-3-0.6-5.9-1.8-8.5c-0.7-1.5-0.4-3.2,0.7-4.4c5.4-5.9,13.1-9.3,21.1-9.3
							c15.8,0,28.6,12.9,28.6,28.7c0,2.4-0.3,4.7-0.9,7c-0.3,1.1-1,2-1.9,2.5c-0.9,0.5-2.1,0.7-3.1,0.4c-1.9-0.6-3.8-0.8-5.8-0.8
							c-5.9,0-11.5,2.5-15.4,6.9C170,114,168.9,114.5,167.8,114.5L167.8,114.5z M156,99c4.3,1,8.4,3.1,11.8,5.9
							c5.1-4.3,11.6-6.7,18.4-6.7c1.2,0,2.4,0.1,3.6,0.2c0-0.4,0-0.8,0-1.2c0-11.4-9.3-20.7-20.6-20.7c-5,0-9.8,1.8-13.5,5
							c1,2.9,1.5,6,1.5,9.2C157.2,93.6,156.8,96.4,156,99z"/>
					</g>
				</g>
			</g>
		</g>
	</g>
	<g>
		<g>
			<g>
				<g>
					<g>
						<path class="st130" d="M109,155.6c-0.8,0-1.6,0-2.2-0.1c-8-0.6-15.5-4.7-20.5-11.2c-0.8-1-1.5-2.1-2.2-3.3
							c-2.4-4.3-3.7-9.1-3.7-14.1c0-2,0.2-4.1,0.7-6.1c0.9-4.1,2.7-8,5.2-11.4c4.9-6.4,12.3-10.4,20.2-11.1c1.8-0.2,4.2-0.1,6.4,0.1
							c7.9,1.1,15.1,5.4,19.7,12c0.7,0.9,1.3,1.9,1.8,3c2.2,4.1,3.3,8.8,3.3,13.4c0,4.9-1.3,9.8-3.7,14.1c-0.4,0.8-0.9,1.5-1.5,2.3
							c-5.1,7.4-13.6,12-22.6,12.2C109.6,155.6,109.3,155.6,109,155.6z M109,106.2c-0.7,0-1.3,0-1.8,0.1c-5.8,0.5-11.1,3.4-14.6,8
							c-1.9,2.4-3.1,5.2-3.8,8.2c-0.3,1.4-0.5,2.9-0.5,4.4c0,3.6,0.9,7.1,2.7,10.1c0.5,0.9,1,1.7,1.6,2.4c3.6,4.7,9,7.6,14.8,8.1
							c0.6,0.1,1.1,0.1,1.7,0.1c0.1,0,0.1,0,0.2,0c0.1,0,0.2,0,0.2,0c6.5-0.2,12.6-3.5,16.3-8.8c0.4-0.6,0.7-1.1,1-1.6
							c1.8-3.1,2.7-6.6,2.7-10.2c0-3.4-0.8-6.7-2.4-9.7c-0.4-0.7-0.8-1.4-1.3-2.1c-3.3-4.8-8.5-7.9-14.2-8.7
							C110.8,106.3,109.9,106.2,109,106.2z"/>
					</g>
				</g>
			</g>
		</g>
	</g>
	<g>
		<g>
			<g>
				<g>
					<g>
						<path class="st130" d="M89.4,115.9c-1.2,0-2.4-0.6-3.2-1.6c-3.9-5.2-9.9-8.1-16.4-8.1c-1.6,0-3.2,0.2-4.7,0.5
							c-1,0.2-2.1,0.1-3-0.5c-0.9-0.6-1.6-1.4-1.8-2.5c-0.5-2.1-0.8-4.3-0.8-6.6c0-15.8,12.8-28.7,28.6-28.7
							c7.9,0,15.5,3.3,20.9,9.1c1.1,1.2,1.4,2.9,0.7,4.4c-1.3,2.7-1.9,5.6-1.9,8.7c0,3.4,0.8,6.7,2.4,9.7c0.6,1.2,0.6,2.6,0,3.8
							c-0.6,1.2-1.8,2-3.2,2.1c-5.7,0.5-11,3.4-14.6,8C91.8,115.3,90.7,115.9,89.4,115.9z M69.8,98.2c7.4,0,14.3,2.8,19.6,7.7
							c3.4-3.1,7.4-5.4,11.8-6.7c-0.9-2.7-1.3-5.6-1.3-8.5c0-3.2,0.5-6.4,1.6-9.4c-3.7-3.1-8.3-4.9-13.3-4.9
							c-11.4,0-20.6,9.3-20.6,20.7c0,0.4,0,0.7,0,1.1C68.3,98.3,69.1,98.2,69.8,98.2z"/>
					</g>
				</g>
			</g>
		</g>
	</g>
	<g>
		<g>
			<g>
				<g>
					<g>
						<path class="st130" d="M69.8,155.6c-1.2,0-2.4-0.1-3.5-0.2c-14.3-1.8-25.1-14-25.1-28.5c0-13.4,9.1-24.9,22.1-27.9
							c2.1-0.5,4.3-0.8,6.5-0.8c9,0,17.3,4.1,22.7,11.3c1.1,1.4,1.1,3.4,0,4.9c-1.9,2.4-3.1,5.2-3.8,8.2c-0.3,1.4-0.5,2.9-0.5,4.4
							c0,3.6,0.9,7.1,2.7,10.1c0.5,0.9,1,1.7,1.6,2.4c1.1,1.4,1.1,3.4,0,4.9C87.1,151.5,78.8,155.6,69.8,155.6z M69.8,106.2
							c-1.6,0-3.2,0.2-4.7,0.5c-9.4,2.2-16,10.5-16,20.1c0,10.4,7.8,19.3,18.1,20.5c0.8,0.1,1.7,0.2,2.5,0.2c5.5,0,10.7-2.2,14.5-6
							c-0.1-0.2-0.2-0.4-0.3-0.6c-2.4-4.3-3.7-9.1-3.7-14.1c0-2,0.2-4.1,0.7-6.1c0.7-3.1,1.8-6,3.4-8.6
							C80.5,108.4,75.4,106.2,69.8,106.2z"/>
					</g>
				</g>
			</g>
		</g>
	</g>
	<g>
		<g>
			<g>
				<g>
					<g>
						<path class="st130" d="M149.4,155.6c-0.6,0-1.3,0-1.9-0.1c-8.7-0.6-16.6-5-21.6-12.2c-1-1.4-1-3.2,0-4.6
							c0.4-0.5,0.7-1.1,1-1.6c1.8-3.1,2.7-6.6,2.7-10.2c0-3.4-0.8-6.7-2.4-9.7c-0.4-0.7-0.8-1.5-1.3-2.1c-1-1.4-1-3.2,0-4.6
							c4.3-6.2,11.1-10.6,18.6-11.9c2-0.3,4-0.5,6-0.4c7.8,0.3,15.1,3.8,20.3,9.6c3.3,3.7,5.5,8.1,6.6,12.9c0.5,2,0.7,4.1,0.7,6.2
							c0,5-1.3,9.8-3.7,14.1c-1,1.8-2.2,3.5-3.6,5c-5.2,5.9-12.7,9.3-20.5,9.6C150,155.6,149.7,155.6,149.4,155.6z M134.1,140.8
							c3.6,4,8.5,6.4,14,6.8c0.5,0,1,0,1.5,0.1c0,0,0.1,0,0.1,0c0.1,0,0.2,0,0.3,0c5.7-0.1,11.1-2.7,14.8-6.9c1-1.1,1.8-2.3,2.6-3.6
							c1.7-3.1,2.7-6.6,2.7-10.2c0-1.5-0.2-3-0.5-4.5c-0.8-3.4-2.4-6.6-4.7-9.3c-3.8-4.2-8.9-6.7-14.6-6.9c-0.3,0-0.5,0-0.8,0
							c-1.2,0-2.4,0.1-3.5,0.3c-4.5,0.8-8.7,3.1-11.8,6.5c0.1,0.1,0.2,0.3,0.2,0.4c2.2,4.1,3.3,8.8,3.3,13.4
							C137.6,131.7,136.4,136.5,134.1,140.8z"/>
					</g>
				</g>
			</g>
		</g>
	</g>
	<g>
		<g>
			<g>
				<g>
					<g>
						<path class="st130" d="M129.2,116.8L129.2,116.8c-1.3,0-2.5-0.6-3.3-1.7c-3.3-4.7-8.5-7.9-14.1-8.7c-1.6-0.2-3.3-0.2-4.6-0.1
							c-1.6,0.2-3.2-0.7-3.9-2.1c-2.2-4.1-3.3-8.7-3.3-13.4c0-4.2,0.9-8.3,2.7-12.1c4.7-10.1,14.9-16.6,26-16.6c0.4,0,0.7,0,1.1,0
							c10.9,0.4,20.5,6.8,25,16.8c1.7,3.7,2.6,7.7,2.6,11.9c0,4.7-1.1,9.3-3.3,13.3c-0.7,1.3-2.1,2.2-3.7,2.1c-1.5,0-3,0-4.4,0.3
							c-5.4,0.9-10.2,4-13.4,8.5C131.7,116.2,130.5,116.8,129.2,116.8z M109.3,98.2c1.2,0,2.3,0.1,3.5,0.3c6.2,0.8,12,3.7,16.4,8.1
							c4.1-4.1,9.5-6.9,15.3-7.9c1.1-0.2,2.2-0.3,3.3-0.4c0.9-2.4,1.4-4.9,1.4-7.5c0-3-0.6-5.9-1.8-8.5c-3.3-7.2-10.2-11.8-18-12.1
							c-0.2,0-0.5,0-0.8,0c-8,0-15.4,4.7-18.7,12c-1.3,2.7-1.9,5.6-1.9,8.7C107.9,93.4,108.4,95.9,109.3,98.2z"/>
					</g>
				</g>
			</g>
		</g>
	</g>
</g>
</svg>
