<?xml version="1.0" encoding="utf-8"?>
<!-- Generator: Adobe Illustrator 22.1.0, SVG Export Plug-In . SVG Version: 6.00 Build 0)  -->
<svg version="1.1" id="Layer_1" xmlns="http://www.w3.org/2000/svg" xmlns:xlink="http://www.w3.org/1999/xlink" x="0px" y="0px"
	 viewBox="0 0 256 256" style="enable-background:new 0 0 256 256;" xml:space="preserve">
<style type="text/css">
	.st0{fill:#F6D67A;}
	.st1{fill:#E77CAE;}
	.st2{fill:#AC6535;}
	.st3{fill:#EB573B;}
	.st4{fill:#464646;}
	.st5{fill:#F5B31F;}
	.st6{fill:#9B592D;}
	.st7{fill:#9B5B2F;}
	.st8{fill:#E8A41A;}
	.st9{fill:#6D6E71;}
	.st10{fill:#E5A21C;}
	.st11{fill:#C66395;}
	.st12{fill:#E09F1E;}
	.st13{fill:#FFFFFF;}
	.st14{fill:#DDB95E;}
	.st15{fill:#EAC771;}
	.st16{fill:#F9F6CD;}
	.st17{fill:#009345;}
	.st18{fill:#008438;}
	.st19{fill:#EAA51B;}
	.st20{opacity:0.1;}
	.st21{fill:#FFD11D;}
	.st22{fill:#FFE37B;}
	.st23{fill:#FFA755;}
	.st24{fill:#FFEC97;}
	.st25{fill:#BC7532;}
	.st26{fill:#EFEFEF;}
	.st27{fill:#60ACF7;}
	.st28{fill:#876C6C;}
	.st29{fill:#1DDCFF;}
	.st30{fill:#BDF3FF;}
	.st31{fill:#EFCA70;}
	.st32{fill:#EFA91D;}
	.st33{fill:#8FAE3C;}
	.st34{fill:#92A5AC;}
	.st35{fill:#E8E3BA;}
	.st36{fill:#F79932;}
	.st37{fill:#F4F4F4;}
	.st38{fill:#FFDF8F;}
	.st39{fill:#EAE5B9;}
	.st40{fill:#7E9E6A;}
	.st41{fill:#94B57F;}
	.st42{fill:#9B5D8C;}
	.st43{fill:#96557A;}
	.st44{fill:#C3755A;}
	.st45{fill:#9BD7DD;}
	.st46{fill:#90CAD3;}
	.st47{fill:#F7F7F7;}
	.st48{fill:#AFE6EF;}
	.st49{fill:#FFFAEB;}
	.st50{fill:#F4EFC3;}
	.st51{fill:#F9F9F9;}
	.st52{fill:#FFE5C4;}
	.st53{fill:#FFB024;}
	.st54{fill:#FFC612;}
	.st55{fill:#FFCE31;}
	.st56{fill:#A05C2D;}
	.st57{fill:#1DCAF2;}
	.st58{fill:#00B0E0;}
	.st59{fill:#F2A355;}
	.st60{fill:#D68032;}
	.st61{fill:#66625D;}
	.st62{fill:#54504D;}
	.st63{fill:#B76955;}
	.st64{fill:#EFE8B4;}
	.st65{fill:#B93226;}
	.st66{fill:#EFEABF;}
	.st67{fill:#90C056;}
	.st68{opacity:0.15;}
	.st69{fill:#E8C56D;}
	.st70{fill:#F7BE4B;}
	.st71{fill:#E0A338;}
	.st72{fill:#F68455;}
	.st73{fill:#E26F47;}
	.st74{fill:#EC754B;}
	.st75{fill:#4AA5BA;}
	.st76{opacity:0.5;}
	.st77{fill:#A0B1B5;}
	.st78{opacity:0.7;}
	.st79{fill:#00ADEE;}
	.st80{fill:#F4D4B3;}
	.st81{fill:#F9D97A;}
	.st82{fill:#EDC96E;}
	.st83{fill:none;}
	.st84{fill:#AF6535;}
	.st85{fill:#F18BB4;}
	.st86{fill:#B3E4FF;}
	.st87{fill:#97DFFF;}
	.st88{fill:#D06E3C;}
	.st89{fill:#B55931;}
	.st90{fill:#DA4F4B;}
	.st91{fill:#EFCAA8;}
	.st92{fill:#EA7CB1;}
	.st93{fill:#EA7DAE;}
	.st94{fill:#BC7646;}
	.st95{fill:#00A1C6;}
	.st96{fill:#FCC230;}
	.st97{fill:#F2EBB1;}
	.st98{fill:#F9D6AF;}
	.st99{fill:#D34735;}
	.st100{fill:#E5A21A;}
	.st101{fill:#849E33;}
	.st102{fill:#EFBB14;}
	.st103{fill:#D8402B;}
	.st104{fill:#829B34;}
	.st105{fill:#F88916;}
	.st106{fill:#E27513;}
	.st107{fill:#FFB41F;}
	.st108{fill:#8AA538;}
	.st109{fill:#BE6BB2;}
	.st110{fill:#AA5BA3;}
	.st111{fill:#FFDF66;}
	.st112{fill:#F4BA00;}
	.st113{fill:#E28529;}
	.st114{fill:#FF9945;}
	.st115{fill:#BA6C45;}
	.st116{fill:#EDBA15;}
	.st117{fill:#E0452F;}
	.st118{fill:#F7F2D5;}
	.st119{fill:#4C4E51;}
	.st120{fill:#EA615D;}
	.st121{fill:#DD4A36;}
	.st122{fill:#F6AF72;}
	.st123{fill:#E8955D;}
	.st124{fill:#E4C074;}
	.st125{fill:#EAE4C3;}
	.st126{fill:#BF3522;}
	.st127{fill:#D13E33;}
	.st128{fill:#AA5EA3;}
	.st129{fill:#DD443C;}
	.st130{fill:#AA5FA3;}
	.st131{fill:#B7C536;}
	.st132{fill:#F2872F;}
	.st133{fill:#AF5FA7;}
	.st134{fill:#E29F17;}
	.st135{fill:#FFC86E;}
	.st136{fill:#A55937;}
	.st137{fill:#D8422E;}
	.st138{fill:#C3556D;}
	.st139{fill:#B24965;}
	.st140{fill:#D1A962;}
	.st141{fill:#A3961A;}
	.st142{fill:#AFA51D;}
	.st143{fill:#968A1C;}
</style>
<g>
	<g>
		<g>
			<g>
				<g>
					<path class="st16" d="M127.2,11.9l-8,8.6c-0.8,0.8-1.8,1.3-2.9,1.3c-0.1,0-0.2,0-0.4,0l-47.3-4.2c-1.1-0.1-2.1-0.6-2.8-1.5
						c-0.7-0.9-1-2-0.8-3.1l1.4-9.6c0.3-2.1,2.2-3.6,4.3-3.4l53.9,5.1c1.5,0.1,2.8,1.1,3.4,2.6C128.6,9.1,128.3,10.8,127.2,11.9z"/>
				</g>
			</g>
		</g>
	</g>
	<g>
		<g>
			<g>
				<g>
					<path class="st37" d="M142.5,88.7c0,2.2-1.8,4-4,4c0,0,0,0,0,0H98.1c-2.2,0-4-1.8-4-4V47.5c0-2.2,1.8-4,4-4H125
						c1.8,0,3.3,1.1,3.8,2.8l4.4,14.6l8.8,26.2C142.4,87.6,142.5,88.2,142.5,88.7z"/>
				</g>
			</g>
		</g>
	</g>
	<g>
		<g>
			<g>
				<g>
					<path class="st37" d="M191,47.5v41.2c0,2.2-1.8,4-4,4h-36.7c-1.7,0-3.2-1.1-3.8-2.7l-9.4-26.6c0,0,0-0.1,0-0.1l-4.7-14.7
						c-0.4-1.2-0.2-2.6,0.6-3.6c0.8-1,1.9-1.6,3.2-1.6H187C189.2,43.5,191,45.3,191,47.5z"/>
				</g>
			</g>
		</g>
	</g>
	<g>
		<g>
			<g>
				<g>
					<path class="st16" d="M154.3,88.7c0,2.2-1.8,4-4,4c0,0,0,0,0,0h-11.8c-1.7,0-3.2-1.1-3.8-2.7l-9-26.6c0,0,0-0.1,0-0.1
						l-4.4-14.7l-5.3-17.4c-0.1-0.4-0.2-0.8-0.2-1.2c0-0.8,0.3-1.7,0.7-2.3l7.5-10.5c0.9-1.2,2.4-1.9,3.9-1.6
						c1.5,0.2,2.7,1.3,3.2,2.7l9,27.9l4.7,14.6l9.2,26.2C154.2,87.6,154.3,88.1,154.3,88.7z"/>
				</g>
			</g>
		</g>
	</g>
	<g>
		<g>
			<g>
				<g>
					<path class="st39" d="M130.5,21.9L123,32.4c-0.8,1.1-2,1.7-3.2,1.7c-0.2,0-0.5,0-0.7,0c-1.5-0.3-2.8-1.4-3.2-2.9l-3.4-12.3
						c-0.4-1.4,0-2.8,0.9-3.8l8-8.6c1-1.1,2.5-1.5,3.9-1.2c1.4,0.3,2.5,1.4,2.9,2.8l2.9,10.4C131.4,19.6,131.2,20.9,130.5,21.9z"/>
				</g>
			</g>
		</g>
	</g>
	<g>
		<g>
			<g>
				<g>
					<g>
						<path class="st41" d="M191,88.7V243c0,7.9-5.3,13-13.4,13h-70.6c-7.9,0-13-5.1-13-13V88.7c0-2.2,1.8-4,4-4H187
							C189.2,84.7,191,86.5,191,88.7z"/>
					</g>
				</g>
			</g>
		</g>
	</g>
	<g>
		<g>
			<g>
				<g>
					<path class="st40" d="M169.7,112.5l-0.2,32c0,1.3-0.6,2.5-1.6,3.2c-0.7,0.5-1.5,0.8-2.4,0.8c-0.4,0-0.8-0.1-1.2-0.2L132,137.8
						c-1.1-0.4-2.1-1.2-2.5-2.4c-0.4-1.1-0.3-2.4,0.3-3.4c8.2-14.2,20.2-22.1,35.6-23.5c1.1-0.1,2.2,0.3,3.1,1
						C169.3,110.3,169.7,111.3,169.7,112.5z"/>
				</g>
			</g>
		</g>
	</g>
	<g>
		<g>
			<g>
				<g>
					<path class="st40" d="M148.6,177.4c0.1,1.2-0.5,2.4-1.4,3.2c-8.1,7-17,10.6-26.5,10.6c-3.2,0-6.5-0.4-9.9-1.2
						c-1.1-0.3-2-1-2.6-2c-0.5-1-0.6-2.2-0.3-3.2l9.2-26.2c0.4-1.2,1.4-2.1,2.6-2.5c1.2-0.4,2.5-0.1,3.6,0.6l23.7,17.7
						C148,175,148.5,176.1,148.6,177.4z"/>
				</g>
			</g>
		</g>
	</g>
	<g>
		<g>
			<g>
				<g>
					<path class="st40" d="M169.4,210.7l-9,25c-0.4,1.2-1.4,2.1-2.6,2.5c-0.4,0.1-0.8,0.2-1.1,0.2c-0.9,0-1.7-0.3-2.4-0.8
						l-22.4-17.2c-1-0.7-1.5-1.9-1.6-3.1c0-1.2,0.5-2.4,1.4-3.2c10.5-8.9,22.4-11.8,35-8.6c1.1,0.3,2,1,2.5,2
						C169.7,208.5,169.8,209.7,169.4,210.7z"/>
				</g>
			</g>
		</g>
	</g>
</g>
</svg>
