<?xml version="1.0" encoding="utf-8"?>
<!-- Generator: Adobe Illustrator 22.1.0, SVG Export Plug-In . SVG Version: 6.00 Build 0)  -->
<svg version="1.1" id="Layer_1" xmlns="http://www.w3.org/2000/svg" xmlns:xlink="http://www.w3.org/1999/xlink" x="0px" y="0px"
	 viewBox="0 0 256 256" style="enable-background:new 0 0 256 256;" xml:space="preserve">
<style type="text/css">
	.st0{fill:#F6D67A;}
	.st1{fill:#E77CAE;}
	.st2{fill:#AC6535;}
	.st3{fill:#EB573B;}
	.st4{fill:#464646;}
	.st5{fill:#F5B31F;}
	.st6{fill:#9B592D;}
	.st7{fill:#9B5B2F;}
	.st8{fill:#E8A41A;}
	.st9{fill:#6D6E71;}
	.st10{fill:#E5A21C;}
	.st11{fill:#C66395;}
	.st12{fill:#E09F1E;}
	.st13{fill:#FFFFFF;}
	.st14{fill:#DDB95E;}
	.st15{fill:#EAC771;}
	.st16{fill:#F9F6CD;}
	.st17{fill:#009345;}
	.st18{fill:#008438;}
	.st19{fill:#EAA51B;}
	.st20{opacity:0.1;}
	.st21{fill:#FFD11D;}
	.st22{fill:#FFE37B;}
	.st23{fill:#FFA755;}
	.st24{fill:#FFEC97;}
	.st25{fill:#BC7532;}
	.st26{fill:#EFEFEF;}
	.st27{fill:#60ACF7;}
	.st28{fill:#876C6C;}
	.st29{fill:#1DDCFF;}
	.st30{fill:#BDF3FF;}
	.st31{fill:#EFCA70;}
	.st32{fill:#EFA91D;}
	.st33{fill:#8FAE3C;}
	.st34{fill:#92A5AC;}
	.st35{fill:#E8E3BA;}
	.st36{fill:#F79932;}
	.st37{fill:#F4F4F4;}
	.st38{fill:#FFDF8F;}
	.st39{fill:#EAE5B9;}
	.st40{fill:#7E9E6A;}
	.st41{fill:#94B57F;}
	.st42{fill:#9B5D8C;}
	.st43{fill:#96557A;}
	.st44{fill:#C3755A;}
	.st45{fill:#9BD7DD;}
	.st46{fill:#90CAD3;}
	.st47{fill:#F7F7F7;}
	.st48{fill:#AFE6EF;}
	.st49{fill:#FFFAEB;}
	.st50{fill:#F4EFC3;}
	.st51{fill:#F9F9F9;}
	.st52{fill:#FFE5C4;}
	.st53{fill:#FFB024;}
	.st54{fill:#FFC612;}
	.st55{fill:#FFCE31;}
	.st56{fill:#A05C2D;}
	.st57{fill:#1DCAF2;}
	.st58{fill:#00B0E0;}
	.st59{fill:#F2A355;}
	.st60{fill:#D68032;}
	.st61{fill:#66625D;}
	.st62{fill:#54504D;}
	.st63{fill:#B76955;}
	.st64{fill:#EFE8B4;}
	.st65{fill:#B93226;}
	.st66{fill:#EFEABF;}
	.st67{fill:#90C056;}
	.st68{opacity:0.15;}
	.st69{fill:#E8C56D;}
	.st70{fill:#F7BE4B;}
	.st71{fill:#E0A338;}
	.st72{fill:#F68455;}
	.st73{fill:#E26F47;}
	.st74{fill:#EC754B;}
	.st75{fill:#4AA5BA;}
	.st76{opacity:0.5;}
	.st77{fill:#A0B1B5;}
	.st78{opacity:0.7;}
	.st79{fill:#00ADEE;}
	.st80{fill:#F4D4B3;}
	.st81{fill:#F9D97A;}
	.st82{fill:#EDC96E;}
	.st83{fill:none;}
	.st84{fill:#AF6535;}
	.st85{fill:#F18BB4;}
	.st86{fill:#B3E4FF;}
	.st87{fill:#97DFFF;}
	.st88{fill:#D06E3C;}
	.st89{fill:#B55931;}
	.st90{fill:#DA4F4B;}
	.st91{fill:#EFCAA8;}
	.st92{fill:#EA7CB1;}
	.st93{fill:#EA7DAE;}
	.st94{fill:#BC7646;}
	.st95{fill:#00A1C6;}
	.st96{fill:#FCC230;}
	.st97{fill:#F2EBB1;}
	.st98{fill:#F9D6AF;}
	.st99{fill:#D34735;}
	.st100{fill:#E5A21A;}
	.st101{fill:#849E33;}
	.st102{fill:#EFBB14;}
	.st103{fill:#D8402B;}
	.st104{fill:#829B34;}
	.st105{fill:#F88916;}
	.st106{fill:#E27513;}
	.st107{fill:#FFB41F;}
	.st108{fill:#8AA538;}
	.st109{fill:#BE6BB2;}
	.st110{fill:#AA5BA3;}
	.st111{fill:#FFDF66;}
	.st112{fill:#F4BA00;}
	.st113{fill:#E28529;}
	.st114{fill:#FF9945;}
	.st115{fill:#BA6C45;}
	.st116{fill:#EDBA15;}
	.st117{fill:#E0452F;}
	.st118{fill:#F7F2D5;}
	.st119{fill:#4C4E51;}
	.st120{fill:#EA615D;}
	.st121{fill:#DD4A36;}
	.st122{fill:#F6AF72;}
	.st123{fill:#E8955D;}
	.st124{fill:#E4C074;}
	.st125{fill:#EAE4C3;}
	.st126{fill:#BF3522;}
	.st127{fill:#D13E33;}
	.st128{fill:#AA5EA3;}
	.st129{fill:#DD443C;}
	.st130{fill:#AA5FA3;}
	.st131{fill:#B7C536;}
	.st132{fill:#F2872F;}
	.st133{fill:#AF5FA7;}
	.st134{fill:#E29F17;}
	.st135{fill:#FFC86E;}
	.st136{fill:#A55937;}
	.st137{fill:#D8422E;}
	.st138{fill:#C3556D;}
	.st139{fill:#B24965;}
	.st140{fill:#D1A962;}
	.st141{fill:#A3961A;}
	.st142{fill:#AFA51D;}
	.st143{fill:#968A1C;}
</style>
<g>
	<g>
		<g>
			<g>
				<g>
					<path class="st3" d="M232.4,215.1v6c0,16.6-9.1,34.4-34.5,34.4H58c-25.4,0-34.5-17.8-34.5-34.4v-6c0-2.2,1.8-4,4-4h200.9
						C230.6,211.1,232.4,212.9,232.4,215.1z"/>
				</g>
			</g>
		</g>
	</g>
	<g>
		<g>
			<g>
				<g>
					<path class="st3" d="M232.4,85.5v28.4c0,2.2-1.8,4-4,4H27.6c-2.2,0-4-1.8-4-4V86.7c0-2.2,1.8-4,4-4c3.5,0,7.7-3.2,12.1-6.5
						c6-4.5,12.8-9.7,21.2-9.7c7.9,0,13.5,4.6,18.3,8.7c4.8,4,8.9,7.4,15,7.4c6.6,0,13-4.1,19.2-8.2c6.3-4.1,12.3-8,19-8
						c6.8,0,12.2,4.2,17.3,8.2c5.2,4.1,10,7.9,16.3,7.9c6.3,0,11.4-3.8,16.8-7.8c5.5-4.1,11.2-8.3,18.4-8.3c8,0,15,5.3,21.2,10
						c2.9,2.2,5.6,4.2,7.9,5.3C231.6,82.6,232.4,84,232.4,85.5z"/>
				</g>
			</g>
		</g>
	</g>
	<g>
		<g>
			<g>
				<g>
					<path class="st16" d="M256,71c-1.6,13.6-12.6,19.7-22.7,19.7c-2,0-4-0.5-6.2-1.6c-3-1.5-6-3.8-9.2-6.2
						c-5.2-3.9-11.1-8.4-16.4-8.4c-4.5,0-8.7,3.1-13.6,6.8c-5.9,4.4-12.7,9.4-21.6,9.4c-9.1,0-15.6-5.1-21.3-9.6
						c-4.4-3.5-8.3-6.5-12.3-6.5c-4.2,0-9.3,3.3-14.6,6.7c-6.8,4.4-14.6,9.4-23.5,9.4s-14.9-4.9-20.1-9.3c-4.4-3.7-8.2-6.8-13.2-6.8
						c-5.7,0-11.1,4.1-16.4,8c-5.3,4-10.8,8.1-16.9,8.1C16.2,90.7,2.6,77,1.1,75.4c-0.9-1-1.3-2.3-1-3.7c0.3-1.3,1.2-2.4,2.5-2.9
						c10.9-4.2,16.1-8.9,15.6-14.2c-0.1-1.1,0.3-2.2,1-3.1c0.8-0.8,1.8-1.3,3-1.3h211.1c2.2,0,4,1.8,4,3.9c0,4,1.7,9.7,15.5,12.3
						C254.8,67,256.2,68.9,256,71z"/>
				</g>
			</g>
		</g>
	</g>
	<g>
		<g>
			<g>
				<g>
					<path class="st16" d="M236.2,44.7c-1.2,1-2.9,1.3-4.3,0.6c-0.4-0.2-0.9-0.5-1.2-0.8H25.3c-0.3,0.3-0.7,0.6-1.2,0.8
						c-0.5,0.2-1.1,0.4-1.7,0.4c-1,0-1.9-0.3-2.6-1C12,37.9,9.3,26.6,13,16.6C16.8,6.5,26.1,0.4,37.9,0.4h180.2
						c11.8,0,21.1,6,24.9,16.1C246.7,26.6,244,37.9,236.2,44.7z"/>
				</g>
			</g>
		</g>
	</g>
	<g>
		<g>
			<g>
				<g>
					<path class="st0" d="M237.5,40.5v13.9c0,2.2-1.8,4-4,4H22.5c-2.2,0-4-1.8-4-4V40.5c0-2.2,1.8-4,4-4h211.1
						C235.7,36.5,237.5,38.3,237.5,40.5z"/>
				</g>
			</g>
		</g>
	</g>
	<g>
		<g>
			<g>
				<g>
					<path class="st16" d="M232.4,113.9v101.2c0,2.2-1.8,4-4,4H27.6c-2.2,0-4-1.8-4-4V113.9c0-2.2,1.8-4,4-4h200.9
						C230.6,109.9,232.4,111.7,232.4,113.9z"/>
				</g>
			</g>
		</g>
	</g>
	<g>
		<g>
			<g>
				<g>
					<path class="st3" d="M149.7,186.2c-6.8,8.4-23.4,12.9-35.5,12.9c-5,0-11.8-0.8-15.4-4.4c-4.2-4.2-4.7-12.3-4.3-18.4
						c0.6-11.6,4.8-26.1,12.9-32.6c4.2-3.4,8.9-5.1,14-5.1c1.8,0,3.6,0.2,5.4,0.6c1.3,0.3,2.3,1.2,2.8,2.4c0.7,1.8,3.5,4.5,12.5,7
						c1.1,0.3,2.1,1.1,2.6,2.2l0.9,2c2.1,4.6,4.9,10.8,6.9,12c1,0.6,1.7,1.5,1.9,2.7C155.7,174.2,154.1,180.7,149.7,186.2z"/>
				</g>
			</g>
		</g>
	</g>
	<g>
		<g>
			<g>
				<g>
					<path class="st17" d="M150.4,172.3c-0.6,0-1.2-0.1-1.7-0.4c-0.1,0-0.2-0.1-0.3-0.1v0c-4.3-2.5-7.2-8.9-10.2-15.6l-0.1-0.3
						c-8.9-2.7-14-6.3-16-11.2c-0.3-0.8-0.5-1.6-0.7-2.4c-0.3-1.9,0.8-3.8,2.6-4.4c3.2-1.2,6.8-0.8,10.6,1.2c0.6-2,1.5-4.1,2.9-6.3
						c0.6-1,1.7-1.7,2.9-1.8c1.2-0.2,2.4,0.2,3.2,1c5.2,4.8,6.1,9.7,5.7,13.5c8.5,0.5,10.5,3.1,11.2,4c1.2,1.5,1.6,3.4,1.2,5.3
						c-0.2,1-0.8,1.8-1.6,2.4c-1.5,1.1-3.6,1.7-6.4,1.8c1.6,4.2,1.8,7.9,0.6,11c-0.5,1.3-1.6,2.2-2.9,2.4
						C150.9,172.3,150.7,172.3,150.4,172.3z"/>
				</g>
			</g>
		</g>
	</g>
	<g>
		<g>
			<g>
				<g>
					<path class="st18" d="M142.9,154.5c-1.1,0-2.2-0.4-2.9-1.3c-1.5-1.6-1.4-4.2,0.2-5.7c2.3-2.1,9.3-8.6,17.3-6
						c2.1,0.7,3.3,2.9,2.6,5c-0.7,2.1-2.9,3.3-5,2.6c-0.9-0.3-3.6-1.1-9.4,4.3C144.8,154.2,143.9,154.5,142.9,154.5z"/>
				</g>
			</g>
		</g>
	</g>
</g>
</svg>
