<?xml version="1.0" encoding="utf-8"?>
<!-- Generator: Adobe Illustrator 22.1.0, SVG Export Plug-In . SVG Version: 6.00 Build 0)  -->
<svg version="1.1" id="Layer_1" xmlns="http://www.w3.org/2000/svg" xmlns:xlink="http://www.w3.org/1999/xlink" x="0px" y="0px"
	 viewBox="0 0 256 256" style="enable-background:new 0 0 256 256;" xml:space="preserve">
<style type="text/css">
	.st0{fill:#F6D67A;}
	.st1{fill:#E77CAE;}
	.st2{fill:#AC6535;}
	.st3{fill:#EB573B;}
	.st4{fill:#464646;}
	.st5{fill:#F5B31F;}
	.st6{fill:#9B592D;}
	.st7{fill:#9B5B2F;}
	.st8{fill:#E8A41A;}
	.st9{fill:#6D6E71;}
	.st10{fill:#E5A21C;}
	.st11{fill:#C66395;}
	.st12{fill:#E09F1E;}
	.st13{fill:#FFFFFF;}
	.st14{fill:#DDB95E;}
	.st15{fill:#EAC771;}
	.st16{fill:#F9F6CD;}
	.st17{fill:#009345;}
	.st18{fill:#008438;}
	.st19{fill:#EAA51B;}
	.st20{opacity:0.1;}
	.st21{fill:#FFD11D;}
	.st22{fill:#FFE37B;}
	.st23{fill:#FFA755;}
	.st24{fill:#FFEC97;}
	.st25{fill:#BC7532;}
	.st26{fill:#EFEFEF;}
	.st27{fill:#60ACF7;}
	.st28{fill:#876C6C;}
	.st29{fill:#1DDCFF;}
	.st30{fill:#BDF3FF;}
	.st31{fill:#EFCA70;}
	.st32{fill:#EFA91D;}
	.st33{fill:#8FAE3C;}
	.st34{fill:#92A5AC;}
	.st35{fill:#E8E3BA;}
	.st36{fill:#F79932;}
	.st37{fill:#F4F4F4;}
	.st38{fill:#FFDF8F;}
	.st39{fill:#EAE5B9;}
	.st40{fill:#7E9E6A;}
	.st41{fill:#94B57F;}
	.st42{fill:#9B5D8C;}
	.st43{fill:#96557A;}
	.st44{fill:#C3755A;}
	.st45{fill:#9BD7DD;}
	.st46{fill:#90CAD3;}
	.st47{fill:#F7F7F7;}
	.st48{fill:#AFE6EF;}
	.st49{fill:#FFFAEB;}
	.st50{fill:#F4EFC3;}
	.st51{fill:#F9F9F9;}
	.st52{fill:#FFE5C4;}
	.st53{fill:#FFB024;}
	.st54{fill:#FFC612;}
	.st55{fill:#FFCE31;}
	.st56{fill:#A05C2D;}
	.st57{fill:#1DCAF2;}
	.st58{fill:#00B0E0;}
	.st59{fill:#F2A355;}
	.st60{fill:#D68032;}
	.st61{fill:#66625D;}
	.st62{fill:#54504D;}
	.st63{fill:#B76955;}
	.st64{fill:#EFE8B4;}
	.st65{fill:#B93226;}
	.st66{fill:#EFEABF;}
	.st67{fill:#90C056;}
	.st68{opacity:0.15;}
	.st69{fill:#E8C56D;}
	.st70{fill:#F7BE4B;}
	.st71{fill:#E0A338;}
	.st72{fill:#F68455;}
	.st73{fill:#E26F47;}
	.st74{fill:#EC754B;}
	.st75{fill:#4AA5BA;}
	.st76{opacity:0.5;}
	.st77{fill:#A0B1B5;}
	.st78{opacity:0.7;}
	.st79{fill:#00ADEE;}
	.st80{fill:#F4D4B3;}
	.st81{fill:#F9D97A;}
	.st82{fill:#EDC96E;}
	.st83{fill:none;}
	.st84{fill:#AF6535;}
	.st85{fill:#F18BB4;}
	.st86{fill:#B3E4FF;}
	.st87{fill:#97DFFF;}
	.st88{fill:#D06E3C;}
	.st89{fill:#B55931;}
	.st90{fill:#DA4F4B;}
	.st91{fill:#EFCAA8;}
	.st92{fill:#EA7CB1;}
	.st93{fill:#EA7DAE;}
	.st94{fill:#BC7646;}
	.st95{fill:#00A1C6;}
	.st96{fill:#FCC230;}
	.st97{fill:#F2EBB1;}
	.st98{fill:#F9D6AF;}
	.st99{fill:#D34735;}
	.st100{fill:#E5A21A;}
	.st101{fill:#849E33;}
	.st102{fill:#EFBB14;}
	.st103{fill:#D8402B;}
	.st104{fill:#829B34;}
	.st105{fill:#F88916;}
	.st106{fill:#E27513;}
	.st107{fill:#FFB41F;}
	.st108{fill:#8AA538;}
	.st109{fill:#BE6BB2;}
	.st110{fill:#AA5BA3;}
	.st111{fill:#FFDF66;}
	.st112{fill:#F4BA00;}
	.st113{fill:#E28529;}
	.st114{fill:#FF9945;}
	.st115{fill:#BA6C45;}
	.st116{fill:#EDBA15;}
	.st117{fill:#E0452F;}
	.st118{fill:#F7F2D5;}
	.st119{fill:#4C4E51;}
	.st120{fill:#EA615D;}
	.st121{fill:#DD4A36;}
	.st122{fill:#F6AF72;}
	.st123{fill:#E8955D;}
	.st124{fill:#E4C074;}
	.st125{fill:#EAE4C3;}
	.st126{fill:#BF3522;}
	.st127{fill:#D13E33;}
	.st128{fill:#AA5EA3;}
	.st129{fill:#DD443C;}
	.st130{fill:#AA5FA3;}
	.st131{fill:#B7C536;}
	.st132{fill:#F2872F;}
	.st133{fill:#AF5FA7;}
	.st134{fill:#E29F17;}
	.st135{fill:#FFC86E;}
	.st136{fill:#A55937;}
	.st137{fill:#D8422E;}
	.st138{fill:#C3556D;}
	.st139{fill:#B24965;}
	.st140{fill:#D1A962;}
	.st141{fill:#A3961A;}
	.st142{fill:#AFA51D;}
	.st143{fill:#968A1C;}
</style>
<g>
	<g>
		<g>
			<g>
				<g>
					<path class="st122" d="M249.8,150.1c-2.7,25.8-14.7,49.7-34,67.1c-21.5,19.5-50.6,29.8-84.1,29.8c-1.5,0-3,0-4.6-0.1
						c0,0-0.1,0-0.1,0c-34.9-1.9-65-13.7-86.9-34.3c-19.5-18.3-31.6-42.6-34-68.4c-2-21.9,3.3-43.5,14.9-60.7
						c12.7-18.8,32.4-32,56.9-37.9c29.4-8.9,22.6-39.4,22.3-40.7c-0.4-1.7,0.4-3.5,1.9-4.4c1.5-0.9,3.4-0.7,4.7,0.5
						c4.3,4,8,8.6,11.9,17.6c0.3,0.7,0.7,1.5,1.2,2.3c0.1-0.3,0.2-0.6,0.3-0.9c1.1-3.3,2.2-6.8,4.6-10.3c1-1.4,2.5-3.1,4.2-4.8
						c1.1-1.2,2.4-2.6,3-3.3c1.1-1.6,3.2-2.1,5-1.2c1.8,0.9,2.6,2.9,2.1,4.7c0,0.1-3,10.8,2.7,20.7c4.3,7.5,12.4,12.9,24.1,16.1
						C230.1,55.3,254.3,105.9,249.8,150.1z"/>
				</g>
			</g>
		</g>
	</g>
	<g>
		<g>
			<g>
				<g>
					<path class="st123" d="M127.2,247c-0.7,0-1.5-0.2-2.2-0.6C74.2,213.6,47.2,179.4,45,144.6C42.2,102,76,68.4,101.7,46.8
						c1.7-1.4,4.2-1.2,5.6,0.5c1.4,1.7,1.2,4.2-0.5,5.6C82.5,73.4,50.4,105.1,53,144.1c1.8,27.3,20.6,54.7,56.2,81.5
						c-31.4-48.9-19.8-91.7-7.6-136.6c3.5-12.7,7-25.9,9.7-39.3c0.4-2.2,2.5-3.6,4.7-3.2c2.2,0.4,3.6,2.5,3.2,4.7
						c-2.7,13.7-6.3,27-9.8,39.9c-13.9,51-25.9,95,21,149.3c1.3,1.5,1.3,3.7,0,5.2C129.5,246.5,128.4,247,127.2,247z"/>
				</g>
			</g>
		</g>
	</g>
	<g>
		<g>
			<g>
				<g>
					<path class="st123" d="M127.2,247c-1.1,0-2.2-0.5-3-1.4c-1.3-1.5-1.3-3.7,0-5.2c55.4-64.5,25-147.2,2-190.8
						c-1-2-0.3-4.4,1.7-5.4c2-1,4.4-0.3,5.4,1.7c21.9,41.3,50,116.6,10.6,181.1c39-28.3,58.8-57.4,59-86.8
						c0.3-38-32.3-67.1-59.7-84.8c-1.9-1.2-2.4-3.7-1.2-5.5c1.2-1.9,3.7-2.4,5.5-1.2c41.7,27,63.6,58.7,63.3,91.6
						c-0.3,36.6-27.7,72.3-81.5,106.1C128.7,246.8,128,247,127.2,247z"/>
				</g>
			</g>
		</g>
	</g>
	<g>
		<g>
			<g>
				<g>
					<path class="st123" d="M148.8,256c-0.5,0-1-0.1-1.5-0.3l-20.2-8.4l-19.5,6.4c-2.1,0.7-4.4-0.4-5.1-2.5c-0.7-2.1,0.5-4.4,2.5-5
						l20.9-6.9c0.9-0.3,1.9-0.3,2.8,0.1l21.5,9c2,0.9,3,3.2,2.1,5.2C151.8,255.1,150.3,256,148.8,256z"/>
				</g>
			</g>
		</g>
	</g>
	<g>
		<g>
			<g>
				<g>
					<path class="st123" d="M137.9,256c-0.9,0-1.8-0.3-2.6-0.9l-7.9-6.6l-6.2,6.3c-1.5,1.6-4.1,1.6-5.7,0.1
						c-1.6-1.5-1.6-4.1-0.1-5.7l8.8-9c1.5-1.5,3.8-1.6,5.4-0.3l10.7,9c1.7,1.4,1.9,3.9,0.5,5.6C140.2,255.5,139.1,256,137.9,256z"/>
				</g>
			</g>
		</g>
	</g>
</g>
</svg>
