<?xml version="1.0" encoding="utf-8"?>
<!-- Generator: Adobe Illustrator 22.1.0, SVG Export Plug-In . SVG Version: 6.00 Build 0)  -->
<svg version="1.1" id="Layer_1" xmlns="http://www.w3.org/2000/svg" xmlns:xlink="http://www.w3.org/1999/xlink" x="0px" y="0px"
	 viewBox="0 0 256 256" style="enable-background:new 0 0 256 256;" xml:space="preserve">
<style type="text/css">
	.st0{fill:#F6D67A;}
	.st1{fill:#E77CAE;}
	.st2{fill:#AC6535;}
	.st3{fill:#EB573B;}
	.st4{fill:#464646;}
	.st5{fill:#F5B31F;}
	.st6{fill:#9B592D;}
	.st7{fill:#9B5B2F;}
	.st8{fill:#E8A41A;}
	.st9{fill:#6D6E71;}
	.st10{fill:#E5A21C;}
	.st11{fill:#C66395;}
	.st12{fill:#E09F1E;}
	.st13{fill:#FFFFFF;}
	.st14{fill:#DDB95E;}
	.st15{fill:#EAC771;}
	.st16{fill:#F9F6CD;}
	.st17{fill:#009345;}
	.st18{fill:#008438;}
	.st19{fill:#EAA51B;}
	.st20{opacity:0.1;}
	.st21{fill:#FFD11D;}
	.st22{fill:#FFE37B;}
	.st23{fill:#FFA755;}
	.st24{fill:#FFEC97;}
	.st25{fill:#BC7532;}
	.st26{fill:#EFEFEF;}
	.st27{fill:#60ACF7;}
	.st28{fill:#876C6C;}
	.st29{fill:#1DDCFF;}
	.st30{fill:#BDF3FF;}
	.st31{fill:#EFCA70;}
	.st32{fill:#EFA91D;}
	.st33{fill:#8FAE3C;}
	.st34{fill:#92A5AC;}
	.st35{fill:#E8E3BA;}
	.st36{fill:#F79932;}
	.st37{fill:#F4F4F4;}
	.st38{fill:#FFDF8F;}
	.st39{fill:#EAE5B9;}
	.st40{fill:#7E9E6A;}
	.st41{fill:#94B57F;}
	.st42{fill:#9B5D8C;}
	.st43{fill:#96557A;}
	.st44{fill:#C3755A;}
	.st45{fill:#9BD7DD;}
	.st46{fill:#90CAD3;}
	.st47{fill:#F7F7F7;}
	.st48{fill:#AFE6EF;}
	.st49{fill:#FFFAEB;}
	.st50{fill:#F4EFC3;}
	.st51{fill:#F9F9F9;}
	.st52{fill:#FFE5C4;}
	.st53{fill:#FFB024;}
	.st54{fill:#FFC612;}
	.st55{fill:#FFCE31;}
	.st56{fill:#A05C2D;}
	.st57{fill:#1DCAF2;}
	.st58{fill:#00B0E0;}
	.st59{fill:#F2A355;}
	.st60{fill:#D68032;}
	.st61{fill:#66625D;}
	.st62{fill:#54504D;}
	.st63{fill:#B76955;}
	.st64{fill:#EFE8B4;}
	.st65{fill:#B93226;}
	.st66{fill:#EFEABF;}
	.st67{fill:#90C056;}
	.st68{opacity:0.15;}
	.st69{fill:#E8C56D;}
	.st70{fill:#F7BE4B;}
	.st71{fill:#E0A338;}
	.st72{fill:#F68455;}
	.st73{fill:#E26F47;}
	.st74{fill:#EC754B;}
	.st75{fill:#4AA5BA;}
	.st76{opacity:0.5;}
	.st77{fill:#A0B1B5;}
	.st78{opacity:0.7;}
	.st79{fill:#00ADEE;}
	.st80{fill:#F4D4B3;}
	.st81{fill:#F9D97A;}
	.st82{fill:#EDC96E;}
	.st83{fill:none;}
	.st84{fill:#AF6535;}
	.st85{fill:#F18BB4;}
	.st86{fill:#B3E4FF;}
	.st87{fill:#97DFFF;}
	.st88{fill:#D06E3C;}
	.st89{fill:#B55931;}
	.st90{fill:#DA4F4B;}
	.st91{fill:#EFCAA8;}
	.st92{fill:#EA7CB1;}
	.st93{fill:#EA7DAE;}
	.st94{fill:#BC7646;}
	.st95{fill:#00A1C6;}
	.st96{fill:#FCC230;}
	.st97{fill:#F2EBB1;}
	.st98{fill:#F9D6AF;}
	.st99{fill:#D34735;}
	.st100{fill:#E5A21A;}
	.st101{fill:#849E33;}
	.st102{fill:#EFBB14;}
	.st103{fill:#D8402B;}
	.st104{fill:#829B34;}
	.st105{fill:#F88916;}
	.st106{fill:#E27513;}
	.st107{fill:#FFB41F;}
	.st108{fill:#8AA538;}
	.st109{fill:#BE6BB2;}
	.st110{fill:#AA5BA3;}
	.st111{fill:#FFDF66;}
	.st112{fill:#F4BA00;}
	.st113{fill:#E28529;}
	.st114{fill:#FF9945;}
	.st115{fill:#BA6C45;}
	.st116{fill:#EDBA15;}
	.st117{fill:#E0452F;}
	.st118{fill:#F7F2D5;}
	.st119{fill:#4C4E51;}
	.st120{fill:#EA615D;}
	.st121{fill:#DD4A36;}
	.st122{fill:#F6AF72;}
	.st123{fill:#E8955D;}
	.st124{fill:#E4C074;}
	.st125{fill:#EAE4C3;}
	.st126{fill:#BF3522;}
	.st127{fill:#D13E33;}
	.st128{fill:#AA5EA3;}
	.st129{fill:#DD443C;}
	.st130{fill:#AA5FA3;}
	.st131{fill:#B7C536;}
	.st132{fill:#F2872F;}
	.st133{fill:#AF5FA7;}
	.st134{fill:#E29F17;}
	.st135{fill:#FFC86E;}
	.st136{fill:#A55937;}
	.st137{fill:#D8422E;}
	.st138{fill:#C3556D;}
	.st139{fill:#B24965;}
	.st140{fill:#D1A962;}
	.st141{fill:#A3961A;}
	.st142{fill:#AFA51D;}
	.st143{fill:#968A1C;}
</style>
<g>
	<g>
		<g>
			<g>
				<g>
					<g>
						<path class="st36" d="M220.6,145.2c0,51.4-36,94.4-84.1,105.2c0-0.1,0-0.2,0-0.2c0-1.9-1.3-3.6-3.2-3.9
							c-17.3-3.4-33.2-11.4-46.2-23.4l11.9-12c14.5,13.1,33,20.3,52.7,20.3c2.2,0,4-1.8,4-4v-73l51.6-51.6l3.2-3.2
							C216.9,113.2,220.6,128.8,220.6,145.2z"/>
					</g>
				</g>
			</g>
		</g>
	</g>
	<g>
		<g>
			<g>
				<g>
					<g>
						<path class="st36" d="M211.3,98.3l-1,1l-3.2,3.2l-51.6,51.6v73c0,2.2-1.8,4-4,4c-19.7,0-38.2-7.2-52.7-20.3l-11.9,12
							c13,12,28.9,20.1,46.2,23.4c1.9,0.4,3.2,2,3.2,3.9c0,0.1,0,0.2,0,0.2c-0.1,1.8-1.4,3.3-3.2,3.7c-6.7,1.3-13.7,1.9-20.6,1.9
							C51.1,256,1,205.9,1,144.3C1,95.8,31.9,53.1,77.9,38.1c4.7-1.6,9.7-2.8,14.6-3.7c1-0.2,2,0,2.9,0.6
							c15.6,9.9,31.3,14.9,46.6,14.9c7.3,0,14.7-1.1,22-3.4c1.1-0.3,2.2-0.2,3.1,0.3c19.3,10.9,34.9,27.1,44.9,46.8
							C212.8,95.2,212.6,97.1,211.3,98.3z"/>
					</g>
				</g>
			</g>
		</g>
	</g>
	<g>
		<g>
			<g>
				<g>
					<g>
						<path class="st33" d="M231.5,6.6c-21.4,24.8-43.3,40.8-65.1,47.5c-8.1,2.5-16.2,3.7-24.3,3.7c-16.9,0-34-5.4-50.9-16.1
							c-2.9-1.9-5.9-3.9-8.8-6.1c0.4,1.9,0.7,3.8,0.9,5.9c0.5,5.1,0.6,10.8,0.3,18.1c-0.1,2.1-1.9,3.8-4,3.8c-0.1,0-0.1,0-0.2,0
							c-2.2-0.1-3.9-2-3.8-4.2c0.3-6.9,0.2-12.2-0.3-16.9c-0.7-6.3-2.1-11.4-4.6-16.6c0,0,0,0,0,0c0,0,0,0,0,0
							c-0.4-1-0.9-1.8-1.3-2.7c0,0,0,0,0,0c0,0,0,0,0,0c-2-3.8-4.7-7.9-8.8-13.3c-1.3-1.8-1-4.3,0.8-5.6c1.8-1.3,4.3-0.9,5.6,0.8
							c3.1,4.1,5.4,7.5,7.3,10.7c13.5-7.8,27.9-15.3,50.6-15.3c2.6,0,5.2,0.1,7.9,0.3c4.4,0.3,8.6,0.7,12.7,1
							c11.6,1,22.5,1.9,35.6,1.9c0,0,0,0,0,0c14.2,0,29.1-1.1,46.9-3.4c1.6-0.2,3.2,0.6,4,2.1C232.8,3.6,232.6,5.3,231.5,6.6z"/>
					</g>
				</g>
			</g>
		</g>
	</g>
	<g>
		<g>
			<g>
				<g>
					<g>
						<path class="st113" d="M61.3,214.7c-0.8,0-1.5-0.2-2.2-0.7c-19.8-13-30.7-36.6-32.7-54.2c-0.3-2.2,1.3-4.2,3.5-4.4
							c2.2-0.3,4.2,1.3,4.4,3.5c1.8,15.8,11.6,36.9,29.2,48.5c1.8,1.2,2.4,3.7,1.1,5.5C63.8,214.1,62.6,214.7,61.3,214.7z"/>
					</g>
				</g>
			</g>
		</g>
	</g>
	<g>
		<g>
			<g>
				<g>
					<g>
						<g>
							<path class="st23" d="M151.6,152.4v74.7c-19.1,0-38.2-7.3-52.7-21.9L151.6,152.4z"/>
						</g>
					</g>
				</g>
			</g>
		</g>
		<g>
			<g>
				<g>
					<g>
						<g>
							<path class="st23" d="M204.3,205.2c-2.7,2.7-5.6,5.2-8.6,7.4c0,0,0,0,0,0c-13.1,9.6-28.6,14.4-44.1,14.4v-74.7l50.9,51
								L204.3,205.2z"/>
						</g>
					</g>
				</g>
			</g>
		</g>
		<g>
			<g>
				<g>
					<g>
						<g>
							<path class="st23" d="M226.2,152.4c0,19.1-7.3,38.2-21.8,52.8l-1.8-1.8l-50.9-51H226.2z"/>
						</g>
					</g>
				</g>
			</g>
		</g>
		<g>
			<g>
				<g>
					<g>
						<g>
							<path class="st23" d="M226.2,152.4h-74.6l52.7-52.8c4.7,4.7,8.6,9.9,11.8,15.3C222.8,126.5,226.2,139.5,226.2,152.4z"/>
						</g>
					</g>
				</g>
			</g>
		</g>
	</g>
	<g>
		<g>
			<g>
				<g>
					<g>
						<path class="st21" d="M224.7,225.7c-19.5,19.6-45.5,30.3-73.1,30.3c-6.7,0-13.4-0.7-19.9-1.9c-20.2-3.9-38.6-13.8-53.2-28.4
							c-1.6-1.6-1.6-4.1,0-5.6L96,202.4c0.8-0.8,1.8-1.2,2.8-1.2c1.1,0,2.1,0.4,2.8,1.2c13.3,13.3,31,20.7,49.9,20.7
							c15.2,0,29.6-4.7,41.7-13.6c0,0,0.1,0,0.1-0.1c2.9-2.1,5.6-4.5,8.2-7c13.3-13.4,20.7-31.1,20.7-50c0-12.5-3.3-24.7-9.5-35.5
							c-3.1-5.3-6.8-10.2-11.2-14.5c-1.6-1.6-1.6-4.1,0-5.6l17.6-17.6c0.8-0.8,1.8-1.2,2.8-1.2c1.1,0,2.1,0.4,2.8,1.2
							C265.1,119.6,265.1,185.3,224.7,225.7z"/>
					</g>
				</g>
			</g>
		</g>
	</g>
	<g>
		<g>
			<g>
				<g>
					<g>
						<g>
							<path class="st114" d="M151.6,231.1L151.6,231.1c-21,0-40.7-8.2-55.6-23c-1.6-1.6-1.6-4.1,0-5.7l52.7-52.8
								c1.1-1.1,2.9-1.5,4.4-0.9c1.5,0.6,2.5,2.1,2.5,3.7v74.7C155.6,229.3,153.8,231.1,151.6,231.1z M104.6,205.2
								c12,10.7,27,17,43,17.8v-60.9L104.6,205.2z"/>
						</g>
					</g>
				</g>
			</g>
		</g>
		<g>
			<g>
				<g>
					<g>
						<g>
							<path class="st114" d="M151.6,231.1L151.6,231.1c-2.3,0-4-1.8-4-4v-74.7c0-1.6,1-3.1,2.5-3.7c1.5-0.6,3.2-0.3,4.4,0.9
								l52.7,52.8c1.6,1.6,1.6,4.1,0,5.7c-2.8,2.8-5.8,5.4-9,7.8c0,0-0.1,0.1-0.1,0.1C184.5,225.9,168.5,231.1,151.6,231.1z
								 M155.6,162.1V223c13.6-0.7,26.6-5.4,37.6-13.5c0,0,0.1,0,0.1-0.1h0c1.8-1.3,3.6-2.8,5.3-4.3L155.6,162.1z"/>
						</g>
					</g>
				</g>
			</g>
		</g>
		<g>
			<g>
				<g>
					<g>
						<g>
							<path class="st114" d="M204.3,209.2c-1.1,0-2.1-0.4-2.8-1.2l-52.7-52.8c-1.1-1.1-1.5-2.9-0.9-4.4c0.6-1.5,2.1-2.5,3.7-2.5
								h74.6c2.2,0,4,1.8,4,4c0,21-8.2,40.8-23,55.6C206.4,208.8,205.4,209.2,204.3,209.2z M161.2,156.4l43,43.1
								c10.7-12,16.9-27,17.8-43.1H161.2z"/>
						</g>
					</g>
				</g>
			</g>
		</g>
		<g>
			<g>
				<g>
					<g>
						<g>
							<path class="st114" d="M226.2,156.4h-74.6c-1.6,0-3.1-1-3.7-2.5c-0.6-1.5-0.3-3.2,0.9-4.4l52.7-52.8c0.8-0.8,1.8-1.2,2.8-1.2
								l0,0c1.1,0,2.1,0.4,2.8,1.2c4.8,4.8,9,10.3,12.4,16.2c6.9,12,10.6,25.6,10.6,39.5C230.2,154.7,228.4,156.4,226.2,156.4z
								 M161.2,148.4h60.8c-0.6-11.1-3.8-21.9-9.4-31.5c-2.4-4.1-5.2-8-8.4-11.6L161.2,148.4z"/>
						</g>
					</g>
				</g>
			</g>
		</g>
	</g>
</g>
</svg>
