<?xml version="1.0" encoding="utf-8"?>
<!-- Generator: Adobe Illustrator 22.1.0, SVG Export Plug-In . SVG Version: 6.00 Build 0)  -->
<svg version="1.1" id="Layer_1" xmlns="http://www.w3.org/2000/svg" xmlns:xlink="http://www.w3.org/1999/xlink" x="0px" y="0px"
	 viewBox="0 0 256 256" style="enable-background:new 0 0 256 256;" xml:space="preserve">
<style type="text/css">
	.st0{fill:#F6D67A;}
	.st1{fill:#E77CAE;}
	.st2{fill:#AC6535;}
	.st3{fill:#EB573B;}
	.st4{fill:#464646;}
	.st5{fill:#F5B31F;}
	.st6{fill:#9B592D;}
	.st7{fill:#9B5B2F;}
	.st8{fill:#E8A41A;}
	.st9{fill:#6D6E71;}
	.st10{fill:#E5A21C;}
	.st11{fill:#C66395;}
	.st12{fill:#E09F1E;}
	.st13{fill:#FFFFFF;}
	.st14{fill:#DDB95E;}
	.st15{fill:#EAC771;}
	.st16{fill:#F9F6CD;}
	.st17{fill:#009345;}
	.st18{fill:#008438;}
	.st19{fill:#EAA51B;}
	.st20{opacity:0.1;}
	.st21{fill:#FFD11D;}
	.st22{fill:#FFE37B;}
	.st23{fill:#FFA755;}
	.st24{fill:#FFEC97;}
	.st25{fill:#BC7532;}
	.st26{fill:#EFEFEF;}
	.st27{fill:#60ACF7;}
	.st28{fill:#876C6C;}
	.st29{fill:#1DDCFF;}
	.st30{fill:#BDF3FF;}
	.st31{fill:#EFCA70;}
	.st32{fill:#EFA91D;}
	.st33{fill:#8FAE3C;}
	.st34{fill:#92A5AC;}
	.st35{fill:#E8E3BA;}
	.st36{fill:#F79932;}
	.st37{fill:#F4F4F4;}
	.st38{fill:#FFDF8F;}
	.st39{fill:#EAE5B9;}
	.st40{fill:#7E9E6A;}
	.st41{fill:#94B57F;}
	.st42{fill:#9B5D8C;}
	.st43{fill:#96557A;}
	.st44{fill:#C3755A;}
	.st45{fill:#9BD7DD;}
	.st46{fill:#90CAD3;}
	.st47{fill:#F7F7F7;}
	.st48{fill:#AFE6EF;}
	.st49{fill:#FFFAEB;}
	.st50{fill:#F4EFC3;}
	.st51{fill:#F9F9F9;}
	.st52{fill:#FFE5C4;}
	.st53{fill:#FFB024;}
	.st54{fill:#FFC612;}
	.st55{fill:#FFCE31;}
	.st56{fill:#A05C2D;}
	.st57{fill:#1DCAF2;}
	.st58{fill:#00B0E0;}
	.st59{fill:#F2A355;}
	.st60{fill:#D68032;}
	.st61{fill:#66625D;}
	.st62{fill:#54504D;}
	.st63{fill:#B76955;}
	.st64{fill:#EFE8B4;}
	.st65{fill:#B93226;}
	.st66{fill:#EFEABF;}
	.st67{fill:#90C056;}
	.st68{opacity:0.15;}
	.st69{fill:#E8C56D;}
	.st70{fill:#F7BE4B;}
	.st71{fill:#E0A338;}
	.st72{fill:#F68455;}
	.st73{fill:#E26F47;}
	.st74{fill:#EC754B;}
	.st75{fill:#4AA5BA;}
	.st76{opacity:0.5;}
	.st77{fill:#A0B1B5;}
	.st78{opacity:0.7;}
	.st79{fill:#00ADEE;}
	.st80{fill:#F4D4B3;}
	.st81{fill:#F9D97A;}
	.st82{fill:#EDC96E;}
	.st83{fill:none;}
	.st84{fill:#AF6535;}
	.st85{fill:#F18BB4;}
	.st86{fill:#B3E4FF;}
	.st87{fill:#97DFFF;}
	.st88{fill:#D06E3C;}
	.st89{fill:#B55931;}
	.st90{fill:#DA4F4B;}
	.st91{fill:#EFCAA8;}
	.st92{fill:#EA7CB1;}
	.st93{fill:#EA7DAE;}
	.st94{fill:#BC7646;}
	.st95{fill:#00A1C6;}
	.st96{fill:#FCC230;}
	.st97{fill:#F2EBB1;}
	.st98{fill:#F9D6AF;}
	.st99{fill:#D34735;}
	.st100{fill:#E5A21A;}
	.st101{fill:#849E33;}
	.st102{fill:#EFBB14;}
	.st103{fill:#D8402B;}
	.st104{fill:#829B34;}
	.st105{fill:#F88916;}
	.st106{fill:#E27513;}
	.st107{fill:#FFB41F;}
	.st108{fill:#8AA538;}
	.st109{fill:#BE6BB2;}
	.st110{fill:#AA5BA3;}
	.st111{fill:#FFDF66;}
	.st112{fill:#F4BA00;}
	.st113{fill:#E28529;}
	.st114{fill:#FF9945;}
	.st115{fill:#BA6C45;}
	.st116{fill:#EDBA15;}
	.st117{fill:#E0452F;}
	.st118{fill:#F7F2D5;}
	.st119{fill:#4C4E51;}
	.st120{fill:#EA615D;}
	.st121{fill:#DD4A36;}
	.st122{fill:#F6AF72;}
	.st123{fill:#E8955D;}
	.st124{fill:#E4C074;}
	.st125{fill:#EAE4C3;}
	.st126{fill:#BF3522;}
	.st127{fill:#D13E33;}
	.st128{fill:#AA5EA3;}
	.st129{fill:#DD443C;}
	.st130{fill:#AA5FA3;}
	.st131{fill:#B7C536;}
	.st132{fill:#F2872F;}
	.st133{fill:#AF5FA7;}
	.st134{fill:#E29F17;}
	.st135{fill:#FFC86E;}
	.st136{fill:#A55937;}
	.st137{fill:#D8422E;}
	.st138{fill:#C3556D;}
	.st139{fill:#B24965;}
	.st140{fill:#D1A962;}
	.st141{fill:#A3961A;}
	.st142{fill:#AFA51D;}
	.st143{fill:#968A1C;}
</style>
<g>
	<g>
		<g>
			<g>
				<g>
					<path class="st10" d="M256,184.9c0,12.9-13.9,24.6-39.1,33c-23.8,7.9-55.4,12.3-88.9,12.3S62.9,225.9,39,218
						c-25.2-8.4-39-20.1-39-33c0-4.9,1.9-9.6,5.7-14c0.8-0.9,1.9-1.4,3-1.4c1.2,0,2.3,0.5,3,1.4C26.2,187.8,74,199.5,128,199.5
						c17.4,0,34.2-1.2,50-3.5c1.5-0.2,3.1,0.5,3.9,1.8c2.1,3.1,4.5,4.7,7.5,4.7c1.3,0,5.4,0,7.7-7.9c0.4-1.4,1.5-2.4,2.9-2.8
						c21.5-5.2,37.2-12.6,44.2-20.8c0.8-0.9,1.9-1.4,3-1.4c1.2,0,2.3,0.5,3,1.4C254.1,175.4,256,180.1,256,184.9z"/>
				</g>
			</g>
		</g>
	</g>
	<g>
		<g>
			<g>
				<g>
					<g>
						<path class="st5" d="M256,162.2c0,4.9-1.9,9.6-5.7,14c-10.4,12.1-32,19.4-48.4,23.3c-0.3,0.1-0.6,0.1-0.9,0.1
							c-1.1,0-2.1-0.4-2.9-1.2c-1-1-1.3-2.5-0.9-3.9c1.3-4.4,1.4-8.8,1.4-8.9v-13.1c0-1.8,1.2-3.4,3-3.9c11.2-2.8,20.7-6.2,28.2-10
							c6.5-3.3,11.4-6.8,14.5-10.4c0.8-0.9,1.9-1.4,3-1.4c1.2,0,2.3,0.5,3,1.4C254.1,152.6,256,157.3,256,162.2z"/>
					</g>
				</g>
			</g>
		</g>
		<g>
			<g>
				<g>
					<g>
						<path class="st5" d="M182.2,201.6c-0.6,1.2-1.7,2.1-3.1,2.3c-16.1,2.4-33.3,3.6-51.2,3.6c-57.1,0-106.2-12.6-122.3-31.4
							c-3.8-4.4-5.7-9.1-5.7-14s1.9-9.6,5.7-14c0.8-0.9,1.9-1.4,3-1.4c1.2,0,2.3,0.5,3,1.4c3.1,3.6,8,7.1,14.5,10.4
							C48.8,170,86.8,176.8,128,176.8c15.3,0,30.2-0.9,44.3-2.8c1.1-0.2,2.3,0.2,3.1,0.9c0.9,0.7,1.4,1.8,1.4,3
							c0.1,5.8,1.5,14.4,5.1,19.9C182.7,198.9,182.8,200.3,182.2,201.6z"/>
					</g>
				</g>
			</g>
		</g>
	</g>
	<g>
		<g>
			<g>
				<g>
					<g>
						<path class="st10" d="M256,139.4c0,4.8-1.9,9.6-5.7,14c-3.8,4.4-9.5,8.6-16.9,12.4c-8.1,4.1-18.1,7.6-29.9,10.6
							c-0.3,0.1-0.7,0.1-1,0.1c-0.9,0-1.8-0.3-2.5-0.8c-1-0.8-1.5-1.9-1.5-3.2v-22.8c0-1.8,1.2-3.4,3-3.9c11.1-2.8,20.6-6.1,28.2-10
							c0,0,0.1-0.1,0.2-0.1c6.4-3.3,11.2-6.7,14.3-10.3c0.8-0.9,1.9-1.3,3-1.4c1.2,0,2.3,0.5,3,1.4C254.1,129.9,256,134.6,256,139.4
							z"/>
					</g>
				</g>
			</g>
		</g>
		<g>
			<g>
				<g>
					<g>
						<path class="st10" d="M176.8,177.8c0.1,2.1-1.4,3.9-3.5,4.1c-14.4,1.9-29.7,2.8-45.3,2.8c-42.4,0-81.7-7.1-105.3-19
							c-7.4-3.8-13.1-7.9-17-12.4c-3.8-4.4-5.7-9.1-5.7-14c0-4.8,1.9-9.5,5.7-14c0.8-0.9,1.9-1.4,3-1.4h0c1.2,0,2.3,0.5,3,1.4
							c3.1,3.6,7.9,7.1,14.3,10.3c0,0,0.1,0.1,0.2,0.1c8.6,4.3,19.6,8.1,32.6,11c0,0,0.1,0,0.1,0c2.8,0.6,5.8,1.2,8.8,1.8
							c1.2,0.2,2.2,1,2.8,2.1c2.7,5.1,6.8,8.1,11.3,8.1c4.7,0,8.4-1.6,11.3-4.9c0.8-0.9,2.1-1.4,3.3-1.3c10.1,0.9,20.7,1.4,31.5,1.4
							c0.2,0,0.5,0,0.7,0c1.4,0,2.7,0.6,3.4,1.8c1.4,2.1,3.2,3,5.8,3c1.4,0,3.6-0.4,5.6-3.4c0.7-1.1,1.9-1.7,3.1-1.8
							c8.9-0.5,17.5-1.2,25.6-2.3c1.1-0.1,2.3,0.2,3.2,1c0.9,0.8,1.4,1.9,1.4,3v22C176.8,177.4,176.8,177.6,176.8,177.8z"/>
					</g>
				</g>
			</g>
		</g>
	</g>
	<g>
		<g>
			<g>
				<g>
					<g>
						<path class="st5" d="M176.8,132.4v22.8c0,2-1.5,3.7-3.5,4c-8.3,1.1-17.2,1.9-26.2,2.3h-0.2c-1.4,0-2.8-0.8-3.5-2
							c-0.8-1.3-0.7-2.9,0.1-4.2c2.8-4.2,3.7-11,3.7-15.6v-5.3c0-2.1,1.6-3.9,3.8-4c7.2-0.5,14.4-1.1,21.3-2c1.2-0.2,2.3,0.2,3.2,1
							C176.3,130.2,176.8,131.3,176.8,132.4z"/>
					</g>
				</g>
			</g>
		</g>
		<g>
			<g>
				<g>
					<g>
						<path class="st5" d="M256,116.6c0,4.8-1.9,9.5-5.7,14c-3.8,4.4-9.5,8.6-16.9,12.4c-0.1,0-0.1,0.1-0.2,0.1
							c-8.1,4.1-18.1,7.6-29.7,10.5c-0.3,0.1-0.7,0.1-1,0.1c-0.9,0-1.8-0.3-2.5-0.9c-1-0.8-1.5-1.9-1.5-3.1v-22.8
							c0-1.8,1.2-3.4,3-3.9c11.1-2.8,20.6-6.1,28.2-10c6.5-3.3,11.4-6.8,14.5-10.4c0.8-0.9,1.9-1.4,3-1.4c1.2,0,2.3,0.5,3,1.4
							C254.1,107.1,256,111.8,256,116.6z"/>
					</g>
				</g>
			</g>
		</g>
		<g>
			<g>
				<g>
					<g>
						<path class="st5" d="M71.1,152.6c0,2.2-1.8,4-4,4h0c-0.2,0-0.5,0-0.8-0.1c-3.1-0.6-6.1-1.2-9-1.9c0,0-0.1,0-0.1,0
							c-13.6-3.1-25.1-7-34.3-11.6c-0.1,0-0.1-0.1-0.2-0.1c-7.4-3.8-13.2-7.9-17-12.4c-3.8-4.4-5.7-9.1-5.7-14c0-4.9,1.9-9.6,5.7-14
							c0.8-0.9,1.9-1.4,3-1.4c1.2,0,2.3,0.5,3,1.4c3.1,3.6,8,7.2,14.5,10.4c8.6,4.4,19.6,8.1,32.7,11c2,0.5,3.9,0.9,5.8,1.2
							c1.9,0.4,3.2,2,3.2,3.9v10.4c0,3.9,0.8,7.6,2.5,10.9C70.8,151.1,71.1,151.9,71.1,152.6z"/>
					</g>
				</g>
			</g>
		</g>
		<g>
			<g>
				<g>
					<g>
						<path class="st5" d="M132.4,159.8c-0.6,1.3-2,2.1-3.4,2.2c-0.3,0-0.7,0-1,0c-11,0-21.8-0.5-32.2-1.4c-1.5-0.1-2.8-1.1-3.4-2.5
							c-0.6-1.4-0.3-3,0.7-4.1c4.2-4.6,6-12,6-17.2v-2.3c0-1.1,0.5-2.2,1.3-2.9c0.8-0.8,1.9-1.2,3-1.1c7.2,0.5,14.7,0.8,22,0.8
							c2.2,0,4,1.8,4,4v10.2c0,3.1,0.7,7.4,2.7,10.3C133,156.9,133.1,158.5,132.4,159.8z"/>
					</g>
				</g>
			</g>
		</g>
	</g>
	<g>
		<g>
			<g>
				<g>
					<g>
						<path class="st10" d="M256,93.8c0,4.8-1.9,9.6-5.7,14c-3.8,4.5-9.5,8.6-17,12.4c-8.1,4.1-18.2,7.7-29.8,10.6
							c-0.3,0.1-0.7,0.1-1,0.1c-0.9,0-1.8-0.3-2.5-0.9c-1-0.8-1.5-1.9-1.5-3.1v-22.8c0-1.8,1.2-3.4,3-3.9c0.7-0.2,1.4-0.3,2.1-0.5
							c0.5-0.1,0.9-0.2,1.4-0.4c1-0.3,1.9-0.5,2.8-0.8c0.6-0.2,1.2-0.3,1.8-0.5c0.7-0.2,1.3-0.4,1.9-0.6c0,0,0.1,0,0.1,0
							c0.6-0.2,1.2-0.4,1.8-0.6c2.5-0.8,4.9-1.6,7.1-2.5l1.6-0.6c0,0,0.1-0.1,0.1-0.1c0.5-0.2,1.1-0.4,1.6-0.6
							c2.2-0.9,4.2-1.9,6-2.8c6.5-3.3,11.4-6.8,14.5-10.4c0.8-0.9,1.9-1.4,3-1.4s2.3,0.5,3,1.4C254.1,84.3,256,89,256,93.8z"/>
					</g>
				</g>
			</g>
		</g>
		<g>
			<g>
				<g>
					<g>
						<path class="st10" d="M68,106.5v22.8c0,1.2-0.5,2.3-1.5,3.1c-0.7,0.6-1.6,0.9-2.5,0.9c-0.3,0-0.5,0-0.8-0.1
							c-1.9-0.4-4-0.8-6-1.3c-13.7-3.1-25.3-7-34.5-11.7c-7.4-3.8-13.2-7.9-17-12.4c-3.8-4.4-5.7-9.1-5.7-14c0-4.9,1.9-9.6,5.7-14
							c0.8-0.9,1.9-1.4,3-1.4s2.3,0.5,3,1.4c3.1,3.6,8,7.1,14.5,10.4C35,94.7,46,98.4,59,101.3c1.9,0.4,3.8,0.8,5.8,1.2
							C66.6,102.9,68,104.6,68,106.5z"/>
					</g>
				</g>
			</g>
		</g>
		<g>
			<g>
				<g>
					<g>
						<path class="st10" d="M176.8,123v9.4c0,2-1.5,3.7-3.5,4c-7.1,0.9-14.4,1.6-21.8,2.1c-0.1,0-0.2,0-0.2,0c-1,0-2-0.4-2.7-1.1
							c-0.8-0.8-1.3-1.8-1.3-2.9v-14.8c0-0.5,0.2-5.3,2.4-9.8c0.6-1.3,1.9-2.2,3.4-2.3c1.2-0.1,2.5-0.2,3.7-0.3
							c1.4-0.1,2.7-0.2,3.9-0.3c1.1-0.1,2.1-0.2,3.2-0.3c1.9-0.2,3.7-0.4,5.5-0.6c1.6-0.2,3.1,0.6,3.9,2
							C176.7,114.1,176.8,122.1,176.8,123z"/>
					</g>
				</g>
			</g>
		</g>
		<g>
			<g>
				<g>
					<g>
						<path class="st10" d="M129.5,123v12.2c0,1.1-0.4,2.1-1.2,2.8c-0.7,0.7-1.8,1.2-2.8,1.2c0,0,0,0,0,0c-7.5,0-15.1-0.3-22.5-0.8
							c-2.1-0.1-3.7-1.9-3.7-4V123c0-9.1,7.6-13.8,15.1-13.8C121.8,109.2,129.5,114,129.5,123z"/>
					</g>
				</g>
			</g>
		</g>
	</g>
	<g>
		<g>
			<g>
				<g>
					<path class="st5" d="M162.3,105.2c-4.8,0-7.5,3-9,6.3c1.3-0.1,2.5-0.2,3.8-0.3c1.3-0.1,2.6-0.2,3.9-0.3
						c1.1-0.1,2.2-0.2,3.3-0.3c1.9-0.2,3.7-0.4,5.6-0.6C168.2,107.3,165.9,105.2,162.3,105.2z M128,29.7C59.5,29.7,4,48.2,4,71.1
						c0,3.9,1.7,7.8,4.8,11.4c3.5,4.1,8.9,7.9,15.7,11.4c8.9,4.5,20.3,8.4,33.6,11.4c1.9,0.4,3.9,0.9,5.9,1.2v-9.7
						c-1.4,0.4-2.6,0.4-3.9-0.2c-3.6-1.8-16.5-4.1-20.7-11.3c-4.2-7.3-2.6-14.7,4.2-25.9c6.8-11.1,32.1-14.2,70.5-6
						c4.8,1,9.6,2.1,14.3,3.2c6.6-5.2,17.1-8.9,33.4-7.8c42.4,2.6,66.4,19.8,66.4,29.2c0,1.6-8.7,4.7-10,6.2
						c-1.4,1.7-3.7,3.3-6.5,4.7c-2.6,1.3-5.7,2.5-9.2,3.5v11.7c0.7-0.2,1.4-0.4,2.1-0.5c0.5-0.1,1-0.3,1.5-0.4
						c0.9-0.3,1.9-0.5,2.8-0.8c0.6-0.2,1.2-0.4,1.8-0.5c0.7-0.2,1.3-0.4,2-0.6c0.6-0.2,1.3-0.4,1.9-0.6c2.5-0.8,5-1.7,7.3-2.6
						c0.6-0.2,1.1-0.4,1.7-0.7c0,0,0,0,0.1,0c0.6-0.2,1.1-0.5,1.7-0.7c2.2-0.9,4.3-1.9,6.2-2.9c6.9-3.5,12.2-7.3,15.7-11.4
						c3.1-3.6,4.8-7.4,4.8-11.4C252,48.2,196.5,29.7,128,29.7z M162.3,105.2c-4.8,0-7.5,3-9,6.3c1.3-0.1,2.5-0.2,3.8-0.3
						c1.3-0.1,2.6-0.2,3.9-0.3c1.1-0.1,2.2-0.2,3.3-0.3c1.9-0.2,3.7-0.4,5.6-0.6C168.2,107.3,165.9,105.2,162.3,105.2z M162.3,105.2
						c-4.8,0-7.5,3-9,6.3c1.3-0.1,2.5-0.2,3.8-0.3c1.3-0.1,2.6-0.2,3.9-0.3c1.1-0.1,2.2-0.2,3.3-0.3c1.9-0.2,3.7-0.4,5.6-0.6
						C168.2,107.3,165.9,105.2,162.3,105.2z"/>
				</g>
			</g>
		</g>
	</g>
	<g>
		<g>
			<g>
				<g>
					<path class="st5" d="M173,107.7c-3.2-5.3-7.6-6.4-10.8-6.4c-5.6,0-10,3-12.6,8.6c-0.2,0.3-0.3,0.7-0.3,1c0,0.2-0.1,0.5-0.1,0.7
						c0,0.2,0,0.5,0.1,0.7c0.1,0.6,0.3,1.1,0.7,1.6c0.3,0.5,0.7,0.8,1.2,1.1c0.4,0.2,0.9,0.4,1.4,0.5c0.2,0.1,0.5,0.1,0.7,0.1
						c0.1,0,0.1,0,0.2,0c0.1,0,0.2,0,0.2,0c1.2-0.1,2.5-0.2,3.7-0.3c1.4-0.1,2.7-0.2,4-0.3c1.1-0.1,2.2-0.2,3.3-0.3
						c1.8-0.2,3.7-0.4,5.5-0.6c2.1-0.2,3.7-1.9,3.7-4C173.8,109.1,173.5,108.3,173,107.7z"/>
				</g>
			</g>
		</g>
		<g>
			<g>
				<g>
					<path class="st5" d="M256,71.1c0,4.8-1.9,9.6-5.7,14c-3.8,4.5-9.5,8.6-16.9,12.4c-2,1-4.2,2-6.5,3c-0.5,0.2-1.1,0.4-1.6,0.7
						c-0.1,0-0.2,0.1-0.2,0.1l-1.7,0.7c-2.4,0.9-4.9,1.8-7.5,2.7c-0.6,0.2-1.3,0.4-2,0.6c-0.6,0.2-1.3,0.4-2,0.6
						c-0.6,0.2-1.2,0.4-1.9,0.5c-0.9,0.3-1.9,0.5-2.8,0.8c-0.5,0.2-1,0.3-1.5,0.4c-0.7,0.2-1.4,0.4-2.1,0.5c-1.2,0.3-2.4,0-3.4-0.7
						c-1-0.8-1.5-1.9-1.5-3.2V92.5c0-1.8,1.2-3.3,2.9-3.8c3.3-1,6.2-2.1,8.5-3.2c3-1.5,4.5-2.9,5.3-3.7c1-1.2,2.6-2,5.6-3.5
						c0.8-0.4,2.1-1,3-1.5c-1.2-2.8-5.6-7.5-14.8-12.2c-12.4-6.4-29.3-10.5-47.5-11.6c-13.4-0.8-23.8,1.5-30.7,7
						c-1,0.8-2.2,1-3.4,0.8c-4.4-1-9.2-2.1-14.2-3.2c-14.2-3-26.8-4.6-37.4-4.6c-15,0-25.5,3.2-28.8,8.7c-7.2,11.7-6.9,17-4.1,21.8
						c2.4,4.1,9.6,6.5,14.3,8c2,0.6,3.5,1.2,4.7,1.8c0,0,0.2,0.1,1-0.1c1.2-0.3,2.5-0.1,3.5,0.7c1,0.8,1.6,1.9,1.6,3.2v9.7
						c0,1.2-0.5,2.3-1.5,3.1c-0.7,0.6-1.6,0.9-2.5,0.9c-0.3,0-0.5,0-0.8-0.1c-2-0.4-4-0.8-6-1.3c-13.7-3.1-25.3-7.1-34.5-11.7
						c-7.4-3.8-13.1-7.9-17-12.3C1.9,80.6,0,75.9,0,71.1c0-12.9,13.9-24.6,39-33c23.8-7.9,55.4-12.3,88.9-12.3s65.1,4.4,88.9,12.3
						C242.1,46.4,256,58.2,256,71.1z"/>
				</g>
			</g>
		</g>
	</g>
	<g>
		<g>
			<g>
				<g>
					<path class="st3" d="M232.2,78c0,3.4-3.3,5-7.8,7.3c-1.1,0.5-2.7,1.3-3.2,1.7c-1.8,2-4.3,3.8-7.6,5.5c-2,1-4.4,2-7,2.9v90.2
						c0,0.2,0,5.6-1.7,11.1c-2.6,8.8-8.1,13.7-15.4,13.7c-5.7,0-10.6-2.9-14.2-8.3c-4.5-6.8-6.3-16.9-6.4-24.1c0-0.2,0-0.6,0-0.9
						V123c0-1.9-0.5-7.5-2.5-11c-1.4-2.5-2.9-2.8-4-2.8c-1.6,0-3.8,0.5-5.4,4c-1.4,2.9-1.6,6.2-1.6,6.7v19.8c0,2.9-0.4,12.8-5,19.9
						c-3,4.6-7.3,7.1-12.3,7.1c-5.2,0-9.5-2.3-12.4-6.5c-3.8-5.5-4.1-12.7-4.1-14.8V123c0-4.6-4.5-5.8-7.1-5.8s-7.1,1.2-7.1,5.8
						v13.6c0,6.3-2.1,15.9-8,22.6c-4.4,5-10.4,7.6-17.3,7.6c-7.5,0-14.4-4.6-18.4-12.4c-2.3-4.4-3.5-9.6-3.5-14.8v-38.8
						c-0.6-0.2-1.1-0.4-1.7-0.6c-0.6-0.3-2.1-0.8-3.6-1.3C48.8,97,39.9,94.1,36,87.3c-6-10.4-1.5-20.5,4.2-30
						c5-8.2,17.3-12.5,35.7-12.5c11.2,0,24.4,1.6,39.1,4.8c4.4,1,8.6,1.9,12.5,2.8c8.4-5.9,20-8.4,34.6-7.5
						C203.4,47.4,232.2,64.4,232.2,78z"/>
				</g>
			</g>
		</g>
	</g>
</g>
</svg>
