<?xml version="1.0" encoding="utf-8"?>
<!-- Generator: Adobe Illustrator 22.1.0, SVG Export Plug-In . SVG Version: 6.00 Build 0)  -->
<svg version="1.1" id="Layer_1" xmlns="http://www.w3.org/2000/svg" xmlns:xlink="http://www.w3.org/1999/xlink" x="0px" y="0px"
	 viewBox="0 0 256 256" style="enable-background:new 0 0 256 256;" xml:space="preserve">
<style type="text/css">
	.st0{fill:#F6D67A;}
	.st1{fill:#E77CAE;}
	.st2{fill:#AC6535;}
	.st3{fill:#EB573B;}
	.st4{fill:#464646;}
	.st5{fill:#F5B31F;}
	.st6{fill:#9B592D;}
	.st7{fill:#9B5B2F;}
	.st8{fill:#E8A41A;}
	.st9{fill:#6D6E71;}
	.st10{fill:#E5A21C;}
	.st11{fill:#C66395;}
	.st12{fill:#E09F1E;}
	.st13{fill:#FFFFFF;}
	.st14{fill:#DDB95E;}
	.st15{fill:#EAC771;}
	.st16{fill:#F9F6CD;}
	.st17{fill:#009345;}
	.st18{fill:#008438;}
	.st19{fill:#EAA51B;}
	.st20{opacity:0.1;}
	.st21{fill:#FFD11D;}
	.st22{fill:#FFE37B;}
	.st23{fill:#FFA755;}
	.st24{fill:#FFEC97;}
	.st25{fill:#BC7532;}
	.st26{fill:#EFEFEF;}
	.st27{fill:#60ACF7;}
	.st28{fill:#876C6C;}
	.st29{fill:#1DDCFF;}
	.st30{fill:#BDF3FF;}
	.st31{fill:#EFCA70;}
	.st32{fill:#EFA91D;}
	.st33{fill:#8FAE3C;}
	.st34{fill:#92A5AC;}
	.st35{fill:#E8E3BA;}
	.st36{fill:#F79932;}
	.st37{fill:#F4F4F4;}
	.st38{fill:#FFDF8F;}
	.st39{fill:#EAE5B9;}
	.st40{fill:#7E9E6A;}
	.st41{fill:#94B57F;}
	.st42{fill:#9B5D8C;}
	.st43{fill:#96557A;}
	.st44{fill:#C3755A;}
	.st45{fill:#9BD7DD;}
	.st46{fill:#90CAD3;}
	.st47{fill:#F7F7F7;}
	.st48{fill:#AFE6EF;}
	.st49{fill:#FFFAEB;}
	.st50{fill:#F4EFC3;}
	.st51{fill:#F9F9F9;}
	.st52{fill:#FFE5C4;}
	.st53{fill:#FFB024;}
	.st54{fill:#FFC612;}
	.st55{fill:#FFCE31;}
	.st56{fill:#A05C2D;}
	.st57{fill:#1DCAF2;}
	.st58{fill:#00B0E0;}
	.st59{fill:#F2A355;}
	.st60{fill:#D68032;}
	.st61{fill:#66625D;}
	.st62{fill:#54504D;}
	.st63{fill:#B76955;}
	.st64{fill:#EFE8B4;}
	.st65{fill:#B93226;}
	.st66{fill:#EFEABF;}
	.st67{fill:#90C056;}
	.st68{opacity:0.15;}
	.st69{fill:#E8C56D;}
	.st70{fill:#F7BE4B;}
	.st71{fill:#E0A338;}
	.st72{fill:#F68455;}
	.st73{fill:#E26F47;}
	.st74{fill:#EC754B;}
	.st75{fill:#4AA5BA;}
	.st76{opacity:0.5;}
	.st77{fill:#A0B1B5;}
	.st78{opacity:0.7;}
	.st79{fill:#00ADEE;}
	.st80{fill:#F4D4B3;}
	.st81{fill:#F9D97A;}
	.st82{fill:#EDC96E;}
	.st83{fill:none;}
	.st84{fill:#AF6535;}
	.st85{fill:#F18BB4;}
	.st86{fill:#B3E4FF;}
	.st87{fill:#97DFFF;}
	.st88{fill:#D06E3C;}
	.st89{fill:#B55931;}
	.st90{fill:#DA4F4B;}
	.st91{fill:#EFCAA8;}
	.st92{fill:#EA7CB1;}
	.st93{fill:#EA7DAE;}
	.st94{fill:#BC7646;}
	.st95{fill:#00A1C6;}
	.st96{fill:#FCC230;}
	.st97{fill:#F2EBB1;}
	.st98{fill:#F9D6AF;}
	.st99{fill:#D34735;}
	.st100{fill:#E5A21A;}
	.st101{fill:#849E33;}
	.st102{fill:#EFBB14;}
	.st103{fill:#D8402B;}
	.st104{fill:#829B34;}
	.st105{fill:#F88916;}
	.st106{fill:#E27513;}
	.st107{fill:#FFB41F;}
	.st108{fill:#8AA538;}
	.st109{fill:#BE6BB2;}
	.st110{fill:#AA5BA3;}
	.st111{fill:#FFDF66;}
	.st112{fill:#F4BA00;}
	.st113{fill:#E28529;}
	.st114{fill:#FF9945;}
	.st115{fill:#BA6C45;}
	.st116{fill:#EDBA15;}
	.st117{fill:#E0452F;}
	.st118{fill:#F7F2D5;}
	.st119{fill:#4C4E51;}
	.st120{fill:#EA615D;}
	.st121{fill:#DD4A36;}
	.st122{fill:#F6AF72;}
	.st123{fill:#E8955D;}
	.st124{fill:#E4C074;}
	.st125{fill:#EAE4C3;}
	.st126{fill:#BF3522;}
	.st127{fill:#D13E33;}
	.st128{fill:#AA5EA3;}
	.st129{fill:#DD443C;}
	.st130{fill:#AA5FA3;}
	.st131{fill:#B7C536;}
	.st132{fill:#F2872F;}
	.st133{fill:#AF5FA7;}
	.st134{fill:#E29F17;}
	.st135{fill:#FFC86E;}
	.st136{fill:#A55937;}
	.st137{fill:#D8422E;}
	.st138{fill:#C3556D;}
	.st139{fill:#B24965;}
	.st140{fill:#D1A962;}
	.st141{fill:#A3961A;}
	.st142{fill:#AFA51D;}
	.st143{fill:#968A1C;}
</style>
<g>
	<g>
		<g>
			<g>
				<g>
					<g>
						<path class="st104" d="M46.8,202c-14.7,0-28.5-3.5-41.2-10.3c-0.3-0.1-0.5-0.3-0.7-0.5c-3.5-3.1-3.9-6.5-3.6-8.9
							c1.3-10.8,20.5-21.4,24.4-23.4c17-8.9,42.7-22.4,54.1-30.6c22.7-16.5,39.3-33.8,52.7-47.7c14.8-15.4,26.6-27.5,40.1-32.9
							c1.8-0.7,3.8,0,4.8,1.6c1,1.6,0.8,3.7-0.6,5.1c-9.8,9.3-19,23.2-29.7,39.3c-13.3,20.1-29.9,45.2-54.2,70.9
							c-7.4,7.8-20.9,19.4-42.5,36.5c-0.7,0.6-1.6,0.9-2.4,0.9C47.6,202,47.2,202,46.8,202z M9.8,184.9c11.3,6,23.7,9.1,36.7,9.1
							C59.8,183.3,78,168.6,87.1,159c23.8-25.2,40.2-49.9,53.3-69.8c3.9-5.9,7.6-11.5,11.2-16.7c-4.2,4.1-8.7,8.7-13.5,13.7
							c-13.6,14.1-30.6,31.7-53.8,48.6c-11.9,8.5-37.9,22.2-55.1,31.2c-7.8,4.1-19.6,12.4-20.1,17.2C9.1,183.5,9.1,184.1,9.8,184.9z
							"/>
					</g>
				</g>
			</g>
		</g>
	</g>
	<g>
		<g>
			<g>
				<g>
					<g>
						<path class="st33" d="M174,51.4c-22.8,21.5-40.5,64.4-84,110.4c-8.7,9.1-25.5,23-42.1,36.2c-13.7,0.2-27.4-2.8-40.4-9.8
							c-10.9-9.5,20-25.7,20-25.7c18.9-9.9,43.3-22.8,54.6-30.9C129.1,97.3,149.1,61.3,174,51.4z"/>
					</g>
				</g>
			</g>
		</g>
	</g>
	<g>
		<g>
			<g>
				<g>
					<path class="st104" d="M12.4,251.2c-0.7,0-1.4-0.2-2-0.6c-4.6-2.7-5.8-6.5-6-9.2c-0.9-12.9,19.8-29.8,23.9-33
						c5.5-4.3,11.3-8.9,17.1-13.5c13.4-10.7,32.3-26,41.7-35.8c23.8-25.2,40.2-49.9,53.3-69.8c10.9-16.5,20.3-30.8,30.8-40.7
						c11.2-10.6,23-15.5,36.9-15.5c0.9,0,1.8,0,2.6,0.1c1,0,2,0.5,2.7,1.2c1.1,1.2,1.4,2.9,0.8,4.3c-0.3,0.7-0.8,1.3-1.4,1.7
						c-0.4,0.3-5.1,3.8-14.4,13.8c-5.5,5.9-11.5,12.9-17.8,20.6c-4,4.9-8.2,10.3-12.5,15.9c-3.6,4.8-7.5,9.9-11.7,15.9
						c-3.3,4.6-6.9,9.7-10.6,15c-4.5,6.5-9.2,13.4-14,20.6c-3.1,4.7-5.9,9-8.5,13c-4.2,6.4-8,12.4-11.7,18.3c-2,3.2-4.1,6.5-6.2,9.9
						c-0.6,1-1.2,1.8-1.7,2.5c-2,2.7-4.2,5.3-6.8,7.9c-3.9,3.8-8.5,7.4-14.1,11c-4,2.6-8.6,5.2-14.5,8.2c-3.6,1.8-7.2,3.6-10.7,5.3
						c-3.6,1.8-7.3,3.6-10.9,5.4c-3.8,2-6.8,3.6-9.6,5.3c-10.5,6.3-17.3,12.7-21.1,20.1c-0.5,1-1.4,1.7-2.4,2
						C13.1,251.1,12.8,251.2,12.4,251.2z M199.3,41.8c-8.1,1.6-15.3,5.7-22.6,12.5c-9.8,9.3-19,23.2-29.7,39.3
						c-13.3,20.1-29.9,45.2-54.2,70.9c-7.4,7.8-20.9,19.4-42.5,36.5c-5.8,4.6-11.7,9.2-17.1,13.6c-8.4,6.6-19.7,18.2-20.8,24.9
						c4.7-6.3,11.3-12,20.5-17.5c2.9-1.7,6.1-3.5,10.1-5.6c3.6-1.9,7.4-3.7,11-5.5c3.5-1.7,7.1-3.4,10.6-5.2
						c5.7-2.9,10-5.4,13.8-7.8c5.1-3.3,9.3-6.5,12.8-10c2.3-2.3,4.2-4.5,6-6.9c0.5-0.6,0.9-1.3,1.5-2.2c2.1-3.3,4.2-6.7,6.2-9.9
						c3.7-5.9,7.6-11.9,11.8-18.3c2.6-4,5.4-8.3,8.6-13c4.8-7.2,9.5-14.2,14.1-20.7c3.8-5.4,7.4-10.5,10.7-15.1
						c4.3-6,8.2-11.2,11.9-16c4.3-5.7,8.6-11.1,12.6-16.1c6.4-7.9,12.5-15,18.1-21.1C195.2,46,197.4,43.7,199.3,41.8z"/>
				</g>
			</g>
		</g>
	</g>
	<g>
		<g>
			<g>
				<g>
					<path class="st33" d="M210.7,37C210.7,37.1,210.7,37.1,210.7,37C210.7,37.1,210.7,37,210.7,37C210.7,37.1,210.7,37.1,210.7,37
						c-0.4,0.3-5.3,3.9-15.1,14.4c-4.8,5.1-10.8,12-18,20.8c-3.8,4.7-8,10-12.5,16c-3.7,4.9-7.6,10.2-11.8,15.9
						c-3.4,4.7-7,9.7-10.7,15.1c-4.4,6.4-9.1,13.3-14,20.6c-2.8,4.2-5.6,8.5-8.6,13c-3.8,5.8-7.7,11.9-11.8,18.3
						c-2,3.2-4.1,6.5-6.2,9.9c-0.5,0.8-1,1.6-1.6,2.3c-1.9,2.7-4.1,5.1-6.4,7.4c-4,3.9-8.6,7.4-13.5,10.5c-4.5,2.9-9.3,5.5-14.2,8
						c-7.2,3.7-14.6,7.1-21.6,10.7c-3.4,1.8-6.7,3.5-9.8,5.4c-9.6,5.8-17.8,12.5-22.6,21.6c-15.4-9.1,18.4-35.6,18.4-35.6
						c5.4-4.3,11.3-8.9,17.1-13.6c16.5-13.2,33.3-27,42.1-36.2c43.5-46,61.2-88.9,84-110.4C184.3,41.7,195.6,36.4,210.7,37z"/>
				</g>
			</g>
		</g>
	</g>
	<g>
		<g>
			<g>
				<g>
					<path class="st104" d="M43.2,256c-10.8,0-21.6-1.7-32-5c-1.1-0.4-2-1.2-2.5-2.3c-0.4-1.1-0.4-2.3,0.2-3.4
						c4.6-8.7,12.2-16.1,24.1-23.2c1.6-1,3.6-0.7,4.9,0.6c1.3,1.3,1.5,3.3,0.6,4.9c-0.7,1.2-1.1,2.5-1.1,3.9c0,4.1,3.3,7.4,7.4,7.4
						c4.1,0,7.4-3.3,7.4-7.4c0-4-3.3-7.4-7.3-7.4c-1.8,0-3.4-1.3-3.8-3.1c-0.4-1.8,0.4-3.6,2.1-4.5c3.6-1.9,7.4-3.7,11-5.5
						c3.5-1.7,7.1-3.4,10.6-5.2c1.5-0.8,3.4-0.5,4.6,0.7c1.2,1.2,1.6,3,0.9,4.6c-0.6,1.3-0.9,2.6-0.9,4.1c0,5.4,4.4,9.8,9.8,9.8
						c2.6,0,5.1-1,6.9-2.9c1.9-1.9,2.9-4.3,2.9-7c0-5-3.7-9.2-8.7-9.8c-1.7-0.2-3.1-1.4-3.4-3.1c-0.4-1.7,0.3-3.4,1.7-4.3
						c5.1-3.3,9.3-6.5,12.8-10c1.1-1.1,2.7-1.4,4.1-0.9c1.4,0.5,2.5,1.8,2.7,3.3c0.9,6.8,6.7,11.9,13.5,11.9
						c7.5,0,13.7-6.2,13.7-13.7c0-7.5-6.1-13.7-13.7-13.7c-0.9,0-1.7,0.1-2.5,0.2c-1.6,0.3-3.2-0.3-4.1-1.7
						c-0.9-1.3-0.9-3.1-0.1-4.4c3.7-5.9,7.6-11.9,11.8-18.3c1-1.6,3.1-2.2,4.8-1.5c1.8,0.7,2.8,2.5,2.5,4.4
						c-0.2,0.9-0.2,1.8-0.2,2.7c0,8.6,7,15.5,15.5,15.5c8.6,0,15.5-7,15.5-15.6c0-8.6-7-15.5-15.5-15.5c-3,0-6,0.9-8.5,2.5
						c-1.6,1-3.7,0.8-5-0.5c-1.3-1.3-1.5-3.5-0.5-5c4.8-7.2,9.5-14.2,14.1-20.7c1-1.5,2.9-2.1,4.5-1.5c1.7,0.6,2.8,2.1,2.7,3.9
						c0,0.3,0,0.5,0,0.8c0,7.3,5.9,13.2,13.2,13.2c3.6,0,6.9-1.4,9.4-3.9c2.5-2.5,3.9-5.8,3.9-9.4c0-7.3-5.9-13.2-13.2-13.2
						c-1.8,0-3.4,0.3-5,1c-1.7,0.7-3.6,0.2-4.7-1.2c-1.1-1.4-1.1-3.4-0.1-4.8c4.3-6,8.2-11.2,11.9-16c0.9-1.2,2.4-1.8,3.9-1.5
						c1.5,0.3,2.7,1.4,3.1,2.8c1.1,3.6,4.4,6,8.1,6c4.7,0,8.5-3.8,8.5-8.5c0-4.5-3.5-8.2-8-8.4c-1.5-0.1-2.8-1-3.5-2.4
						c-0.6-1.4-0.4-3,0.5-4.2c22.6-27.9,33.4-35.7,33.8-36c1.5-1.1,3.6-1,5,0.3c1.4,1.3,1.7,3.3,0.8,5c-0.3,0.5-7.1,12.7-6.2,45.2
						c2.7,28.5-19.7,76.1-53.4,113.3C120.4,235.3,80.8,256,43.2,256z M18.6,244.8c8.1,2.1,16.3,3.2,24.6,3.2
						c47.7,0,86.5-34.9,105.4-55.8c31.9-35.1,54-81.3,51.4-107.3c0-0.1,0-0.2,0-0.3c-0.4-15.4,0.8-26.6,2.3-34.4
						c-4.5,4.6-10.3,11-17.7,19.9c5.3,2.7,8.9,8.3,8.9,14.6c0,9.1-7.4,16.5-16.4,16.5c-4.8,0-9.3-2.2-12.4-5.7
						c-0.9,1.1-1.7,2.3-2.6,3.5c10.7,1.1,19,10.2,19,21.1c0,5.7-2.2,11-6.2,15c-4,4-9.3,6.2-15,6.2c-0.8,0-1.7,0-2.5-0.1
						c3.4,4.1,5.4,9.3,5.4,15c0,13-10.5,23.6-23.5,23.6c-3.1,0-6-0.6-8.7-1.7c1.7,3.1,2.7,6.6,2.7,10.4c0,12-9.7,21.7-21.6,21.7
						c-8.5,0-16-5-19.5-12.3c-1,0.8-2,1.6-3,2.4c4.7,3.2,7.7,8.6,7.8,14.7c0,4.8-1.8,9.2-5.2,12.6c-3.4,3.4-7.8,5.2-12.6,5.2
						c-9.4,0-17.1-7.3-17.8-16.5c-1.2,0.6-2.5,1.2-3.7,1.8c-1,0.5-2,1-3,1.4c3.4,2.8,5.5,7.1,5.5,11.8c0,8.5-6.9,15.4-15.4,15.4
						c-7.7,0-14-5.6-15.2-12.9C24.9,237.5,21.3,241,18.6,244.8z M115.5,167.3c1.2,0.2,2.3,0.5,3.5,0.9c-0.7-1.1-1.3-2.4-1.7-3.6
						C116.7,165.5,116.1,166.4,115.5,167.3z M139.2,132.8c1.3,0,2.5,0.1,3.7,0.3c-0.9-1.2-1.7-2.5-2.3-3.8c-0.8,1.2-1.6,2.4-2.4,3.6
						C138.5,132.8,138.9,132.8,139.2,132.8z"/>
				</g>
			</g>
		</g>
	</g>
	<g>
		<g>
			<g>
				<g>
					<path class="st33" d="M203.9,84.6c5.3,53.9-89.6,195.3-191.5,162.6c4.8-9.1,13-15.8,22.6-21.6c-1.1,1.7-1.7,3.8-1.7,6
						c0,6.3,5.1,11.4,11.4,11.4c6.3,0,11.4-5.1,11.4-11.4c0-6.3-5-11.3-11.3-11.4c7-3.6,14.4-7,21.6-10.7c-0.8,1.8-1.3,3.7-1.3,5.8
						c0,7.6,6.2,13.8,13.8,13.8c7.6,0,13.8-6.2,13.8-13.8c0-7.1-5.4-12.9-12.2-13.7c4.9-3.1,9.5-6.6,13.5-10.5
						c1.1,8.7,8.5,15.4,17.5,15.4c9.8,0,17.7-7.9,17.6-17.7c0-9.8-7.9-17.7-17.7-17.7c-1.1,0-2.2,0.1-3.3,0.3
						c4-6.4,8-12.5,11.8-18.3c-0.2,1.1-0.3,2.2-0.3,3.4c0,10.8,8.8,19.5,19.5,19.5c10.8,0,19.5-8.8,19.5-19.6
						c0-10.8-8.8-19.5-19.5-19.5c-3.9,0-7.6,1.2-10.6,3.2c4.9-7.4,9.6-14.2,14-20.6c0,0.3,0,0.6,0,0.9c0,9.5,7.7,17.2,17.2,17.2
						c9.5,0,17.2-7.7,17.2-17.3c0-9.5-7.7-17.2-17.2-17.2c-2.3,0-4.5,0.5-6.5,1.3c4.2-5.8,8.1-11.1,11.8-15.9
						c1.5,5.2,6.3,8.9,11.9,8.9c6.9,0,12.4-5.6,12.4-12.5c0-6.7-5.3-12.1-11.9-12.4c21.8-27,32.4-34.8,33-35.2
						C210.3,37.7,203,50.4,203.9,84.6z"/>
				</g>
			</g>
		</g>
	</g>
	<g>
		<g>
			<g>
				<g>
					<path class="st131" d="M56.1,231.5c0,6.3-5.1,11.4-11.4,11.4c-6.3,0-11.4-5.1-11.4-11.4c0-2.2,0.6-4.2,1.7-6
						c3.1-1.9,6.4-3.7,9.8-5.4C51.1,220.2,56.1,225.2,56.1,231.5z"/>
				</g>
			</g>
		</g>
	</g>
	<g>
		<g>
			<g>
				<g>
					<path class="st131" d="M92.8,215.1c0,7.6-6.2,13.8-13.8,13.8c-7.6,0-13.8-6.2-13.8-13.8c0-2.1,0.4-4,1.3-5.8
						c4.9-2.5,9.7-5.1,14.2-8C87.4,202.2,92.8,208,92.8,215.1z"/>
				</g>
			</g>
		</g>
	</g>
	<g>
		<g>
			<g>
				<g>
					<path class="st131" d="M129.2,188.6c0,9.8-7.9,17.7-17.6,17.7c-9,0-16.4-6.7-17.5-15.4c3-2.9,5.7-6.1,8-9.7
						c2.1-3.4,4.2-6.7,6.2-9.9c1.1-0.2,2.2-0.3,3.3-0.3C121.3,170.9,129.2,178.9,129.2,188.6z"/>
				</g>
			</g>
		</g>
	</g>
	<g>
		<g>
			<g>
				<g>
					<path class="st131" d="M158.8,156.3c0,10.8-8.7,19.6-19.5,19.6c-10.8,0-19.5-8.7-19.5-19.5c0-1.1,0.1-2.3,0.3-3.4
						c2.9-4.5,5.8-8.8,8.6-13c3.1-2,6.7-3.2,10.6-3.2C150,136.8,158.8,145.5,158.8,156.3z"/>
				</g>
			</g>
		</g>
	</g>
	<g>
		<g>
			<g>
				<g>
					<path class="st131" d="M177.1,120.2c0,9.5-7.7,17.3-17.2,17.3c-9.5,0-17.2-7.7-17.2-17.2c0-0.3,0-0.6,0-0.9
						c3.7-5.3,7.3-10.4,10.7-15.1c2-0.8,4.2-1.3,6.5-1.3C169.3,103,177.1,110.7,177.1,120.2z"/>
				</g>
			</g>
		</g>
	</g>
	<g>
		<g>
			<g>
				<g>
					<path class="st131" d="M189.5,84.7c0,6.9-5.6,12.5-12.4,12.5c-5.6,0-10.4-3.7-11.9-8.9c4.5-6,8.7-11.3,12.5-16
						C184.2,72.6,189.5,78.1,189.5,84.7z"/>
				</g>
			</g>
		</g>
	</g>
	<g>
		<g>
			<g>
				<g>
					<path class="st131" d="M60.1,231.5c0,8.5-6.9,15.4-15.4,15.4c0,0,0,0,0,0c-8.5,0-15.4-6.9-15.4-15.4c0-2.9,0.8-5.7,2.3-8.1
						c0.3-0.5,0.8-1,1.3-1.3c2.9-1.8,6.1-3.5,10.1-5.6c0.6-0.3,1.2-0.4,1.9-0.4C53.3,216.2,60.1,223.1,60.1,231.5z"/>
				</g>
			</g>
		</g>
	</g>
	<g>
		<g>
			<g>
				<g>
					<path class="st131" d="M96.8,215.1c0,4.8-1.8,9.2-5.2,12.6c-3.4,3.4-7.8,5.2-12.6,5.2h0c-9.8,0-17.8-8-17.8-17.8
						c0-2.6,0.5-5.1,1.6-7.4c0.4-0.8,1-1.5,1.8-1.9c5.6-2.9,10-5.4,13.8-7.8c0.8-0.5,1.7-0.7,2.6-0.6
						C90,198.5,96.8,206.1,96.8,215.1z"/>
				</g>
			</g>
		</g>
	</g>
	<g>
		<g>
			<g>
				<g>
					<path class="st131" d="M119,168.3c2.6,4.5,6.7,8,11.6,9.9C128.1,173.6,123.9,170.1,119,168.3z"/>
				</g>
			</g>
		</g>
	</g>
	<g>
		<g>
			<g>
				<g>
					<path class="st131" d="M143,133.1c3.4,4.5,8.5,7.5,14.4,8.2C153.8,137,148.7,134,143,133.1z M119,168.3c2.6,4.5,6.7,8,11.6,9.9
						C128.1,173.6,123.9,170.1,119,168.3z"/>
				</g>
			</g>
		</g>
		<g>
			<g>
				<g>
					<path class="st131" d="M133.2,188.6c0,12-9.7,21.7-21.6,21.7h0c-10.9,0-20.1-8.1-21.5-18.9c-0.2-1.2,0.3-2.5,1.2-3.4
						c2.9-2.9,5.4-5.8,7.4-9c2.1-3.4,4.2-6.7,6.2-9.9c0.6-0.9,1.5-1.6,2.6-1.8c1.3-0.3,2.7-0.4,4.1-0.4c2.6,0,5.1,0.5,7.4,1.3
						c2.6,4.5,6.7,8,11.6,9.9C132.3,181.3,133.2,184.9,133.2,188.6z"/>
				</g>
			</g>
		</g>
	</g>
	<g>
		<g>
			<g>
				<g>
					<path class="st131" d="M159.8,99c-2.8,0-5.5,0.5-8,1.6c-0.7,0.3-1.3,0.8-1.7,1.4c-3.4,4.7-7,9.7-10.7,15.1
						c-0.5,0.6-0.7,1.4-0.7,2.2c0,0.3,0,0.7,0,1c0,4.8,1.6,9.3,4.4,12.9c3.4,4.5,8.5,7.5,14.4,8.2c0.8,0.1,1.6,0.1,2.5,0.1h0
						c5.7,0,11-2.2,15-6.2c4-4,6.2-9.4,6.2-15C181.1,108.5,171.5,99,159.8,99z M169.2,129.6c-2.5,2.5-5.8,3.9-9.4,3.9l0,4v-4
						c-7.2,0-13-5.7-13.2-12.9c3.2-4.6,6.3-9,9.2-13c1.3-0.4,2.6-0.6,4-0.6c7.3,0,13.2,5.9,13.2,13.2
						C173.1,123.8,171.7,127.1,169.2,129.6z"/>
				</g>
			</g>
		</g>
		<g>
			<g>
				<g>
					<path class="st131" d="M162.8,156.3c0,13-10.5,23.5-23.5,23.6h0c-3.1,0-6-0.6-8.7-1.7c-2.5-4.6-6.6-8.1-11.6-9.9
						c-2.1-3.5-3.2-7.6-3.3-11.9c0-1.4,0.1-2.7,0.4-4.1c0.1-0.5,0.3-1,0.6-1.5c2.6-4,5.4-8.3,8.6-13c0.3-0.4,0.7-0.8,1.1-1.1
						c3.8-2.5,8.2-3.8,12.8-3.8c1.3,0,2.5,0.1,3.8,0.3c3.4,4.5,8.5,7.5,14.4,8.2C160.7,145.4,162.8,150.6,162.8,156.3z"/>
				</g>
			</g>
		</g>
	</g>
	<g>
		<g>
			<g>
				<g>
					<path class="st131" d="M177,101.2c-7.2,0-13.7-4.8-15.8-11.8c-0.4-1.2-0.1-2.5,0.6-3.6c4.3-5.7,8.6-11.1,12.6-16.1
						c0.8-1,2-1.5,3.3-1.5c8.8,0.4,15.7,7.6,15.7,16.4C193.5,93.8,186.1,101.2,177,101.2C177,101.2,177,101.2,177,101.2z
						 M169.7,88.9c1.5,2.6,4.3,4.3,7.4,4.3v4l0-4c4.7,0,8.4-3.8,8.4-8.5c0-3.9-2.6-7.2-6.2-8.1C176.2,80.5,173,84.6,169.7,88.9z"/>
				</g>
			</g>
		</g>
	</g>
	<g>
		<g>
			<g>
				<g>
					<path class="st104" d="M236.2,41.3c-1,0-1.9-0.1-2.8-0.5c-0.5-0.2-0.9-0.4-1.3-0.7c-0.3-0.3-6.5-5.6-8.5-13
						c-5.3,4.6-9.3,11.7-9.4,11.9c-1.1,1.9-3.5,2.6-5.4,1.6c-1.9-1.1-2.6-3.5-1.6-5.4c3.4-6.2,9.6-14.3,16.9-18
						c2.9-7.3,11.5-13.1,25.7-17c2.1-0.6,4.3,0.6,4.9,2.8c0.6,2.1-0.6,4.3-2.8,4.9c-7.6,2.1-13.4,4.8-16.9,7.7
						c1.1,0.3,2.1,0.6,3.2,1.2c9.4,4.6,10.3,12.1,8.2,17.2C244.6,38.5,240.4,41.3,236.2,41.3z M231,23.3c0.2,4,3.4,8.1,5.5,10
						c0.9-0.1,2-1.1,2.6-2.4c1.1-2.6-0.5-5-4.4-6.9C233.5,23.3,232.2,23.2,231,23.3z"/>
				</g>
			</g>
		</g>
	</g>
</g>
</svg>
