<?xml version="1.0" encoding="utf-8"?>
<!-- Generator: Adobe Illustrator 22.1.0, SVG Export Plug-In . SVG Version: 6.00 Build 0)  -->
<svg version="1.1" id="Layer_1" xmlns="http://www.w3.org/2000/svg" xmlns:xlink="http://www.w3.org/1999/xlink" x="0px" y="0px"
	 viewBox="0 0 256 256" style="enable-background:new 0 0 256 256;" xml:space="preserve">
<style type="text/css">
	.st0{fill:#F6D67A;}
	.st1{fill:#E77CAE;}
	.st2{fill:#AC6535;}
	.st3{fill:#EB573B;}
	.st4{fill:#464646;}
	.st5{fill:#F5B31F;}
	.st6{fill:#9B592D;}
	.st7{fill:#9B5B2F;}
	.st8{fill:#E8A41A;}
	.st9{fill:#6D6E71;}
	.st10{fill:#E5A21C;}
	.st11{fill:#C66395;}
	.st12{fill:#E09F1E;}
	.st13{fill:#FFFFFF;}
	.st14{fill:#DDB95E;}
	.st15{fill:#EAC771;}
	.st16{fill:#F9F6CD;}
	.st17{fill:#009345;}
	.st18{fill:#008438;}
	.st19{fill:#EAA51B;}
	.st20{opacity:0.1;}
	.st21{fill:#FFD11D;}
	.st22{fill:#FFE37B;}
	.st23{fill:#FFA755;}
	.st24{fill:#FFEC97;}
	.st25{fill:#BC7532;}
	.st26{fill:#EFEFEF;}
	.st27{fill:#60ACF7;}
	.st28{fill:#876C6C;}
	.st29{fill:#1DDCFF;}
	.st30{fill:#BDF3FF;}
	.st31{fill:#EFCA70;}
	.st32{fill:#EFA91D;}
	.st33{fill:#8FAE3C;}
	.st34{fill:#92A5AC;}
	.st35{fill:#E8E3BA;}
	.st36{fill:#F79932;}
	.st37{fill:#F4F4F4;}
	.st38{fill:#FFDF8F;}
	.st39{fill:#EAE5B9;}
	.st40{fill:#7E9E6A;}
	.st41{fill:#94B57F;}
	.st42{fill:#9B5D8C;}
	.st43{fill:#96557A;}
	.st44{fill:#C3755A;}
	.st45{fill:#9BD7DD;}
	.st46{fill:#90CAD3;}
	.st47{fill:#F7F7F7;}
	.st48{fill:#AFE6EF;}
	.st49{fill:#FFFAEB;}
	.st50{fill:#F4EFC3;}
	.st51{fill:#F9F9F9;}
	.st52{fill:#FFE5C4;}
	.st53{fill:#FFB024;}
	.st54{fill:#FFC612;}
	.st55{fill:#FFCE31;}
	.st56{fill:#A05C2D;}
	.st57{fill:#1DCAF2;}
	.st58{fill:#00B0E0;}
	.st59{fill:#F2A355;}
	.st60{fill:#D68032;}
	.st61{fill:#66625D;}
	.st62{fill:#54504D;}
	.st63{fill:#B76955;}
	.st64{fill:#EFE8B4;}
	.st65{fill:#B93226;}
	.st66{fill:#EFEABF;}
	.st67{fill:#90C056;}
	.st68{opacity:0.15;}
	.st69{fill:#E8C56D;}
	.st70{fill:#F7BE4B;}
	.st71{fill:#E0A338;}
	.st72{fill:#F68455;}
	.st73{fill:#E26F47;}
	.st74{fill:#EC754B;}
	.st75{fill:#4AA5BA;}
	.st76{opacity:0.5;}
	.st77{fill:#A0B1B5;}
	.st78{opacity:0.7;}
	.st79{fill:#00ADEE;}
	.st80{fill:#F4D4B3;}
	.st81{fill:#F9D97A;}
	.st82{fill:#EDC96E;}
	.st83{fill:none;}
	.st84{fill:#AF6535;}
	.st85{fill:#F18BB4;}
	.st86{fill:#B3E4FF;}
	.st87{fill:#97DFFF;}
	.st88{fill:#D06E3C;}
	.st89{fill:#B55931;}
	.st90{fill:#DA4F4B;}
	.st91{fill:#EFCAA8;}
	.st92{fill:#EA7CB1;}
	.st93{fill:#EA7DAE;}
	.st94{fill:#BC7646;}
	.st95{fill:#00A1C6;}
	.st96{fill:#FCC230;}
	.st97{fill:#F2EBB1;}
	.st98{fill:#F9D6AF;}
	.st99{fill:#D34735;}
	.st100{fill:#E5A21A;}
	.st101{fill:#849E33;}
	.st102{fill:#EFBB14;}
	.st103{fill:#D8402B;}
	.st104{fill:#829B34;}
	.st105{fill:#F88916;}
	.st106{fill:#E27513;}
	.st107{fill:#FFB41F;}
	.st108{fill:#8AA538;}
	.st109{fill:#BE6BB2;}
	.st110{fill:#AA5BA3;}
	.st111{fill:#FFDF66;}
	.st112{fill:#F4BA00;}
	.st113{fill:#E28529;}
	.st114{fill:#FF9945;}
	.st115{fill:#BA6C45;}
	.st116{fill:#EDBA15;}
	.st117{fill:#E0452F;}
	.st118{fill:#F7F2D5;}
	.st119{fill:#4C4E51;}
	.st120{fill:#EA615D;}
	.st121{fill:#DD4A36;}
	.st122{fill:#F6AF72;}
	.st123{fill:#E8955D;}
	.st124{fill:#E4C074;}
	.st125{fill:#EAE4C3;}
	.st126{fill:#BF3522;}
	.st127{fill:#D13E33;}
	.st128{fill:#AA5EA3;}
	.st129{fill:#DD443C;}
	.st130{fill:#AA5FA3;}
	.st131{fill:#B7C536;}
	.st132{fill:#F2872F;}
	.st133{fill:#AF5FA7;}
	.st134{fill:#E29F17;}
	.st135{fill:#FFC86E;}
	.st136{fill:#A55937;}
	.st137{fill:#D8422E;}
	.st138{fill:#C3556D;}
	.st139{fill:#B24965;}
	.st140{fill:#D1A962;}
	.st141{fill:#A3961A;}
	.st142{fill:#AFA51D;}
	.st143{fill:#968A1C;}
</style>
<g>
	<g>
		<g>
			<g>
				<g>
					<path class="st120" d="M179.9,87.3c6.1-5.4,14.4-8.6,24.9-9.6L179.9,87.3z"/>
				</g>
			</g>
		</g>
	</g>
	<g>
		<g>
			<g>
				<g>
					<path class="st120" d="M53.3,74.5c12.1-0.7,22.1,1.8,30,7.6L53.3,74.5z"/>
				</g>
			</g>
		</g>
	</g>
	<g>
		<g>
			<g>
				<g>
					<path class="st120" d="M103,236.7c-3.4-7-5.2-14-5.4-21L103,236.7z"/>
				</g>
			</g>
		</g>
	</g>
	<g>
		<g>
			<g>
				<g>
					<path class="st120" d="M160.8,231.6l5.3-18.2L160.8,231.6z"/>
				</g>
			</g>
		</g>
	</g>
	<g>
		<g>
			<g>
				<g>
					<path class="st120" d="M171.2,197.8c8.7-29.9,9.8-50,6.2-78.8L171.2,197.8z"/>
				</g>
			</g>
		</g>
	</g>
	<g>
		<g>
			<g>
				<g>
					<path class="st3" d="M239.2,106.9c-14.7,55.7-20.7,112.5-20.8,113.1c0,0.2-0.1,0.4-0.1,0.6c-4.5,17.5-17.3,28.8-32.6,28.8
						c-8.7,0-17.1-3.8-24.2-10.9c-5.3,8.1-15.4,17.5-33.5,17.5c-16.4,0-21.5-4.6-26.5-13.5c-8.7,5.4-18.5,8.2-28.2,8.3
						c-5.4,0-10.6-0.9-15.1-2.8c-4.6-1.8-8.6-4.5-11.9-7.9c-6.7-7-10-17-9.5-28.9c1.3-27.5-2.5-38.6-8.1-55.5
						c-3.5-10.3-7.7-23.1-12-42.7c-4.9-22.8-2.5-40.4,7.1-52.3C32.2,50.3,46,44.9,63.6,44.9c5.5,0,11.4,0.5,17.6,1.6
						c5.8-13.3,18.2-22.6,34.6-25.6c1.3-0.2,2.7,0.2,3.6,1.2c0.9,1,1.3,2.3,1,3.7c-1.7,7.5-4.4,21.3-7.7,45.1
						c-0.1,0.8-0.2,1.3-0.2,1.4c-0.3,1.6-1.6,2.9-3.2,3.2c-9,1.6-14.5,4.1-19.4,7.2c4.9,4.7,9,10.8,12.1,18.1
						c10.9-9.2,23-13.9,36.1-13.9c9.8,0,20.2,2.6,31.1,7.8c1.5-2.8,3.4-5.4,5.4-7.6c-8-10.1-20.3-15.8-37.4-17.4
						c-1.5-0.1-2.9-1.2-3.4-2.6c-4-11,1.7-27.4,7.9-41.9c0.8-1.9,2.9-2.9,4.9-2.3c15,4.7,25.5,14.1,29.4,26.2
						c5.2-2.1,10.9-3.2,16.8-3.2c15.9,0,31.5,7.7,40.6,20.2C241.9,77.4,243.9,92,239.2,106.9z"/>
				</g>
			</g>
		</g>
	</g>
	<g>
		<g>
			<g>
				<g>
					<path class="st121" d="M179.9,91.3c-1.1,0-2.2-0.5-3-1.4c-1.5-1.7-1.3-4.2,0.4-5.6c6.7-5.9,15.9-9.5,27.1-10.6
						c2.2-0.2,4.2,1.4,4.4,3.6c0.2,2.2-1.4,4.2-3.6,4.4c-9.6,1-17.2,3.9-22.7,8.6C181.8,91,180.9,91.3,179.9,91.3z"/>
				</g>
			</g>
		</g>
	</g>
	<g>
		<g>
			<g>
				<g>
					<path class="st121" d="M83.3,86.2c-0.8,0-1.6-0.2-2.4-0.8c-7.1-5.2-16.3-7.5-27.4-6.9c-2.2,0.1-4.1-1.6-4.2-3.8
						c-0.1-2.2,1.6-4.1,3.8-4.2c13-0.8,23.9,2.1,32.6,8.4c1.8,1.3,2.2,3.8,0.9,5.6C85.7,85.6,84.5,86.2,83.3,86.2z"/>
				</g>
			</g>
		</g>
	</g>
	<g>
		<g>
			<g>
				<g>
					<path class="st33" d="M182.6,90.3c-3.3,2.9-6,6.6-7.8,11.1c-0.4,1-1.3,1.9-2.3,2.2c-1.1,0.4-2.2,0.3-3.2-0.2
						c-11.1-5.8-21.5-8.8-31.1-8.8c-12.9,0-24.4,5.2-34.9,15.7c-0.8,0.8-1.8,1.2-2.8,1.2c-0.3,0-0.6,0-0.9-0.1
						c-1.4-0.3-2.4-1.3-2.9-2.6C93,98.3,87.8,90.4,80.9,85.4c-1.1-0.8-1.7-2-1.6-3.3c0-1.3,0.6-2.5,1.7-3.2
						c6.1-4.3,12.6-8.4,24.1-10.9c3.3-23,5.9-36.7,7.6-44.1c2.9-13.1,5-16.6,6.4-18.2C123.4,1,130.8,0,136.3,0
						c0.7,0,16.9,0.1,19.5,7c1,2.7-0.2,5.9-4.4,15.7c-0.7,1.7-1.5,3.5-2.3,5.4c-2.8,6.7-10,23.7-8.3,33.8
						c19.4,2.4,33.7,10.2,42.5,23.3C184.4,86.7,184.1,89,182.6,90.3z"/>
				</g>
			</g>
		</g>
	</g>
	<g>
		<g>
			<g>
				<g>
					<path class="st121" d="M103,240.7c-1.5,0-2.9-0.8-3.6-2.2c-3.7-7.5-5.6-15.1-5.8-22.7c0-2.2,1.7-4,3.9-4.1
						c2.2-0.1,4,1.7,4.1,3.9c0.1,6.4,1.8,12.9,5,19.4c1,2,0.2,4.4-1.8,5.4C104.2,240.6,103.6,240.7,103,240.7z"/>
				</g>
			</g>
		</g>
	</g>
	<g>
		<g>
			<g>
				<g>
					<path class="st121" d="M160.8,235.6c-0.4,0-0.7-0.1-1.1-0.2c-2.1-0.6-3.3-2.8-2.7-5l5.3-18.2c0.6-2.1,2.8-3.3,5-2.7
						c2.1,0.6,3.3,2.8,2.7,5l-5.3,18.2C164.2,234.5,162.6,235.6,160.8,235.6z"/>
				</g>
			</g>
		</g>
	</g>
	<g>
		<g>
			<g>
				<g>
					<path class="st121" d="M171.2,201.8c-0.4,0-0.7-0.1-1.1-0.2c-2.1-0.6-3.3-2.8-2.7-5c8.3-28.3,9.8-47.8,6.1-77.2
						c-0.3-2.2,1.3-4.2,3.5-4.5c2.2-0.3,4.2,1.3,4.5,3.5c3.9,30.7,2.3,51-6.3,80.5C174.5,200.6,172.9,201.8,171.2,201.8z"/>
				</g>
			</g>
		</g>
	</g>
</g>
</svg>
