<?xml version="1.0" encoding="utf-8"?>
<!-- Generator: Adobe Illustrator 22.1.0, SVG Export Plug-In . SVG Version: 6.00 Build 0)  -->
<svg version="1.1" id="Layer_1" xmlns="http://www.w3.org/2000/svg" xmlns:xlink="http://www.w3.org/1999/xlink" x="0px" y="0px"
	 viewBox="0 0 256 256" style="enable-background:new 0 0 256 256;" xml:space="preserve">
<style type="text/css">
	.st0{fill:#F6D67A;}
	.st1{fill:#E77CAE;}
	.st2{fill:#AC6535;}
	.st3{fill:#EB573B;}
	.st4{fill:#464646;}
	.st5{fill:#F5B31F;}
	.st6{fill:#9B592D;}
	.st7{fill:#9B5B2F;}
	.st8{fill:#E8A41A;}
	.st9{fill:#6D6E71;}
	.st10{fill:#E5A21C;}
	.st11{fill:#C66395;}
	.st12{fill:#E09F1E;}
	.st13{fill:#FFFFFF;}
	.st14{fill:#DDB95E;}
	.st15{fill:#EAC771;}
	.st16{fill:#F9F6CD;}
	.st17{fill:#009345;}
	.st18{fill:#008438;}
	.st19{fill:#EAA51B;}
	.st20{opacity:0.1;}
	.st21{fill:#FFD11D;}
	.st22{fill:#FFE37B;}
	.st23{fill:#FFA755;}
	.st24{fill:#FFEC97;}
	.st25{fill:#BC7532;}
	.st26{fill:#EFEFEF;}
	.st27{fill:#60ACF7;}
	.st28{fill:#876C6C;}
	.st29{fill:#1DDCFF;}
	.st30{fill:#BDF3FF;}
	.st31{fill:#EFCA70;}
	.st32{fill:#EFA91D;}
	.st33{fill:#8FAE3C;}
	.st34{fill:#92A5AC;}
	.st35{fill:#E8E3BA;}
	.st36{fill:#F79932;}
	.st37{fill:#F4F4F4;}
	.st38{fill:#FFDF8F;}
	.st39{fill:#EAE5B9;}
	.st40{fill:#7E9E6A;}
	.st41{fill:#94B57F;}
	.st42{fill:#9B5D8C;}
	.st43{fill:#96557A;}
	.st44{fill:#C3755A;}
	.st45{fill:#9BD7DD;}
	.st46{fill:#90CAD3;}
	.st47{fill:#F7F7F7;}
	.st48{fill:#AFE6EF;}
	.st49{fill:#FFFAEB;}
	.st50{fill:#F4EFC3;}
	.st51{fill:#F9F9F9;}
	.st52{fill:#FFE5C4;}
	.st53{fill:#FFB024;}
	.st54{fill:#FFC612;}
	.st55{fill:#FFCE31;}
	.st56{fill:#A05C2D;}
	.st57{fill:#1DCAF2;}
	.st58{fill:#00B0E0;}
	.st59{fill:#F2A355;}
	.st60{fill:#D68032;}
	.st61{fill:#66625D;}
	.st62{fill:#54504D;}
	.st63{fill:#B76955;}
	.st64{fill:#EFE8B4;}
	.st65{fill:#B93226;}
	.st66{fill:#EFEABF;}
	.st67{fill:#90C056;}
	.st68{opacity:0.15;}
	.st69{fill:#E8C56D;}
	.st70{fill:#F7BE4B;}
	.st71{fill:#E0A338;}
	.st72{fill:#F68455;}
	.st73{fill:#E26F47;}
	.st74{fill:#EC754B;}
	.st75{fill:#4AA5BA;}
	.st76{opacity:0.5;}
	.st77{fill:#A0B1B5;}
	.st78{opacity:0.7;}
	.st79{fill:#00ADEE;}
	.st80{fill:#F4D4B3;}
	.st81{fill:#F9D97A;}
	.st82{fill:#EDC96E;}
	.st83{fill:none;}
	.st84{fill:#AF6535;}
	.st85{fill:#F18BB4;}
	.st86{fill:#B3E4FF;}
	.st87{fill:#97DFFF;}
	.st88{fill:#D06E3C;}
	.st89{fill:#B55931;}
	.st90{fill:#DA4F4B;}
	.st91{fill:#EFCAA8;}
	.st92{fill:#EA7CB1;}
	.st93{fill:#EA7DAE;}
	.st94{fill:#BC7646;}
	.st95{fill:#00A1C6;}
	.st96{fill:#FCC230;}
	.st97{fill:#F2EBB1;}
	.st98{fill:#F9D6AF;}
	.st99{fill:#D34735;}
	.st100{fill:#E5A21A;}
	.st101{fill:#849E33;}
	.st102{fill:#EFBB14;}
	.st103{fill:#D8402B;}
	.st104{fill:#829B34;}
	.st105{fill:#F88916;}
	.st106{fill:#E27513;}
	.st107{fill:#FFB41F;}
	.st108{fill:#8AA538;}
	.st109{fill:#BE6BB2;}
	.st110{fill:#AA5BA3;}
	.st111{fill:#FFDF66;}
	.st112{fill:#F4BA00;}
	.st113{fill:#E28529;}
	.st114{fill:#FF9945;}
	.st115{fill:#BA6C45;}
	.st116{fill:#EDBA15;}
	.st117{fill:#E0452F;}
	.st118{fill:#F7F2D5;}
	.st119{fill:#4C4E51;}
	.st120{fill:#EA615D;}
	.st121{fill:#DD4A36;}
	.st122{fill:#F6AF72;}
	.st123{fill:#E8955D;}
	.st124{fill:#E4C074;}
	.st125{fill:#EAE4C3;}
	.st126{fill:#BF3522;}
	.st127{fill:#D13E33;}
	.st128{fill:#AA5EA3;}
	.st129{fill:#DD443C;}
	.st130{fill:#AA5FA3;}
	.st131{fill:#B7C536;}
	.st132{fill:#F2872F;}
	.st133{fill:#AF5FA7;}
	.st134{fill:#E29F17;}
	.st135{fill:#FFC86E;}
	.st136{fill:#A55937;}
	.st137{fill:#D8422E;}
	.st138{fill:#C3556D;}
	.st139{fill:#B24965;}
	.st140{fill:#D1A962;}
	.st141{fill:#A3961A;}
	.st142{fill:#AFA51D;}
	.st143{fill:#968A1C;}
</style>
<g>
	<g>
		<g>
			<g>
				<g>
					<path class="st5" d="M230.2,166.1l-8.2,31c-0.5,1.8-2.1,3-3.9,3H42.8c-1.8,0-3.3-1.1-3.8-2.8l-10.6-33.9
						c-0.6-2,0.4-4.1,2.3-4.9c2.3-1,4.7-2.3,7-4c0.9-0.7,2.1-0.9,3.1-0.7c1.1,0.2,2.1,0.9,2.6,1.9c3.2,5.2,7.2,7.7,12.6,7.7
						c3.2,0,7-0.9,11.1-2.6c1-0.4,2.1-0.4,3.1,0c8,3.4,16.2,5.1,24.2,5.1c9.1,0,18.5-2.2,27.8-6.6c1-0.5,2.2-0.5,3.3-0.1
						c9.9,4.2,18.3,6.3,24.8,6.3c6.4,0,11.1-2,14.3-6.2c1.2-1.5,3.2-2,4.9-1.1c6.5,3.2,12.5,4.8,17.7,4.8c4.8,0,9-1.4,12.8-4.1
						c1-0.7,2.2-0.9,3.3-0.6c8.5,2.1,16.3,3.2,23.1,3.1c1.3-0.1,2.5,0.5,3.2,1.5C230.3,163.6,230.6,164.9,230.2,166.1z"/>
				</g>
			</g>
		</g>
	</g>
	<g>
		<g>
			<g>
				<g>
					<path class="st2" d="M255.9,151.5c-1,8.3-9.2,17.2-29.5,17.6c-7,0.1-14.9-0.9-23.4-2.9c-9.3,5.9-20.9,6.1-34.3,0.3
						c-4.6,4.5-10.8,6.8-18.5,6.8c-7.3,0-15.9-2-26.2-6.2c-9.8,4.4-19.8,6.7-29.6,6.7c-8.5,0-17.2-1.7-25.7-5
						c-12.8,4.9-22.9,2.9-29.7-5.5c-1.7,1-3.5,1.9-5.2,2.7c-4,1.7-8.1,2.6-12,2.6c-5.8,0-11.1-1.9-15-5.1c-3.9-3.2-6.4-7.6-6.7-12.6
						c-0.5-9.1,6.7-19.8,28.7-22.3c1.1-0.1,2.3,0.2,3.1,1c0.9,0.8,1.3,1.9,1.3,3c0,0.1,1.8,5.1,28.3,9.1c17.6,2.7,41.2,4.1,66.4,4.1
						c25.2,0,48.8-1.5,66.4-4.1c26.4-4,28.3-9.1,28.3-9.1c0-1.1-0.1-2.2-0.2-3.3c-0.2-1.1,0.1-2.3,0.9-3.2c0.7-0.9,1.8-1.4,3-1.4
						l0.3,0c0.4,0,0.8,0,1.1,0.1C250.1,130.5,256.9,142.8,255.9,151.5z"/>
				</g>
			</g>
		</g>
	</g>
	<g>
		<g>
			<g>
				<g>
					<path class="st5" d="M230.5,132.4c0,8-10.5,13.2-34.2,16.9c-18.1,2.8-42.4,4.4-68.5,4.4c-26,0-50.4-1.5-68.5-4.4
						c-23.7-3.7-34.2-8.9-34.2-16.9C25.1,98.5,78.4,83,127.8,83c47.7,0,97.8,13.9,102.4,44.9C230.4,129.3,230.5,130.9,230.5,132.4z"
						/>
				</g>
			</g>
		</g>
	</g>
	<g>
		<g>
			<g>
				<g>
					<path class="st2" d="M93.3,114.2l-6.6,9.5L93.3,114.2z"/>
				</g>
			</g>
		</g>
		<g>
			<g>
				<g>
					<path class="st2" d="M86.6,127.7c-0.8,0-1.6-0.2-2.3-0.7c-1.8-1.3-2.3-3.8-1-5.6l6.6-9.5c1.3-1.8,3.8-2.3,5.6-1
						c1.8,1.3,2.3,3.8,1,5.6l-6.6,9.5C89.1,127.1,87.9,127.7,86.6,127.7z"/>
				</g>
			</g>
		</g>
	</g>
	<g>
		<g>
			<g>
				<g>
					<path class="st2" d="M131.6,132.5c-2.2,0-4-1.8-4-4v-11.3c0-2.2,1.8-4,4-4c2.2,0,4,1.8,4,4v11.3
						C135.6,130.7,133.8,132.5,131.6,132.5z"/>
				</g>
			</g>
		</g>
	</g>
	<g>
		<g>
			<g>
				<g>
					<path class="st2" d="M170.1,112.9l8.8,8.8L170.1,112.9z"/>
				</g>
			</g>
		</g>
		<g>
			<g>
				<g>
					<path class="st2" d="M178.8,125.7c-1,0-2-0.4-2.8-1.2l-8.8-8.8c-1.6-1.6-1.6-4.1,0-5.7c1.6-1.6,4.1-1.6,5.7,0l8.8,8.8
						c1.6,1.6,1.6,4.1,0,5.7C180.9,125.3,179.9,125.7,178.8,125.7z"/>
				</g>
			</g>
		</g>
	</g>
	<g>
		<g>
			<g>
				<g>
					<path class="st3" d="M147.4,80.8c0,8.7-7.1,15.8-15.9,15.8s-15.8-7.1-15.8-15.8c0-7.9,5.9-14.5,13.5-15.7
						c2.3-3.4,7.6-9.9,14.6-9.2c2.2,0.2,3.8,2.2,3.6,4.4c-0.2,2.2-2.2,3.8-4.4,3.6c-1.4-0.2-3.1,1-4.6,2.6
						C143.7,69,147.4,74.5,147.4,80.8z"/>
				</g>
			</g>
		</g>
	</g>
</g>
</svg>
