<?xml version="1.0" encoding="utf-8"?>
<!-- Generator: Adobe Illustrator 22.1.0, SVG Export Plug-In . SVG Version: 6.00 Build 0)  -->
<svg version="1.1" id="Layer_1" xmlns="http://www.w3.org/2000/svg" xmlns:xlink="http://www.w3.org/1999/xlink" x="0px" y="0px"
	 viewBox="0 0 256 256" style="enable-background:new 0 0 256 256;" xml:space="preserve">
<style type="text/css">
	.st0{fill:#F6D67A;}
	.st1{fill:#E77CAE;}
	.st2{fill:#AC6535;}
	.st3{fill:#EB573B;}
	.st4{fill:#464646;}
	.st5{fill:#F5B31F;}
	.st6{fill:#9B592D;}
	.st7{fill:#9B5B2F;}
	.st8{fill:#E8A41A;}
	.st9{fill:#6D6E71;}
	.st10{fill:#E5A21C;}
	.st11{fill:#C66395;}
	.st12{fill:#E09F1E;}
	.st13{fill:#FFFFFF;}
	.st14{fill:#DDB95E;}
	.st15{fill:#EAC771;}
	.st16{fill:#F9F6CD;}
	.st17{fill:#009345;}
	.st18{fill:#008438;}
	.st19{fill:#EAA51B;}
	.st20{opacity:0.1;}
	.st21{fill:#FFD11D;}
	.st22{fill:#FFE37B;}
	.st23{fill:#FFA755;}
	.st24{fill:#FFEC97;}
	.st25{fill:#BC7532;}
	.st26{fill:#EFEFEF;}
	.st27{fill:#60ACF7;}
	.st28{fill:#876C6C;}
	.st29{fill:#1DDCFF;}
	.st30{fill:#BDF3FF;}
	.st31{fill:#EFCA70;}
	.st32{fill:#EFA91D;}
	.st33{fill:#8FAE3C;}
	.st34{fill:#92A5AC;}
	.st35{fill:#E8E3BA;}
	.st36{fill:#F79932;}
	.st37{fill:#F4F4F4;}
	.st38{fill:#FFDF8F;}
	.st39{fill:#EAE5B9;}
	.st40{fill:#7E9E6A;}
	.st41{fill:#94B57F;}
	.st42{fill:#9B5D8C;}
	.st43{fill:#96557A;}
	.st44{fill:#C3755A;}
	.st45{fill:#9BD7DD;}
	.st46{fill:#90CAD3;}
	.st47{fill:#F7F7F7;}
	.st48{fill:#AFE6EF;}
	.st49{fill:#FFFAEB;}
	.st50{fill:#F4EFC3;}
	.st51{fill:#F9F9F9;}
	.st52{fill:#FFE5C4;}
	.st53{fill:#FFB024;}
	.st54{fill:#FFC612;}
	.st55{fill:#FFCE31;}
	.st56{fill:#A05C2D;}
	.st57{fill:#1DCAF2;}
	.st58{fill:#00B0E0;}
	.st59{fill:#F2A355;}
	.st60{fill:#D68032;}
	.st61{fill:#66625D;}
	.st62{fill:#54504D;}
	.st63{fill:#B76955;}
	.st64{fill:#EFE8B4;}
	.st65{fill:#B93226;}
	.st66{fill:#EFEABF;}
	.st67{fill:#90C056;}
	.st68{opacity:0.15;}
	.st69{fill:#E8C56D;}
	.st70{fill:#F7BE4B;}
	.st71{fill:#E0A338;}
	.st72{fill:#F68455;}
	.st73{fill:#E26F47;}
	.st74{fill:#EC754B;}
	.st75{fill:#4AA5BA;}
	.st76{opacity:0.5;}
	.st77{fill:#A0B1B5;}
	.st78{opacity:0.7;}
	.st79{fill:#00ADEE;}
	.st80{fill:#F4D4B3;}
	.st81{fill:#F9D97A;}
	.st82{fill:#EDC96E;}
	.st83{fill:none;}
	.st84{fill:#AF6535;}
	.st85{fill:#F18BB4;}
	.st86{fill:#B3E4FF;}
	.st87{fill:#97DFFF;}
	.st88{fill:#D06E3C;}
	.st89{fill:#B55931;}
	.st90{fill:#DA4F4B;}
	.st91{fill:#EFCAA8;}
	.st92{fill:#EA7CB1;}
	.st93{fill:#EA7DAE;}
	.st94{fill:#BC7646;}
	.st95{fill:#00A1C6;}
	.st96{fill:#FCC230;}
	.st97{fill:#F2EBB1;}
	.st98{fill:#F9D6AF;}
	.st99{fill:#D34735;}
	.st100{fill:#E5A21A;}
	.st101{fill:#849E33;}
	.st102{fill:#EFBB14;}
	.st103{fill:#D8402B;}
	.st104{fill:#829B34;}
	.st105{fill:#F88916;}
	.st106{fill:#E27513;}
	.st107{fill:#FFB41F;}
	.st108{fill:#8AA538;}
	.st109{fill:#BE6BB2;}
	.st110{fill:#AA5BA3;}
	.st111{fill:#FFDF66;}
	.st112{fill:#F4BA00;}
	.st113{fill:#E28529;}
	.st114{fill:#FF9945;}
	.st115{fill:#BA6C45;}
	.st116{fill:#EDBA15;}
	.st117{fill:#E0452F;}
	.st118{fill:#F7F2D5;}
	.st119{fill:#4C4E51;}
	.st120{fill:#EA615D;}
	.st121{fill:#DD4A36;}
	.st122{fill:#F6AF72;}
	.st123{fill:#E8955D;}
	.st124{fill:#E4C074;}
	.st125{fill:#EAE4C3;}
	.st126{fill:#BF3522;}
	.st127{fill:#D13E33;}
	.st128{fill:#AA5EA3;}
	.st129{fill:#DD443C;}
	.st130{fill:#AA5FA3;}
	.st131{fill:#B7C536;}
	.st132{fill:#F2872F;}
	.st133{fill:#AF5FA7;}
	.st134{fill:#E29F17;}
	.st135{fill:#FFC86E;}
	.st136{fill:#A55937;}
	.st137{fill:#D8422E;}
	.st138{fill:#C3556D;}
	.st139{fill:#B24965;}
	.st140{fill:#D1A962;}
	.st141{fill:#A3961A;}
	.st142{fill:#AFA51D;}
	.st143{fill:#968A1C;}
</style>
<g>
	<g>
		<g>
			<g>
				<g>
					<g>
						<path class="st5" d="M102.7,237.4c-0.7,0.5-1.3,0.9-2,1.3c-9.1,5.9-18.5,10.2-27.4,12.2c-10.1,2.2-19.5,1.3-27.1-3.8
							c-1.6-1.1-3.1-2.3-4.6-3.7l-29.9-29.9c-1-1-2-2.1-2.8-3.3C3.2,202.6,2,193,4,182.8c1.7-8.8,5.8-18.2,11.5-27.2
							c1-1.7,2.1-3.3,3.3-4.9c5.7-8,12.5-15.7,20-22.4c2.4-2.1,4.8-4.1,7.3-6.1c8.8-6.8,18.1-12.1,27.2-15.2
							c9.7-3.3,19.2-4,27.4-1.1c4.1,1.4,7.9,3.8,11.3,7.2l29.9,29.9c0.4,0.4,0.9,0.9,1.3,1.3c3,3.4,5.1,7.2,6.3,11.3
							c2.5,8.2,1.5,17.6-1.9,27.2c-3.3,9.2-8.8,18.6-15.8,27.4c-1.3,1.6-2.6,3.2-3.9,4.7l0,0C120.5,223.4,111.8,231.2,102.7,237.4z"
							/>
					</g>
				</g>
			</g>
		</g>
	</g>
	<g>
		<g>
			<g>
				<g>
					<g>
						<path class="st100" d="M63.5,256c-7.4,0-13.9-1.9-19.5-5.5c-1.8-1.2-3.6-2.6-5.2-4.2L8.9,216.3c-1.2-1.2-2.3-2.4-3.2-3.7
							c-6-8-7.9-18.6-5.6-30.6c1.7-9,5.9-18.8,12.1-28.6c1.1-1.7,2.2-3.4,3.4-5.1c5.8-8.2,12.9-16.2,20.6-23.1
							c2.5-2.2,5-4.3,7.5-6.3c9.3-7.2,19.1-12.7,28.3-15.8c11.1-3.8,21.4-4.1,30-1.1c4.8,1.7,9.1,4.4,12.8,8.1l29.9,29.9
							c0.5,0.5,1,1,1.4,1.5c3.3,3.7,5.7,8,7.1,12.8c2.6,8.7,2,18.7-1.9,29.7c-3.3,9.3-9,19.2-16.4,28.6c-1.3,1.6-2.6,3.3-4,4.9
							c0,0,0,0-0.1,0.1c-7.7,8.8-16.6,16.8-25.9,23.1c-0.7,0.5-1.4,0.9-2.1,1.4c-9.7,6.4-19.7,10.8-28.7,12.7
							C70.5,255.6,66.9,256,63.5,256z M89.6,108.1c-4.6,0-9.7,0.9-15,2.7c-8.3,2.8-17.3,7.9-26,14.5c-2.4,1.8-4.8,3.8-7.1,5.9
							c-7.3,6.5-14,14-19.4,21.7c-1.1,1.6-2.2,3.2-3.2,4.8c-5.6,8.9-9.4,17.8-11,25.8c-1.9,9.8-0.5,18,4.2,24.3
							c0.7,1,1.5,1.9,2.4,2.8l29.9,29.9c1.2,1.2,2.5,2.3,3.9,3.2c6.3,4.2,14.6,5.3,24.1,3.2c8.1-1.7,17.1-5.8,26.1-11.6
							c0.7-0.4,1.3-0.9,1.9-1.3c8.7-6,17.2-13.5,24.4-21.8c0,0,0,0,0.1-0.1c1.3-1.5,2.5-3,3.7-4.5c6.9-8.7,12.1-17.8,15.2-26.3
							c3.3-9.4,3.9-17.7,1.8-24.7c-1.1-3.6-2.9-6.9-5.5-9.8c-0.4-0.4-0.7-0.8-1.1-1.2l-29.9-29.9c-2.8-2.8-6.1-4.9-9.8-6.2
							C96.4,108.6,93.1,108.1,89.6,108.1z"/>
					</g>
				</g>
			</g>
		</g>
	</g>
	<g>
		<g>
			<g>
				<g>
					<g>
						<path class="st100" d="M100.7,186.8l-96.7,0c-2.2,0-4-1.8-4-4c0-2.2,1.8-4,4-4h143.6c2.2,0,4,1.8,4,4c0,2.2-1.8,4-4,4
							L100.7,186.8z"/>
					</g>
				</g>
			</g>
		</g>
	</g>
	<g>
		<g>
			<g>
				<g>
					<g>
						<path class="st100" d="M18.8,214.2l-9.9,0c-2.2,0-4-1.8-4-4c0-2.2,1.8-4,4-4h0l9.9,0l113,0c2.2,0,4,1.8,4,4c0,2.2-1.8,4-4,4
							L18.8,214.2z"/>
					</g>
				</g>
			</g>
		</g>
	</g>
	<g>
		<g>
			<g>
				<g>
					<g>
						<path class="st100" d="M102.7,241.4H35.6c-2.2,0-4-1.8-4-4s1.8-4,4-4h67.1c2.2,0,4,1.8,4,4S105,241.4,102.7,241.4z"/>
					</g>
				</g>
			</g>
		</g>
	</g>
	<g>
		<g>
			<g>
				<g>
					<g>
						<path class="st100" d="M149.5,159.6L149.5,159.6l-21.6,0l-27.2,0l-85.2,0c-2.2,0-4-1.8-4-4c0-2.2,1.8-4,4-4l134,0
							c2.2,0,4,1.8,4,4C153.5,157.8,151.7,159.6,149.5,159.6z"/>
					</g>
				</g>
			</g>
		</g>
	</g>
	<g>
		<g>
			<g>
				<g>
					<g>
						<path class="st100" d="M100.7,132.2l-61.9,0c-2.2,0-4-1.8-4-4c0-2.2,1.8-4,4-4h88.3h0c2.2,0,4,1.8,4,4c0,2.2-1.8,4-4,4
							L100.7,132.2z"/>
					</g>
				</g>
			</g>
		</g>
	</g>
	<g>
		<g>
			<g>
				<g>
					<g>
						<path class="st100" d="M73.3,254.9c-2.2,0-4-1.8-4-4l0-143.9c0-2.2,1.8-4,4-4s4,1.8,4,4l0,143.9
							C77.3,253.1,75.5,254.9,73.3,254.9z"/>
					</g>
				</g>
			</g>
		</g>
	</g>
	<g>
		<g>
			<g>
				<g>
					<g>
						<path class="st100" d="M100.7,242.7c-2.2,0-4-1.8-4-4V105.9c0-2.2,1.8-4,4-4c2.2,0,4,1.8,4,4v132.8
							C104.7,240.9,103,242.7,100.7,242.7z"/>
					</g>
				</g>
			</g>
		</g>
	</g>
	<g>
		<g>
			<g>
				<g>
					<g>
						<path class="st100" d="M127.9,218.9c-1.1,0-2.1-0.4-2.9-1.3c-0.8-0.8-1.1-1.9-1.1-2.9l0-85.8c0-2.2,1.8-4,4-4c2.2,0,4,1.8,4,4
							l0,86c0,1.1-0.5,2.2-1.3,2.9C129.9,218.6,128.9,218.9,127.9,218.9z"/>
					</g>
				</g>
			</g>
		</g>
	</g>
	<g>
		<g>
			<g>
				<g>
					<g>
						<path class="st100" d="M46.2,251.1c-2.2,0-4-1.8-4-4l0-125c0-2.2,1.8-4,4-4c2.2,0,4,1.8,4,4l0,125
							C50.2,249.3,48.4,251.1,46.2,251.1z"/>
					</g>
				</g>
			</g>
		</g>
	</g>
	<g>
		<g>
			<g>
				<g>
					<g>
						<path class="st100" d="M18.8,224.6c-2.2,0-4-1.8-4-4v-69.9c0-2.2,1.8-4,4-4s4,1.8,4,4v69.9C22.8,222.8,21.1,224.6,18.8,224.6z
							"/>
					</g>
				</g>
			</g>
		</g>
	</g>
	<g>
		<g>
			<g>
				<g>
					<g>
						<polygon class="st33" points="220,4 198.6,58.3 168.1,70.3 170.3,59.2 						"/>
					</g>
				</g>
			</g>
		</g>
	</g>
	<g>
		<g>
			<g>
				<g>
					<g>
						<path class="st101" d="M168.1,74.3c-0.9,0-1.8-0.3-2.6-0.9c-1.1-0.9-1.6-2.4-1.4-3.8l2.2-11.1c0.1-0.7,0.5-1.4,1-1.9L217,1.3
							c1.3-1.4,3.4-1.7,5.1-0.7c1.6,1,2.3,3.1,1.6,4.9l-21.4,54.3c-0.4,1-1.2,1.9-2.3,2.3l-30.5,12
							C169.1,74.2,168.6,74.3,168.1,74.3z M174,61.1l-0.6,2.9l22.1-8.7l12.6-32.1L174,61.1z"/>
					</g>
				</g>
			</g>
		</g>
	</g>
	<g>
		<g>
			<g>
				<g>
					<g>
						<polygon class="st33" points="252.9,36.9 197.7,86.7 186.6,88.8 163.7,93.3 168.1,70.3 198.6,58.3 						"/>
					</g>
				</g>
			</g>
		</g>
	</g>
	<g>
		<g>
			<g>
				<g>
					<g>
						<path class="st101" d="M163.7,97.3c-1.1,0-2.1-0.4-2.8-1.2c-0.9-0.9-1.4-2.3-1.1-3.6l4.5-23c0.3-1.3,1.2-2.5,2.5-3l84.7-33.4
							c1.8-0.7,3.8,0,4.9,1.6c1,1.6,0.7,3.8-0.7,5.1l-55.2,49.7c-0.5,0.5-1.2,0.8-1.9,1l-34,6.6C164.2,97.3,163.9,97.3,163.7,97.3z
							 M171.6,73.2l-2.9,15l27.1-5.3l37.9-34.2L171.6,73.2z"/>
					</g>
				</g>
			</g>
		</g>
	</g>
	<g>
		<g>
			<g>
				<g>
					<g>
						<polygon class="st33" points="179.3,12.8 170.3,59.2 168.1,70.3 163.7,93.3 138.3,98.2 138.5,94.5 139,86.4 142.2,80.5 						
							"/>
					</g>
				</g>
			</g>
		</g>
	</g>
	<g>
		<g>
			<g>
				<g>
					<g>
						<path class="st101" d="M138.3,102.2c-1,0-1.9-0.3-2.6-1c-0.9-0.8-1.4-2-1.4-3.2l0.7-11.8c0-0.6,0.2-1.2,0.5-1.7l3.2-5.9
							l37.1-67.7c0.9-1.7,3-2.5,4.9-1.8c1.9,0.7,2.9,2.6,2.6,4.5L167.6,94c-0.3,1.6-1.6,2.9-3.2,3.2l-25.4,4.9
							C138.8,102.2,138.6,102.2,138.3,102.2z M142.9,87.5l-0.3,5.8l17.7-3.4l10.2-52.6L142.9,87.5z"/>
					</g>
				</g>
			</g>
		</g>
	</g>
	<g>
		<g>
			<g>
				<g>
					<g>
						<polygon class="st33" points="244.1,77.6 176.4,114.8 170.5,118 162.4,118.5 158.7,118.7 137.1,119.9 138.3,98.2 163.7,93.3 
							186.6,88.8 197.7,86.7 						"/>
					</g>
				</g>
			</g>
		</g>
	</g>
	<g>
		<g>
			<g>
				<g>
					<g>
						<path class="st101" d="M137.1,123.9c-1.1,0-2.1-0.4-2.8-1.2c-0.8-0.8-1.2-1.9-1.2-3.1l1.2-21.7c0.1-1.8,1.4-3.4,3.2-3.7
							l105.8-20.6c1.9-0.4,3.9,0.7,4.5,2.6c0.7,1.9-0.1,3.9-1.8,4.9l-73.5,40.4c-0.5,0.3-1.1,0.5-1.7,0.5l-33.5,1.9
							C137.2,123.9,137.2,123.9,137.1,123.9z M142.1,101.5l-0.8,14.1l28.1-1.6l50.3-27.6L142.1,101.5z"/>
					</g>
				</g>
			</g>
		</g>
	</g>
	<g>
		<g>
			<g>
				<g>
					<g>
						<polygon class="st33" points="136.1,137.2 130.1,131.2 129.5,127.5 128.3,120.4 126.5,109.2 126.3,108.1 125.1,100.8 
							124.1,94.8 125.9,86.9 142.9,16.3 139.2,81.7 139,86.4 138.5,94.5 138.3,98.2 137.1,119.9 136.6,128.7 136.1,136.9 						"/>
					</g>
				</g>
			</g>
		</g>
	</g>
	<g>
		<g>
			<g>
				<g>
					<g>
						<polygon class="st33" points="240.6,114 170,131.1 162.2,132.9 156.2,131.9 148.9,130.7 147.7,130.5 136.6,128.7 137.1,119.9 
							158.7,118.7 162.4,118.5 170.5,118 175.2,117.7 						"/>
					</g>
				</g>
			</g>
		</g>
	</g>
	<g>
		<g>
			<g>
				<g>
					<g>
						<path class="st101" d="M136.1,141.2c-1,0-2.1-0.4-2.8-1.2l-6-6c-0.6-0.6-1-1.3-1.1-2.2l-6.1-36.4c-0.1-0.5-0.1-1.1,0.1-1.6
							L139,15.4c0.5-2,2.4-3.3,4.5-3c2,0.3,3.5,2.1,3.4,4.2l-6.8,120.8c-0.1,1.6-1.1,3-2.6,3.5C137.1,141.1,136.6,141.2,136.1,141.2
							z M128.1,94.9l4.8,28.4l3.6-63L128.1,94.9z"/>
					</g>
				</g>
			</g>
		</g>
	</g>
	<g>
		<g>
			<g>
				<g>
					<g>
						<path class="st101" d="M162.2,136.9c-0.2,0-0.4,0-0.7-0.1l-25.6-4.3c-2-0.3-3.4-2.1-3.3-4.2l0.5-8.8c0.1-2,1.7-3.7,3.8-3.8
							l103.5-5.8c2.1-0.1,3.9,1.4,4.2,3.4c0.3,2-1,4-3,4.5l-78.4,18.9C162.8,136.9,162.5,136.9,162.2,136.9z M140.8,125.3l21.3,3.6
							l34.6-8.3l-55.7,3.2L140.8,125.3z"/>
					</g>
				</g>
			</g>
		</g>
	</g>
	<g>
		<g>
			<g>
				<g>
					<g>
						<path class="st33" d="M213.2,141.5l-48,1.8l0,0l-22,1c-0.4-0.5-0.8-0.9-1.3-1.3l-5.8-5.8l0-0.3l0.5-8.2l11.1,1.9l1.1,0.2
							l7.3,1.2l6,1l6.6,1.1L213.2,141.5z"/>
					</g>
				</g>
			</g>
		</g>
	</g>
	<g>
		<g>
			<g>
				<g>
					<g>
						<path class="st101" d="M143.2,148.3c-1.1,0-2.2-0.5-3-1.4c-0.3-0.4-0.7-0.8-1.1-1.2l-5.8-5.8c-0.8-0.8-1.2-1.9-1.2-3l0.5-8.5
							c0.1-1.1,0.6-2.2,1.5-2.9c0.9-0.7,2-1,3.2-0.8l76.6,12.8c2,0.3,3.5,2.2,3.3,4.2c-0.1,2-1.8,3.7-3.8,3.7l-47.8,1.8
							c-0.1,0-0.1,0-0.2,0l-22,1C143.3,148.3,143.3,148.3,143.2,148.3z M140.2,135.6l4.5,4.6c0,0,0.1,0.1,0.1,0.1l19.9-0.9
							c0.1,0,0.2,0,0.2,0l8.9-0.3l-33.6-5.6L140.2,135.6z"/>
					</g>
				</g>
			</g>
		</g>
	</g>
	<g>
		<g>
			<g>
				<g>
					<g>
						<polygon class="st33" points="130.1,131.2 112.9,113.9 113.7,91.8 113.7,91.8 115.5,43.7 122.9,88.1 124.1,94.8 125.1,100.8 
							126.3,108.1 126.5,109.2 128.3,120.4 129.5,127.5 						"/>
					</g>
				</g>
			</g>
		</g>
	</g>
	<g>
		<g>
			<g>
				<g>
					<g>
						<path class="st101" d="M130.1,135.2c-1,0-2.1-0.4-2.8-1.2L110,116.7c-0.8-0.8-1.2-1.9-1.2-3l0.8-22.1c0-0.1,0-0.2,0-0.2
							l1.8-47.8c0.1-2.1,1.7-3.7,3.7-3.8c2-0.1,3.9,1.3,4.2,3.3l14.5,87c0.1,0.3,0.1,0.7,0.1,1.1
							C134.2,133.4,132.4,135.2,130.1,135.2C130.2,135.2,130.1,135.2,130.1,135.2z M116.9,112.3l7.2,7.2L118,83l-0.3,8.9
							c0,0.1,0,0.2,0,0.2L116.9,112.3z"/>
					</g>
				</g>
			</g>
		</g>
	</g>
</g>
</svg>
