<?xml version="1.0" encoding="utf-8"?>
<!-- Generator: Adobe Illustrator 22.1.0, SVG Export Plug-In . SVG Version: 6.00 Build 0)  -->
<svg version="1.1" id="Layer_1" xmlns="http://www.w3.org/2000/svg" xmlns:xlink="http://www.w3.org/1999/xlink" x="0px" y="0px"
	 viewBox="0 0 256 256" style="enable-background:new 0 0 256 256;" xml:space="preserve">
<style type="text/css">
	.st0{fill:#F6D67A;}
	.st1{fill:#E77CAE;}
	.st2{fill:#AC6535;}
	.st3{fill:#EB573B;}
	.st4{fill:#464646;}
	.st5{fill:#F5B31F;}
	.st6{fill:#9B592D;}
	.st7{fill:#9B5B2F;}
	.st8{fill:#E8A41A;}
	.st9{fill:#6D6E71;}
	.st10{fill:#E5A21C;}
	.st11{fill:#C66395;}
	.st12{fill:#E09F1E;}
	.st13{fill:#FFFFFF;}
	.st14{fill:#DDB95E;}
	.st15{fill:#EAC771;}
	.st16{fill:#F9F6CD;}
	.st17{fill:#009345;}
	.st18{fill:#008438;}
	.st19{fill:#EAA51B;}
	.st20{opacity:0.1;}
	.st21{fill:#FFD11D;}
	.st22{fill:#FFE37B;}
	.st23{fill:#FFA755;}
	.st24{fill:#FFEC97;}
	.st25{fill:#BC7532;}
	.st26{fill:#EFEFEF;}
	.st27{fill:#60ACF7;}
	.st28{fill:#876C6C;}
	.st29{fill:#1DDCFF;}
	.st30{fill:#BDF3FF;}
	.st31{fill:#EFCA70;}
	.st32{fill:#EFA91D;}
	.st33{fill:#8FAE3C;}
	.st34{fill:#92A5AC;}
	.st35{fill:#E8E3BA;}
	.st36{fill:#F79932;}
	.st37{fill:#F4F4F4;}
	.st38{fill:#FFDF8F;}
	.st39{fill:#EAE5B9;}
	.st40{fill:#7E9E6A;}
	.st41{fill:#94B57F;}
	.st42{fill:#9B5D8C;}
	.st43{fill:#96557A;}
	.st44{fill:#C3755A;}
	.st45{fill:#9BD7DD;}
	.st46{fill:#90CAD3;}
	.st47{fill:#F7F7F7;}
	.st48{fill:#AFE6EF;}
	.st49{fill:#FFFAEB;}
	.st50{fill:#F4EFC3;}
	.st51{fill:#F9F9F9;}
	.st52{fill:#FFE5C4;}
	.st53{fill:#FFB024;}
	.st54{fill:#FFC612;}
	.st55{fill:#FFCE31;}
	.st56{fill:#A05C2D;}
	.st57{fill:#1DCAF2;}
	.st58{fill:#00B0E0;}
	.st59{fill:#F2A355;}
	.st60{fill:#D68032;}
	.st61{fill:#66625D;}
	.st62{fill:#54504D;}
	.st63{fill:#B76955;}
	.st64{fill:#EFE8B4;}
	.st65{fill:#B93226;}
	.st66{fill:#EFEABF;}
	.st67{fill:#90C056;}
	.st68{opacity:0.15;}
	.st69{fill:#E8C56D;}
	.st70{fill:#F7BE4B;}
	.st71{fill:#E0A338;}
	.st72{fill:#F68455;}
	.st73{fill:#E26F47;}
	.st74{fill:#EC754B;}
	.st75{fill:#4AA5BA;}
	.st76{opacity:0.5;}
	.st77{fill:#A0B1B5;}
	.st78{opacity:0.7;}
	.st79{fill:#00ADEE;}
	.st80{fill:#F4D4B3;}
	.st81{fill:#F9D97A;}
	.st82{fill:#EDC96E;}
	.st83{fill:none;}
	.st84{fill:#AF6535;}
	.st85{fill:#F18BB4;}
	.st86{fill:#B3E4FF;}
	.st87{fill:#97DFFF;}
	.st88{fill:#D06E3C;}
	.st89{fill:#B55931;}
	.st90{fill:#DA4F4B;}
	.st91{fill:#EFCAA8;}
	.st92{fill:#EA7CB1;}
	.st93{fill:#EA7DAE;}
	.st94{fill:#BC7646;}
	.st95{fill:#00A1C6;}
	.st96{fill:#FCC230;}
	.st97{fill:#F2EBB1;}
	.st98{fill:#F9D6AF;}
	.st99{fill:#D34735;}
	.st100{fill:#E5A21A;}
	.st101{fill:#849E33;}
	.st102{fill:#EFBB14;}
	.st103{fill:#D8402B;}
	.st104{fill:#829B34;}
	.st105{fill:#F88916;}
	.st106{fill:#E27513;}
	.st107{fill:#FFB41F;}
	.st108{fill:#8AA538;}
	.st109{fill:#BE6BB2;}
	.st110{fill:#AA5BA3;}
	.st111{fill:#FFDF66;}
	.st112{fill:#F4BA00;}
	.st113{fill:#E28529;}
	.st114{fill:#FF9945;}
	.st115{fill:#BA6C45;}
	.st116{fill:#EDBA15;}
	.st117{fill:#E0452F;}
	.st118{fill:#F7F2D5;}
	.st119{fill:#4C4E51;}
	.st120{fill:#EA615D;}
	.st121{fill:#DD4A36;}
	.st122{fill:#F6AF72;}
	.st123{fill:#E8955D;}
	.st124{fill:#E4C074;}
	.st125{fill:#EAE4C3;}
	.st126{fill:#BF3522;}
	.st127{fill:#D13E33;}
	.st128{fill:#AA5EA3;}
	.st129{fill:#DD443C;}
	.st130{fill:#AA5FA3;}
	.st131{fill:#B7C536;}
	.st132{fill:#F2872F;}
	.st133{fill:#AF5FA7;}
	.st134{fill:#E29F17;}
	.st135{fill:#FFC86E;}
	.st136{fill:#A55937;}
	.st137{fill:#D8422E;}
	.st138{fill:#C3556D;}
	.st139{fill:#B24965;}
	.st140{fill:#D1A962;}
	.st141{fill:#A3961A;}
	.st142{fill:#AFA51D;}
	.st143{fill:#968A1C;}
</style>
<g>
	<g>
		<g>
			<g>
				<g>
					<path class="st0" d="M230.4,148.6c0.2-3.8,6.6-13.6,6.6-20.6s-6.4-16.8-6.6-20.6c-0.2-3.8,1.5-17.8-0.2-22.1
						c-1.7-4.3-12.4-10.9-15-15.9c-2.6-5-7.3-17.1-10.9-20.2c-3.6-3.1-14.3-4-19.2-7.8c-4.8-3.8-12.1-13.5-17.6-15.6
						c-5.5-2.1-14.7,1.2-19.2,0c-4.5-1.2-15.9-8.3-20.4-8.3s-15.9,7.1-20.4,8.3c-4.5,1.2-13.6-2.1-19.2,0
						C83,27.9,75.7,37.6,70.9,41.4c-4.8,3.8-15.5,4.7-19.2,7.8c-3.6,3.1-8.3,15.2-10.9,20.2c-2.6,5-13.3,11.6-15,15.9
						c-1.7,4.3,0,18.3-0.2,22.1c-0.2,3.8-6.6,13.6-6.6,20.6s6.4,16.8,6.6,20.6c0.2,3.8-1.6,17.8,0.2,22.1c1.7,4.3,12.4,10.9,15,15.9
						c2.6,5,7.3,17.1,10.9,20.2c3.6,3.1,14.3,4,19.2,7.8c4.8,3.8,12.1,13.5,17.6,15.6c5.5,2.1,14.7-1.2,19.2,0
						c4.5,1.2,15.9,8.3,20.4,8.3s15.9-7.1,20.4-8.3c4.5-1.2,13.6,2.1,19.2,0c5.5-2.1,12.8-11.8,17.6-15.6c4.8-3.8,15.5-4.7,19.2-7.8
						c3.6-3.1,8.3-15.2,10.9-20.2c2.6-5,13.3-11.6,15-15.9C231.9,166.4,230.2,152.4,230.4,148.6z M68.3,125.9c-2.4,0-5.3,5-7,5
						c-1.8,0-7.8-5.5-7.8-7.6c0-2.1,6.8-4,6.8-6.2c0-2.3-4.3-5.6-4.3-5.6c15-15.4,33,2.1,18,17.6C74,129.1,70.7,125.9,68.3,125.9z
						 M89.3,172c-5.9,0-10.6-4.8-10.6-10.7c0-5.9,4.8-10.7,10.6-10.7c5.9,0,10.6,4.8,10.6,10.7C99.9,167.2,95.2,172,89.3,172z
						 M104.5,76.7c-8.4,0-15.2-6.8-15.2-15.2s6.8-15.2,15.2-15.2c8.4,0,15.2,6.8,15.2,15.2S112.8,76.7,104.5,76.7z M129.5,145
						c0-7.8,6.3-14,14-14c7.7,0,14,6.3,14,14s-6.3,14-14,14C135.8,159,129.5,152.7,129.5,145z M134.8,201.2c0,0,3.6-2.8,3.9-5.2
						c0.3-2.4-4.2-6-3.9-7.7c0.3-1.7,6.5-6.9,8.7-6.6c2.1,0.3,2.9,7.3,5.2,7.6c2.2,0.3,6.1-3.4,6.1-3.4
						C167.8,202.9,147.8,218.2,134.8,201.2z M143,87.4c0,0,3.9,2.4,6.3,1.9c2.4-0.5,4.1-6,5.8-6.4c1.7-0.4,8.8,3.7,9.2,5.8
						c0.5,2.1-5.8,5.3-5.3,7.5c0.5,2.2,5.4,4.5,5.4,4.5C153.1,118.9,131.7,105.6,143,87.4z M191.3,161.4c-5.9,0-10.6-4.8-10.6-10.7
						c0-5.9,4.8-10.7,10.6-10.7c5.9,0,10.6,4.8,10.6,10.7C202,156.6,197.2,161.4,191.3,161.4z M199.3,101.8
						c-5.9,0-10.6-4.8-10.6-10.7c0-5.9,4.8-10.7,10.6-10.7c5.9,0,10.6,4.8,10.6,10.7C209.9,97,205.2,101.8,199.3,101.8z"/>
				</g>
			</g>
		</g>
	</g>
	<g>
		<g>
			<g>
				<g>
					<g>
						<path class="st5" d="M128,0C57.5,0,0.1,57.4,0.1,128S57.5,256,128,256s127.9-57.4,127.9-128S198.5,0,128,0z M230.2,170.7
							c-1.7,4.3-12.4,10.9-15,15.9c-2.6,5-7.3,17.1-10.9,20.2c-3.6,3.1-14.3,4-19.2,7.8c-4.8,3.8-12.1,13.5-17.6,15.6
							c-5.5,2.1-14.7-1.2-19.2,0c-4.5,1.2-15.9,8.3-20.4,8.3s-15.9-7.1-20.3-8.3c-4.5-1.2-13.7,2.1-19.2,0
							c-5.5-2.1-12.8-11.8-17.6-15.6c-4.8-3.8-15.5-4.7-19.2-7.8c-3.6-3.1-8.3-15.2-10.9-20.2c-2.6-5-13.3-11.6-15-15.9
							c-1.7-4.3,0-18.3-0.2-22.1c-0.2-3.8-6.6-13.7-6.6-20.6s6.4-16.8,6.6-20.6c0.2-3.8-1.6-17.8,0.2-22.1
							c1.7-4.3,12.4-10.9,15-15.9c2.6-5,7.3-17.1,10.9-20.2c3.6-3.1,14.3-4,19.2-7.8c4.8-3.8,12.1-13.5,17.6-15.5
							c5.5-2.1,14.7,1.2,19.2,0c4.5-1.2,15.9-8.3,20.3-8.3s15.9,7.1,20.4,8.3c4.5,1.2,13.6-2.1,19.2,0c5.5,2.1,12.8,11.8,17.6,15.5
							c4.8,3.8,15.5,4.7,19.2,7.8c3.6,3.1,8.3,15.2,10.9,20.2c2.6,5,13.3,11.6,15,15.9c1.7,4.3,0,18.3,0.2,22.1
							c0.2,3.8,6.6,13.7,6.6,20.6s-6.4,16.8-6.6,20.6C230.2,152.4,231.9,166.4,230.2,170.7z"/>
					</g>
				</g>
			</g>
		</g>
	</g>
	<g>
		<g>
			<g>
				<g>
					<path class="st34" d="M74,129.1c0,0-3.3-3.1-5.7-3.1c-2.4,0-5.3,5-7,5c-1.8,0-7.8-5.5-7.8-7.6c0-2.1,6.8-4,6.8-6.2
						c0-2.3-4.3-5.6-4.3-5.6C71,96.1,89,113.6,74,129.1z"/>
				</g>
			</g>
		</g>
	</g>
	<g>
		<g>
			<g>
				<g>
					<path class="st34" d="M134.8,201.2c0,0,3.6-2.8,3.9-5.2c0.3-2.4-4.2-6-3.9-7.7c0.3-1.7,6.5-6.9,8.7-6.6
						c2.1,0.3,2.9,7.3,5.2,7.6c2.2,0.3,6.1-3.4,6.1-3.4C167.8,202.9,147.8,218.2,134.8,201.2z"/>
				</g>
			</g>
		</g>
	</g>
	<g>
		<g>
			<g>
				<g>
					<path class="st34" d="M164.4,100.6c-11.3,18.3-32.7,5-21.4-13.3c0,0,3.9,2.4,6.3,1.9c2.4-0.5,4.1-6,5.8-6.4
						c1.7-0.4,8.8,3.7,9.2,5.8c0.5,2.1-5.8,5.3-5.3,7.5C159.5,98.3,164.4,100.6,164.4,100.6z"/>
				</g>
			</g>
		</g>
	</g>
	<g>
		<g>
			<g>
				<g>
					
						<ellipse transform="matrix(1.159504e-03 -1 1 1.159504e-03 -72.178 250.4657)" class="st2" cx="89.3" cy="161.4" rx="10.7" ry="10.6"/>
				</g>
			</g>
		</g>
	</g>
	<g>
		<g>
			<g>
				<g>
					
						<ellipse transform="matrix(1 -1.164912e-03 1.164912e-03 1 -0.106 0.2322)" class="st2" cx="199.3" cy="91.1" rx="10.6" ry="10.7"/>
				</g>
			</g>
		</g>
	</g>
	<g>
		<g>
			<g>
				<g>
					<ellipse class="st3" cx="143.5" cy="145" rx="14" ry="14"/>
				</g>
			</g>
		</g>
	</g>
	<g>
		<g>
			<g>
				<g>
					
						<ellipse transform="matrix(1 -1.164912e-03 1.164912e-03 1 -0.1754 0.223)" class="st2" cx="191.3" cy="150.7" rx="10.6" ry="10.7"/>
				</g>
			</g>
		</g>
	</g>
	<g>
		<g>
			<g>
				<g>
					<path class="st3" d="M119.6,61.5c0,8.4-6.8,15.2-15.2,15.2c-8.4,0-15.2-6.8-15.2-15.2s6.8-15.2,15.2-15.2
						C112.8,46.3,119.6,53.1,119.6,61.5z"/>
				</g>
			</g>
		</g>
	</g>
</g>
</svg>
