<?xml version="1.0" encoding="utf-8"?>
<!-- Generator: Adobe Illustrator 22.1.0, SVG Export Plug-In . SVG Version: 6.00 Build 0)  -->
<svg version="1.1" id="Layer_1" xmlns="http://www.w3.org/2000/svg" xmlns:xlink="http://www.w3.org/1999/xlink" x="0px" y="0px"
	 viewBox="0 0 256 256" style="enable-background:new 0 0 256 256;" xml:space="preserve">
<style type="text/css">
	.st0{fill:#F6D67A;}
	.st1{fill:#E77CAE;}
	.st2{fill:#AC6535;}
	.st3{fill:#EB573B;}
	.st4{fill:#464646;}
	.st5{fill:#F5B31F;}
	.st6{fill:#9B592D;}
	.st7{fill:#9B5B2F;}
	.st8{fill:#E8A41A;}
	.st9{fill:#6D6E71;}
	.st10{fill:#E5A21C;}
	.st11{fill:#C66395;}
	.st12{fill:#E09F1E;}
	.st13{fill:#FFFFFF;}
	.st14{fill:#DDB95E;}
	.st15{fill:#EAC771;}
	.st16{fill:#F9F6CD;}
	.st17{fill:#009345;}
	.st18{fill:#008438;}
	.st19{fill:#EAA51B;}
	.st20{opacity:0.1;}
	.st21{fill:#FFD11D;}
	.st22{fill:#FFE37B;}
	.st23{fill:#FFA755;}
	.st24{fill:#FFEC97;}
	.st25{fill:#BC7532;}
	.st26{fill:#EFEFEF;}
	.st27{fill:#60ACF7;}
	.st28{fill:#876C6C;}
	.st29{fill:#1DDCFF;}
	.st30{fill:#BDF3FF;}
	.st31{fill:#EFCA70;}
	.st32{fill:#EFA91D;}
	.st33{fill:#8FAE3C;}
	.st34{fill:#92A5AC;}
	.st35{fill:#E8E3BA;}
	.st36{fill:#F79932;}
	.st37{fill:#F4F4F4;}
	.st38{fill:#FFDF8F;}
	.st39{fill:#EAE5B9;}
	.st40{fill:#7E9E6A;}
	.st41{fill:#94B57F;}
	.st42{fill:#9B5D8C;}
	.st43{fill:#96557A;}
	.st44{fill:#C3755A;}
	.st45{fill:#9BD7DD;}
	.st46{fill:#90CAD3;}
	.st47{fill:#F7F7F7;}
	.st48{fill:#AFE6EF;}
	.st49{fill:#FFFAEB;}
	.st50{fill:#F4EFC3;}
	.st51{fill:#F9F9F9;}
	.st52{fill:#FFE5C4;}
	.st53{fill:#FFB024;}
	.st54{fill:#FFC612;}
	.st55{fill:#FFCE31;}
	.st56{fill:#A05C2D;}
	.st57{fill:#1DCAF2;}
	.st58{fill:#00B0E0;}
	.st59{fill:#F2A355;}
	.st60{fill:#D68032;}
	.st61{fill:#66625D;}
	.st62{fill:#54504D;}
	.st63{fill:#B76955;}
	.st64{fill:#EFE8B4;}
	.st65{fill:#B93226;}
	.st66{fill:#EFEABF;}
	.st67{fill:#90C056;}
	.st68{opacity:0.15;}
	.st69{fill:#E8C56D;}
	.st70{fill:#F7BE4B;}
	.st71{fill:#E0A338;}
	.st72{fill:#F68455;}
	.st73{fill:#E26F47;}
	.st74{fill:#EC754B;}
	.st75{fill:#4AA5BA;}
	.st76{opacity:0.5;}
	.st77{fill:#A0B1B5;}
	.st78{opacity:0.7;}
	.st79{fill:#00ADEE;}
	.st80{fill:#F4D4B3;}
	.st81{fill:#F9D97A;}
	.st82{fill:#EDC96E;}
	.st83{fill:none;}
	.st84{fill:#AF6535;}
	.st85{fill:#F18BB4;}
	.st86{fill:#B3E4FF;}
	.st87{fill:#97DFFF;}
	.st88{fill:#D06E3C;}
	.st89{fill:#B55931;}
	.st90{fill:#DA4F4B;}
	.st91{fill:#EFCAA8;}
	.st92{fill:#EA7CB1;}
	.st93{fill:#EA7DAE;}
	.st94{fill:#BC7646;}
	.st95{fill:#00A1C6;}
	.st96{fill:#FCC230;}
	.st97{fill:#F2EBB1;}
	.st98{fill:#F9D6AF;}
	.st99{fill:#D34735;}
	.st100{fill:#E5A21A;}
	.st101{fill:#849E33;}
	.st102{fill:#EFBB14;}
	.st103{fill:#D8402B;}
	.st104{fill:#829B34;}
	.st105{fill:#F88916;}
	.st106{fill:#E27513;}
	.st107{fill:#FFB41F;}
	.st108{fill:#8AA538;}
	.st109{fill:#BE6BB2;}
	.st110{fill:#AA5BA3;}
	.st111{fill:#FFDF66;}
	.st112{fill:#F4BA00;}
	.st113{fill:#E28529;}
	.st114{fill:#FF9945;}
	.st115{fill:#BA6C45;}
	.st116{fill:#EDBA15;}
	.st117{fill:#E0452F;}
	.st118{fill:#F7F2D5;}
	.st119{fill:#4C4E51;}
	.st120{fill:#EA615D;}
	.st121{fill:#DD4A36;}
	.st122{fill:#F6AF72;}
	.st123{fill:#E8955D;}
	.st124{fill:#E4C074;}
	.st125{fill:#EAE4C3;}
	.st126{fill:#BF3522;}
	.st127{fill:#D13E33;}
	.st128{fill:#AA5EA3;}
	.st129{fill:#DD443C;}
	.st130{fill:#AA5FA3;}
	.st131{fill:#B7C536;}
	.st132{fill:#F2872F;}
	.st133{fill:#AF5FA7;}
	.st134{fill:#E29F17;}
	.st135{fill:#FFC86E;}
	.st136{fill:#A55937;}
	.st137{fill:#D8422E;}
	.st138{fill:#C3556D;}
	.st139{fill:#B24965;}
	.st140{fill:#D1A962;}
	.st141{fill:#A3961A;}
	.st142{fill:#AFA51D;}
	.st143{fill:#968A1C;}
</style>
<g>
	<g>
		<g>
			<g>
				<g>
					<g>
						<path class="st109" d="M128,252L128,252c100,0,131.3-214,18.1-214c-6.6,0-12.6,1.3-18.1,3.9c-5.4-2.5-11.5-3.9-18.1-3.9
							C-3.3,38,28,252,128,252z"/>
					</g>
				</g>
			</g>
		</g>
	</g>
	<g>
		<g>
			<g>
				<g>
					<g>
						<path class="st109" d="M204.1,62.5C190.8,43.9,170.7,34,146.1,34c-5.3,0-10.4,0.8-15.2,2.4c0.3,1.4,0.6,2.9,1,4.4
							c0.5,1.9-0.4,3.8-2.2,4.7c5-2.3,10.5-3.5,16.4-3.5c22.2,0,39.6,8.5,51.6,25.2c10.6,14.8,16.4,36,16.4,59.6
							c0,29.4-8.6,59.5-23.5,82.5c-16.2,25-38.4,38.7-62.6,38.7h0c-24.1,0-46.3-13.7-62.6-38.7c-14.9-23-23.5-53-23.5-82.5
							c0-23.7,5.8-44.9,16.4-59.6C70.3,50.5,87.7,42,109.9,42c2.9,0,5.8,0.3,8.5,0.9c1.6-1.2,3.2-2.2,4.9-3.1
							c-0.3-1.4-0.5-2.7-0.7-4c-4.1-1.1-8.3-1.7-12.8-1.7c-24.6,0-44.7,9.9-58.1,28.5c-11.7,16.4-17.9,38.6-17.9,64.3
							c0,30.9,9,62.6,24.8,86.8C76.5,241,101.1,256,128,256h0c26.9,0,51.5-15,69.3-42.3c15.8-24.2,24.8-55.9,24.8-86.8
							C222.1,101.1,215.9,78.9,204.1,62.5z"/>
					</g>
				</g>
			</g>
		</g>
	</g>
	<g>
		<g>
			<g>
				<g>
					<g>
						<path class="st133" d="M129.7,45.5L129.7,45.5C129.7,45.5,129.7,45.5,129.7,45.5c-17.3,8-28.6,29.2-32,59.7
							c-3.5,31.7,2.2,69.4,15.9,106.1c0.8,2.1-0.3,4.4-2.3,5.1c-0.5,0.2-0.9,0.3-1.4,0.3c-1.6,0-3.2-1-3.8-2.6
							C92,176.2,86.1,137.2,89.8,104.3C93,75.5,103,54.1,118.5,42.9c1.6-1.2,3.2-2.2,4.9-3.1c-0.3-1.4-0.5-2.7-0.7-4
							c1.8,0.5,3.6,1.1,5.3,1.8c1-0.4,1.9-0.8,2.9-1.1c0.3,1.4,0.6,2.9,1,4.4C132.4,42.7,131.4,44.7,129.7,45.5z"/>
					</g>
				</g>
			</g>
			<g>
				<g>
					<g>
						<path class="st33" d="M148.7,7.8c-14.8,4.4-20.5,13.5-17.8,28.6c-1,0.3-1.9,0.7-2.9,1.1c-1.7-0.7-3.5-1.3-5.3-1.8
							c-2.4-18,5.7-30.2,23.8-35.5c2.1-0.6,4.4,0.6,5,2.7C152,5,150.8,7.2,148.7,7.8z"/>
					</g>
				</g>
			</g>
		</g>
	</g>
</g>
</svg>
