<?xml version="1.0" encoding="utf-8"?>
<!-- Generator: Adobe Illustrator 22.1.0, SVG Export Plug-In . SVG Version: 6.00 Build 0)  -->
<svg version="1.1" id="Layer_1" xmlns="http://www.w3.org/2000/svg" xmlns:xlink="http://www.w3.org/1999/xlink" x="0px" y="0px"
	 viewBox="0 0 256 256" style="enable-background:new 0 0 256 256;" xml:space="preserve">
<style type="text/css">
	.st0{fill:#F6D67A;}
	.st1{fill:#E77CAE;}
	.st2{fill:#AC6535;}
	.st3{fill:#EB573B;}
	.st4{fill:#464646;}
	.st5{fill:#F5B31F;}
	.st6{fill:#9B592D;}
	.st7{fill:#9B5B2F;}
	.st8{fill:#E8A41A;}
	.st9{fill:#6D6E71;}
	.st10{fill:#E5A21C;}
	.st11{fill:#C66395;}
	.st12{fill:#E09F1E;}
	.st13{fill:#FFFFFF;}
	.st14{fill:#DDB95E;}
	.st15{fill:#EAC771;}
	.st16{fill:#F9F6CD;}
	.st17{fill:#009345;}
	.st18{fill:#008438;}
	.st19{fill:#EAA51B;}
	.st20{opacity:0.1;}
	.st21{fill:#FFD11D;}
	.st22{fill:#FFE37B;}
	.st23{fill:#FFA755;}
	.st24{fill:#FFEC97;}
	.st25{fill:#BC7532;}
	.st26{fill:#EFEFEF;}
	.st27{fill:#60ACF7;}
	.st28{fill:#876C6C;}
	.st29{fill:#1DDCFF;}
	.st30{fill:#BDF3FF;}
	.st31{fill:#EFCA70;}
	.st32{fill:#EFA91D;}
	.st33{fill:#8FAE3C;}
	.st34{fill:#92A5AC;}
	.st35{fill:#E8E3BA;}
	.st36{fill:#F79932;}
	.st37{fill:#F4F4F4;}
	.st38{fill:#FFDF8F;}
	.st39{fill:#EAE5B9;}
	.st40{fill:#7E9E6A;}
	.st41{fill:#94B57F;}
	.st42{fill:#9B5D8C;}
	.st43{fill:#96557A;}
	.st44{fill:#C3755A;}
	.st45{fill:#9BD7DD;}
	.st46{fill:#90CAD3;}
	.st47{fill:#F7F7F7;}
	.st48{fill:#AFE6EF;}
	.st49{fill:#FFFAEB;}
	.st50{fill:#F4EFC3;}
	.st51{fill:#F9F9F9;}
	.st52{fill:#FFE5C4;}
	.st53{fill:#FFB024;}
	.st54{fill:#FFC612;}
	.st55{fill:#FFCE31;}
	.st56{fill:#A05C2D;}
	.st57{fill:#1DCAF2;}
	.st58{fill:#00B0E0;}
	.st59{fill:#F2A355;}
	.st60{fill:#D68032;}
	.st61{fill:#66625D;}
	.st62{fill:#54504D;}
	.st63{fill:#B76955;}
	.st64{fill:#EFE8B4;}
	.st65{fill:#B93226;}
	.st66{fill:#EFEABF;}
	.st67{fill:#90C056;}
	.st68{opacity:0.15;}
	.st69{fill:#E8C56D;}
	.st70{fill:#F7BE4B;}
	.st71{fill:#E0A338;}
	.st72{fill:#F68455;}
	.st73{fill:#E26F47;}
	.st74{fill:#EC754B;}
	.st75{fill:#4AA5BA;}
	.st76{opacity:0.5;}
	.st77{fill:#A0B1B5;}
	.st78{opacity:0.7;}
	.st79{fill:#00ADEE;}
	.st80{fill:#F4D4B3;}
	.st81{fill:#F9D97A;}
	.st82{fill:#EDC96E;}
	.st83{fill:none;}
	.st84{fill:#AF6535;}
	.st85{fill:#F18BB4;}
	.st86{fill:#B3E4FF;}
	.st87{fill:#97DFFF;}
	.st88{fill:#D06E3C;}
	.st89{fill:#B55931;}
	.st90{fill:#DA4F4B;}
	.st91{fill:#EFCAA8;}
	.st92{fill:#EA7CB1;}
	.st93{fill:#EA7DAE;}
	.st94{fill:#BC7646;}
	.st95{fill:#00A1C6;}
	.st96{fill:#FCC230;}
	.st97{fill:#F2EBB1;}
	.st98{fill:#F9D6AF;}
	.st99{fill:#D34735;}
	.st100{fill:#E5A21A;}
	.st101{fill:#849E33;}
	.st102{fill:#EFBB14;}
	.st103{fill:#D8402B;}
	.st104{fill:#829B34;}
	.st105{fill:#F88916;}
	.st106{fill:#E27513;}
	.st107{fill:#FFB41F;}
	.st108{fill:#8AA538;}
	.st109{fill:#BE6BB2;}
	.st110{fill:#AA5BA3;}
	.st111{fill:#FFDF66;}
	.st112{fill:#F4BA00;}
	.st113{fill:#E28529;}
	.st114{fill:#FF9945;}
	.st115{fill:#BA6C45;}
	.st116{fill:#EDBA15;}
	.st117{fill:#E0452F;}
	.st118{fill:#F7F2D5;}
	.st119{fill:#4C4E51;}
	.st120{fill:#EA615D;}
	.st121{fill:#DD4A36;}
	.st122{fill:#F6AF72;}
	.st123{fill:#E8955D;}
	.st124{fill:#E4C074;}
	.st125{fill:#EAE4C3;}
	.st126{fill:#BF3522;}
	.st127{fill:#D13E33;}
	.st128{fill:#AA5EA3;}
	.st129{fill:#DD443C;}
	.st130{fill:#AA5FA3;}
	.st131{fill:#B7C536;}
	.st132{fill:#F2872F;}
	.st133{fill:#AF5FA7;}
	.st134{fill:#E29F17;}
	.st135{fill:#FFC86E;}
	.st136{fill:#A55937;}
	.st137{fill:#D8422E;}
	.st138{fill:#C3556D;}
	.st139{fill:#B24965;}
	.st140{fill:#D1A962;}
	.st141{fill:#A3961A;}
	.st142{fill:#AFA51D;}
	.st143{fill:#968A1C;}
</style>
<g>
	<g>
		<g>
			<g>
				<g>
					<path class="st124" d="M244.2,106.8c-6.4,11-11.5,24.7-17.4,40.6c-8.5,22.8-18.1,48.6-34.6,74.2
						c-13.9,21.6-43.6,34.4-79.4,34.4c0,0,0,0,0,0c-33.1,0-65-11.1-85.3-29.8c0,0-0.1-0.1-0.1-0.1c-11.9-11.8-26.4-51-22-85.6
						c4.4-34.9,37.2-68,58.2-77.4c9.6-4.3,15.3-12.1,21.4-20.4c5.6-7.7,11.5-15.7,20.7-21C120.8,12.9,160,0,186.7,0
						c4.5,0,8.5,0.4,11.9,1.1c20.2,4.4,24.9,12.1,30.8,21.8c1.4,2.3,2.8,4.7,4.6,7.2C243,43.1,261.9,76.3,244.2,106.8z"/>
				</g>
			</g>
		</g>
	</g>
	<g>
		<g>
			<g>
				<g>
					<path class="st140" d="M26.2,105.4c-1.2,0-2.3-0.5-3.1-1.5c-1.4-1.7-1.1-4.2,0.6-5.6c23.4-19.2,46.7-22.9,69.1-11.2
						c2,1,2.7,3.4,1.7,5.4c-1,2-3.4,2.7-5.4,1.7c-19.6-10.3-39.3-6.9-60.4,10.3C28,105.1,27.1,105.4,26.2,105.4z"/>
				</g>
			</g>
		</g>
	</g>
	<g>
		<g>
			<g>
				<g>
					<path class="st140" d="M216.2,168.1c-0.3,0-0.6,0-0.8-0.1c-2.2-0.5-3.5-2.6-3.1-4.8c4-18.5-3-37.5-20.8-56.4
						c-1.5-1.6-1.4-4.1,0.2-5.7c1.6-1.5,4.1-1.4,5.7,0.2c19.7,20.9,27.4,42.3,22.8,63.6C219.7,166.8,218,168.1,216.2,168.1z"/>
				</g>
			</g>
		</g>
	</g>
	<g>
		<g>
			<g>
				<g>
					<path class="st140" d="M244.3,64.2c-1.4,0-2.8-0.8-3.5-2.1c-11.4-21.6-33.7-31.8-68.2-31.2c-2.2,0.1-4-1.7-4.1-3.9
						s1.7-4,3.9-4.1c37.3-0.7,62.6,11.2,75.4,35.4c1,2,0.3,4.4-1.7,5.4C245.6,64,245,64.2,244.3,64.2z"/>
				</g>
			</g>
		</g>
	</g>
	<g>
		<g>
			<g>
				<g>
					<path class="st140" d="M55.1,129.9c-1.6,0-3.1-0.9-3.7-2.5c-0.8-2,0.1-4.4,2.2-5.2c17.3-7.2,32.6-8.1,46.5-3
						c2.1,0.8,3.1,3.1,2.4,5.1c-0.8,2.1-3.1,3.1-5.1,2.4c-12-4.4-25.3-3.5-40.7,2.9C56.2,129.8,55.6,129.9,55.1,129.9z"/>
				</g>
			</g>
		</g>
	</g>
	<g>
		<g>
			<g>
				<g>
					<path class="st140" d="M179.7,179c-0.2,0-0.5,0-0.7-0.1c-2.2-0.4-3.6-2.5-3.2-4.6c0.9-5.3,0.3-9.4-2-12.5
						c-3.2-4.3-10-7.2-20.1-8.5c-2.2-0.3-3.7-2.3-3.5-4.5c0.3-2.2,2.3-3.8,4.5-3.5c12.6,1.6,20.9,5.4,25.5,11.6
						c3.6,4.9,4.8,11.2,3.5,18.6C183.3,177.7,181.6,179,179.7,179z"/>
				</g>
			</g>
		</g>
	</g>
	<g>
		<g>
			<g>
				<g>
					<path class="st140" d="M84.9,136.2c-1.1,0-2.1-0.4-2.9-1.3c-1.8-1.9-3.5-2.9-5.1-2.9c-1.6,0-3.5,1-5.6,3
						c-1.6,1.6-4.1,1.6-5.7,0c-1.6-1.6-1.6-4.1,0-5.7c3.6-3.6,7.5-5.4,11.3-5.4c3.8,0.1,7.4,1.9,10.8,5.5c1.5,1.6,1.4,4.1-0.2,5.7
						C86.9,135.9,85.9,136.2,84.9,136.2z"/>
				</g>
			</g>
		</g>
	</g>
	<g>
		<g>
			<g>
				<g>
					<path class="st140" d="M172.6,173.6c-0.1,0-0.2,0-0.4,0c-6.9-0.6-11.8-4.5-14.3-11.3c-0.8-2.1,0.3-4.4,2.4-5.1
						c2.1-0.8,4.4,0.3,5.1,2.4c1.4,3.9,3.7,5.7,7.5,6.1c2.2,0.2,3.8,2.1,3.6,4.3C176.4,172,174.6,173.6,172.6,173.6z"/>
				</g>
			</g>
		</g>
	</g>
	<g>
		<g>
			<g>
				<g>
					<path class="st140" d="M191.6,84c-1.5,0-2.9-0.8-3.6-2.2c-4.7-9.6-14-16.6-27.5-20.9c-2.1-0.7-3.3-2.9-2.6-5
						c0.7-2.1,2.9-3.3,5-2.6c15.7,5,26.6,13.4,32.3,25c1,2,0.2,4.4-1.8,5.4C192.8,83.9,192.2,84,191.6,84z"/>
				</g>
			</g>
		</g>
	</g>
	<g>
		<g>
			<g>
				<g>
					<path class="st140" d="M191.6,71.1c-1.8,0-3.4-1.2-3.9-3c-1.1-4.1-4-7.1-9-9c-2.1-0.8-3.1-3.1-2.3-5.2c0.8-2.1,3.1-3.1,5.2-2.3
						c7.4,2.9,12.1,7.8,13.8,14.5c0.6,2.1-0.7,4.3-2.9,4.9C192.2,71.1,191.9,71.1,191.6,71.1z"/>
				</g>
			</g>
		</g>
	</g>
	<g>
		<g>
			<g>
				<g>
					<path class="st140" d="M127.4,65L127.4,65c-5.6,0-11-2.8-13.2-7c-1.7-3.2-1.6-6.9,0.5-10.1c3.1-4.9,9-7.7,15.9-7.7
						c1.9,0,5.4,0.2,7.7,1.9c2.9,2.1,3.8,6.8,3.3,10.5c-0.6,5.3-3.7,9.4-8.4,11.3C131.4,64.6,129.5,65,127.4,65z M130.6,48.2
						c-3.2,0-7.2,1.1-9.1,4.1c-0.6,1-0.5,1.5-0.2,1.9c0.8,1.4,3.3,2.8,6.2,2.8h0c1,0,2-0.2,2.8-0.5c1.6-0.6,2.6-1.8,3.2-3.5
						c0.6-1.9,0.3-3.7,0-4.4C132.9,48.4,131.9,48.2,130.6,48.2z"/>
				</g>
			</g>
		</g>
	</g>
	<g>
		<g>
			<g>
				<g>
					<path class="st140" d="M46.6,205.2L46.6,205.2c-4.8,0-8.7-2.8-10.8-7.8c-2.1-5.1-2-12.6,1.8-16.5c2.4-2.4,6.4-3.7,11.1-3.7
						c5.9,0,13.8,2.3,16.7,8.6c2,4.3,1.2,7.7,0.1,9.7c-2.2,4.4-7.6,7.5-16.4,9.3C48.3,205.2,47.4,205.2,46.6,205.2z M48.8,185.3
						c-3,0-4.9,0.8-5.5,1.4c-0.8,0.8-1.4,4.6-0.1,7.8c1.2,2.8,2.8,2.8,3.4,2.8h0c0.3,0,0.7,0,1-0.1c8.6-1.8,10.5-4.3,10.9-5.1
						c0.1-0.3,0.5-1-0.3-2.8C57.1,187,53.2,185.3,48.8,185.3z"/>
				</g>
			</g>
		</g>
	</g>
	<g>
		<g>
			<g>
				<g>
					<path class="st140" d="M108,239.1c-1.3,0-2.6-0.7-3.4-1.9c-3.7-5.9-8.7-7.6-16.7-5.8c-2.2,0.5-4.3-0.8-4.8-3
						c-0.5-2.2,0.8-4.3,3-4.8c11.2-2.6,19.7,0.5,25.3,9.3c1.2,1.9,0.6,4.3-1.2,5.5C109.5,238.9,108.7,239.1,108,239.1z"/>
				</g>
			</g>
		</g>
	</g>
	<g>
		<g>
			<g>
				<g>
					<path class="st140" d="M141.4,228.6L141.4,228.6c-2,0-4-0.5-5.6-1.4c-3.7-2.1-6.2-7.5-5.6-12.2c0.5-3.8,2.9-6.7,6.5-7.7
						c1.1-0.3,2.2-0.5,3.3-0.5c7.1,0,11.9,6.6,11.9,12.7c0,2.8-1.3,5.3-3.7,7C146.2,227.9,143.9,228.6,141.4,228.6z M139.9,214.8
						c-0.3,0-0.7,0.1-1.1,0.2c-0.4,0.1-0.7,0.2-0.7,1c-0.2,1.8,1,3.9,1.6,4.3c1,0.5,2.9,0.4,3.8-0.2c0.3-0.2,0.3-0.4,0.3-0.5
						C143.8,217.6,142.3,214.8,139.9,214.8z"/>
				</g>
			</g>
		</g>
	</g>
	<g>
		<g>
			<g>
				<g>
					<path class="st140" d="M8.5,155.9c-1.8,0-3.5-1.3-3.9-3.2c-0.5-2.2,0.9-4.3,3.1-4.7c4-0.9,9.1-2.9,10.3-7.6
						c1.1-4.4-1.4-10.1-6.5-14.4c-1.7-1.4-1.9-4-0.4-5.6c1.4-1.7,4-1.9,5.6-0.4c7.5,6.4,10.9,15,9,22.5c-1,3.9-4.5,10.9-16.3,13.5
						C9.1,155.9,8.8,155.9,8.5,155.9z"/>
				</g>
			</g>
		</g>
	</g>
	<g>
		<g>
			<g>
				<g>
					<path class="st140" d="M239.5,105.6c-7.6,0-11.2-4.3-12-8.4c-1.5-7.6,5.4-17.9,19-21.1c2.1-0.5,4.3,0.8,4.8,3
						c0.5,2.1-0.8,4.3-3,4.8c-9.6,2.3-13.6,8.9-13,11.8c0.4,2,3.7,2.2,6.6,1.7c2.2-0.3,4.2,1.2,4.6,3.3c0.3,2.2-1.2,4.2-3.3,4.6
						C241.8,105.5,240.6,105.6,239.5,105.6z"/>
				</g>
			</g>
		</g>
	</g>
</g>
</svg>
