<?xml version="1.0" encoding="utf-8"?>
<!-- Generator: Adobe Illustrator 22.1.0, SVG Export Plug-In . SVG Version: 6.00 Build 0)  -->
<svg version="1.1" id="Layer_1" xmlns="http://www.w3.org/2000/svg" xmlns:xlink="http://www.w3.org/1999/xlink" x="0px" y="0px"
	 viewBox="0 0 256 256" style="enable-background:new 0 0 256 256;" xml:space="preserve">
<style type="text/css">
	.st0{fill:#F6D67A;}
	.st1{fill:#E77CAE;}
	.st2{fill:#AC6535;}
	.st3{fill:#EB573B;}
	.st4{fill:#464646;}
	.st5{fill:#F5B31F;}
	.st6{fill:#9B592D;}
	.st7{fill:#9B5B2F;}
	.st8{fill:#E8A41A;}
	.st9{fill:#6D6E71;}
	.st10{fill:#E5A21C;}
	.st11{fill:#C66395;}
	.st12{fill:#E09F1E;}
	.st13{fill:#FFFFFF;}
	.st14{fill:#DDB95E;}
	.st15{fill:#EAC771;}
	.st16{fill:#F9F6CD;}
	.st17{fill:#009345;}
	.st18{fill:#008438;}
	.st19{fill:#EAA51B;}
	.st20{opacity:0.1;}
	.st21{fill:#FFD11D;}
	.st22{fill:#FFE37B;}
	.st23{fill:#FFA755;}
	.st24{fill:#FFEC97;}
	.st25{fill:#BC7532;}
	.st26{fill:#EFEFEF;}
	.st27{fill:#60ACF7;}
	.st28{fill:#876C6C;}
	.st29{fill:#1DDCFF;}
	.st30{fill:#BDF3FF;}
	.st31{fill:#EFCA70;}
	.st32{fill:#EFA91D;}
	.st33{fill:#8FAE3C;}
	.st34{fill:#92A5AC;}
	.st35{fill:#E8E3BA;}
	.st36{fill:#F79932;}
	.st37{fill:#F4F4F4;}
	.st38{fill:#FFDF8F;}
	.st39{fill:#EAE5B9;}
	.st40{fill:#7E9E6A;}
	.st41{fill:#94B57F;}
	.st42{fill:#9B5D8C;}
	.st43{fill:#96557A;}
	.st44{fill:#C3755A;}
	.st45{fill:#9BD7DD;}
	.st46{fill:#90CAD3;}
	.st47{fill:#F7F7F7;}
	.st48{fill:#AFE6EF;}
	.st49{fill:#FFFAEB;}
	.st50{fill:#F4EFC3;}
	.st51{fill:#F9F9F9;}
	.st52{fill:#FFE5C4;}
	.st53{fill:#FFB024;}
	.st54{fill:#FFC612;}
	.st55{fill:#FFCE31;}
	.st56{fill:#A05C2D;}
	.st57{fill:#1DCAF2;}
	.st58{fill:#00B0E0;}
	.st59{fill:#F2A355;}
	.st60{fill:#D68032;}
	.st61{fill:#66625D;}
	.st62{fill:#54504D;}
	.st63{fill:#B76955;}
	.st64{fill:#EFE8B4;}
	.st65{fill:#B93226;}
	.st66{fill:#EFEABF;}
	.st67{fill:#90C056;}
	.st68{opacity:0.15;}
	.st69{fill:#E8C56D;}
	.st70{fill:#F7BE4B;}
	.st71{fill:#E0A338;}
	.st72{fill:#F68455;}
	.st73{fill:#E26F47;}
	.st74{fill:#EC754B;}
	.st75{fill:#4AA5BA;}
	.st76{opacity:0.5;}
	.st77{fill:#A0B1B5;}
	.st78{opacity:0.7;}
	.st79{fill:#00ADEE;}
	.st80{fill:#F4D4B3;}
	.st81{fill:#F9D97A;}
	.st82{fill:#EDC96E;}
	.st83{fill:none;}
	.st84{fill:#AF6535;}
	.st85{fill:#F18BB4;}
	.st86{fill:#B3E4FF;}
	.st87{fill:#97DFFF;}
	.st88{fill:#D06E3C;}
	.st89{fill:#B55931;}
	.st90{fill:#DA4F4B;}
	.st91{fill:#EFCAA8;}
	.st92{fill:#EA7CB1;}
	.st93{fill:#EA7DAE;}
	.st94{fill:#BC7646;}
	.st95{fill:#00A1C6;}
	.st96{fill:#FCC230;}
	.st97{fill:#F2EBB1;}
	.st98{fill:#F9D6AF;}
	.st99{fill:#D34735;}
	.st100{fill:#E5A21A;}
	.st101{fill:#849E33;}
	.st102{fill:#EFBB14;}
	.st103{fill:#D8402B;}
	.st104{fill:#829B34;}
	.st105{fill:#F88916;}
	.st106{fill:#E27513;}
	.st107{fill:#FFB41F;}
	.st108{fill:#8AA538;}
	.st109{fill:#BE6BB2;}
	.st110{fill:#AA5BA3;}
	.st111{fill:#FFDF66;}
	.st112{fill:#F4BA00;}
	.st113{fill:#E28529;}
	.st114{fill:#FF9945;}
	.st115{fill:#BA6C45;}
	.st116{fill:#EDBA15;}
	.st117{fill:#E0452F;}
	.st118{fill:#F7F2D5;}
	.st119{fill:#4C4E51;}
	.st120{fill:#EA615D;}
	.st121{fill:#DD4A36;}
	.st122{fill:#F6AF72;}
	.st123{fill:#E8955D;}
	.st124{fill:#E4C074;}
	.st125{fill:#EAE4C3;}
	.st126{fill:#BF3522;}
	.st127{fill:#D13E33;}
	.st128{fill:#AA5EA3;}
	.st129{fill:#DD443C;}
	.st130{fill:#AA5FA3;}
	.st131{fill:#B7C536;}
	.st132{fill:#F2872F;}
	.st133{fill:#AF5FA7;}
	.st134{fill:#E29F17;}
	.st135{fill:#FFC86E;}
	.st136{fill:#A55937;}
	.st137{fill:#D8422E;}
	.st138{fill:#C3556D;}
	.st139{fill:#B24965;}
	.st140{fill:#D1A962;}
	.st141{fill:#A3961A;}
	.st142{fill:#AFA51D;}
	.st143{fill:#968A1C;}
</style>
<g>
	<g>
		<g>
			<g>
				<g>
					<path class="st33" d="M165.1,71.4c-0.6,0.8-1.4,1.3-2.3,1.5c-0.1,0-0.3,0.1-0.4,0.1c-4.7,0.7-9.1,1.8-13.4,2.9
						c-1.2,0.3-2.3,0.6-3.5,0.9c-6.3,1.5-11.7,2.5-17.6,2.5c-6.9,0-13.1-1.4-20-3.1l-1.1-0.3c-5.9-1.5-12-3-19-3.5
						c-1-0.1-1.9-0.5-2.6-1.2c-9.8-10.4-12.2-20.2-7-29c0.6-1,1.6-1.7,2.7-1.9c1.1-0.2,2.3,0.1,3.2,0.8c8.1,6.4,16.4,8.8,25.6,7.2
						C112.7,18,124.5,2,144.9,0.7c1.5-0.1,2.9,0.6,3.7,1.9l7.7,12.6c0.8,1.2,0.8,2.8,0.1,4.1c-0.7,1.3-2.1,2-3.5,2h-0.2
						c-9.7,0-13.7,7.2-15.2,11.6c-2.4,7-1.2,13.5,0.8,15.1c1.8,1.4,3.7,2.1,6,2.1c4.6,0,10.1-2.8,15.1-7.7c1.1-1,2.6-1.4,4-1
						c1.4,0.4,2.5,1.6,2.7,3c0.3,1.3,0.5,2.5,0.8,3.7C168.6,56.5,170.3,64.4,165.1,71.4z"/>
				</g>
			</g>
		</g>
	</g>
	<g>
		<g>
			<g>
				<g>
					<path class="st36" d="M250.5,188.1c-7.7,35.3-40.6,52.1-76.1,59c-9.7,1.9-19.5,3-29.1,3.6c0,0,0,0,0,0
						c-5.6,0.3-11.1,0.5-16.4,0.5c-6.3,0-12.9-0.2-19.6-0.7c-4.4-0.3-8.9-0.8-13.3-1.4c-2.3-0.3-4.5-0.6-6.7-1c0,0,0,0,0,0
						c-37.7-6.2-73.8-22.8-81.9-60.1c-11-50.6,18.4-104.6,51.9-115.7c11.9-3.9,21.5-4.7,29.9-4.1c7.7,0.5,14.3,2.3,20.7,3.8
						c6.4,1.6,12.5,3,19.1,3c5.8,0,11.2-1.1,16.7-2.4c5.5-1.3,11-2.8,17.2-3.8l0,0c3-0.5,6.2-0.8,9.6-0.8c7.5-0.1,16,0.9,26.2,4.3
						C232.1,83.5,261.6,137.6,250.5,188.1z"/>
				</g>
			</g>
		</g>
	</g>
	<g>
		<g>
			<g>
				<g>
					<path class="st132" d="M128,255.3c-6.7,0-13.4-0.2-19.9-0.7c-4.7-0.3-9.2-0.8-13.6-1.4c-2.5-0.3-4.7-0.7-6.9-1v0
						c-0.1,0-0.1,0-0.2,0c-48.4-7.9-77.8-29.8-85-63.1C-9.3,135.2,22.2,80.2,57.1,68.7c9.2-3,17.7-4.5,26.1-4.5
						c1.8,0,3.6,0.1,5.3,0.2c7.6,0.5,14.1,2.1,20.3,3.7l1.1,0.3c6.6,1.6,12.2,2.9,18.1,2.9c5.1,0,10-0.9,15.7-2.3
						c1.1-0.3,2.3-0.6,3.4-0.8c4.4-1.1,9-2.2,14-3c0.1,0,0.1,0,0.1,0c3.5-0.5,6.8-0.8,10.1-0.9c0.5,0,0.9,0,1.4,0
						c8.4,0,16.9,1.5,26.1,4.5c34.9,11.5,66.3,66.6,54.6,120.3c-7,31.9-34.4,53.4-79.2,62.1c-9.2,1.8-19.1,3-29.4,3.7
						c-0.1,0-0.2,0-0.3,0C139.2,255.1,133.5,255.3,128,255.3z M89.1,244.3c2,0.3,4.1,0.6,6.5,0.9c4.2,0.6,8.6,1,13.1,1.3
						c11.5,0.9,23.5,0.9,35.3,0.2c0.1,0,0.2,0,0.3,0c10-0.6,19.7-1.8,28.6-3.5c28.9-5.6,65.1-19.9,72.9-55.9
						c10.7-49-18.2-100.8-49.3-111c-8.3-2.7-16-4.1-23.6-4.1c-0.4,0-0.8,0-1.3,0c-2.9,0-5.9,0.3-9,0.8c0,0-0.1,0-0.1,0
						c-4.7,0.7-9.1,1.8-13.4,2.9c-1.2,0.3-2.3,0.6-3.5,0.9c-6.3,1.5-11.7,2.5-17.6,2.5c-6.9,0-13.1-1.4-20-3.1l-1.1-0.3
						c-5.9-1.5-12-3-19-3.5c-1.6-0.1-3.2-0.2-4.8-0.2c-7.6,0-15.3,1.3-23.6,4.1c-31.1,10.2-60,62-49.3,111
						c8.2,37.8,47.3,51.8,78.7,57C89,244.3,89.1,244.3,89.1,244.3z"/>
				</g>
			</g>
		</g>
	</g>
	<g>
		<g>
			<g>
				<g>
					<path class="st132" d="M95.1,253.2c-0.1,0-0.2,0-0.3,0c-15.5-1.2-29.4-8.9-40.2-22.4c-9.8-12.2-16.7-28.4-20-46.9
						C27,141.2,40.1,85.8,86.6,64.7c2-0.9,4.4,0,5.3,2c0.9,2,0,4.4-2,5.3c-42.6,19.3-54.5,70.8-47.5,110.4
						c6.3,36.1,27.1,60.7,53,62.7c2.2,0.2,3.8,2.1,3.7,4.3C98.9,251.6,97.1,253.2,95.1,253.2z"/>
				</g>
			</g>
		</g>
	</g>
	<g>
		<g>
			<g>
				<g>
					<path class="st132" d="M164.5,252.7c-2.1,0-3.8-1.6-4-3.7c-0.2-2.2,1.5-4.1,3.7-4.3c25.9-2,46.7-26.6,53.1-62.8
						c6.9-39.5-4.9-90.8-47.5-110.1c-2-0.9-2.9-3.3-2-5.3c0.9-2,3.3-2.9,5.3-2c46.4,21,59.5,76.3,52,118.8
						c-3.3,18.5-10.2,34.8-20,46.9c-10.9,13.5-24.8,21.2-40.3,22.4C164.8,252.7,164.7,252.7,164.5,252.7z"/>
				</g>
			</g>
		</g>
	</g>
	<g>
		<g>
			<g>
				<g>
					<path class="st132" d="M108.4,254.5c-0.7,0-1.3-0.2-2-0.5c-21.1-12-31.3-71.5-27.6-119.5c1.6-21.2,7.5-57.9,28.7-66
						c2.1-0.8,4.4,0.2,5.2,2.3c0.8,2.1-0.2,4.4-2.3,5.2c-12.3,4.7-21.1,26.8-23.6,59.2c-3.7,48.6,7.8,103,23.6,111.9
						c1.9,1.1,2.6,3.5,1.5,5.5C111.1,253.8,109.8,254.5,108.4,254.5z"/>
				</g>
			</g>
		</g>
	</g>
	<g>
		<g>
			<g>
				<g>
					<path class="st132" d="M144.4,254.8c-1.4,0-2.7-0.7-3.5-2c-1.1-1.9-0.4-4.4,1.5-5.5c16.1-9.1,27.7-63.9,24-112.7
						c-2.5-32.2-10.9-53.3-23.2-58c-2.1-0.8-3.1-3.1-2.3-5.2c0.8-2.1,3.1-3.1,5.2-2.3c21,8,26.8,44.1,28.4,64.9
						c1.8,23.8,0.1,50.4-4.6,73.1c-3.7,17.6-10.7,40-23.4,47.2C145.8,254.6,145.1,254.8,144.4,254.8z"/>
				</g>
			</g>
		</g>
	</g>
</g>
</svg>
