<?xml version="1.0" encoding="utf-8"?>
<!-- Generator: Adobe Illustrator 22.1.0, SVG Export Plug-In . SVG Version: 6.00 Build 0)  -->
<svg version="1.1" id="Layer_1" xmlns="http://www.w3.org/2000/svg" xmlns:xlink="http://www.w3.org/1999/xlink" x="0px" y="0px"
	 viewBox="0 0 256 256" style="enable-background:new 0 0 256 256;" xml:space="preserve">
<style type="text/css">
	.st0{fill:#F6D67A;}
	.st1{fill:#E77CAE;}
	.st2{fill:#AC6535;}
	.st3{fill:#EB573B;}
	.st4{fill:#464646;}
	.st5{fill:#F5B31F;}
	.st6{fill:#9B592D;}
	.st7{fill:#9B5B2F;}
	.st8{fill:#E8A41A;}
	.st9{fill:#6D6E71;}
	.st10{fill:#E5A21C;}
	.st11{fill:#C66395;}
	.st12{fill:#E09F1E;}
	.st13{fill:#FFFFFF;}
	.st14{fill:#DDB95E;}
	.st15{fill:#EAC771;}
	.st16{fill:#F9F6CD;}
	.st17{fill:#009345;}
	.st18{fill:#008438;}
	.st19{fill:#EAA51B;}
	.st20{opacity:0.1;}
	.st21{fill:#FFD11D;}
	.st22{fill:#FFE37B;}
	.st23{fill:#FFA755;}
	.st24{fill:#FFEC97;}
	.st25{fill:#BC7532;}
	.st26{fill:#EFEFEF;}
	.st27{fill:#60ACF7;}
	.st28{fill:#876C6C;}
	.st29{fill:#1DDCFF;}
	.st30{fill:#BDF3FF;}
	.st31{fill:#EFCA70;}
	.st32{fill:#EFA91D;}
	.st33{fill:#8FAE3C;}
	.st34{fill:#92A5AC;}
	.st35{fill:#E8E3BA;}
	.st36{fill:#F79932;}
	.st37{fill:#F4F4F4;}
	.st38{fill:#FFDF8F;}
	.st39{fill:#EAE5B9;}
	.st40{fill:#7E9E6A;}
	.st41{fill:#94B57F;}
	.st42{fill:#9B5D8C;}
	.st43{fill:#96557A;}
	.st44{fill:#C3755A;}
	.st45{fill:#9BD7DD;}
	.st46{fill:#90CAD3;}
	.st47{fill:#F7F7F7;}
	.st48{fill:#AFE6EF;}
	.st49{fill:#FFFAEB;}
	.st50{fill:#F4EFC3;}
	.st51{fill:#F9F9F9;}
	.st52{fill:#FFE5C4;}
	.st53{fill:#FFB024;}
	.st54{fill:#FFC612;}
	.st55{fill:#FFCE31;}
	.st56{fill:#A05C2D;}
	.st57{fill:#1DCAF2;}
	.st58{fill:#00B0E0;}
	.st59{fill:#F2A355;}
	.st60{fill:#D68032;}
	.st61{fill:#66625D;}
	.st62{fill:#54504D;}
	.st63{fill:#B76955;}
	.st64{fill:#EFE8B4;}
	.st65{fill:#B93226;}
	.st66{fill:#EFEABF;}
	.st67{fill:#90C056;}
	.st68{opacity:0.15;}
	.st69{fill:#E8C56D;}
	.st70{fill:#F7BE4B;}
	.st71{fill:#E0A338;}
	.st72{fill:#F68455;}
	.st73{fill:#E26F47;}
	.st74{fill:#EC754B;}
	.st75{fill:#4AA5BA;}
	.st76{opacity:0.5;}
	.st77{fill:#A0B1B5;}
	.st78{opacity:0.7;}
	.st79{fill:#00ADEE;}
	.st80{fill:#F4D4B3;}
	.st81{fill:#F9D97A;}
	.st82{fill:#EDC96E;}
	.st83{fill:none;}
	.st84{fill:#AF6535;}
	.st85{fill:#F18BB4;}
	.st86{fill:#B3E4FF;}
	.st87{fill:#97DFFF;}
	.st88{fill:#D06E3C;}
	.st89{fill:#B55931;}
	.st90{fill:#DA4F4B;}
	.st91{fill:#EFCAA8;}
	.st92{fill:#EA7CB1;}
	.st93{fill:#EA7DAE;}
	.st94{fill:#BC7646;}
	.st95{fill:#00A1C6;}
	.st96{fill:#FCC230;}
	.st97{fill:#F2EBB1;}
	.st98{fill:#F9D6AF;}
	.st99{fill:#D34735;}
	.st100{fill:#E5A21A;}
	.st101{fill:#849E33;}
	.st102{fill:#EFBB14;}
	.st103{fill:#D8402B;}
	.st104{fill:#829B34;}
	.st105{fill:#F88916;}
	.st106{fill:#E27513;}
	.st107{fill:#FFB41F;}
	.st108{fill:#8AA538;}
	.st109{fill:#BE6BB2;}
	.st110{fill:#AA5BA3;}
	.st111{fill:#FFDF66;}
	.st112{fill:#F4BA00;}
	.st113{fill:#E28529;}
	.st114{fill:#FF9945;}
	.st115{fill:#BA6C45;}
	.st116{fill:#EDBA15;}
	.st117{fill:#E0452F;}
	.st118{fill:#F7F2D5;}
	.st119{fill:#4C4E51;}
	.st120{fill:#EA615D;}
	.st121{fill:#DD4A36;}
	.st122{fill:#F6AF72;}
	.st123{fill:#E8955D;}
	.st124{fill:#E4C074;}
	.st125{fill:#EAE4C3;}
	.st126{fill:#BF3522;}
	.st127{fill:#D13E33;}
	.st128{fill:#AA5EA3;}
	.st129{fill:#DD443C;}
	.st130{fill:#AA5FA3;}
	.st131{fill:#B7C536;}
	.st132{fill:#F2872F;}
	.st133{fill:#AF5FA7;}
	.st134{fill:#E29F17;}
	.st135{fill:#FFC86E;}
	.st136{fill:#A55937;}
	.st137{fill:#D8422E;}
	.st138{fill:#C3556D;}
	.st139{fill:#B24965;}
	.st140{fill:#D1A962;}
	.st141{fill:#A3961A;}
	.st142{fill:#AFA51D;}
	.st143{fill:#968A1C;}
</style>
<g>
	<g>
		<g>
			<g>
				<g>
					<path class="st138" d="M177.6,191.2c-10.1,24.3-34.5,40-62.2,40c-10.8,0-21.7-2.4-32.4-7.1c-5.4-2.1-11.2-3.1-17.2-3.1
						c-10.9,0-19.6,3.4-23.1,4.9c-0.3,1-0.6,2.2-1.1,3.7c0.1,2.3,1.5,4.1,3.4,6.4c1.7,2.1,3.6,4.4,4.3,7.5c0.5,2.1-0.8,4.3-3,4.8
						c-2.1,0.5-4.3-0.8-4.8-3c-0.3-1.3-1.4-2.7-2.7-4.2c-0.6-0.8-1.3-1.6-1.9-2.5c-2,2.6-4.7,5-8,6.5c-8.3,3.5-12.2,9.2-12.2,9.2
						c-0.8,1.1-2,1.8-3.3,1.8c-0.8,0-1.5-0.2-2.2-0.7c-1.8-1.2-2.3-3.7-1.1-5.5c0.2-0.3,5.2-7.6,15.7-12.2c0.8-0.4,1.6-0.8,2.3-1.4
						c-3.8,1.8-7.8,3-12.2,3.6c-0.2,0-0.4,0-0.6,0c-1.9,0-3.6-1.4-3.9-3.4c-0.3-2.2,1.2-4.2,3.3-4.6c8.3-1.3,14.9-4.7,21.3-11.1
						c0,0,0,0,0,0c-3.6,3.1-8.1,5-13.6,5.6c-0.1,0-0.3,0-0.4,0c-2,0-3.8-1.5-4-3.6c-0.2-2.2,1.4-4.2,3.5-4.4
						c5.9-0.6,12.2-2.9,15.2-15.1c-0.8-7.3-2.8-17-7.4-29.3c-10.1-29.2-8.2-55.6,5.2-74.5c10.9-15.3,29-24.5,48.4-24.5
						c17.4,0,34.1,7.1,47,20c0.3,0.3,0.6,0.7,0.8,1.1l17.2,9.9c0.1,0.1,0.3,0.2,0.4,0.3c3,2.3,6,4.8,8.7,7.3c0.1,0,0.1,0.1,0.2,0.2
						l0,0c0,0,0.1,0.1,0.1,0.1C180.7,137.5,188.2,165.7,177.6,191.2z"/>
				</g>
			</g>
		</g>
	</g>
	<g>
		<g>
			<g>
				<g>
					<path class="st139" d="M152.8,168.5c-0.2,0-0.4,0-0.6-0.1c-20.4-3.3-43.5-20.7-56.3-42.5c-9.7-16.5-12.2-33.3-7.1-47.4
						c0.8-2.1,3.1-3.1,5.1-2.4c2.1,0.8,3.1,3.1,2.4,5.1c-4.3,11.8-2,26.2,6.5,40.6c11.7,19.8,32.5,35.7,50.7,38.6
						c2.2,0.3,3.7,2.4,3.3,4.6C156.4,167.1,154.7,168.5,152.8,168.5z"/>
				</g>
			</g>
		</g>
	</g>
	<g>
		<g>
			<g>
				<g>
					<path class="st139" d="M152.8,200.5c-0.2,0-0.3,0-0.5,0c-17.8-2.3-37.4-12.3-55.1-28.1c-16.8-15.1-30.2-34.1-36.8-52.3
						c-0.8-2.1,0.3-4.4,2.4-5.1c2.1-0.7,4.4,0.3,5.1,2.4c13.2,36.5,52.2,70.9,85.3,75.1c2.2,0.3,3.7,2.3,3.5,4.5
						C156.5,199,154.8,200.5,152.8,200.5z"/>
				</g>
			</g>
		</g>
	</g>
	<g>
		<g>
			<g>
				<g>
					<path class="st139" d="M45.4,148.6c-1.6,0-3.2-1-3.8-2.7c-5.1-14.4-7.7-28.2-8.2-43.4c-0.1-2.2,1.7-4.1,3.9-4.1
						c2.2,0,4.1,1.7,4.1,3.9c0.5,14.3,3,27.3,7.8,41c0.7,2.1-0.4,4.4-2.4,5.1C46.3,148.5,45.8,148.6,45.4,148.6z"/>
				</g>
			</g>
		</g>
	</g>
	<g>
		<g>
			<g>
				<g>
					<path class="st139" d="M146.6,220.1c-29.6,0-55.7-9.8-75.7-28.5c-1.6-1.5-1.7-4-0.2-5.7c1.5-1.6,4-1.7,5.7-0.2
						c19.7,18.4,45.9,27.5,75.7,26.3c2.2-0.1,4.1,1.6,4.2,3.8c0.1,2.2-1.6,4.1-3.8,4.2C150.5,220.1,148.5,220.1,146.6,220.1z"/>
				</g>
			</g>
		</g>
	</g>
	<g>
		<g>
			<g>
				<g>
					<path class="st139" d="M64.7,213.1c-0.7,0-1.4-0.2-2.1-0.6c-18.1-11.1-30.4-27.4-36.4-48.4c-0.6-2.1,0.6-4.3,2.7-5
						c2.1-0.6,4.3,0.6,5,2.7c5.5,19.2,16.3,33.6,32.9,43.8c1.9,1.2,2.5,3.6,1.3,5.5C67.4,212.5,66.1,213.1,64.7,213.1z"/>
				</g>
			</g>
		</g>
	</g>
	<g>
		<g>
			<g>
				<g>
					<path class="st104" d="M149.5,102.8c-0.3,0-0.7,0-1-0.1c-1.3-0.4-2.4-1.4-2.8-2.7c-3-9.9-3.9-17.8-2.7-24.3
						c-7.3-6.6-9.1-14.6-5.2-23.1c-4.4-4.4-10.5-13.2-11.1-23.1c-0.5-7.3,1.9-17.8,16-26.2c0,0,0.1,0,0.1-0.1
						c3.8-2.1,7.5-3.2,11.1-3.2c5.9,0,11,2.8,14.3,7.9c4.7,7.1,5.4,17.3,2.3,28.3c3.9,0.3,7,2.4,8.5,5.9c2.3,5.3,0.5,12.6-2.8,17.9
						c2.9,3.6,4.7,8,5.4,12.7c0.2,1.3-0.3,2.7-1.3,3.6c-11,9.6-22.3,20.1-28.1,25.5C151.4,102.4,150.5,102.8,149.5,102.8z M144.6,48
						c1,0.5,1.8,1.4,2.1,2.4c0.3,1.1,0.2,2.3-0.4,3.3c-4.3,6.9-3.2,12.1,3.6,17.3c1.3,1,1.9,2.7,1.4,4.3c-1.2,4.3-1.1,9.5,0.4,16.1
						c5.8-5.4,13.7-12.6,21.7-19.6c-0.8-3.3-2.5-6.3-5-8.6c-1.6-1.5-1.7-4-0.2-5.6c3.2-3.5,4.7-9.6,3.6-12.2
						c-0.2-0.4-0.5-1.1-2.3-1.1c-1,0-2.3,0.2-3.7,0.7c-1.5,0.5-3.1,0.1-4.2-1.1c-1.1-1.2-1.3-2.8-0.7-4.3
						c5.4-12.7,3.9-22.3,0.7-27.1c-1.3-2-3.7-4.3-7.7-4.3c-2.2,0-4.6,0.7-7.2,2.1c-8,4.8-12.1,10.7-12.1,17.6
						C134.6,37.4,142.5,46.7,144.6,48z"/>
				</g>
			</g>
		</g>
	</g>
	<g>
		<g>
			<g>
				<g>
					<path class="st33" d="M178.4,73.2c-11.4,9.9-22.8,20.6-28.2,25.6c-2.8-9.1-4.1-17.6-2.1-24.7c-8.1-6.2-10.1-13.6-4.6-22.5
						c-3.7-1.7-26.6-27.8,1.9-44.9c18-10,30.4,9.5,19.8,34.4c15.2-5,13.2,11.9,6.6,19.1C175.2,63.4,177.7,67.7,178.4,73.2z"/>
				</g>
			</g>
		</g>
	</g>
	<g>
		<g>
			<g>
				<g>
					<path class="st104" d="M160,73.1c-1.6,0-3.1-1-3.7-2.5c-4.9-12.4-8.3-26.1-10-40.6c-0.3-2.2,1.3-4.2,3.5-4.4
						c2.2-0.3,4.2,1.3,4.4,3.5c1.6,13.8,4.8,26.8,9.5,38.6c0.8,2.1-0.2,4.4-2.3,5.2C161,73,160.5,73.1,160,73.1z"/>
				</g>
			</g>
		</g>
	</g>
	<g>
		<g>
			<g>
				<g>
					<path class="st104" d="M135.4,119.5c-0.8,0-1.6-0.3-2.3-0.8c-1.4-1-2-2.9-1.4-4.6c1.3-3.6,1.8-6.9,1.8-10.3
						c-0.1-8.1-6.4-15.7-14.3-25.3c-2.9-3.6-6-7.2-9-11.3c-0.9-1.3-1-3-0.3-4.3c0.8-1.4,2.3-2.2,3.8-2c19.5,1.7,31.2,16.7,35.2,33
						c6.2-5.8,16.3-15,26.1-23.7c10.1-8.8,17.9-15.2,23.2-18.9c5-3.5,10.4-5.3,15.8-5.3c6.9,0,12.7,3.2,15.7,8.5
						c1.7,3.1,3.7,9.2,0.1,18.1c7.7,0.3,13.4,3.8,15.8,9.7c2.5,5.9,0.7,13.1-4.4,18.2c-6.2,6.2-14.8,14.8-31,14.8
						c-6.8,0-14.2-1.4-22.7-4.4c-5.4-1.9-11.1-2.9-16.7-2.9c-9.7,0-18.1,2.8-23.4,5.2c-5.9,2.7-9.5,5.4-9.6,5.4
						C137.2,119.2,136.3,119.5,135.4,119.5z M124.2,72.1c0.4,0.5,0.8,0.9,1.1,1.4c8.6,10.4,16,19.4,16.2,30.3c0,1.2,0,2.4-0.1,3.5
						c0.9-0.4,1.8-0.9,2.8-1.4c0.3-0.1,0.5-0.2,0.8-0.3c0,0-0.1,0-0.1,0c-1.4-0.5-2.4-1.8-2.6-3.3C141,90.3,135,77.9,124.2,72.1z
						 M170.8,100c6.6,0,13.1,1.1,19.4,3.3c7.5,2.6,14.3,4,20.1,4c12.9,0,19.5-6.6,25.4-12.4c2.8-2.8,3.9-6.6,2.7-9.5
						c-1.6-3.9-7.2-5.6-14.5-4.3c-1.6,0.3-3.1-0.4-4-1.7c-0.9-1.3-0.9-3-0.1-4.4c4.1-6.6,5.2-12.7,3.1-16.6
						c-1.6-2.8-4.7-4.4-8.7-4.4c-3.6,0-7.6,1.4-11.2,3.9c-5.1,3.5-12.6,9.7-22.5,18.3c-11,9.6-22.3,20.1-28.1,25.5l-1.9,1.8
						C157,101.2,164,100,170.8,100z"/>
				</g>
			</g>
		</g>
	</g>
	<g>
		<g>
			<g>
				<g>
					<path class="st33" d="M238.5,97.7c-9,9-20.2,19.7-49.6,9.4c-17.6-6.2-33.3-1.9-43.1,2.5c-6.5,2.9-10.4,5.9-10.4,5.9
						c1.4-4.1,2.1-7.9,2-11.7c-0.2-12.8-12.7-23.6-24.1-39c20.3,1.7,31.1,19.8,32.9,36.9c0,0,1.2-1.1,3.2-3
						c5.4-5,16.8-15.7,28.2-25.6c8.5-7.4,17-14.5,22.9-18.6c16.8-11.7,36.5,0.1,22.5,22.5C242.6,73.6,247.4,88.7,238.5,97.7z"/>
				</g>
			</g>
		</g>
	</g>
	<g>
		<g>
			<g>
				<g>
					<path class="st104" d="M182.9,94.8c-2.1,0-3.9-1.6-4-3.8c-0.1-2.2,1.6-4.1,3.8-4.2c10.5-0.6,19.7-2.8,28.2-6.7
						c2-0.9,4.4-0.1,5.3,1.9c0.9,2,0.1,4.4-1.9,5.3c-9.4,4.4-19.5,6.8-31.1,7.5C183.1,94.8,183,94.8,182.9,94.8z"/>
				</g>
			</g>
		</g>
	</g>
</g>
</svg>
