<?xml version="1.0" encoding="utf-8"?>
<!-- Generator: Adobe Illustrator 22.1.0, SVG Export Plug-In . SVG Version: 6.00 Build 0)  -->
<svg version="1.1" id="Layer_1" xmlns="http://www.w3.org/2000/svg" xmlns:xlink="http://www.w3.org/1999/xlink" x="0px" y="0px"
	 viewBox="0 0 256 256" style="enable-background:new 0 0 256 256;" xml:space="preserve">
<style type="text/css">
	.st0{fill:#F6D67A;}
	.st1{fill:#E77CAE;}
	.st2{fill:#AC6535;}
	.st3{fill:#EB573B;}
	.st4{fill:#464646;}
	.st5{fill:#F5B31F;}
	.st6{fill:#9B592D;}
	.st7{fill:#9B5B2F;}
	.st8{fill:#E8A41A;}
	.st9{fill:#6D6E71;}
	.st10{fill:#E5A21C;}
	.st11{fill:#C66395;}
	.st12{fill:#E09F1E;}
	.st13{fill:#FFFFFF;}
	.st14{fill:#DDB95E;}
	.st15{fill:#EAC771;}
	.st16{fill:#F9F6CD;}
	.st17{fill:#009345;}
	.st18{fill:#008438;}
	.st19{fill:#EAA51B;}
	.st20{opacity:0.1;}
	.st21{fill:#FFD11D;}
	.st22{fill:#FFE37B;}
	.st23{fill:#FFA755;}
	.st24{fill:#FFEC97;}
	.st25{fill:#BC7532;}
	.st26{fill:#EFEFEF;}
	.st27{fill:#60ACF7;}
	.st28{fill:#876C6C;}
	.st29{fill:#1DDCFF;}
	.st30{fill:#BDF3FF;}
	.st31{fill:#EFCA70;}
	.st32{fill:#EFA91D;}
	.st33{fill:#8FAE3C;}
	.st34{fill:#92A5AC;}
	.st35{fill:#E8E3BA;}
	.st36{fill:#F79932;}
	.st37{fill:#F4F4F4;}
	.st38{fill:#FFDF8F;}
	.st39{fill:#EAE5B9;}
	.st40{fill:#7E9E6A;}
	.st41{fill:#94B57F;}
	.st42{fill:#9B5D8C;}
	.st43{fill:#96557A;}
	.st44{fill:#C3755A;}
	.st45{fill:#9BD7DD;}
	.st46{fill:#90CAD3;}
	.st47{fill:#F7F7F7;}
	.st48{fill:#AFE6EF;}
	.st49{fill:#FFFAEB;}
	.st50{fill:#F4EFC3;}
	.st51{fill:#F9F9F9;}
	.st52{fill:#FFE5C4;}
	.st53{fill:#FFB024;}
	.st54{fill:#FFC612;}
	.st55{fill:#FFCE31;}
	.st56{fill:#A05C2D;}
	.st57{fill:#1DCAF2;}
	.st58{fill:#00B0E0;}
	.st59{fill:#F2A355;}
	.st60{fill:#D68032;}
	.st61{fill:#66625D;}
	.st62{fill:#54504D;}
	.st63{fill:#B76955;}
	.st64{fill:#EFE8B4;}
	.st65{fill:#B93226;}
	.st66{fill:#EFEABF;}
	.st67{fill:#90C056;}
	.st68{opacity:0.15;}
	.st69{fill:#E8C56D;}
	.st70{fill:#F7BE4B;}
	.st71{fill:#E0A338;}
	.st72{fill:#F68455;}
	.st73{fill:#E26F47;}
	.st74{fill:#EC754B;}
	.st75{fill:#4AA5BA;}
	.st76{opacity:0.5;}
	.st77{fill:#A0B1B5;}
	.st78{opacity:0.7;}
	.st79{fill:#00ADEE;}
	.st80{fill:#F4D4B3;}
	.st81{fill:#F9D97A;}
	.st82{fill:#EDC96E;}
	.st83{fill:none;}
	.st84{fill:#AF6535;}
	.st85{fill:#F18BB4;}
	.st86{fill:#B3E4FF;}
	.st87{fill:#97DFFF;}
	.st88{fill:#D06E3C;}
	.st89{fill:#B55931;}
	.st90{fill:#DA4F4B;}
	.st91{fill:#EFCAA8;}
	.st92{fill:#EA7CB1;}
	.st93{fill:#EA7DAE;}
	.st94{fill:#BC7646;}
	.st95{fill:#00A1C6;}
	.st96{fill:#FCC230;}
	.st97{fill:#F2EBB1;}
	.st98{fill:#F9D6AF;}
	.st99{fill:#D34735;}
	.st100{fill:#E5A21A;}
	.st101{fill:#849E33;}
	.st102{fill:#EFBB14;}
	.st103{fill:#D8402B;}
	.st104{fill:#829B34;}
	.st105{fill:#F88916;}
	.st106{fill:#E27513;}
	.st107{fill:#FFB41F;}
	.st108{fill:#8AA538;}
	.st109{fill:#BE6BB2;}
	.st110{fill:#AA5BA3;}
	.st111{fill:#FFDF66;}
	.st112{fill:#F4BA00;}
	.st113{fill:#E28529;}
	.st114{fill:#FF9945;}
	.st115{fill:#BA6C45;}
	.st116{fill:#EDBA15;}
	.st117{fill:#E0452F;}
	.st118{fill:#F7F2D5;}
	.st119{fill:#4C4E51;}
	.st120{fill:#EA615D;}
	.st121{fill:#DD4A36;}
	.st122{fill:#F6AF72;}
	.st123{fill:#E8955D;}
	.st124{fill:#E4C074;}
	.st125{fill:#EAE4C3;}
	.st126{fill:#BF3522;}
	.st127{fill:#D13E33;}
	.st128{fill:#AA5EA3;}
	.st129{fill:#DD443C;}
	.st130{fill:#AA5FA3;}
	.st131{fill:#B7C536;}
	.st132{fill:#F2872F;}
	.st133{fill:#AF5FA7;}
	.st134{fill:#E29F17;}
	.st135{fill:#FFC86E;}
	.st136{fill:#A55937;}
	.st137{fill:#D8422E;}
	.st138{fill:#C3556D;}
	.st139{fill:#B24965;}
	.st140{fill:#D1A962;}
	.st141{fill:#A3961A;}
	.st142{fill:#AFA51D;}
	.st143{fill:#968A1C;}
</style>
<g>
	<g>
		<g>
			<g>
				<g>
					<path class="st52" d="M131.5,16v0.8c0,1.2-0.6,2.4-1.5,3.1c-5.9,4.6-13.7,12.1-17.4,21.4c-0.6,1.6-2.1,2.5-3.7,2.5
						c-0.4,0-0.8-0.1-1.2-0.2c-1.8-0.6-10.9-3.6-14.7-7.4c-3.1-3.1-2.2-9.3-0.9-14c2.2-7.7,6.9-16.5,13.8-18.2
						c1-0.2,2.2-0.4,3.3-0.4c9.3,0,19.6,8.2,20.8,9.1C131,13.6,131.5,14.8,131.5,16z"/>
				</g>
			</g>
		</g>
	</g>
	<g>
		<g>
			<g>
				<g>
					<path class="st88" d="M242.5,125.3c-0.8,1-2.1,1.5-3.3,1.4c-1.3-0.1-2.4-0.8-3.1-1.8c-2.5-3.9-4.2-6.1-5.1-7
						c-4.2,1.6-15.2,11.5-17.6,14.7c0,1.6,1.1,6.2,3.6,12.3c0.7,1.8,0.1,3.9-1.6,4.9c-3.5,2.1-6.5,3.3-9.1,3.6c-0.2,0-0.3,0-0.5,0
						c-1.3,0-2.5-0.6-3.3-1.7c-27.5-39.4-60.6-72-98.4-97c-1.2-0.8-1.8-2.1-1.8-3.5c0.1-4.3,1.1-8.7,2.8-12.9
						c4.4-11,13.2-19.5,19.9-24.7C135.3,5.6,147.3,0,151.6,0c0.2,0,0.4,0,0.7,0c0.1,0,0.3,0,0.4,0c7.4,0,30.1,14.5,50.7,32.3
						c15.7,13.6,43.3,40.6,51.9,69.5c0.3,0.5,0.5,1.1,0.6,1.8C256.1,104.9,256.7,109,242.5,125.3z"/>
				</g>
			</g>
		</g>
	</g>
	<g>
		<g>
			<g>
				<g>
					<path class="st52" d="M255.8,149.8c-1.5,7.6-21,17.3-29.4,17.3c-1.4,0-2.7-0.2-3.8-0.7c-5.4-2.2-10.3-12.6-12.8-18.6
						c-4-9.7-5.1-16.1-3.4-19c2-3.4,18.1-19.2,25.3-19.2c0.8,0,1.6,0.1,2.3,0.4c1,0.4,3.1,1.3,8.9,10.4
						C243,120.7,257.1,142.9,255.8,149.8z"/>
				</g>
			</g>
		</g>
	</g>
	<g>
		<g>
			<g>
				<g>
					<path class="st89" d="M233.4,102.9c-1.4,0-2.8-0.8-3.5-2.1c-11.3-20.6-27.6-40-48.4-57.8c-1.7-1.4-1.9-4-0.4-5.6
						c1.4-1.7,4-1.9,5.6-0.4c21.6,18.4,38.5,38.6,50.3,60c1.1,1.9,0.4,4.4-1.6,5.4C234.7,102.8,234,102.9,233.4,102.9z"/>
				</g>
			</g>
		</g>
	</g>
	<g>
		<g>
			<g>
				<g>
					<path class="st52" d="M87.2,62.6c0,1.2-0.6,2.4-1.5,3.1c-7.8,6.1-14.4,14.5-19.6,25.1c-0.5,1-1.4,1.8-2.6,2.1
						c-0.3,0.1-0.7,0.1-1,0.1c-0.8,0-1.6-0.2-2.2-0.7c-12.1-8.2-15-11.9-16.2-13.9c-3-5.2,0.6-12.9,3-17c3.8-6.5,10-13.4,16.3-13.4
						c5.6,0,12.9,3.7,22.4,11.4C86.7,60.3,87.3,61.4,87.2,62.6z"/>
				</g>
			</g>
		</g>
	</g>
	<g>
		<g>
			<g>
				<g>
					<path class="st52" d="M44.3,107.6c0,1.4-0.7,2.8-1.9,3.5c-9.4,5.9-17.5,13.9-22.8,22.6c-0.8,1.2-2.1,1.9-3.4,1.9
						c-0.5,0-1-0.1-1.5-0.3c-8.3-3.4-10.9-5.5-12.2-6.8c-4.4-4.4-1.8-14.3-0.4-18.4c1.4-4.2,5.3-14.2,12.3-15.3
						c0.7-0.1,1.4-0.2,2.1-0.2c5.6,0,14.1,3.1,25.8,9.4C43.5,104.9,44.3,106.2,44.3,107.6z"/>
				</g>
			</g>
		</g>
	</g>
	<g>
		<g>
			<g>
				<g>
					<path class="st88" d="M160.4,200.4c-3,5.3-6.3,10.3-9.7,15c-0.8,1.1-2.1,1.6-3.4,1.6c-1.3,0-2.5-0.8-3.2-1.9
						c-3.6-5.7-5.8-8.3-6.8-9.2c-4.1,1-16,12.4-17.6,16.2c0,1.7,2,7.7,5.9,15c0.9,1.7,0.5,3.9-1.1,5.1c-5.3,4.1-11,7.8-16.9,11
						c-0.6,0.3-1.3,0.5-1.9,0.5c-1.4,0-2.7-0.7-3.4-1.9c-25.4-42-57.5-74.2-95.5-95.7c-1.4-0.8-2.2-2.3-2-3.9
						c0.8-7.6,3.5-15.2,8-22.6c6-9.8,15-18.8,25.4-25.3c6.1-3.8,12.5-6.6,18.6-8.2c1.1-0.3,2.2-0.1,3.2,0.5
						c39.3,25.2,72.1,57.8,100.3,99.6C161.1,197.5,161.2,199.1,160.4,200.4z"/>
				</g>
			</g>
		</g>
	</g>
	<g>
		<g>
			<g>
				<g>
					<path class="st89" d="M209.2,151.7l-1.2,1.8c-3.1,4.6-6.9,10.4-11.4,16.3c-0.8,1.1-2.1,1.7-3.5,1.6c-1.3-0.1-2.6-0.9-3.2-2
						c-2.3-4.1-3.9-6.6-4.9-7.9c-5.3,2.8-18.5,14.3-19.9,17.7c-0.1,1.1,0.8,5.6,4.6,12.5c1,1.8,0.4,4.2-1.4,5.3
						c-3.2,2-6.5,3.8-9.9,5.2c-0.5,0.2-1,0.3-1.6,0.3c-1.3,0-2.6-0.6-3.3-1.8c-27.5-40.8-59.6-72.7-97.9-97.3c-1.6-1-2.2-3-1.6-4.8
						c1.5-3.9,3.1-7.7,4.8-11.3C64.7,75.7,72,66.3,80.8,59.5c7.2-5.6,15.4-9.6,24.6-11.9c1.1-0.3,2.2-0.1,3.2,0.5
						c38.7,25.5,72.5,58.9,100.6,99.1C210.1,148.5,210.1,150.3,209.2,151.7z"/>
				</g>
			</g>
		</g>
	</g>
	<g>
		<g>
			<g>
				<g>
					<path class="st52" d="M163,242.5c-2.6,7.2-19.5,13.5-28.4,13.5c-2.5,0-4.5-0.5-6-1.4c-3.6-2.2-7.5-8.6-10.1-13.6
						c-2.5-4.6-8-15.9-6.6-20.9c1.6-5.6,17.9-22.2,25.8-22.2c0.9,0,1.7,0.2,2.5,0.5c1,0.4,3.8,1.6,10.7,12.6
						C153.4,214.9,165.7,235.2,163,242.5z"/>
				</g>
			</g>
		</g>
	</g>
	<g>
		<g>
			<g>
				<g>
					<path class="st52" d="M209,197.1c-2.5,6.9-20.8,14.6-29,14.6c-0.8,0-1.6-0.1-2.3-0.2c-6.3-1.2-12.5-11.6-14.9-16
						c-2.7-5-6.9-14-5.1-19c2.3-6.2,22.2-23.6,28.3-23.6c0.5,0,1.1,0.1,1.6,0.2c1.3,0.4,3,1,9.4,12.2c3.2,5.6,6.4,12.1,8.7,17.3
						C209.9,192.7,209.6,195.4,209,197.1z"/>
				</g>
			</g>
		</g>
	</g>
	<g>
		<g>
			<g>
				<g>
					<path class="st89" d="M79.1,136.9c-1,0-2-0.4-2.8-1.1c-7.7-7.3-14.9-12.6-22-16c-2-1-2.8-3.3-1.9-5.3c1-2,3.3-2.8,5.3-1.9
						c7.9,3.8,15.8,9.5,24.1,17.4c1.6,1.5,1.6,4.1,0.1,5.7C81.2,136.5,80.2,136.9,79.1,136.9z"/>
				</g>
			</g>
		</g>
	</g>
	<g>
		<g>
			<g>
				<g>
					<path class="st88" d="M183.2,147.7c-1.3,0-2.5-0.6-3.3-1.7c-10.5-15-23.5-29.6-38.7-43.3c-1.6-1.5-1.8-4-0.3-5.6
						c1.5-1.6,4-1.8,5.6-0.3c15.6,14.1,29.1,29.1,39.9,44.6c1.3,1.8,0.8,4.3-1,5.6C184.7,147.5,183.9,147.7,183.2,147.7z"/>
				</g>
			</g>
		</g>
	</g>
</g>
</svg>
