<svg id="Capa_1" enable-background="new 0 0 512.002 512.002" height="512" viewBox="0 0 512.002 512.002" width="512" xmlns="http://www.w3.org/2000/svg"><g><g><g><g><path d="m305.647 196.747c-7.262 14.169 5.027 35.437 1.199 49.529-4.249 15.644-25.277 28.345-25.4 42.646-.143 16.662 20.963 28.404 26.258 41.311 6.202 15.119 2.812 39.139 16.214 46.009 13.403 6.869 30.922-9.91 46.818-13.704 13.569-3.239 35.425 7.039 48.867-2.807 11.537-8.45 9.568-32.937 19.786-45.521 9.205-11.337 33.647-13.781 40.909-27.951 7.262-14.169-5.027-35.437-1.199-49.529 4.249-15.644 25.277-28.345 25.4-42.646.143-16.662-20.963-28.404-26.258-41.311-6.202-15.119-2.812-39.139-16.214-46.009-13.403-6.869-30.922 9.91-46.818 13.704-13.569 3.239-35.425-7.039-48.867 2.807-11.537 8.45-9.568 32.937-19.786 45.521-9.205 11.337-33.646 13.781-40.909 27.951z" fill="#b3e59f"/></g><g fill="#95d6a4"><path d="m479.1 236.728c4.249-15.644 25.277-28.345 25.4-42.646.143-16.662-20.963-28.404-26.258-41.311-6.202-15.12-2.812-39.14-16.214-46.009-7.417-3.801-16.096-.358-25.061 4.116 7.661 9.697 5.994 29.018 11.275 41.893 5.295 12.906 26.401 24.648 26.258 41.311-.123 14.301-21.151 27.001-25.4 42.646-3.828 14.093 8.461 35.36 1.199 49.529-7.262 14.17-31.703 16.614-40.909 27.951-10.218 12.584-8.25 37.071-19.786 45.521-1.538 1.127-3.191 1.979-4.925 2.629 11.941 1.287 25.5 4.274 34.925-2.629 11.537-8.45 9.568-32.937 19.786-45.521 9.205-11.337 33.646-13.781 40.909-27.951 7.262-14.168-5.027-35.436-1.199-49.529z"/><path d="m340.736 362.537c-7.099 1.695-14.522 5.977-21.757 9.588 1.336 1.691 2.949 3.097 4.939 4.116 12.274 6.291 27.999-7.244 42.769-12.484-9.322-.875-18.79-2.929-25.951-1.22z"/></g></g><g><g><path d="m387.445 151.53c7.849 15.316-5.433 38.304-1.296 53.537 4.593 16.91 27.322 30.639 27.455 46.096.155 18.01-22.659 30.702-28.382 44.653-6.704 16.343-3.039 42.306-17.526 49.731s-33.424-10.712-50.607-14.813c-14.667-3.501-38.292 7.608-52.821-3.034-12.47-9.134-10.342-35.602-21.387-49.205-9.95-12.254-36.369-14.896-44.219-30.213-7.849-15.316 5.433-38.304 1.296-53.537-4.593-16.91-27.322-30.639-27.455-46.096-.155-18.01 22.659-30.702 28.382-44.653 6.704-16.343 3.039-42.306 17.526-49.731s33.424 10.712 50.607 14.813c14.667 3.501 38.292-7.608 52.821 3.034 12.47 9.134 10.342 35.602 21.387 49.205 9.95 12.255 36.369 14.897 44.219 30.213z" fill="#b3e59f"/></g><g><path d="m254.017 99.079c14.667 3.501 38.292-7.608 52.821 3.034 12.47 9.134 10.342 35.602 21.387 49.205 9.95 12.254 36.369 14.896 44.219 30.213 7.849 15.315-5.433 38.304-1.296 53.537 4.335 15.959 24.814 29.086 27.216 43.505 7.594-8.196 15.33-16.896 15.239-27.409-.133-15.458-22.862-29.186-27.455-46.096-4.137-15.232 9.145-38.221 1.296-53.537-7.85-15.316-34.269-17.958-44.219-30.213-11.045-13.603-8.917-40.071-21.387-49.205-14.53-10.643-38.155.467-52.821-3.034-17.182-4.101-36.119-22.238-50.607-14.813-9.143 4.686-11.056 16.755-12.908 29.13 14.19-4.851 32.147 11.776 48.515 15.683z" fill="#95d6a4"/></g><g><path d="m222.445 106.53c7.849 15.316-5.433 38.304-1.296 53.537 4.593 16.91 27.322 30.639 27.455 46.096.155 18.01-22.659 30.702-28.382 44.653-6.704 16.343-3.039 42.306-17.526 49.731s-33.424-10.712-50.607-14.813c-14.667-3.501-38.292 7.608-52.821-3.034-12.47-9.134-10.342-35.602-21.387-49.205-9.95-12.254-36.369-14.896-44.219-30.213-7.849-15.316 5.433-38.304 1.296-53.537-4.593-16.91-27.322-30.639-27.455-46.096-.156-18.009 22.658-30.701 28.381-44.652 6.704-16.343 3.039-42.307 17.526-49.731 14.487-7.425 33.424 10.712 50.607 14.813 14.667 3.501 38.292-7.608 52.821 3.034 12.47 9.134 10.342 35.602 21.387 49.205 9.951 12.254 36.37 14.896 44.22 30.212z" fill="#b3e59f"/></g><path d="m221.149 160.067c-4.137-15.232 9.145-38.221 1.296-53.537-7.85-15.316-34.269-17.958-44.219-30.213-11.045-13.603-8.917-40.071-21.387-49.205-14.53-10.643-38.155.467-52.821-3.034-17.183-4.101-36.12-22.237-50.608-14.812-5.787 2.966-8.674 8.894-10.486 15.981 10.12 4.049 20.914 11.403 31.093 13.832 14.667 3.501 38.292-7.608 52.821 3.034 12.47 9.134 10.342 35.602 21.387 49.205 9.95 12.254 36.369 14.896 44.219 30.213 7.849 15.315-5.433 38.304-1.296 53.537 4.593 16.91 27.322 30.639 27.455 46.096.155 18.01-22.659 30.703-28.382 44.653-4.026 9.815-4.316 23.095-7.04 33.75 6.964 2.786 13.609 4.007 19.514.981 14.487-7.425 10.822-33.388 17.526-49.731 5.723-13.951 28.537-26.643 28.382-44.653-.132-15.459-22.861-29.187-27.454-46.097z" fill="#95d6a4"/></g><g><circle cx="248.605" cy="229" fill="#e17f85" r="56.5"/><circle cx="301.001" cy="229" fill="#e17f85" r="56.5"/><g fill="#de646e"><path d="m301.001 172.5c-5.196 0-10.221.715-15 2.028 23.921 6.573 41.5 28.463 41.5 54.472s-17.579 47.898-41.5 54.472c4.779 1.313 9.804 2.028 15 2.028 31.204 0 56.5-25.296 56.5-56.5s-25.296-56.5-56.5-56.5z"/><path d="m248.605 172.5c-5.196 0-10.221.715-15 2.028 23.921 6.573 41.5 28.463 41.5 54.472s-17.579 47.898-41.5 54.472c4.779 1.313 9.804 2.028 15 2.028 31.204 0 56.5-25.296 56.5-56.5s-25.296-56.5-56.5-56.5z"/></g></g><g><path d="m373.585 417.915v41.981c0 24.64-19.973 44.604-44.601 44.604h-145.966c-24.628 0-44.601-19.964-44.601-44.604v-41.981z" fill="#cbe2ff"/><path d="m343.585 417.915v41.98c0 24.64-19.973 44.604-44.601 44.604h30c24.628 0 44.601-19.964 44.601-44.604v-41.98z" fill="#bed8fb"/><path d="m494.481 258.373c5.728 0 10.331 4.801 10.004 10.52-2.625 45.981-22.347 87.379-52.901 117.935-32.877 32.87-78.289 53.204-128.446 53.204h-134.273c-96.784 0-175.898-75.704-181.347-171.139-.327-5.719 4.276-10.52 10.004-10.52z" fill="#ecf4ff"/><path d="m494.48 258.373h-30c5.728 0 10.331 4.801 10.004 10.52-2.625 45.981-22.347 87.378-52.901 117.935-32.877 32.87-78.289 53.204-128.446 53.204h30c50.157 0 95.569-20.334 128.446-53.204 30.554-30.557 50.276-71.954 52.901-117.935.327-5.719-4.275-10.52-10.004-10.52z" fill="#ddeafb"/></g></g><path d="m494.48 250.873h-7.86c-.762-4.609-1.156-8.956-.281-12.178 1.537-5.661 6.594-11.662 11.484-17.465 6.928-8.22 14.091-16.719 14.178-27.087.109-13.05-8.9-22.76-16.85-31.327-4.315-4.651-8.392-9.044-9.971-12.892-1.893-4.615-2.825-10.849-3.727-16.877-1.879-12.568-4.009-26.812-16.003-32.962-12.007-6.147-24.815.444-36.12 6.262-5.416 2.788-11.018 5.67-15.861 6.829-3.615.862-8.993.322-13.751-.253-4.107-.497-7.849 2.434-8.346 6.546-.496 4.112 2.435 7.849 6.547 8.345 6.325.765 13.008 1.389 19.035-.049 6.61-1.581 13.031-4.885 19.24-8.081 8.88-4.57 17.267-8.887 22.414-6.25 5.14 2.635 6.534 11.959 8.01 21.832 1.033 6.911 2.103 14.057 4.684 20.353 2.612 6.364 7.818 11.974 12.854 17.4 6.344 6.838 12.904 13.909 12.845 20.999-.041 4.962-5.434 11.36-10.647 17.547-5.941 7.05-12.084 14.339-14.49 23.2-1.39 5.118-1.162 10.674-.41 16.109h-50.364c-.118-6.587-2.952-12.497-6.806-18.075 5.037-13.958 9.511-28.321 13.302-42.765 1.052-4.006-1.344-8.106-5.35-9.158-4.009-1.051-8.106 1.345-9.158 5.351-2.893 11.021-6.197 21.993-9.851 32.764-4.384-5.302-8.428-10.694-9.838-15.886-1.395-5.133.049-12.515 1.577-20.33 2.189-11.198 4.671-23.89-.85-34.665-5.523-10.778-17.282-16.176-27.657-20.939-7.233-3.321-14.065-6.458-17.414-10.575-4.077-5.027-6.166-13.315-8.186-21.331-2.812-11.163-5.721-22.706-14.588-29.206-11.188-8.192-25.271-6.429-37.694-4.875-6.86.859-13.338 1.671-17.816.601-5.319-1.269-11.412-4.403-17.305-7.435-12.083-6.216-25.774-13.262-38.466-6.755-12.047 6.174-14.709 20.219-16.667 33.126-6.019-2.811-11.419-5.611-14.278-9.126-4.077-5.027-6.166-13.315-8.186-21.331-2.812-11.163-5.721-22.706-14.588-29.206-11.188-8.192-25.271-6.429-37.694-4.875-6.858.859-13.337 1.669-17.816.601-5.319-1.269-11.412-4.403-17.305-7.435-12.082-6.214-25.775-13.258-38.463-6.755-12.691 6.499-14.97 21.729-16.979 35.167-.98 6.555-1.995 13.332-4.072 18.394-1.746 4.26-6.188 9.047-10.892 14.116-8.514 9.176-18.164 19.577-18.049 33.442.093 10.993 7.767 20.098 15.188 28.903 5.327 6.321 10.836 12.857 12.533 19.097 1.39 5.126-.054 12.505-1.582 20.316-2.192 11.203-4.677 23.901.846 34.671 5.521 10.775 17.276 16.173 27.648 20.936 7.236 3.323 14.072 6.462 17.426 10.594 2.594 3.192 4.381 7.713 5.859 12.643h-60.397c-9.892-.055-18.054 8.583-17.491 18.448 1.578 27.65 8.994 54.005 22.041 78.331 1.958 3.651 6.505 5.024 10.154 3.064 3.65-1.958 5.022-6.504 3.064-10.154-12.006-22.387-18.831-46.644-20.285-72.098-.087-1.524.879-2.54 2.517-2.592h476.958c1.654.059 2.603 1.063 2.516 2.593-2.434 42.634-20.444 82.785-50.715 113.059-33.582 33.585-76.377 50.884-123.144 51.008h-134.273c-52.747-.012-101.36-22.848-135.057-64.204-2.616-3.211-7.34-3.695-10.552-1.075-3.211 2.617-3.692 7.341-1.075 10.552 23.496 28.827 54.336 49.646 88.74 60.685v21.41c0 28.728 23.372 52.1 52.1 52.1h145.961c28.728 0 52.1-23.372 52.1-52.1v-21.379c28.279-9.063 54.196-24.786 75.807-46.391 32.878-32.881 52.44-76.495 55.084-122.809.563-9.866-7.653-18.498-17.492-18.448zm-319.16 0c-18.722-28.327-34.69-58.422-47.472-89.525-8.778-21.344-16.217-43.562-22.111-66.04-1.052-4.007-5.151-6.402-9.157-5.353-4.007 1.051-6.403 5.15-5.353 9.157 6.063 23.122 13.717 45.98 22.747 67.939 11.913 28.986 26.507 57.123 43.464 83.822h-63.936c-2.111-7.959-4.7-15.827-9.798-22.1-5.557-6.846-14.327-10.874-22.81-14.769-8.558-3.93-17.406-7.993-20.56-14.147-3.152-6.147-1.282-15.705.526-24.948 1.791-9.155 3.644-18.621 1.337-27.128-2.568-9.441-9.162-17.265-15.54-24.832-5.708-6.773-11.61-13.777-11.657-19.362-.066-7.905 7.107-15.637 14.045-23.114 5.405-5.826 10.995-11.851 13.773-18.625 2.766-6.74 3.916-14.43 5.029-21.868 1.619-10.824 3.148-21.047 8.984-24.036 5.839-2.992 15.027 1.738 24.761 6.745 6.687 3.44 13.602 6.997 20.686 8.687 7.119 1.7 15.275.679 23.161-.307 10.122-1.267 20.591-2.577 26.967 2.091 4.506 3.303 6.743 12.183 8.907 20.77 2.417 9.595 4.917 19.517 11.087 27.123 5.558 6.836 14.323 10.86 22.8 14.751 8.561 3.93 17.412 7.994 20.565 14.147 3.152 6.152 1.284 15.707-.522 24.946-1.791 9.16-3.643 18.631-1.333 27.132 1.025 3.791 2.732 7.312 4.651 10.481-20.188 10.778-33.961 32.053-33.961 56.491 0 7.503 1.319 14.901 3.853 21.873h-13.133zm117.127 0h-87.693c-3.378-6.763-5.154-14.245-5.154-21.873 0-27.019 21.981-49 49-49s49 21.981 49 49c.001 7.629-1.776 15.111-5.153 21.873zm52.4 0h-36.099c2.534-6.972 3.852-14.369 3.852-21.873 0-19.075-8.398-36.216-21.68-47.952 3.28-.684 6.642-1.048 10.08-1.048 27.019 0 49 21.981 49 49 .001 7.629-1.775 15.111-5.153 21.873zm16.301 0c2.534-6.972 3.853-14.369 3.853-21.873 0-35.29-28.71-64-64-64-9.049 0-18.044 1.932-26.24 5.613-7.993-3.595-16.843-5.613-26.16-5.613-5.438 0-10.719.687-15.764 1.969-1.885-2.75-3.62-5.807-4.448-8.866-1.395-5.133.049-12.515 1.577-20.33 2.189-11.198 4.671-23.89-.85-34.665-3.604-7.032-9.865-11.767-16.66-15.536 1.624-10.67 3.085-23.406 9.377-26.629 5.839-2.991 15.027 1.738 24.761 6.745 6.687 3.44 13.602 6.997 20.686 8.687 7.12 1.7 15.274.679 23.161-.307 10.122-1.267 20.591-2.576 26.967 2.091 4.506 3.304 6.743 12.183 8.907 20.77 2.417 9.595 4.917 19.517 11.087 27.123 5.558 6.836 14.323 10.86 22.8 14.751 8.561 3.93 17.412 7.994 20.565 14.147 3.152 6.152 1.284 15.707-.522 24.946-1.791 9.16-3.643 18.631-1.331 27.139 2.564 9.447 9.16 17.274 15.539 24.843 5.587 6.629 11.345 13.477 11.624 18.995zm4.933 209.027c0 20.457-16.643 37.1-37.1 37.1h-145.96c-20.457 0-37.1-16.643-37.1-37.1v-17.275c13.923 3.228 28.312 4.907 42.943 4.907h134.273c14.64 0 29.023-1.663 42.943-4.88v17.248z"/></g></svg>