<?xml version="1.0" encoding="utf-8"?>
<!-- Generator: Adobe Illustrator 22.1.0, SVG Export Plug-In . SVG Version: 6.00 Build 0)  -->
<svg version="1.1" id="Layer_1" xmlns="http://www.w3.org/2000/svg" xmlns:xlink="http://www.w3.org/1999/xlink" x="0px" y="0px"
	 viewBox="0 0 256 256" style="enable-background:new 0 0 256 256;" xml:space="preserve">
<style type="text/css">
	.st0{fill:#F6D67A;}
	.st1{fill:#E77CAE;}
	.st2{fill:#AC6535;}
	.st3{fill:#EB573B;}
	.st4{fill:#464646;}
	.st5{fill:#F5B31F;}
	.st6{fill:#9B592D;}
	.st7{fill:#9B5B2F;}
	.st8{fill:#E8A41A;}
	.st9{fill:#6D6E71;}
	.st10{fill:#E5A21C;}
	.st11{fill:#C66395;}
	.st12{fill:#E09F1E;}
	.st13{fill:#FFFFFF;}
	.st14{fill:#DDB95E;}
	.st15{fill:#EAC771;}
	.st16{fill:#F9F6CD;}
	.st17{fill:#009345;}
	.st18{fill:#008438;}
	.st19{fill:#EAA51B;}
	.st20{opacity:0.1;}
	.st21{fill:#FFD11D;}
	.st22{fill:#FFE37B;}
	.st23{fill:#FFA755;}
	.st24{fill:#FFEC97;}
	.st25{fill:#BC7532;}
	.st26{fill:#EFEFEF;}
	.st27{fill:#60ACF7;}
	.st28{fill:#876C6C;}
	.st29{fill:#1DDCFF;}
	.st30{fill:#BDF3FF;}
	.st31{fill:#EFCA70;}
	.st32{fill:#EFA91D;}
	.st33{fill:#8FAE3C;}
	.st34{fill:#92A5AC;}
	.st35{fill:#E8E3BA;}
	.st36{fill:#F79932;}
	.st37{fill:#F4F4F4;}
	.st38{fill:#FFDF8F;}
	.st39{fill:#EAE5B9;}
	.st40{fill:#7E9E6A;}
	.st41{fill:#94B57F;}
	.st42{fill:#9B5D8C;}
	.st43{fill:#96557A;}
	.st44{fill:#C3755A;}
	.st45{fill:#9BD7DD;}
	.st46{fill:#90CAD3;}
	.st47{fill:#F7F7F7;}
	.st48{fill:#AFE6EF;}
	.st49{fill:#FFFAEB;}
	.st50{fill:#F4EFC3;}
	.st51{fill:#F9F9F9;}
	.st52{fill:#FFE5C4;}
	.st53{fill:#FFB024;}
	.st54{fill:#FFC612;}
	.st55{fill:#FFCE31;}
	.st56{fill:#A05C2D;}
	.st57{fill:#1DCAF2;}
	.st58{fill:#00B0E0;}
	.st59{fill:#F2A355;}
	.st60{fill:#D68032;}
	.st61{fill:#66625D;}
	.st62{fill:#54504D;}
	.st63{fill:#B76955;}
	.st64{fill:#EFE8B4;}
	.st65{fill:#B93226;}
	.st66{fill:#EFEABF;}
	.st67{fill:#90C056;}
	.st68{opacity:0.15;}
	.st69{fill:#E8C56D;}
	.st70{fill:#F7BE4B;}
	.st71{fill:#E0A338;}
	.st72{fill:#F68455;}
	.st73{fill:#E26F47;}
	.st74{fill:#EC754B;}
	.st75{fill:#4AA5BA;}
	.st76{opacity:0.5;}
	.st77{fill:#A0B1B5;}
	.st78{opacity:0.7;}
	.st79{fill:#00ADEE;}
	.st80{fill:#F4D4B3;}
	.st81{fill:#F9D97A;}
	.st82{fill:#EDC96E;}
	.st83{fill:none;}
	.st84{fill:#AF6535;}
	.st85{fill:#F18BB4;}
	.st86{fill:#B3E4FF;}
	.st87{fill:#97DFFF;}
	.st88{fill:#D06E3C;}
	.st89{fill:#B55931;}
	.st90{fill:#DA4F4B;}
	.st91{fill:#EFCAA8;}
	.st92{fill:#EA7CB1;}
	.st93{fill:#EA7DAE;}
	.st94{fill:#BC7646;}
	.st95{fill:#00A1C6;}
	.st96{fill:#FCC230;}
	.st97{fill:#F2EBB1;}
	.st98{fill:#F9D6AF;}
	.st99{fill:#D34735;}
	.st100{fill:#E5A21A;}
	.st101{fill:#849E33;}
	.st102{fill:#EFBB14;}
	.st103{fill:#D8402B;}
	.st104{fill:#829B34;}
	.st105{fill:#F88916;}
	.st106{fill:#E27513;}
	.st107{fill:#FFB41F;}
	.st108{fill:#8AA538;}
	.st109{fill:#BE6BB2;}
	.st110{fill:#AA5BA3;}
	.st111{fill:#FFDF66;}
	.st112{fill:#F4BA00;}
	.st113{fill:#E28529;}
	.st114{fill:#FF9945;}
	.st115{fill:#BA6C45;}
	.st116{fill:#EDBA15;}
	.st117{fill:#E0452F;}
	.st118{fill:#F7F2D5;}
	.st119{fill:#4C4E51;}
	.st120{fill:#EA615D;}
	.st121{fill:#DD4A36;}
	.st122{fill:#F6AF72;}
	.st123{fill:#E8955D;}
	.st124{fill:#E4C074;}
	.st125{fill:#EAE4C3;}
	.st126{fill:#BF3522;}
	.st127{fill:#D13E33;}
	.st128{fill:#AA5EA3;}
	.st129{fill:#DD443C;}
	.st130{fill:#AA5FA3;}
	.st131{fill:#B7C536;}
	.st132{fill:#F2872F;}
	.st133{fill:#AF5FA7;}
	.st134{fill:#E29F17;}
	.st135{fill:#FFC86E;}
	.st136{fill:#A55937;}
	.st137{fill:#D8422E;}
	.st138{fill:#C3556D;}
	.st139{fill:#B24965;}
	.st140{fill:#D1A962;}
	.st141{fill:#A3961A;}
	.st142{fill:#AFA51D;}
	.st143{fill:#968A1C;}
</style>
<g>
	<g>
		<g>
			<g>
				<g>
					<g>
						<path class="st52" d="M228.7,27.4C211,9.8,186,0.1,158.1,0.1c-36,0-71.1,16-98.7,45.2C27,79.5,6.4,130.6,0,192.8
							c-0.2,1.6,0.6,3.1,2,3.9c1.4,0.8,3.1,0.7,4.4-0.3c25.9-19.8,74-56.8,96.8-56.8c3.4,0,5.9,0.8,7.6,2.6l3,3
							c3.3,3.3,6.3,13.5-11.6,43.9c-12.3,21-29.8,43.7-42.6,60.4c-1,1.3-1.1,3-0.3,4.4c0.7,1.3,2.1,2.1,3.5,2.1c0.1,0,0.3,0,0.4,0
							c50.8-5.2,93.3-19.3,126.3-42.1c28.5-19.6,49-45.3,59.3-74.3C263.4,98.3,255.5,54.3,228.7,27.4z M119.5,139.5l-3-3
							c-3.3-3.3-7.7-4.9-13.3-4.9c-19.2,0-51,20.8-77.7,40.3C33.1,88.8,86.8,29.9,144.9,24.1c11.3-1.1,25.4,3.1,33,6.2
							c7.5,3.1,30.2,15.2,6.1,36.6c-2.8,2.4-5.2,4.6-7.5,6.6c-11.1,9.8-16.1,14.3-18.3,16.2l-0.3,0.2c-0.8-0.4-1.7-0.8-2.6-1.1
							c-8.4-2.8-19.1,0.1-26.9,7.9c-9.4,9.3-11.5,22.7-5.7,31.4c0.7,1,1.4,2,2.3,2.8c8.5,8.5,23.9,7,34.3-3.4
							c7.6-7.6,10.4-17.7,8.2-25.9c-0.2-0.7-0.4-1.5-0.7-2.2l0.6-0.7c2-2.2,6.4-7.3,16.2-18.3c2-2.2,4.2-4.7,6.6-7.5
							c21.5-24.2,33.5-1.5,36.6,6.1c3.1,7.5,7.3,21.6,6.2,32.9c-5.8,58.1-66.2,111.5-149.6,119C112.7,191.3,134.6,154.7,119.5,139.5
							z"/>
					</g>
				</g>
			</g>
		</g>
	</g>
	<g>
		<g>
			<g>
				<g>
					<g>
						<path class="st72" d="M233,112.1c-5.9,59.3-68.8,113.7-154.9,119.4c8.4-11.2,17.1-23.6,24.5-35.5c14.2-23,23.2-44.5,14-53.8
							l-3-3c-9.1-9.1-30.4-0.4-53.3,13.7c-11.8,7.2-24.1,15.9-35.3,24.2C30.8,91.2,85.6,30,144.9,24.1c11.3-1.1,25.4,3.1,33,6.2
							c7.5,3.1,30.3,15.2,6.1,36.6c-2.7,2.4-5.2,4.6-7.5,6.6c-11.1,9.8-16.1,14.3-18.3,16.2l-0.3,0.2c-0.8-0.4-1.7-0.8-2.6-1.1
							c-8.4-2.7-19.1,0.1-26.9,7.9c-9.4,9.3-11.6,22.7-5.7,31.4c0.7,1,1.4,1.9,2.3,2.8c8.5,8.5,23.9,7,34.3-3.4
							c7.6-7.5,10.4-17.7,8.2-25.9c-0.2-0.7-0.4-1.5-0.7-2.2l0.6-0.7c2-2.2,6.5-7.3,16.2-18.3c2-2.2,4.2-4.7,6.6-7.5
							c21.5-24.1,33.5-1.4,36.6,6.1C229.9,86.7,234.1,100.8,233,112.1z"/>
					</g>
				</g>
			</g>
		</g>
		<g>
			<g>
				<g>
					<g>
						<path class="st72" d="M78.1,235.5c-1.5,0-2.8-0.8-3.5-2.1c-0.7-1.4-0.6-3,0.3-4.3C85,215.6,93,204.1,99.2,194
							c21.1-34.1,18.2-45.2,14.6-48.8l-3-3c-1.7-1.7-4.2-2.6-7.6-2.6c-8.8,0-22.5,5.7-40.7,16.8c-10,6.1-21.4,14-35,24
							c-1.3,0.9-2.9,1-4.3,0.3c-1.4-0.7-2.2-2.2-2.1-3.8c2.7-41.4,17.2-80,40.7-108.9c22.7-27.9,52.1-44.9,82.7-48
							c1.4-0.1,2.9-0.2,4.4-0.2c10.6,0,22.7,3.4,30.5,6.7c5.1,2.1,17.3,8.2,19.2,19.3c1.3,7.7-2.7,15.8-11.9,24
							c-2.8,2.4-5.2,4.6-7.5,6.6l-18.5,16.4c-1.2,1.1-3,1.4-4.5,0.6c-0.7-0.3-1.3-0.6-2-0.8c-1.7-0.6-3.5-0.8-5.4-0.8
							c-6.1,0-12.5,2.8-17.4,7.8c-7.8,7.8-10,19.1-5.2,26.4c0.5,0.8,1.1,1.5,1.8,2.2c2.8,2.8,6.7,4.3,11.2,4.3
							c6.2,0,12.5-2.8,17.5-7.8c6.3-6.3,9.1-14.9,7.2-22.1c-0.2-0.6-0.4-1.2-0.6-1.7c-0.6-1.4-0.3-3,0.7-4.1l2.6-2.9l20.9-23.5
							c7.2-8.1,14.3-12.2,21.2-12.2c12.8,0,19.8,13.6,22.2,19.4c1.3,3.2,7.9,20.1,6.5,34.8c-3.1,30.5-20.4,59.8-48.9,82.5
							c-29.2,23.4-68.2,37.7-109.7,40.5C78.3,235.5,78.2,235.5,78.1,235.5z M103.2,131.6c5.6,0,10,1.7,13.3,4.9l3,3
							c9.6,9.6,5.4,28.3-13.4,58.7c-5.2,8.5-11.6,17.9-19.4,28.6c76-8.2,136.6-56.6,142.4-115.1c1-9.9-2.5-22.9-5.9-31
							c-1.4-3.4-6.6-14.4-14.8-14.4c-4.4,0-9.7,3.3-15.2,9.5l-21.9,24.7c0,0.1,0,0.1,0.1,0.2c2.7,10-0.8,21.4-9.2,29.8
							c-6.4,6.4-14.9,10.1-23.1,10.1c-6.6,0-12.5-2.4-16.8-6.7c-1.1-1-2-2.2-2.8-3.5c-7-10.5-4.3-25.9,6.3-36.5
							c6.4-6.4,14.8-10.1,23.1-10.1c2.8,0,5.4,0.4,7.9,1.2c0.2,0.1,0.4,0.1,0.6,0.2l16.7-14.8c2.2-2,4.7-4.2,7.5-6.6
							c7-6.2,10.2-11.8,9.4-16.7c-1.2-7.3-11.3-12-14.3-13.2c-6.8-2.8-18-6.1-27.5-6.1c-1.3,0-2.5,0.1-3.6,0.2
							C86.6,34,38.1,93.8,29.9,168.8c10.7-7.7,20.1-14,28.4-19.2C78,137.5,92.7,131.6,103.2,131.6z"/>
					</g>
				</g>
			</g>
		</g>
	</g>
	<g>
		<g>
			<g>
				<g>
					<g>
						<path class="st73" d="M122.7,132.2c-0.2,0-0.3,0-0.5,0C95.4,128.7,92,115,92.3,107.1c0.4-9,6-19.1,15.3-27.8
							c9-8.4,19.8-13.7,28.8-14.1c5.9-0.3,20.1,1.5,22.9,23.2c0.3,2.2-1.3,4.2-3.5,4.5c-2.2,0.3-4.2-1.3-4.5-3.5
							c-1.4-11.1-6.3-16.5-14.6-16.2c-15.4,0.7-35.8,19.9-36.4,34.2c-0.5,11.4,12.2,15.4,22.9,16.8c2.2,0.3,3.7,2.3,3.4,4.5
							C126.4,130.8,124.6,132.2,122.7,132.2z"/>
					</g>
				</g>
			</g>
		</g>
	</g>
	<g>
		<g>
			<g>
				<g>
					<g>
						<path class="st73" d="M60.4,157c-1.7,0-3.3-1.1-3.8-2.9c-5.9-20.3-0.9-45,13.8-67.8c13.6-21,33.2-37.4,52.6-43.8
							c26.3-8.7,47.1,2.1,57.3,29.5c0.8,2.1-0.3,4.4-2.4,5.1c-2.1,0.8-4.4-0.3-5.1-2.4c-8.6-23.2-25.4-31.9-47.3-24.7
							C108.1,56,89.5,71.5,77.1,90.8c-13.4,20.8-18.1,43.1-12.8,61.2c0.6,2.1-0.6,4.3-2.7,5C61.1,157,60.8,157,60.4,157z"/>
					</g>
				</g>
			</g>
		</g>
	</g>
	<g>
		<g>
			<g>
				<g>
					<g>
						<path class="st73" d="M148.9,164.4c-8,0-20.7-4.2-24-29.9c-0.3-2.2,1.3-4.2,3.4-4.5c2.2-0.3,4.2,1.3,4.5,3.4
							c1.4,10.7,5.4,23.4,16.8,22.9c14.2-0.6,33-20.8,33.7-36c0.3-8.3-5.1-13.3-16.3-14.7c-2.2-0.3-3.7-2.3-3.5-4.5
							c0.3-2.2,2.3-3.7,4.5-3.5c21.8,2.8,23.6,17,23.3,23c-0.8,19.6-22.8,42.9-41.3,43.7C149.6,164.4,149.3,164.4,148.9,164.4z"/>
					</g>
				</g>
			</g>
		</g>
	</g>
	<g>
		<g>
			<g>
				<g>
					<g>
						<path class="st73" d="M119.2,202.4c-6,0-12-0.8-17.7-2.5c-2.1-0.6-3.3-2.8-2.7-5s2.8-3.3,5-2.7c4.9,1.4,10.1,2.1,15.3,2.1
							c36.1,0,77.2-31.8,87.7-63.6c7.1-21.5-1.6-38-24.5-46.4c-2.1-0.8-3.1-3.1-2.4-5.1c0.8-2.1,3.1-3.1,5.1-2.4
							c27.2,10,37.9,30.6,29.3,56.4C202.8,168,159.2,202.4,119.2,202.4z"/>
					</g>
				</g>
			</g>
		</g>
	</g>
</g>
</svg>
