<?xml version="1.0" encoding="utf-8"?>
<!-- Generator: Adobe Illustrator 22.1.0, SVG Export Plug-In . SVG Version: 6.00 Build 0)  -->
<svg version="1.1" id="Layer_1" xmlns="http://www.w3.org/2000/svg" xmlns:xlink="http://www.w3.org/1999/xlink" x="0px" y="0px"
	 viewBox="0 0 256 256" style="enable-background:new 0 0 256 256;" xml:space="preserve">
<style type="text/css">
	.st0{fill:#F6D67A;}
	.st1{fill:#E77CAE;}
	.st2{fill:#AC6535;}
	.st3{fill:#EB573B;}
	.st4{fill:#464646;}
	.st5{fill:#F5B31F;}
	.st6{fill:#9B592D;}
	.st7{fill:#9B5B2F;}
	.st8{fill:#E8A41A;}
	.st9{fill:#6D6E71;}
	.st10{fill:#E5A21C;}
	.st11{fill:#C66395;}
	.st12{fill:#E09F1E;}
	.st13{fill:#FFFFFF;}
	.st14{fill:#DDB95E;}
	.st15{fill:#EAC771;}
	.st16{fill:#F9F6CD;}
	.st17{fill:#009345;}
	.st18{fill:#008438;}
	.st19{fill:#EAA51B;}
	.st20{opacity:0.1;}
	.st21{fill:#FFD11D;}
	.st22{fill:#FFE37B;}
	.st23{fill:#FFA755;}
	.st24{fill:#FFEC97;}
	.st25{fill:#BC7532;}
	.st26{fill:#EFEFEF;}
	.st27{fill:#60ACF7;}
	.st28{fill:#876C6C;}
	.st29{fill:#1DDCFF;}
	.st30{fill:#BDF3FF;}
	.st31{fill:#EFCA70;}
	.st32{fill:#EFA91D;}
	.st33{fill:#8FAE3C;}
	.st34{fill:#92A5AC;}
	.st35{fill:#E8E3BA;}
	.st36{fill:#F79932;}
	.st37{fill:#F4F4F4;}
	.st38{fill:#FFDF8F;}
	.st39{fill:#EAE5B9;}
	.st40{fill:#7E9E6A;}
	.st41{fill:#94B57F;}
	.st42{fill:#9B5D8C;}
	.st43{fill:#96557A;}
	.st44{fill:#C3755A;}
	.st45{fill:#9BD7DD;}
	.st46{fill:#90CAD3;}
	.st47{fill:#F7F7F7;}
	.st48{fill:#AFE6EF;}
	.st49{fill:#FFFAEB;}
	.st50{fill:#F4EFC3;}
	.st51{fill:#F9F9F9;}
	.st52{fill:#FFE5C4;}
	.st53{fill:#FFB024;}
	.st54{fill:#FFC612;}
	.st55{fill:#FFCE31;}
	.st56{fill:#A05C2D;}
	.st57{fill:#1DCAF2;}
	.st58{fill:#00B0E0;}
	.st59{fill:#F2A355;}
	.st60{fill:#D68032;}
	.st61{fill:#66625D;}
	.st62{fill:#54504D;}
	.st63{fill:#B76955;}
	.st64{fill:#EFE8B4;}
	.st65{fill:#B93226;}
	.st66{fill:#EFEABF;}
	.st67{fill:#90C056;}
	.st68{opacity:0.15;}
	.st69{fill:#E8C56D;}
	.st70{fill:#F7BE4B;}
	.st71{fill:#E0A338;}
	.st72{fill:#F68455;}
	.st73{fill:#E26F47;}
	.st74{fill:#EC754B;}
	.st75{fill:#4AA5BA;}
	.st76{opacity:0.5;}
	.st77{fill:#A0B1B5;}
	.st78{opacity:0.7;}
	.st79{fill:#00ADEE;}
	.st80{fill:#F4D4B3;}
	.st81{fill:#F9D97A;}
	.st82{fill:#EDC96E;}
	.st83{fill:none;}
	.st84{fill:#AF6535;}
	.st85{fill:#F18BB4;}
	.st86{fill:#B3E4FF;}
	.st87{fill:#97DFFF;}
	.st88{fill:#D06E3C;}
	.st89{fill:#B55931;}
	.st90{fill:#DA4F4B;}
	.st91{fill:#EFCAA8;}
	.st92{fill:#EA7CB1;}
	.st93{fill:#EA7DAE;}
	.st94{fill:#BC7646;}
	.st95{fill:#00A1C6;}
	.st96{fill:#FCC230;}
	.st97{fill:#F2EBB1;}
	.st98{fill:#F9D6AF;}
	.st99{fill:#D34735;}
	.st100{fill:#E5A21A;}
	.st101{fill:#849E33;}
	.st102{fill:#EFBB14;}
	.st103{fill:#D8402B;}
	.st104{fill:#829B34;}
	.st105{fill:#F88916;}
	.st106{fill:#E27513;}
	.st107{fill:#FFB41F;}
	.st108{fill:#8AA538;}
	.st109{fill:#BE6BB2;}
	.st110{fill:#AA5BA3;}
	.st111{fill:#FFDF66;}
	.st112{fill:#F4BA00;}
	.st113{fill:#E28529;}
	.st114{fill:#FF9945;}
	.st115{fill:#BA6C45;}
	.st116{fill:#EDBA15;}
	.st117{fill:#E0452F;}
	.st118{fill:#F7F2D5;}
	.st119{fill:#4C4E51;}
	.st120{fill:#EA615D;}
	.st121{fill:#DD4A36;}
	.st122{fill:#F6AF72;}
	.st123{fill:#E8955D;}
	.st124{fill:#E4C074;}
	.st125{fill:#EAE4C3;}
	.st126{fill:#BF3522;}
	.st127{fill:#D13E33;}
	.st128{fill:#AA5EA3;}
	.st129{fill:#DD443C;}
	.st130{fill:#AA5FA3;}
	.st131{fill:#B7C536;}
	.st132{fill:#F2872F;}
	.st133{fill:#AF5FA7;}
	.st134{fill:#E29F17;}
	.st135{fill:#FFC86E;}
	.st136{fill:#A55937;}
	.st137{fill:#D8422E;}
	.st138{fill:#C3556D;}
	.st139{fill:#B24965;}
	.st140{fill:#D1A962;}
	.st141{fill:#A3961A;}
	.st142{fill:#AFA51D;}
	.st143{fill:#968A1C;}
</style>
<g>
	<g>
		<g>
			<g>
				<g>
					<path class="st5" d="M232.3,176.7c-3.1,9.9-13.2,21.7-44.5,21.7H77.4c-20.8,0-39-8.8-45.4-22c-0.7-1.4-0.5-3,0.5-4.2
						c1-1.2,2.6-1.7,4.1-1.4c5,1.2,11,1.8,17.8,1.6c11.5-0.3,21.2-3.1,28.8-8.4c1.5-1.1,3.6-0.9,5,0.3c7.7,6.9,21,11,39.4,12
						c2.6,0.1,5.2,0.2,7.6,0.2c22.3,0,32.2-5.9,36.5-10.9c0.8-0.9,1.9-1.4,3.2-1.4c1.2,0.1,2.3,0.6,3.1,1.6
						c3.6,4.8,13.8,7.5,28.7,7.5c4.3,0,8.9-0.2,13.7-0.7c2.7-0.2,5.2-0.6,7.6-1c1.4-0.2,2.8,0.2,3.7,1.3
						C232.4,173.9,232.8,175.3,232.3,176.7z"/>
				</g>
			</g>
		</g>
	</g>
	<g>
		<g>
			<g>
				<g>
					<path class="st2" d="M255.9,156.2c-1.4,9.3-5.7,19.3-26.6,23.2c0,0-0.1,0-0.1,0c-2.6,0.5-5.4,0.9-8.2,1.1
						c-5,0.5-9.9,0.7-14.4,0.7c-18,0-29.8-3.6-35.1-10.7c-2.3-3-3.3-6.6-3-10.6c0.1-1.2,0.6-2.2,1.6-2.9c0.9-0.7,2.1-1,3.2-0.7
						c2.2,0.5,4.2,0.8,6,1.1c3.3,0.5,6.2,0.8,9,0.8c11,0,40.2-8.4,52.8-20.5c1.5-1.4,3.9-1.5,5.4,0
						C251.3,142.2,256.9,149.1,255.9,156.2z"/>
				</g>
			</g>
		</g>
	</g>
	<g>
		<g>
			<g>
				<g>
					<path class="st3" d="M177.6,170.8c-7.8,9-22.2,13.6-42.5,13.6c-2.6,0-5.2-0.1-8-0.2c-20.3-1.1-35.2-5.8-44.3-14
						c-6.3-5.7-8.6-11.9-9.3-16.1c-0.2-1.3,0.2-2.6,1.1-3.6c0.9-0.9,2.3-1.3,3.6-1.1c3.6,0.7,7.5,1.9,11.6,3.1c2,0.6,4,1.2,6.1,1.8
						c5.1,1.4,11,2.8,16.6,2.8c6.1,0,12.7-1.7,19-3.3c5.8-1.4,11.2-2.8,16-2.8c4.5,0,10.1,1.4,16.6,3.1c3,0.8,6,1.5,9.1,2.2
						c1.9,0.4,3.3,2.2,3.1,4.2c-0.1,2.1,0.3,3.8,1.4,5.3C178.9,167.3,178.8,169.4,177.6,170.8z"/>
				</g>
			</g>
		</g>
	</g>
	<g>
		<g>
			<g>
				<g>
					<path class="st2" d="M89.4,167.5c-0.1,1.2-0.7,2.3-1.7,3c-8.8,6.2-20,9.4-33.1,9.8c-0.9,0-1.8,0-2.7,0
						c-6.4,0-12.2-0.6-17.3-1.9c-17-4.2-26.4-15.8-25.1-31c0.1-1.4,1-2.7,2.3-3.3c1.3-0.6,2.9-0.4,4,0.4c4.3,3.2,10,4.9,16.7,4.9
						c1.6-0.1,17.1-1,29.8-1c7,0,11.9,0.3,14.9,0.8l0.9,0.2c1.6,0.3,2.9,1.6,3.2,3.2c0.6,3,2.2,7.4,6.8,11.6
						C89,165.1,89.5,166.2,89.4,167.5z"/>
				</g>
			</g>
		</g>
	</g>
	<g>
		<g>
			<g>
				<g>
					<path class="st67" d="M254.6,127.5c0,5.6-2.7,11-8.1,16.1c-14.8,14.1-46.2,22.7-58.3,22.7c-3.1,0-6.5-0.3-10.2-0.9
						c-2-0.3-4.1-0.7-6.4-1.2c-3.3-0.7-6.4-1.5-9.4-2.3c-5.7-1.4-11.1-2.8-14.6-2.8c-3.7,0-8.7,1.3-14,2.6c-6.5,1.7-13.9,3.5-21,3.5
						c-6.6,0-13.2-1.6-18.8-3.1c-2.1-0.6-4.2-1.2-6.2-1.8c-3.9-1.2-7.7-2.3-10.9-2.9l-0.8-0.1c-1.7-0.3-5.4-0.7-13.4-0.7
						c-13,0-29.2,1-29.4,1c-0.1,0-0.2,0-0.2,0c-8.4,0-15.9-2.2-21.6-6.5c-8.7-6.5-12.8-17.5-10.5-28c2.4-11.1,11-19.2,23-21.8
						c1.1-0.2,2.3,0,3.2,0.7c0.9,0.7,1.5,1.7,1.6,2.8c1.2,10.7,7.5,28.6,36.6,28.6h130.2c12.1,0,30.6-7.8,31.8-29.4
						c0.1-1.3,0.8-2.4,1.8-3.1c1.1-0.7,2.4-0.8,3.6-0.4C246.8,105.8,254.6,115.5,254.6,127.5z"/>
				</g>
			</g>
		</g>
	</g>
	<g>
		<g>
			<g>
				<g>
					<path class="st5" d="M24.2,99.7c0,1.8,0.1,3.5,0.3,5.3c1.8,16.3,12.4,32.1,40.6,32.1h130.2c15.7,0,34.5-10.3,35.8-33.2
						c0.1-0.9,0.1-1.8,0.1-2.7c0-24.7-19.6-38.6-39.3-38.6s-30.3,5.5-40.4,10c-16.4-13.6-40.9-15.7-62,0
						c-5.9-3.3-15.8-11.7-34.7-7.8C37,69.3,24.2,81.8,24.2,99.7z"/>
				</g>
			</g>
		</g>
	</g>
	<g>
		<g>
			<g>
				<g>
					<path class="st10" d="M195.3,141.1H65.1c-36.7,0-43.4-25-44.6-35.7c-0.2-1.9-0.3-3.8-0.3-5.8C20.2,81,33.1,66.2,53.9,61
						c0.1,0,0.1,0,0.2,0c3.5-0.7,7-1.1,10.3-1.1c12,0,19.8,4.8,24.9,7.9c0.1,0,0.1,0.1,0.2,0.1c9.8-6.7,20.7-10.2,31.8-10.2
						c11.1,0,22,3.7,31,10.4c0.1,0,0.2-0.1,0.2-0.1c9.7-4.3,20.6-9.3,39.6-9.3c21,0,43.3,14.9,43.3,42.6c0,1.1,0,2-0.1,2.9
						C233.7,128.4,214,141.1,195.3,141.1z M55.7,68.8c-17.2,4.3-27.5,15.8-27.5,30.9c0,1.6,0.1,3.3,0.3,4.9
						c1.2,10.7,7.5,28.6,36.6,28.6h130.2c12.1,0,30.6-7.8,31.8-29.4c0-0.7,0.1-1.5,0.1-2.4c0-22.5-18.2-34.6-35.3-34.6
						c-17.2,0-26.9,4.4-36.3,8.6c-0.8,0.4-1.7,0.7-2.5,1.1c-1.4,0.6-3,0.4-4.2-0.6c-7.9-6.5-17.8-10.1-27.9-10.1
						c-10.1,0-20.2,3.5-29.2,10.2c-1.3,0.9-3,1.1-4.3,0.3c-0.8-0.4-1.7-1-2.6-1.6c-4.6-2.8-10.9-6.7-20.7-6.7
						C61.6,67.9,58.7,68.2,55.7,68.8z"/>
				</g>
			</g>
		</g>
	</g>
	<g>
		<g>
			<g>
				<g>
					<path class="st10" d="M109.3,114.5C109.3,114.5,109.3,114.5,109.3,114.5c-2.3,0-4-1.8-4-4.1c0.2-14.4-5.7-25.7-18.1-34.5
						c-1.8-1.3-2.2-3.8-0.9-5.6c1.3-1.8,3.8-2.2,5.6-0.9c14.4,10.3,21.6,24.2,21.4,41.1C113.3,112.8,111.5,114.5,109.3,114.5z"/>
				</g>
			</g>
		</g>
	</g>
	<g>
		<g>
			<g>
				<g>
					<path class="st10" d="M167.5,114.5c-0.1,0-0.2,0-0.3,0c-2.2-0.2-3.8-2.1-3.7-4.3C164.7,96,160,84.8,149,75.8
						c-1.7-1.4-2-3.9-0.6-5.6c1.4-1.7,3.9-2,5.6-0.6c12.9,10.6,18.8,24.5,17.4,41.3C171.3,112.9,169.6,114.5,167.5,114.5z"/>
				</g>
			</g>
		</g>
	</g>
</g>
</svg>
