<?xml version="1.0" encoding="utf-8"?>
<!-- Generator: Adobe Illustrator 22.1.0, SVG Export Plug-In . SVG Version: 6.00 Build 0)  -->
<svg version="1.1" id="Layer_1" xmlns="http://www.w3.org/2000/svg" xmlns:xlink="http://www.w3.org/1999/xlink" x="0px" y="0px"
	 viewBox="0 0 256 256" style="enable-background:new 0 0 256 256;" xml:space="preserve">
<style type="text/css">
	.st0{fill:#F6D67A;}
	.st1{fill:#E77CAE;}
	.st2{fill:#AC6535;}
	.st3{fill:#EB573B;}
	.st4{fill:#464646;}
	.st5{fill:#F5B31F;}
	.st6{fill:#9B592D;}
	.st7{fill:#9B5B2F;}
	.st8{fill:#E8A41A;}
	.st9{fill:#6D6E71;}
	.st10{fill:#E5A21C;}
	.st11{fill:#C66395;}
	.st12{fill:#E09F1E;}
	.st13{fill:#FFFFFF;}
	.st14{fill:#DDB95E;}
	.st15{fill:#EAC771;}
	.st16{fill:#F9F6CD;}
	.st17{fill:#009345;}
	.st18{fill:#008438;}
	.st19{fill:#EAA51B;}
	.st20{opacity:0.1;}
	.st21{fill:#FFD11D;}
	.st22{fill:#FFE37B;}
	.st23{fill:#FFA755;}
	.st24{fill:#FFEC97;}
	.st25{fill:#BC7532;}
	.st26{fill:#EFEFEF;}
	.st27{fill:#60ACF7;}
	.st28{fill:#876C6C;}
	.st29{fill:#1DDCFF;}
	.st30{fill:#BDF3FF;}
	.st31{fill:#EFCA70;}
	.st32{fill:#EFA91D;}
	.st33{fill:#8FAE3C;}
	.st34{fill:#92A5AC;}
	.st35{fill:#E8E3BA;}
	.st36{fill:#F79932;}
	.st37{fill:#F4F4F4;}
	.st38{fill:#FFDF8F;}
	.st39{fill:#EAE5B9;}
	.st40{fill:#7E9E6A;}
	.st41{fill:#94B57F;}
	.st42{fill:#9B5D8C;}
	.st43{fill:#96557A;}
	.st44{fill:#C3755A;}
	.st45{fill:#9BD7DD;}
	.st46{fill:#90CAD3;}
	.st47{fill:#F7F7F7;}
	.st48{fill:#AFE6EF;}
	.st49{fill:#FFFAEB;}
	.st50{fill:#F4EFC3;}
	.st51{fill:#F9F9F9;}
	.st52{fill:#FFE5C4;}
	.st53{fill:#FFB024;}
	.st54{fill:#FFC612;}
	.st55{fill:#FFCE31;}
	.st56{fill:#A05C2D;}
	.st57{fill:#1DCAF2;}
	.st58{fill:#00B0E0;}
	.st59{fill:#F2A355;}
	.st60{fill:#D68032;}
	.st61{fill:#66625D;}
	.st62{fill:#54504D;}
	.st63{fill:#B76955;}
	.st64{fill:#EFE8B4;}
	.st65{fill:#B93226;}
	.st66{fill:#EFEABF;}
	.st67{fill:#90C056;}
	.st68{opacity:0.15;}
	.st69{fill:#E8C56D;}
	.st70{fill:#F7BE4B;}
	.st71{fill:#E0A338;}
	.st72{fill:#F68455;}
	.st73{fill:#E26F47;}
	.st74{fill:#EC754B;}
	.st75{fill:#4AA5BA;}
	.st76{opacity:0.5;}
	.st77{fill:#A0B1B5;}
	.st78{opacity:0.7;}
	.st79{fill:#00ADEE;}
	.st80{fill:#F4D4B3;}
	.st81{fill:#F9D97A;}
	.st82{fill:#EDC96E;}
	.st83{fill:none;}
	.st84{fill:#AF6535;}
	.st85{fill:#F18BB4;}
	.st86{fill:#B3E4FF;}
	.st87{fill:#97DFFF;}
	.st88{fill:#D06E3C;}
	.st89{fill:#B55931;}
	.st90{fill:#DA4F4B;}
	.st91{fill:#EFCAA8;}
	.st92{fill:#EA7CB1;}
	.st93{fill:#EA7DAE;}
	.st94{fill:#BC7646;}
	.st95{fill:#00A1C6;}
	.st96{fill:#FCC230;}
	.st97{fill:#F2EBB1;}
	.st98{fill:#F9D6AF;}
	.st99{fill:#D34735;}
	.st100{fill:#E5A21A;}
	.st101{fill:#849E33;}
	.st102{fill:#EFBB14;}
	.st103{fill:#D8402B;}
	.st104{fill:#829B34;}
	.st105{fill:#F88916;}
	.st106{fill:#E27513;}
	.st107{fill:#FFB41F;}
	.st108{fill:#8AA538;}
	.st109{fill:#BE6BB2;}
	.st110{fill:#AA5BA3;}
	.st111{fill:#FFDF66;}
	.st112{fill:#F4BA00;}
	.st113{fill:#E28529;}
	.st114{fill:#FF9945;}
	.st115{fill:#BA6C45;}
	.st116{fill:#EDBA15;}
	.st117{fill:#E0452F;}
	.st118{fill:#F7F2D5;}
	.st119{fill:#4C4E51;}
	.st120{fill:#EA615D;}
	.st121{fill:#DD4A36;}
	.st122{fill:#F6AF72;}
	.st123{fill:#E8955D;}
	.st124{fill:#E4C074;}
	.st125{fill:#EAE4C3;}
	.st126{fill:#BF3522;}
	.st127{fill:#D13E33;}
	.st128{fill:#AA5EA3;}
	.st129{fill:#DD443C;}
	.st130{fill:#AA5FA3;}
	.st131{fill:#B7C536;}
	.st132{fill:#F2872F;}
	.st133{fill:#AF5FA7;}
	.st134{fill:#E29F17;}
	.st135{fill:#FFC86E;}
	.st136{fill:#A55937;}
	.st137{fill:#D8422E;}
	.st138{fill:#C3556D;}
	.st139{fill:#B24965;}
	.st140{fill:#D1A962;}
	.st141{fill:#A3961A;}
	.st142{fill:#AFA51D;}
	.st143{fill:#968A1C;}
</style>
<g>
	<g>
		<g>
			<g>
				<g>
					<g>
						<g>
							<path class="st72" d="M72.8,231.3C68.7,245.5,54,252,42.2,252c-2.1,0-5.1-0.2-7.5-1.4c-4-2-6.2-5.4-8-8.1
								c-0.6-1-1.6-2.4-2.1-2.8c-1,0.1-3.2,0.9-4.8,1.5c-3.5,1.2-7.4,2.7-11,2.7c-2.1,0-3.7-0.5-4.9-1.1c-1.2-0.7-2.1-1.5-2.7-2.3
								c-3.4-4.4,0.7-11,11.1-27c7.4-11.4,21.1-32.5,17.9-38.1c-1.3-2.3-2.6-5.6-3.8-9.8c-0.5-1.7,0.3-3.6,1.8-4.5
								c1.5-0.9,3.5-0.7,4.8,0.6c5,4.8,10.1,7.1,15.6,7.1c4.8,0,10-1.8,15.6-5.2c1.3-0.8,2.9-0.8,4.2,0c1.3,0.8,2,2.2,1.9,3.8
								c-1.2,13.3,0.4,25.8,1.9,36.8C73.6,214.8,74.8,224.2,72.8,231.3z"/>
						</g>
					</g>
				</g>
			</g>
		</g>
	</g>
	<g>
		<g>
			<g>
				<g>
					<g>
						<path class="st73" d="M24.1,228.2c-0.9,0-1.8-0.3-2.6-0.9c-1.7-1.4-1.9-3.9-0.5-5.6c7.4-9,10.3-13.9,12-20.2
							c0.6-2.1,2.7-3.4,4.9-2.9c2.1,0.6,3.4,2.7,2.9,4.9c-2.2,8.6-6.3,14.6-13.6,23.3C26.4,227.7,25.3,228.2,24.1,228.2z"/>
					</g>
				</g>
			</g>
		</g>
	</g>
	<g>
		<g>
			<g>
				<g>
					<g>
						<path class="st73" d="M41.9,238.3c-1.9,0-3.5-1.3-3.9-3.2c-0.4-2.2,1-4.3,3.1-4.7c10.6-2.1,13.3-8.3,11.5-26.7
							c-0.2-2.2,1.4-4.2,3.6-4.4c2.2-0.2,4.2,1.4,4.4,3.6c1.5,15.7,1.4,31.4-17.9,35.3C42.4,238.3,42.2,238.3,41.9,238.3z"/>
					</g>
				</g>
			</g>
		</g>
	</g>
	<g>
		<g>
			<g>
				<g>
					<g>
						<g>
							<path class="st72" d="M192.3,17.8c-0.1,1.6-1.1,2.9-2.6,3.5c-25,9.5-43.1,26.3-49.7,46.3c-3.8,11.4-3.1,22.5,1.7,30.3
								c0.5,0.7,0.8,1.5,0.8,2.4c0,2.2-1.8,4-4,4h-0.1c-0.5,0-1.1-0.1-1.6-0.3c-0.5-0.2-0.9-0.4-1.4-0.6c-7.1-2.7-14.7-3-22-0.9
								c-1.5,0.4-3.1-0.1-4.1-1.2C85.8,73.8,81.8,44,97.4,12.8c0.5-1,1.4-1.8,2.5-2.1C115.2,6.3,131.1,4,146,4
								c14.5,0,27.2,2.2,37.5,6.6c0.1,0,0.1,0.1,0.2,0.1c2.2,1,4.4,2.2,6.6,3.4C191.6,14.8,192.4,16.3,192.3,17.8z"/>
						</g>
					</g>
				</g>
			</g>
		</g>
	</g>
	<g>
		<g>
			<g>
				<g>
					<g>
						<g>
							<path class="st72" d="M255.1,123.7c-4.8,19.2-14.1,28.5-34.3,34.4c-8.5,2.5-15.3,3.6-21.4,3.6c-10.8,0-19.6-3.7-26.7-11.3
								c-4.3-4.6-7.5-10.8-10.9-17.4c-1.2-2.3-2.4-4.6-3.7-6.9c-0.6-1.1-0.7-2.4-0.2-3.6c13.4-30.3,37.4-48.3,64.3-48.3
								c7.7,0,15.6,1.4,23.6,4.3c1.1,0.4,1.9,1.2,2.4,2.3C254.8,97.3,257.5,114.1,255.1,123.7z"/>
						</g>
					</g>
				</g>
			</g>
		</g>
	</g>
	<g>
		<g>
			<g>
				<g>
					<g>
						<g>
							<path class="st72" d="M95.7,112.8c-5.7,5.2-10.8,11.9-15.1,20c-0.5,0.9-1.3,1.6-2.2,1.9c-7.8,2.6-15.3,4-22.3,4
								c-11.9,0-22.9-3.8-32.8-11.2c-1-0.8-1.6-1.9-1.6-3.2c0.1-18.1,2.7-44.5,14.9-67.3c0.7-1.4,2.2-2.2,3.7-2.1
								c1.5,0.1,2.9,1,3.5,2.5C54,82.7,69.5,97.7,94.3,106.1c1.3,0.5,2.3,1.6,2.6,3C97.2,110.4,96.7,111.9,95.7,112.8z"/>
						</g>
					</g>
				</g>
			</g>
		</g>
	</g>
	<g>
		<g>
			<g>
				<g>
					<g>
						<g>
							<path class="st73" d="M116.3,99.9c-0.4,1.3-1.4,2.3-2.7,2.7c-6.3,1.8-12.3,5.2-17.9,10.3c-0.7,0.7-1.7,1-2.7,1
								c-0.4,0-0.9-0.1-1.3-0.2C64.6,104.4,47.5,88,36.4,60.4c-0.4-1.1-0.4-2.3,0.2-3.4c7.9-14.8,18.7-25.9,32.2-33.1
								c8.3-5.1,19.1-9.7,31.2-13.2c1.5-0.4,3.2,0.1,4.2,1.3c1,1.2,1.2,2.9,0.5,4.3c-14.3,28.5-10.7,54.6,10.9,79.8
								C116.4,97.1,116.7,98.5,116.3,99.9z"/>
						</g>
					</g>
				</g>
			</g>
		</g>
	</g>
	<g>
		<g>
			<g>
				<g>
					<g>
						<g>
							<path class="st73" d="M248.6,82.3c0,2.2-1.8,4-4,4c-0.5,0-0.9-0.1-1.4-0.2c-7.1-2.5-14.2-3.8-20.9-3.8
								c-23.6,0-44.9,16.3-57,43.6c-0.6,1.4-2,2.3-3.5,2.4h-0.2c-1.5,0-2.8-0.8-3.5-2.1c-4.9-8.8-10.8-17.6-21.2-22.1
								c-0.7-0.3-1.3-0.8-1.8-1.5c-6.3-9.9-7.4-23.6-2.8-37.4c7.4-22.3,27.3-41,54.5-51.3c1.1-0.4,2.3-0.3,3.3,0.2
								c34.9,19.2,51.2,49.7,57.9,66.4C248.4,81,248.6,81.6,248.6,82.3z"/>
						</g>
					</g>
				</g>
			</g>
		</g>
	</g>
	<g>
		<g>
			<g>
				<g>
					<g>
						<g>
							<path class="st73" d="M80.6,132.8c-1.6,3.1-3.2,6.4-4.6,9.9c-3.1,7.6-4.9,15.6-5.7,24.4c-0.1,1.2-0.8,2.4-1.9,3
								c-6.8,4.3-13.5,6.5-19.8,6.5h0c-7.6,0-14.7-3.1-21.2-9.3c-0.5-0.5-0.9-1.1-1.1-1.8c-3.1-11.1-4.8-26.1-4.7-41.2
								c0-1.5,0.9-2.9,2.2-3.6c1.4-0.7,3-0.5,4.2,0.4c8.6,6.4,17.7,9.6,28,9.6c3.1,0,6.3-0.3,9.6-0.9c3.3-0.6,6.7-1.5,10.2-2.6
								c1.5-0.5,3.3-0.1,4.3,1.2C81.2,129.6,81.3,131.4,80.6,132.8z"/>
						</g>
					</g>
				</g>
			</g>
		</g>
	</g>
</g>
</svg>
