<?xml version="1.0" encoding="utf-8"?>
<!-- Generator: Adobe Illustrator 22.1.0, SVG Export Plug-In . SVG Version: 6.00 Build 0)  -->
<svg version="1.1" id="Layer_1" xmlns="http://www.w3.org/2000/svg" xmlns:xlink="http://www.w3.org/1999/xlink" x="0px" y="0px"
	 viewBox="0 0 256 256" style="enable-background:new 0 0 256 256;" xml:space="preserve">
<style type="text/css">
	.st0{fill:#F6D67A;}
	.st1{fill:#E77CAE;}
	.st2{fill:#AC6535;}
	.st3{fill:#EB573B;}
	.st4{fill:#464646;}
	.st5{fill:#F5B31F;}
	.st6{fill:#9B592D;}
	.st7{fill:#9B5B2F;}
	.st8{fill:#E8A41A;}
	.st9{fill:#6D6E71;}
	.st10{fill:#E5A21C;}
	.st11{fill:#C66395;}
	.st12{fill:#E09F1E;}
	.st13{fill:#FFFFFF;}
	.st14{fill:#DDB95E;}
	.st15{fill:#EAC771;}
	.st16{fill:#F9F6CD;}
	.st17{fill:#009345;}
	.st18{fill:#008438;}
	.st19{fill:#EAA51B;}
	.st20{opacity:0.1;}
	.st21{fill:#FFD11D;}
	.st22{fill:#FFE37B;}
	.st23{fill:#FFA755;}
	.st24{fill:#FFEC97;}
	.st25{fill:#BC7532;}
	.st26{fill:#EFEFEF;}
	.st27{fill:#60ACF7;}
	.st28{fill:#876C6C;}
	.st29{fill:#1DDCFF;}
	.st30{fill:#BDF3FF;}
	.st31{fill:#EFCA70;}
	.st32{fill:#EFA91D;}
	.st33{fill:#8FAE3C;}
	.st34{fill:#92A5AC;}
	.st35{fill:#E8E3BA;}
	.st36{fill:#F79932;}
	.st37{fill:#F4F4F4;}
	.st38{fill:#FFDF8F;}
	.st39{fill:#EAE5B9;}
	.st40{fill:#7E9E6A;}
	.st41{fill:#94B57F;}
	.st42{fill:#9B5D8C;}
	.st43{fill:#96557A;}
	.st44{fill:#C3755A;}
	.st45{fill:#9BD7DD;}
	.st46{fill:#90CAD3;}
	.st47{fill:#F7F7F7;}
	.st48{fill:#AFE6EF;}
	.st49{fill:#FFFAEB;}
	.st50{fill:#F4EFC3;}
	.st51{fill:#F9F9F9;}
	.st52{fill:#FFE5C4;}
	.st53{fill:#FFB024;}
	.st54{fill:#FFC612;}
	.st55{fill:#FFCE31;}
	.st56{fill:#A05C2D;}
	.st57{fill:#1DCAF2;}
	.st58{fill:#00B0E0;}
	.st59{fill:#F2A355;}
	.st60{fill:#D68032;}
	.st61{fill:#66625D;}
	.st62{fill:#54504D;}
	.st63{fill:#B76955;}
	.st64{fill:#EFE8B4;}
	.st65{fill:#B93226;}
	.st66{fill:#EFEABF;}
	.st67{fill:#90C056;}
	.st68{opacity:0.15;}
	.st69{fill:#E8C56D;}
	.st70{fill:#F7BE4B;}
	.st71{fill:#E0A338;}
	.st72{fill:#F68455;}
	.st73{fill:#E26F47;}
	.st74{fill:#EC754B;}
	.st75{fill:#4AA5BA;}
	.st76{opacity:0.5;}
	.st77{fill:#A0B1B5;}
	.st78{opacity:0.7;}
	.st79{fill:#00ADEE;}
	.st80{fill:#F4D4B3;}
	.st81{fill:#F9D97A;}
	.st82{fill:#EDC96E;}
	.st83{fill:none;}
	.st84{fill:#AF6535;}
	.st85{fill:#F18BB4;}
	.st86{fill:#B3E4FF;}
	.st87{fill:#97DFFF;}
	.st88{fill:#D06E3C;}
	.st89{fill:#B55931;}
	.st90{fill:#DA4F4B;}
	.st91{fill:#EFCAA8;}
	.st92{fill:#EA7CB1;}
	.st93{fill:#EA7DAE;}
	.st94{fill:#BC7646;}
	.st95{fill:#00A1C6;}
	.st96{fill:#FCC230;}
	.st97{fill:#F2EBB1;}
	.st98{fill:#F9D6AF;}
	.st99{fill:#D34735;}
	.st100{fill:#E5A21A;}
	.st101{fill:#849E33;}
	.st102{fill:#EFBB14;}
	.st103{fill:#D8402B;}
	.st104{fill:#829B34;}
	.st105{fill:#F88916;}
	.st106{fill:#E27513;}
	.st107{fill:#FFB41F;}
	.st108{fill:#8AA538;}
	.st109{fill:#BE6BB2;}
	.st110{fill:#AA5BA3;}
	.st111{fill:#FFDF66;}
	.st112{fill:#F4BA00;}
	.st113{fill:#E28529;}
	.st114{fill:#FF9945;}
	.st115{fill:#BA6C45;}
	.st116{fill:#EDBA15;}
	.st117{fill:#E0452F;}
	.st118{fill:#F7F2D5;}
	.st119{fill:#4C4E51;}
	.st120{fill:#EA615D;}
	.st121{fill:#DD4A36;}
	.st122{fill:#F6AF72;}
	.st123{fill:#E8955D;}
	.st124{fill:#E4C074;}
	.st125{fill:#EAE4C3;}
	.st126{fill:#BF3522;}
	.st127{fill:#D13E33;}
	.st128{fill:#AA5EA3;}
	.st129{fill:#DD443C;}
	.st130{fill:#AA5FA3;}
	.st131{fill:#B7C536;}
	.st132{fill:#F2872F;}
	.st133{fill:#AF5FA7;}
	.st134{fill:#E29F17;}
	.st135{fill:#FFC86E;}
	.st136{fill:#A55937;}
	.st137{fill:#D8422E;}
	.st138{fill:#C3556D;}
	.st139{fill:#B24965;}
	.st140{fill:#D1A962;}
	.st141{fill:#A3961A;}
	.st142{fill:#AFA51D;}
	.st143{fill:#968A1C;}
</style>
<g>
	<g>
		<g>
			<g>
				<g>
					<path class="st88" d="M233.4,55.3c15,16.6,20.3,35.7,18.1,53.7c-0.3,3-0.9,6-1.7,9c-4.3,16.6-15,31.7-29.9,42
						c-9.3,6.4-20.3,11-32.4,13c-6.3,1-12.9,1.3-19.8,0.8c-2.2-0.2-4.2-0.3-6.2-0.3c-30.7-0.8-39.7,11.3-46.2,25.6
						c-6.6,14.5-10.7,31.4-32.1,39.7c-0.1,0-0.1,0.1-0.2,0.1c-12.6,4.8-24.7,5.3-35.5,2c-15.9-4.7-28.9-17.4-36.5-35.4
						c-5.3-12.7-7.9-28.1-6.9-45.3l0-0.2c0.5-7.7,1.2-14.9,2.3-21.7c2.2-13.8,5.6-26,10.5-37.3c6.8-15.7,16.5-29.3,29.5-42.4
						c6.4-6.4,13.6-12.7,21.7-19c6-4.6,12.3-8.7,18.9-12.3c13.7-7.4,28.7-12.2,44.2-13.7c4.5-0.4,9-0.6,13.5-0.5
						c15.5,0.4,31.3,4.1,47.1,11.8c12,5.8,24,13.9,35.6,24.6C229.7,51.4,231.6,53.3,233.4,55.3z"/>
				</g>
			</g>
		</g>
	</g>
	<g>
		<g>
			<g>
				<g>
					<path class="st89" d="M61.9,246.9c-5.3,0-10.5-0.8-15.5-2.2c-17.1-5.1-31-18.5-39-37.7c-5.7-13.7-8.2-30-7.2-47.1l0-0.3
						c0.5-7.7,1.3-15.1,2.4-22c2.3-14.2,5.8-26.8,10.8-38.3c6.9-15.8,16.8-30.1,30.3-43.6c6.5-6.5,13.7-12.8,22.1-19.3
						c6.2-4.8,12.7-9,19.4-12.6c14.6-7.8,30-12.6,45.7-14.1c4.7-0.5,9.4-0.6,14-0.5c16.6,0.4,33,4.5,48.7,12.2
						c12.7,6.1,25,14.6,36.6,25.3c2.2,2,4.2,4,6.1,6.1c14.8,16.3,21.6,36.5,19.2,56.8c-0.4,3.1-1,6.3-1.8,9.5
						c-4.6,17.7-15.8,33.4-31.5,44.2c-10.2,7-21.7,11.6-34.1,13.6c-6.7,1.1-13.7,1.4-20.7,0.9c-1.9-0.1-3.9-0.2-6-0.3
						c-0.9,0-1.7,0-2.6,0c-27,0-34.3,11-39.9,23.3c-0.9,2.1-1.8,4.1-2.7,6.3c-5.5,13-11.7,27.7-31.6,35.4l-0.2,0.1
						C76.9,245.5,69.3,246.9,61.9,246.9z M141.9,17.1c-3.3,0-6.7,0.2-10.1,0.5c-14.6,1.4-29,5.9-42.7,13.2
						c-6.3,3.4-12.5,7.4-18.3,11.9C62.6,49,55.6,55.1,49.4,61.4c-12.8,12.8-22.2,26.3-28.6,41.2c-4.7,10.9-8.1,22.7-10.2,36.3
						c-1,6.7-1.8,13.8-2.3,21.3l0,0.3c-1,15.9,1.3,30.9,6.6,43.5c7.1,16.9,19.1,28.7,33.9,33.1c10.3,3.1,21.6,2.4,32.9-1.9l0.1-0.1
						c16.8-6.5,21.8-18.5,27.1-31.1c0.9-2.2,1.8-4.4,2.8-6.5c6.2-13.5,15.4-28,47.2-28c0.9,0,1.9,0,2.8,0c2.3,0.1,4.3,0.2,6.4,0.3
						c6.3,0.5,12.7,0.2,18.8-0.8c11.2-1.8,21.6-6,30.8-12.3c14.1-9.7,24.2-23.8,28.3-39.7c0.7-2.8,1.3-5.6,1.6-8.4
						c2.2-18.3-3.7-35.7-17.1-50.5c-1.7-1.9-3.6-3.7-5.5-5.6c-11-10.1-22.7-18.2-34.7-24c-14.7-7.1-30-11-45.5-11.4
						C143.8,17.1,142.8,17.1,141.9,17.1z"/>
				</g>
			</g>
		</g>
	</g>
	<g>
		<g>
			<g>
				<g>
					<path class="st89" d="M83.2,242.7c-1,0-2-0.4-2.8-1.2l-79-78.9c-1.6-1.6-1.6-4.1,0-5.7c1.6-1.6,4.1-1.6,5.7,0l79,78.9
						c1.6,1.6,1.6,4.1,0,5.7C85.3,242.4,84.3,242.7,83.2,242.7z"/>
				</g>
			</g>
		</g>
	</g>
	<g>
		<g>
			<g>
				<g>
					<path class="st89" d="M115.4,203c-1,0-2-0.4-2.8-1.2l-98.3-98.1c-1.6-1.6-1.6-4.1,0-5.7c1.6-1.6,4.1-1.6,5.7,0l98.3,98.1
						c1.6,1.6,1.6,4.1,0,5.7C117.4,202.6,116.4,203,115.4,203z"/>
				</g>
			</g>
		</g>
	</g>
	<g>
		<g>
			<g>
				<g>
					<path class="st89" d="M161.6,177.4c-1,0-2-0.4-2.8-1.2L43.7,61.4c-1.6-1.6-1.6-4.1,0-5.7c1.6-1.6,4.1-1.6,5.7,0l115,114.9
						c1.6,1.6,1.6,4.1,0,5.7C163.7,177,162.6,177.4,161.6,177.4z"/>
				</g>
			</g>
		</g>
	</g>
	<g>
		<g>
			<g>
				<g>
					<path class="st89" d="M220,163.9c-1,0-2-0.4-2.8-1.2L84.3,30.1c-1.6-1.6-1.6-4.1,0-5.7c1.6-1.6,4.1-1.6,5.7,0l132.8,132.6
						c1.6,1.6,1.6,4.1,0,5.7C222,163.5,221,163.9,220,163.9z"/>
				</g>
			</g>
		</g>
	</g>
	<g>
		<g>
			<g>
				<g>
					<path class="st89" d="M249.9,121.9c-1,0-2-0.4-2.8-1.2L142,15.9c-1.6-1.6-1.6-4.1,0-5.7c1.6-1.6,4.1-1.6,5.7,0l105,104.8
						c1.6,1.6,1.6,4.1,0,5.7C251.9,121.5,250.9,121.9,249.9,121.9z"/>
				</g>
			</g>
		</g>
	</g>
	<g>
		<g>
			<g>
				<g>
					<g>
						<path class="st89" d="M187.5,176.9c-1,0-2-0.4-2.8-1.2c-1.6-1.6-1.6-4.1,0-5.7l64-63.9c1.6-1.6,4.1-1.6,5.7,0
							c1.6,1.6,1.6,4.1,0,5.7l-64,63.9C189.6,176.5,188.6,176.9,187.5,176.9z"/>
					</g>
				</g>
			</g>
		</g>
		<g>
			<g>
				<g>
					<g>
						<path class="st89" d="M47.6,244.9c-1,0-2-0.4-2.8-1.2c-1.6-1.6-1.6-4.1,0-5.7L230.6,52.5c1.6-1.6,4.1-1.6,5.7,0
							c1.6,1.6,1.6,4.1,0,5.7L50.4,243.7C49.6,244.5,48.6,244.9,47.6,244.9z"/>
					</g>
				</g>
			</g>
		</g>
		<g>
			<g>
				<g>
					<g>
						<path class="st89" d="M11.1,209.5c-1,0-2-0.4-2.8-1.2c-1.6-1.6-1.6-4.1,0-5.7L189.2,22c1.6-1.6,4.1-1.6,5.7,0
							c1.6,1.6,1.6,4.1,0,5.7L13.9,208.3C13.1,209.1,12.1,209.5,11.1,209.5z"/>
					</g>
				</g>
			</g>
		</g>
		<g>
			<g>
				<g>
					<g>
						<path class="st89" d="M6.6,142.2c-1,0-2-0.4-2.8-1.2c-1.6-1.6-1.6-4.1,0-5.7L128.5,10.8c1.6-1.6,4.1-1.6,5.7,0
							c1.6,1.6,1.6,4.1,0,5.7L9.4,141C8.6,141.8,7.6,142.2,6.6,142.2z"/>
					</g>
				</g>
			</g>
		</g>
	</g>
</g>
</svg>
