<?xml version="1.0" encoding="utf-8"?>
<!-- Generator: Adobe Illustrator 22.1.0, SVG Export Plug-In . SVG Version: 6.00 Build 0)  -->
<svg version="1.1" id="Layer_1" xmlns="http://www.w3.org/2000/svg" xmlns:xlink="http://www.w3.org/1999/xlink" x="0px" y="0px"
	 viewBox="0 0 256 256" style="enable-background:new 0 0 256 256;" xml:space="preserve">
<style type="text/css">
	.st0{fill:#F6D67A;}
	.st1{fill:#E77CAE;}
	.st2{fill:#AC6535;}
	.st3{fill:#EB573B;}
	.st4{fill:#464646;}
	.st5{fill:#F5B31F;}
	.st6{fill:#9B592D;}
	.st7{fill:#9B5B2F;}
	.st8{fill:#E8A41A;}
	.st9{fill:#6D6E71;}
	.st10{fill:#E5A21C;}
	.st11{fill:#C66395;}
	.st12{fill:#E09F1E;}
	.st13{fill:#FFFFFF;}
	.st14{fill:#DDB95E;}
	.st15{fill:#EAC771;}
	.st16{fill:#F9F6CD;}
	.st17{fill:#009345;}
	.st18{fill:#008438;}
	.st19{fill:#EAA51B;}
	.st20{opacity:0.1;}
	.st21{fill:#FFD11D;}
	.st22{fill:#FFE37B;}
	.st23{fill:#FFA755;}
	.st24{fill:#FFEC97;}
	.st25{fill:#BC7532;}
	.st26{fill:#EFEFEF;}
	.st27{fill:#60ACF7;}
	.st28{fill:#876C6C;}
	.st29{fill:#1DDCFF;}
	.st30{fill:#BDF3FF;}
	.st31{fill:#EFCA70;}
	.st32{fill:#EFA91D;}
	.st33{fill:#8FAE3C;}
	.st34{fill:#92A5AC;}
	.st35{fill:#E8E3BA;}
	.st36{fill:#F79932;}
	.st37{fill:#F4F4F4;}
	.st38{fill:#FFDF8F;}
	.st39{fill:#EAE5B9;}
	.st40{fill:#7E9E6A;}
	.st41{fill:#94B57F;}
	.st42{fill:#9B5D8C;}
	.st43{fill:#96557A;}
	.st44{fill:#C3755A;}
	.st45{fill:#9BD7DD;}
	.st46{fill:#90CAD3;}
	.st47{fill:#F7F7F7;}
	.st48{fill:#AFE6EF;}
	.st49{fill:#FFFAEB;}
	.st50{fill:#F4EFC3;}
	.st51{fill:#F9F9F9;}
	.st52{fill:#FFE5C4;}
	.st53{fill:#FFB024;}
	.st54{fill:#FFC612;}
	.st55{fill:#FFCE31;}
	.st56{fill:#A05C2D;}
	.st57{fill:#1DCAF2;}
	.st58{fill:#00B0E0;}
	.st59{fill:#F2A355;}
	.st60{fill:#D68032;}
	.st61{fill:#66625D;}
	.st62{fill:#54504D;}
	.st63{fill:#B76955;}
	.st64{fill:#EFE8B4;}
	.st65{fill:#B93226;}
	.st66{fill:#EFEABF;}
	.st67{fill:#90C056;}
	.st68{opacity:0.15;}
	.st69{fill:#E8C56D;}
	.st70{fill:#F7BE4B;}
	.st71{fill:#E0A338;}
	.st72{fill:#F68455;}
	.st73{fill:#E26F47;}
	.st74{fill:#EC754B;}
	.st75{fill:#4AA5BA;}
	.st76{opacity:0.5;}
	.st77{fill:#A0B1B5;}
	.st78{opacity:0.7;}
	.st79{fill:#00ADEE;}
	.st80{fill:#F4D4B3;}
	.st81{fill:#F9D97A;}
	.st82{fill:#EDC96E;}
	.st83{fill:none;}
	.st84{fill:#AF6535;}
	.st85{fill:#F18BB4;}
	.st86{fill:#B3E4FF;}
	.st87{fill:#97DFFF;}
	.st88{fill:#D06E3C;}
	.st89{fill:#B55931;}
	.st90{fill:#DA4F4B;}
	.st91{fill:#EFCAA8;}
	.st92{fill:#EA7CB1;}
	.st93{fill:#EA7DAE;}
	.st94{fill:#BC7646;}
	.st95{fill:#00A1C6;}
	.st96{fill:#FCC230;}
	.st97{fill:#F2EBB1;}
	.st98{fill:#F9D6AF;}
	.st99{fill:#D34735;}
	.st100{fill:#E5A21A;}
	.st101{fill:#849E33;}
	.st102{fill:#EFBB14;}
	.st103{fill:#D8402B;}
	.st104{fill:#829B34;}
	.st105{fill:#F88916;}
	.st106{fill:#E27513;}
	.st107{fill:#FFB41F;}
	.st108{fill:#8AA538;}
	.st109{fill:#BE6BB2;}
	.st110{fill:#AA5BA3;}
	.st111{fill:#FFDF66;}
	.st112{fill:#F4BA00;}
	.st113{fill:#E28529;}
	.st114{fill:#FF9945;}
	.st115{fill:#BA6C45;}
	.st116{fill:#EDBA15;}
	.st117{fill:#E0452F;}
	.st118{fill:#F7F2D5;}
	.st119{fill:#4C4E51;}
	.st120{fill:#EA615D;}
	.st121{fill:#DD4A36;}
	.st122{fill:#F6AF72;}
	.st123{fill:#E8955D;}
	.st124{fill:#E4C074;}
	.st125{fill:#EAE4C3;}
	.st126{fill:#BF3522;}
	.st127{fill:#D13E33;}
	.st128{fill:#AA5EA3;}
	.st129{fill:#DD443C;}
	.st130{fill:#AA5FA3;}
	.st131{fill:#B7C536;}
	.st132{fill:#F2872F;}
	.st133{fill:#AF5FA7;}
	.st134{fill:#E29F17;}
	.st135{fill:#FFC86E;}
	.st136{fill:#A55937;}
	.st137{fill:#D8422E;}
	.st138{fill:#C3556D;}
	.st139{fill:#B24965;}
	.st140{fill:#D1A962;}
	.st141{fill:#A3961A;}
	.st142{fill:#AFA51D;}
	.st143{fill:#968A1C;}
</style>
<g>
	<g>
		<g>
			<g>
				<g>
					<path class="st70" d="M256,192.5c0,13.8-5.1,19.4-17.4,19.4h-31.8c-2.2,0-4-1.8-4-4s1.8-4,4-4c6.8,0,8.9-1.2,9.4-8.9
						c0.1-1.8,1.4-3.3,3.2-3.7c4.9-1,8.2-3.1,10-6.4c3.8-7.1,1.7-20.8-6.4-40.7c-0.5-1.2-0.4-2.5,0.3-3.6c1.1-1.8,1.5-2.8,1.6-3.3
						c-1.3-1.5-4.4-3.1-7.1-4.5c-4.5-2.3-9.2-4.7-11.8-8.7c-2.8-4.3-1.5-10.2-0.2-16c0.1-0.6,0.2-1.1,0.4-1.7c0.3-1.4,1.4-2.6,2.8-3
						c1.4-0.4,2.9-0.1,3.9,1C244.7,135.7,256,183.1,256,192.5z"/>
				</g>
			</g>
		</g>
	</g>
	<g>
		<g>
			<g>
				<g>
					<path class="st2" d="M236.3,188.7c-3,5.5-8.2,9-15.5,10.4c-0.2,0.1-0.5,0.1-0.8,0.1c-1,0-1.9-0.4-2.6-1c-0.9-0.8-1.4-2-1.4-3.2
						c0.1-0.8,0.1-1.7,0.1-2.6c0-3-2.1-14.8-8.2-30.6c-0.6-1.5-0.2-3.2,0.9-4.3c0.1-0.1,10-9.8,14.3-16.9c0.8-1.3,2.2-2,3.7-1.9
						c1.5,0.1,2.8,1.1,3.4,2.5C239.6,164.1,241.5,179.2,236.3,188.7z"/>
				</g>
			</g>
		</g>
	</g>
	<g>
		<g>
			<g>
				<g>
					<path class="st67" d="M230,144.8c-4.9,8-15.1,18.1-15.5,18.5c-0.8,0.7-1.8,1.1-2.8,1.1c-0.3,0-0.6,0-0.8-0.1
						c-1.3-0.3-2.4-1.2-2.9-2.5c-9.8-25.2-33.2-68.6-80.5-76.5c-4.9-0.8-10-1.2-15.3-1.2c-49.1,0-76.4,35.8-90.7,65.8
						c-0.5,1.1-1.6,2-2.8,2.2c-1.2,0.2-2.5-0.1-3.5-1C3.1,140.2-1.8,132,0.6,126.8c2.2-4.7,7.7-6.1,12.5-7.4c2.2-0.6,4.8-1.2,5.8-2
						c0.7-1.4,0.8-6.5,0.8-9.8c0.1-7.8,0.2-15.2,4.4-18.5c3-2.3,7-2.7,10.6-2.7c1.1,0,2.2,0,3.3,0.1c1.1,0,2.1,0.1,3.2,0.1
						c2.3,0,5.1-0.1,6.7-1.1c1.3-0.8,1.7-6.9,1.9-10.1c0.4-6.7,0.8-13.5,5.9-16.3c1.4-0.8,3-1.2,4.7-1.2c4,0,8.3,2.1,12.5,4.2
						c3.7,1.8,7.4,3.7,10,3.6c1.3-0.1,3.6-5.8,4.6-8.2c2.6-6.3,5.5-13.4,12.3-13.4c0.3,0,0.6,0,0.9,0c6.2,0.6,10.1,5.7,13.5,10.2
						c2.3,3,4.6,6.1,6.8,6.5c0.1,0,0.2,0,0.3,0c1.9,0,5.1-3.1,7.7-5.6c4-3.9,8.1-7.9,13.3-7.9c0.3,0,0.7,0,1,0.1
						c6.6,0.7,8.9,7.1,10.7,12.3c1.2,3.3,2.5,7,4.4,7.9c0.2,0.1,0.5,0.2,0.9,0.2c2.2,0,5.7-2.1,8.8-3.9c3.9-2.4,7.6-4.6,11.4-4.6
						c1.1,0,2.2,0.2,3.2,0.6c5.4,2.3,5.6,9.3,5.7,16.1c0.1,4.4,0.2,9.9,1.9,11.9c0,0,0.1,0.1,0.1,0.1l0.1,0.1
						c0.7,0.7,1.5,1.1,2.6,1.4c1,0.3,2.2,0.4,3.9,0.4c0.8,0,1.5,0,2.3-0.1c0.8,0,1.6,0,2.4,0c3.3,0,7.1,0.4,10.1,3.1
						c4.3,3.9,2.9,10.7,1.9,15.2c-0.1,0.6-0.2,1.2-0.4,1.7c-0.8,3.3-1.9,8.4-0.9,9.8c1.5,2.2,5.2,4.1,8.8,6
						c4.2,2.2,8.2,4.2,10.4,7.5C234.2,137,232,141.6,230,144.8z"/>
				</g>
			</g>
		</g>
	</g>
	<g>
		<g>
			<g>
				<g>
					<path class="st0" d="M17.9,148.3C17.9,148.3,17.9,148.3,17.9,148.3L17.9,148.3z"/>
				</g>
			</g>
		</g>
	</g>
	<g>
		<g>
			<g>
				<g>
					<path class="st70" d="M224.2,192.5c0,1,0,2-0.1,3c-0.7,11.5-5.9,16.4-17.3,16.4H17.7c-12.4,0-17.4-5.6-17.4-19.4
						c0-5.7,4.1-24.9,14.1-45.9c9.3-19.6,21.1-35.5,34.9-47.3c18.1-15.4,39.3-23.2,63-23.2c5.7,0,11.2,0.4,16.6,1.3
						C180,86,205,132.2,215.4,159C221.8,175.4,224.2,188.2,224.2,192.5z"/>
				</g>
			</g>
		</g>
	</g>
	<g>
		<g>
			<g>
				<g>
					<g>
						<path class="st71" d="M44.1,180.7c-5.4,0-9.7-4.4-9.7-9.7s4.4-9.7,9.7-9.7s9.7,4.4,9.7,9.7c0,2.6-1,5-2.8,6.9
							C49.2,179.7,46.7,180.7,44.1,180.7z M44.1,169.2c-1,0-1.7,0.8-1.7,1.7c0,1,0.8,1.7,1.7,1.7c0.6,0,1-0.3,1.2-0.5
							c0.2-0.2,0.5-0.6,0.5-1.2C45.8,170,45.1,169.2,44.1,169.2z"/>
					</g>
				</g>
			</g>
		</g>
		<g>
			<g>
				<g>
					<g>
						<path class="st71" d="M89.5,180.7c-5.4,0-9.7-4.4-9.7-9.7c0-5.4,4.4-9.8,9.7-9.8c5.4,0,9.8,4.4,9.8,9.7
							C99.2,176.3,94.9,180.7,89.5,180.7z M89.5,169.2c-1,0-1.7,0.8-1.7,1.7c0,1,0.8,1.8,1.7,1.8c1,0,1.7-0.8,1.7-1.7
							C91.2,170,90.5,169.2,89.5,169.2z"/>
					</g>
				</g>
			</g>
		</g>
		<g>
			<g>
				<g>
					<g>
						<path class="st71" d="M134.9,180.7C134.9,180.7,134.9,180.7,134.9,180.7c-5.4,0-9.8-4.4-9.8-9.7c0-1.9,0.5-3.7,1.5-5.3
							c0.1-0.1,0.1-0.2,0.2-0.2c1.8-2.7,4.8-4.2,8-4.2c4.3,0,8.1,2.9,9.3,7c0.3,0.9,0.4,1.9,0.4,2.8
							C144.6,176.3,140.3,180.7,134.9,180.7z M133.4,170.1c-0.1,0.2-0.2,0.5-0.2,0.8c0,1,0.8,1.7,1.7,1.7h0c0.9,0,1.7-0.8,1.7-1.7
							c0-0.2,0-0.3-0.1-0.5c-0.2-0.7-0.9-1.2-1.7-1.2c-0.6,0-1.1,0.3-1.5,0.8C133.4,170.1,133.4,170.1,133.4,170.1z"/>
					</g>
				</g>
			</g>
		</g>
		<g>
			<g>
				<g>
					<g>
						<path class="st71" d="M180.3,180.7c-3.2,0-6.2-1.6-8.1-4.3c-1.1-1.6-1.7-3.5-1.7-5.5c0-2.6,1-5,2.8-6.9
							c1.8-1.8,4.3-2.9,6.9-2.9c5.4,0,9.7,4.4,9.7,9.7c0,2.9-1.2,5.6-3.4,7.4c-0.1,0.1-0.1,0.1-0.2,0.2
							C184.7,180,182.5,180.7,180.3,180.7z M180.3,169.2c-0.6,0-1,0.3-1.2,0.5c-0.2,0.2-0.5,0.6-0.5,1.2c0,0.4,0.1,0.7,0.3,1
							c0.6,0.8,1.8,1,2.5,0.3c0,0,0.1-0.1,0.1-0.1c0.2-0.2,0.5-0.6,0.5-1.2C182,170,181.3,169.2,180.3,169.2z"/>
					</g>
				</g>
			</g>
		</g>
		<g>
			<g>
				<g>
					<g>
						<path class="st71" d="M157.6,144.7C157.6,144.7,157.6,144.7,157.6,144.7c-5.4,0-9.8-4.4-9.8-9.7s4.4-9.7,9.7-9.7
							c5.4,0,9.7,4.4,9.7,9.8c0,2.6-1,5-2.8,6.9C162.6,143.7,160.2,144.7,157.6,144.7z M157.6,133.2c-1,0-1.7,0.8-1.7,1.7
							s0.8,1.7,1.7,1.7h0c0.6,0,1-0.3,1.2-0.5c0.2-0.2,0.5-0.6,0.5-1.2C159.3,134,158.5,133.2,157.6,133.2z"/>
					</g>
				</g>
			</g>
		</g>
		<g>
			<g>
				<g>
					<g>
						<path class="st71" d="M112.2,145.8c-5.4,0-9.7-4.4-9.7-9.8c0-5.4,4.4-9.7,9.7-9.7c5.4,0,9.8,4.4,9.8,9.7
							C121.9,141.4,117.6,145.8,112.2,145.8z M112.2,134.3c-1,0-1.7,0.8-1.7,1.7c0,1,0.8,1.8,1.7,1.8c1,0,1.7-0.8,1.7-1.7
							C113.9,135,113.1,134.3,112.2,134.3z"/>
					</g>
				</g>
			</g>
		</g>
		<g>
			<g>
				<g>
					<g>
						<path class="st71" d="M66.8,144.7c-5.4,0-9.7-4.4-9.7-9.7s4.4-9.7,9.7-9.7c5.4,0,9.7,4.4,9.7,9.7S72.2,144.7,66.8,144.7z
							 M66.8,133.2c-1,0-1.7,0.8-1.7,1.7c0,1,0.8,1.7,1.7,1.7c1,0,1.7-0.8,1.7-1.7C68.5,134,67.7,133.2,66.8,133.2z"/>
					</g>
				</g>
			</g>
		</g>
	</g>
</g>
</svg>
