<?xml version="1.0" encoding="utf-8"?>
<!-- Generator: Adobe Illustrator 22.1.0, SVG Export Plug-In . SVG Version: 6.00 Build 0)  -->
<svg version="1.1" id="Layer_1" xmlns="http://www.w3.org/2000/svg" xmlns:xlink="http://www.w3.org/1999/xlink" x="0px" y="0px"
	 viewBox="0 0 256 256" style="enable-background:new 0 0 256 256;" xml:space="preserve">
<style type="text/css">
	.st0{fill:#F6D67A;}
	.st1{fill:#E77CAE;}
	.st2{fill:#AC6535;}
	.st3{fill:#EB573B;}
	.st4{fill:#464646;}
	.st5{fill:#F5B31F;}
	.st6{fill:#9B592D;}
	.st7{fill:#9B5B2F;}
	.st8{fill:#E8A41A;}
	.st9{fill:#6D6E71;}
	.st10{fill:#E5A21C;}
	.st11{fill:#C66395;}
	.st12{fill:#E09F1E;}
	.st13{fill:#FFFFFF;}
	.st14{fill:#DDB95E;}
	.st15{fill:#EAC771;}
	.st16{fill:#F9F6CD;}
	.st17{fill:#009345;}
	.st18{fill:#008438;}
	.st19{fill:#EAA51B;}
	.st20{opacity:0.1;}
	.st21{fill:#FFD11D;}
	.st22{fill:#FFE37B;}
	.st23{fill:#FFA755;}
	.st24{fill:#FFEC97;}
	.st25{fill:#BC7532;}
	.st26{fill:#EFEFEF;}
	.st27{fill:#60ACF7;}
	.st28{fill:#876C6C;}
	.st29{fill:#1DDCFF;}
	.st30{fill:#BDF3FF;}
	.st31{fill:#EFCA70;}
	.st32{fill:#EFA91D;}
	.st33{fill:#8FAE3C;}
	.st34{fill:#92A5AC;}
	.st35{fill:#E8E3BA;}
	.st36{fill:#F79932;}
	.st37{fill:#F4F4F4;}
	.st38{fill:#FFDF8F;}
	.st39{fill:#EAE5B9;}
	.st40{fill:#7E9E6A;}
	.st41{fill:#94B57F;}
	.st42{fill:#9B5D8C;}
	.st43{fill:#96557A;}
	.st44{fill:#C3755A;}
	.st45{fill:#9BD7DD;}
	.st46{fill:#90CAD3;}
	.st47{fill:#F7F7F7;}
	.st48{fill:#AFE6EF;}
	.st49{fill:#FFFAEB;}
	.st50{fill:#F4EFC3;}
	.st51{fill:#F9F9F9;}
	.st52{fill:#FFE5C4;}
	.st53{fill:#FFB024;}
	.st54{fill:#FFC612;}
	.st55{fill:#FFCE31;}
	.st56{fill:#A05C2D;}
	.st57{fill:#1DCAF2;}
	.st58{fill:#00B0E0;}
	.st59{fill:#F2A355;}
	.st60{fill:#D68032;}
	.st61{fill:#66625D;}
	.st62{fill:#54504D;}
	.st63{fill:#B76955;}
	.st64{fill:#EFE8B4;}
	.st65{fill:#B93226;}
	.st66{fill:#EFEABF;}
	.st67{fill:#90C056;}
	.st68{opacity:0.15;}
	.st69{fill:#E8C56D;}
	.st70{fill:#F7BE4B;}
	.st71{fill:#E0A338;}
	.st72{fill:#F68455;}
	.st73{fill:#E26F47;}
	.st74{fill:#EC754B;}
	.st75{fill:#4AA5BA;}
	.st76{opacity:0.5;}
	.st77{fill:#A0B1B5;}
	.st78{opacity:0.7;}
	.st79{fill:#00ADEE;}
	.st80{fill:#F4D4B3;}
	.st81{fill:#F9D97A;}
	.st82{fill:#EDC96E;}
	.st83{fill:none;}
	.st84{fill:#AF6535;}
	.st85{fill:#F18BB4;}
	.st86{fill:#B3E4FF;}
	.st87{fill:#97DFFF;}
	.st88{fill:#D06E3C;}
	.st89{fill:#B55931;}
	.st90{fill:#DA4F4B;}
	.st91{fill:#EFCAA8;}
	.st92{fill:#EA7CB1;}
	.st93{fill:#EA7DAE;}
	.st94{fill:#BC7646;}
	.st95{fill:#00A1C6;}
	.st96{fill:#FCC230;}
	.st97{fill:#F2EBB1;}
	.st98{fill:#F9D6AF;}
	.st99{fill:#D34735;}
	.st100{fill:#E5A21A;}
	.st101{fill:#849E33;}
	.st102{fill:#EFBB14;}
	.st103{fill:#D8402B;}
	.st104{fill:#829B34;}
	.st105{fill:#F88916;}
	.st106{fill:#E27513;}
	.st107{fill:#FFB41F;}
	.st108{fill:#8AA538;}
	.st109{fill:#BE6BB2;}
	.st110{fill:#AA5BA3;}
	.st111{fill:#FFDF66;}
	.st112{fill:#F4BA00;}
	.st113{fill:#E28529;}
	.st114{fill:#FF9945;}
	.st115{fill:#BA6C45;}
	.st116{fill:#EDBA15;}
	.st117{fill:#E0452F;}
	.st118{fill:#F7F2D5;}
	.st119{fill:#4C4E51;}
	.st120{fill:#EA615D;}
	.st121{fill:#DD4A36;}
	.st122{fill:#F6AF72;}
	.st123{fill:#E8955D;}
	.st124{fill:#E4C074;}
	.st125{fill:#EAE4C3;}
	.st126{fill:#BF3522;}
	.st127{fill:#D13E33;}
	.st128{fill:#AA5EA3;}
	.st129{fill:#DD443C;}
	.st130{fill:#AA5FA3;}
	.st131{fill:#B7C536;}
	.st132{fill:#F2872F;}
	.st133{fill:#AF5FA7;}
	.st134{fill:#E29F17;}
	.st135{fill:#FFC86E;}
	.st136{fill:#A55937;}
	.st137{fill:#D8422E;}
	.st138{fill:#C3556D;}
	.st139{fill:#B24965;}
	.st140{fill:#D1A962;}
	.st141{fill:#A3961A;}
	.st142{fill:#AFA51D;}
	.st143{fill:#968A1C;}
</style>
<g>
	<g>
		<g>
			<g>
				<g>
					<path class="st3" d="M244.8,173.1c-20.8,37.3-66.5,61.5-116.5,61.5c-50.5,0-96.5-24.1-117.3-61.4C-4.7,145-3.6,113.7,14.1,85
						C26.9,65,47.1,54.9,74,54.9c6.9,0,14.3,0.6,22.4,2c1,0.2,1.9,0.7,2.5,1.5c4.2,5.3,8.3,8.3,11.5,8.6c1.9,0.2,3.4,1.6,3.6,3.5
						c0.2,1.9-0.9,3.7-2.7,4.3c-9,3.1-15.4,7.9-19.2,14.6c6.2-7.1,13.8-12.7,22.6-12.7h0.1c4,0.1,10.4,2.5,17.8,5.3
						c7.8,2.9,16.7,6.2,21.4,6.2h0.2c1.9,0,3.7,0.3,5.4,0.8c-3.4-2-7.5-3.5-12.4-4.2c-2.1-0.3-3.6-2.2-3.4-4.3
						c0.2-2.1,2-3.7,4.1-3.7c3.9,0.1,8.2-0.4,12.3-1.2c-5.1-0.2-9.1-0.8-12.3-1.7c-1.7-0.5-2.9-2.1-2.8-4c0.1-1.8,1.3-3.4,3.1-3.8
						c5.1-1.1,12.3-5,19.3-10.4c0.6-0.4,1.2-0.7,2-0.8c4.8-0.6,9.5-0.8,13.9-0.8c26.1,0,45.7,9.9,58.2,29.5
						C259.7,112.7,260.8,144.5,244.8,173.1z"/>
				</g>
			</g>
		</g>
	</g>
	<g>
		<g>
			<g>
				<g>
					<path class="st33" d="M187.3,72.2c-0.3,1.5-0.7,4-14.2,8.3c-2,0.7-4.9,1.5-8.1,2.2c8.4,5.4,13.6,13.3,14.8,20.6
						c0.9,5.6-0.8,10.1-4.6,12c-0.6,0.3-1.2,0.4-1.8,0.4c-0.6,0-1.2-0.1-1.8-0.4c-1.1-0.6-1.9-1.6-2.1-2.9
						c-0.1-0.7-3-16.1-15.2-16.3h-0.1c-6.2,0-15.4-3.4-24.2-6.8c-5.8-2.2-12.4-4.7-15.1-4.8c-8.5,0.1-17.4,8.5-27.4,25.6
						c-0.9,1.5-2.7,2.3-4.5,1.9c-1.7-0.5-3-2-3-3.8c-0.2-17.3,6.6-29.9,20.2-37.4c-2.5-1.9-5-4.4-7.6-7.6
						c-6.2-7.8-11-17.6-13.2-22.7c-6-13.5-4.8-15.7-4.3-16.8c0.7-1.5,2.1-2.4,3.8-2.4c2.8,0,4,2,6.1,5.4
						c4.2,6.6,13.6,21.7,35.6,28.7c2.8-10.8,10.7-26,18-26c4.5,0,8.7,3,10.9,5.5c2,2.3,2.9,4.6,2.6,6.7c-0.3,2.4-2.1,4.5-5,7.9
						c-1.3,1.6-2.8,3.3-4.2,5.1c8.1-1.1,17.3-4.5,24.3-7.1c6.2-2.3,9.3-3.4,11.6-3.4c1.3,0,2.5,0.4,3.4,1.2c1,0.9,1.6,2.2,1.6,3.6
						c0,1.1-0.1,4.6-11.3,13.1c-1.7,1.3-4.6,3.4-8.1,5.5c3.9,0,7.8-0.2,10.9-0.3c2.3-0.1,4.3-0.2,5.8-0.2c1.7,0,2.6,0.1,3.5,0.4
						C186.6,68.3,187.7,70.3,187.3,72.2z"/>
				</g>
			</g>
		</g>
	</g>
	<g>
		<g>
			<g>
				<g>
					<path class="st121" d="M62.1,199.7c-0.8,0-1.6-0.2-2.3-0.7c-32.1-22.9-43.6-49.1-38.5-87.7c0.3-2.2,2.3-3.7,4.5-3.4
						c2.2,0.3,3.7,2.3,3.4,4.5c-4.8,35.7,5.4,58.9,35.2,80.2c1.8,1.3,2.2,3.8,0.9,5.6C64.6,199.1,63.4,199.7,62.1,199.7z"/>
				</g>
			</g>
		</g>
	</g>
</g>
</svg>
