<?xml version="1.0" encoding="utf-8"?>
<!-- Generator: Adobe Illustrator 22.1.0, SVG Export Plug-In . SVG Version: 6.00 Build 0)  -->
<svg version="1.1" id="Layer_1" xmlns="http://www.w3.org/2000/svg" xmlns:xlink="http://www.w3.org/1999/xlink" x="0px" y="0px"
	 viewBox="0 0 256 256" style="enable-background:new 0 0 256 256;" xml:space="preserve">
<style type="text/css">
	.st0{fill:#F6D67A;}
	.st1{fill:#E77CAE;}
	.st2{fill:#AC6535;}
	.st3{fill:#EB573B;}
	.st4{fill:#464646;}
	.st5{fill:#F5B31F;}
	.st6{fill:#9B592D;}
	.st7{fill:#9B5B2F;}
	.st8{fill:#E8A41A;}
	.st9{fill:#6D6E71;}
	.st10{fill:#E5A21C;}
	.st11{fill:#C66395;}
	.st12{fill:#E09F1E;}
	.st13{fill:#FFFFFF;}
	.st14{fill:#DDB95E;}
	.st15{fill:#EAC771;}
	.st16{fill:#F9F6CD;}
	.st17{fill:#009345;}
	.st18{fill:#008438;}
	.st19{fill:#EAA51B;}
	.st20{opacity:0.1;}
	.st21{fill:#FFD11D;}
	.st22{fill:#FFE37B;}
	.st23{fill:#FFA755;}
	.st24{fill:#FFEC97;}
	.st25{fill:#BC7532;}
	.st26{fill:#EFEFEF;}
	.st27{fill:#60ACF7;}
	.st28{fill:#876C6C;}
	.st29{fill:#1DDCFF;}
	.st30{fill:#BDF3FF;}
	.st31{fill:#EFCA70;}
	.st32{fill:#EFA91D;}
	.st33{fill:#8FAE3C;}
	.st34{fill:#92A5AC;}
	.st35{fill:#E8E3BA;}
	.st36{fill:#F79932;}
	.st37{fill:#F4F4F4;}
	.st38{fill:#FFDF8F;}
	.st39{fill:#EAE5B9;}
	.st40{fill:#7E9E6A;}
	.st41{fill:#94B57F;}
	.st42{fill:#9B5D8C;}
	.st43{fill:#96557A;}
	.st44{fill:#C3755A;}
	.st45{fill:#9BD7DD;}
	.st46{fill:#90CAD3;}
	.st47{fill:#F7F7F7;}
	.st48{fill:#AFE6EF;}
	.st49{fill:#FFFAEB;}
	.st50{fill:#F4EFC3;}
	.st51{fill:#F9F9F9;}
	.st52{fill:#FFE5C4;}
	.st53{fill:#FFB024;}
	.st54{fill:#FFC612;}
	.st55{fill:#FFCE31;}
	.st56{fill:#A05C2D;}
	.st57{fill:#1DCAF2;}
	.st58{fill:#00B0E0;}
	.st59{fill:#F2A355;}
	.st60{fill:#D68032;}
	.st61{fill:#66625D;}
	.st62{fill:#54504D;}
	.st63{fill:#B76955;}
	.st64{fill:#EFE8B4;}
	.st65{fill:#B93226;}
	.st66{fill:#EFEABF;}
	.st67{fill:#90C056;}
	.st68{opacity:0.15;}
	.st69{fill:#E8C56D;}
	.st70{fill:#F7BE4B;}
	.st71{fill:#E0A338;}
	.st72{fill:#F68455;}
	.st73{fill:#E26F47;}
	.st74{fill:#EC754B;}
	.st75{fill:#4AA5BA;}
	.st76{opacity:0.5;}
	.st77{fill:#A0B1B5;}
	.st78{opacity:0.7;}
	.st79{fill:#00ADEE;}
	.st80{fill:#F4D4B3;}
	.st81{fill:#F9D97A;}
	.st82{fill:#EDC96E;}
	.st83{fill:none;}
	.st84{fill:#AF6535;}
	.st85{fill:#F18BB4;}
	.st86{fill:#B3E4FF;}
	.st87{fill:#97DFFF;}
	.st88{fill:#D06E3C;}
	.st89{fill:#B55931;}
	.st90{fill:#DA4F4B;}
	.st91{fill:#EFCAA8;}
	.st92{fill:#EA7CB1;}
	.st93{fill:#EA7DAE;}
	.st94{fill:#BC7646;}
	.st95{fill:#00A1C6;}
	.st96{fill:#FCC230;}
	.st97{fill:#F2EBB1;}
	.st98{fill:#F9D6AF;}
	.st99{fill:#D34735;}
	.st100{fill:#E5A21A;}
	.st101{fill:#849E33;}
	.st102{fill:#EFBB14;}
	.st103{fill:#D8402B;}
	.st104{fill:#829B34;}
	.st105{fill:#F88916;}
	.st106{fill:#E27513;}
	.st107{fill:#FFB41F;}
	.st108{fill:#8AA538;}
	.st109{fill:#BE6BB2;}
	.st110{fill:#AA5BA3;}
	.st111{fill:#FFDF66;}
	.st112{fill:#F4BA00;}
	.st113{fill:#E28529;}
	.st114{fill:#FF9945;}
	.st115{fill:#BA6C45;}
	.st116{fill:#EDBA15;}
	.st117{fill:#E0452F;}
	.st118{fill:#F7F2D5;}
	.st119{fill:#4C4E51;}
	.st120{fill:#EA615D;}
	.st121{fill:#DD4A36;}
	.st122{fill:#F6AF72;}
	.st123{fill:#E8955D;}
	.st124{fill:#E4C074;}
	.st125{fill:#EAE4C3;}
	.st126{fill:#BF3522;}
	.st127{fill:#D13E33;}
	.st128{fill:#AA5EA3;}
	.st129{fill:#DD443C;}
	.st130{fill:#AA5FA3;}
	.st131{fill:#B7C536;}
	.st132{fill:#F2872F;}
	.st133{fill:#AF5FA7;}
	.st134{fill:#E29F17;}
	.st135{fill:#FFC86E;}
	.st136{fill:#A55937;}
	.st137{fill:#D8422E;}
	.st138{fill:#C3556D;}
	.st139{fill:#B24965;}
	.st140{fill:#D1A962;}
	.st141{fill:#A3961A;}
	.st142{fill:#AFA51D;}
	.st143{fill:#968A1C;}
</style>
<g>
	<g>
		<g>
			<g>
				<g>
					<path class="st88" d="M219,95.1c-4.1,8.4-7.6,16.4-7.6,16.4c-1.2,4-7.8,25.3-19,36.4c-11.2,11.1-31.7,16.2-46.6,1.4
						c-14.9-14.9-9.8-35.4,1.3-46.5c11.2-11.1,32.5-17.7,36.5-18.9c0,0,5.2-2.8,11.6-6.3c-23-14.3-50.9-25-80-26.1
						C42.8,48.6,4,128.2,4,155.8c0,14.1,8.8,27,23.1,36.2h178.4c24.3-11,45.7-27.3,46.5-44.6C252.6,133.5,239.8,113.3,219,95.1z
						 M62.8,174.9c-15.7-2.5-28.1-10.1-28.1-20.2c0-10.1,59-42.1,59.3-36.2c0.3,5.9-21.7,29.8-21.7,29.8s28.4,8.7,28.4,16.6
						C100.7,172.7,78.5,177.4,62.8,174.9z"/>
				</g>
			</g>
		</g>
	</g>
	<g>
		<g>
			<g>
				<g>
					<path class="st88" d="M100.7,164.8c0,7.9-22.2,12.6-38,10.1c-15.7-2.5-28.1-10.1-28.1-20.2c0-10.1,59-42.1,59.3-36.2
						c0.3,5.9-21.7,29.8-21.7,29.8S100.7,156.9,100.7,164.8z"/>
				</g>
			</g>
		</g>
	</g>
	<g>
		<g>
			<g>
				<g>
					<g>
						<path class="st88" d="M205.5,196H27.1c-0.8,0-1.5-0.2-2.2-0.6C9.1,185.1,0,170.7,0,155.8c0-14.6,9.7-41.5,28.4-64.9
							C44.2,71,71.5,47.3,111.6,47.3c1.3,0,2.6,0,3.9,0.1c34.5,1.4,63.6,15.3,81.9,26.7c1.2,0.8,1.9,2.1,1.9,3.5
							c0,1.4-0.8,2.7-2.1,3.4c-6.4,3.5-11.6,6.3-11.7,6.4c-0.2,0.1-0.4,0.2-0.7,0.3l-0.3,0.1c-15.7,4.9-28,11.3-34.6,17.9
							c-5.9,5.9-9.4,14.1-9.4,22.1c0,7,2.8,13.5,8.1,18.8c5.3,5.3,11.8,8.1,18.8,8.1c7.9,0,16.2-3.5,22.1-9.4
							c6.6-6.6,13-18.9,17.9-34.6l0.1-0.2c0-0.1,0.1-0.3,0.1-0.4c0-0.1,3.6-8.2,7.7-16.6c0.6-1.1,1.6-1.9,2.8-2.1
							c1.2-0.2,2.5,0.1,3.4,0.9c21.8,19.1,35,40.4,34.3,55.5c-1.1,23.8-34.5,41.5-48.9,48C206.6,195.9,206,196,205.5,196z M28.3,188
							h176.3c26.6-12.2,42.8-27.4,43.4-40.8c0.5-11.7-10.2-29.2-27.7-45.6c-2.7,5.6-4.7,10.3-5.2,11.3l0,0
							c-5.4,17.1-12.3,30.2-19.9,37.8c-7.4,7.4-17.8,11.8-27.8,11.8c-9.2,0-17.7-3.6-24.5-10.4c-6.8-6.8-10.4-15.3-10.4-24.5
							c0-10,4.4-20.4,11.8-27.7c7.6-7.6,20.6-14.4,37.8-19.8c0.7-0.4,2.6-1.4,5.1-2.8c-17.5-10.1-42.8-20.8-72.1-22
							c-1.2,0-2.4-0.1-3.6-0.1c-36.9,0-62.2,22.1-77,40.6C17.3,117.5,8,142.9,8,155.8C8,167.8,15.2,179.2,28.3,188z"/>
					</g>
				</g>
			</g>
		</g>
	</g>
	<g>
		<g>
			<g>
				<g>
					<path class="st89" d="M71.9,179.6c-3.4,0-6.7-0.2-9.7-0.7c-19.1-3.1-31.5-12.6-31.5-24.2c0-2.2,0-8.7,27.8-25.4
						c9-5.4,27.7-15.6,34.3-15.6c3.4,0,5.1,2.3,5.2,4.5c0.1,2.7-1.2,7-11.6,19.8c-2.5,3.1-5,6-7,8.3c2.5,0.9,5.7,2.1,8.8,3.5
						c11.5,5.1,16.6,9.7,16.6,14.9C104.7,175.7,85.1,179.6,71.9,179.6z M38.6,154.8c0.1,7.2,10.3,13.8,24.7,16.1
						c2.6,0.4,5.5,0.6,8.5,0.6c14.8,0,24.6-4.7,24.8-6.7c-0.9-2.9-13-9-25.6-12.8c-1.3-0.4-2.3-1.5-2.7-2.8c-0.4-1.3,0-2.7,0.9-3.8
						c6.9-7.5,14.2-16.5,18-22.1c-5.3,2.1-13.9,6.3-23.8,12.2C46.6,145.7,39.3,152.7,38.6,154.8z"/>
				</g>
			</g>
		</g>
	</g>
	<g>
		<g>
			<g>
				<g>
					<path class="st52" d="M245.5,195.3c-10.3,6.9-28.5,18.6-34.2,18.6H37.9c-4.6,0-20.4-10.1-32.9-18.6c-1.5-1-2.1-2.8-1.6-4.5
						c0.5-1.7,2.1-2.8,3.8-2.8h236c1.8,0,3.3,1.1,3.8,2.8C247.6,192.5,247,194.3,245.5,195.3z"/>
				</g>
			</g>
		</g>
	</g>
	<g>
		<g>
			<g>
				<g>
					<path class="st88" d="M247.7,67c-7.9,8.1-12.2,5.7-17.8,10.2c-2.7,2.2-7,10.2-10.9,17.9c-4.1,8.4-7.6,16.4-7.6,16.4
						c-1.2,4-7.8,25.3-19,36.4c-11.2,11.1-31.7,16.2-46.6,1.4c-14.9-14.9-9.8-35.4,1.3-46.5c11.2-11.1,32.5-17.7,36.5-18.9
						c0,0,5.2-2.8,11.6-6.3c8.4-4.6,18.8-10.6,22.7-13.4c6.8-5.1,0.1-8.1,9-16C235.9,40.1,255.6,58.8,247.7,67z"/>
				</g>
			</g>
		</g>
	</g>
	<g>
		<g>
			<g>
				<g>
					<path class="st89" d="M167.5,162.6c-9.2,0-17.7-3.6-24.5-10.4c-6.8-6.8-10.4-15.3-10.4-24.5c0-10,4.4-20.4,11.8-27.7
						c7.6-7.6,20.7-14.4,37.8-19.8c1.2-0.7,5.8-3.1,11.2-6.1c11.4-6.3,19.3-11,22.2-13.1c1.8-1.4,1.9-1.9,2.1-3.8
						c0.4-3.6,1.2-7.2,6.6-12c2.1-1.9,4.9-2.9,7.9-2.9c8.3,0,17.1,7.6,20.1,14.6c2.1,5,1.5,9.7-1.7,13c-5.3,5.5-9.5,6.9-12.9,8
						c-2.1,0.7-3.6,1.2-5.3,2.5c-0.6,0.5-3.2,3.2-9.8,16.6c-3.7,7.5-6.9,14.8-7.5,16.1l0,0c-5.4,17.1-12.3,30.2-19.9,37.8
						C187.9,158.2,177.5,162.6,167.5,162.6z M232.2,50.1c-1.1,0-1.9,0.3-2.6,0.9c-3.6,3.2-3.8,4.9-4,7c-0.3,2.5-0.7,5.9-5.3,9.3
						c-3.3,2.4-11.1,7.1-23.1,13.7c-6.4,3.5-11.6,6.3-11.7,6.4c-0.2,0.1-0.4,0.2-0.7,0.3l-0.3,0.1c-15.7,4.9-28,11.3-34.6,17.9
						c-5.9,5.9-9.4,14.2-9.4,22.1c0,7,2.8,13.5,8.1,18.8c5.3,5.3,11.8,8.1,18.8,8.1c7.9,0,16.2-3.5,22.1-9.4
						c6.6-6.6,13-18.9,17.9-34.6l0.1-0.2c0-0.1,0.1-0.3,0.1-0.4c0-0.1,3.6-8.2,7.7-16.6c7.1-14.3,10.2-17.8,11.9-19.2
						c2.8-2.3,5.5-3.2,7.8-3.9c2.9-1,5.6-1.8,9.6-5.9c0.9-0.9,0.9-2.4,0.1-4.3C242.8,54.9,236.5,50.1,232.2,50.1z"/>
				</g>
			</g>
		</g>
	</g>
</g>
</svg>
