<?xml version="1.0" encoding="utf-8"?>
<!-- Generator: Adobe Illustrator 22.1.0, SVG Export Plug-In . SVG Version: 6.00 Build 0)  -->
<svg version="1.1" id="Layer_1" xmlns="http://www.w3.org/2000/svg" xmlns:xlink="http://www.w3.org/1999/xlink" x="0px" y="0px"
	 viewBox="0 0 256 256" style="enable-background:new 0 0 256 256;" xml:space="preserve">
<style type="text/css">
	.st0{fill:#F6D67A;}
	.st1{fill:#E77CAE;}
	.st2{fill:#AC6535;}
	.st3{fill:#EB573B;}
	.st4{fill:#464646;}
	.st5{fill:#F5B31F;}
	.st6{fill:#9B592D;}
	.st7{fill:#9B5B2F;}
	.st8{fill:#E8A41A;}
	.st9{fill:#6D6E71;}
	.st10{fill:#E5A21C;}
	.st11{fill:#C66395;}
	.st12{fill:#E09F1E;}
	.st13{fill:#FFFFFF;}
	.st14{fill:#DDB95E;}
	.st15{fill:#EAC771;}
	.st16{fill:#F9F6CD;}
	.st17{fill:#009345;}
	.st18{fill:#008438;}
	.st19{fill:#EAA51B;}
	.st20{opacity:0.1;}
	.st21{fill:#FFD11D;}
	.st22{fill:#FFE37B;}
	.st23{fill:#FFA755;}
	.st24{fill:#FFEC97;}
	.st25{fill:#BC7532;}
	.st26{fill:#EFEFEF;}
	.st27{fill:#60ACF7;}
	.st28{fill:#876C6C;}
	.st29{fill:#1DDCFF;}
	.st30{fill:#BDF3FF;}
	.st31{fill:#EFCA70;}
	.st32{fill:#EFA91D;}
	.st33{fill:#8FAE3C;}
	.st34{fill:#92A5AC;}
	.st35{fill:#E8E3BA;}
	.st36{fill:#F79932;}
	.st37{fill:#F4F4F4;}
	.st38{fill:#FFDF8F;}
	.st39{fill:#EAE5B9;}
	.st40{fill:#7E9E6A;}
	.st41{fill:#94B57F;}
	.st42{fill:#9B5D8C;}
	.st43{fill:#96557A;}
	.st44{fill:#C3755A;}
	.st45{fill:#9BD7DD;}
	.st46{fill:#90CAD3;}
	.st47{fill:#F7F7F7;}
	.st48{fill:#AFE6EF;}
	.st49{fill:#FFFAEB;}
	.st50{fill:#F4EFC3;}
	.st51{fill:#F9F9F9;}
	.st52{fill:#FFE5C4;}
	.st53{fill:#FFB024;}
	.st54{fill:#FFC612;}
	.st55{fill:#FFCE31;}
	.st56{fill:#A05C2D;}
	.st57{fill:#1DCAF2;}
	.st58{fill:#00B0E0;}
	.st59{fill:#F2A355;}
	.st60{fill:#D68032;}
	.st61{fill:#66625D;}
	.st62{fill:#54504D;}
	.st63{fill:#B76955;}
	.st64{fill:#EFE8B4;}
	.st65{fill:#B93226;}
	.st66{fill:#EFEABF;}
	.st67{fill:#90C056;}
	.st68{opacity:0.15;}
	.st69{fill:#E8C56D;}
	.st70{fill:#F7BE4B;}
	.st71{fill:#E0A338;}
	.st72{fill:#F68455;}
	.st73{fill:#E26F47;}
	.st74{fill:#EC754B;}
	.st75{fill:#4AA5BA;}
	.st76{opacity:0.5;}
	.st77{fill:#A0B1B5;}
	.st78{opacity:0.7;}
	.st79{fill:#00ADEE;}
	.st80{fill:#F4D4B3;}
	.st81{fill:#F9D97A;}
	.st82{fill:#EDC96E;}
	.st83{fill:none;}
	.st84{fill:#AF6535;}
	.st85{fill:#F18BB4;}
	.st86{fill:#B3E4FF;}
	.st87{fill:#97DFFF;}
	.st88{fill:#D06E3C;}
	.st89{fill:#B55931;}
	.st90{fill:#DA4F4B;}
	.st91{fill:#EFCAA8;}
	.st92{fill:#EA7CB1;}
	.st93{fill:#EA7DAE;}
	.st94{fill:#BC7646;}
	.st95{fill:#00A1C6;}
	.st96{fill:#FCC230;}
	.st97{fill:#F2EBB1;}
	.st98{fill:#F9D6AF;}
	.st99{fill:#D34735;}
	.st100{fill:#E5A21A;}
	.st101{fill:#849E33;}
	.st102{fill:#EFBB14;}
	.st103{fill:#D8402B;}
	.st104{fill:#829B34;}
	.st105{fill:#F88916;}
	.st106{fill:#E27513;}
	.st107{fill:#FFB41F;}
	.st108{fill:#8AA538;}
	.st109{fill:#BE6BB2;}
	.st110{fill:#AA5BA3;}
	.st111{fill:#FFDF66;}
	.st112{fill:#F4BA00;}
	.st113{fill:#E28529;}
	.st114{fill:#FF9945;}
	.st115{fill:#BA6C45;}
	.st116{fill:#EDBA15;}
	.st117{fill:#E0452F;}
	.st118{fill:#F7F2D5;}
	.st119{fill:#4C4E51;}
	.st120{fill:#EA615D;}
	.st121{fill:#DD4A36;}
	.st122{fill:#F6AF72;}
	.st123{fill:#E8955D;}
	.st124{fill:#E4C074;}
	.st125{fill:#EAE4C3;}
	.st126{fill:#BF3522;}
	.st127{fill:#D13E33;}
	.st128{fill:#AA5EA3;}
	.st129{fill:#DD443C;}
	.st130{fill:#AA5FA3;}
	.st131{fill:#B7C536;}
	.st132{fill:#F2872F;}
	.st133{fill:#AF5FA7;}
	.st134{fill:#E29F17;}
	.st135{fill:#FFC86E;}
	.st136{fill:#A55937;}
	.st137{fill:#D8422E;}
	.st138{fill:#C3556D;}
	.st139{fill:#B24965;}
	.st140{fill:#D1A962;}
	.st141{fill:#A3961A;}
	.st142{fill:#AFA51D;}
	.st143{fill:#968A1C;}
</style>
<g>
	<g>
		<g>
			<g>
				<g>
					<path class="st5" d="M128,12.2L89.5,50.8L61.8,23.2C78.9,12.4,98.7,5.6,120,4.3L128,12.2z"/>
				</g>
			</g>
		</g>
	</g>
	<g>
		<g>
			<g>
				<g>
					<path class="st5" d="M194.2,23.2l-27.6,27.7L128,12.2l8-8C157.3,5.6,177.1,12.4,194.2,23.2z"/>
				</g>
			</g>
		</g>
	</g>
	<g>
		<g>
			<g>
				<g>
					<path class="st5" d="M136,4.3l-8,8l-8-8c2.6-0.2,5.3-0.3,8-0.3C130.7,4,133.3,4.1,136,4.3z"/>
				</g>
			</g>
		</g>
	</g>
	<g>
		<g>
			<g>
				<g>
					<path class="st5" d="M232.7,61.7l-27.6,27.7l-38.6-38.6l27.6-27.7C209.7,33,222.9,46.2,232.7,61.7z"/>
				</g>
			</g>
		</g>
	</g>
	<g>
		<g>
			<g>
				<g>
					<path class="st5" d="M251.6,120l-8,8l-38.5-38.6l27.6-27.7C243.5,78.8,250.3,98.7,251.6,120z"/>
				</g>
			</g>
		</g>
	</g>
	<g>
		<g>
			<g>
				<g>
					<polygon class="st5" points="205.1,89.4 166.6,128 128,89.4 166.5,50.8 					"/>
				</g>
			</g>
		</g>
	</g>
	<g>
		<g>
			<g>
				<g>
					<path class="st5" d="M251.6,136c-1.4,21.3-8.1,41.2-18.9,58.3l-27.6-27.7l38.5-38.6L251.6,136z"/>
				</g>
			</g>
		</g>
	</g>
	<g>
		<g>
			<g>
				<g>
					<path class="st5" d="M232.7,194.2c-9.8,15.5-23,28.8-38.6,38.6l-27.6-27.7l38.6-38.6L232.7,194.2z"/>
				</g>
			</g>
		</g>
	</g>
	<g>
		<g>
			<g>
				<g>
					<path class="st5" d="M194.2,232.8c-17,10.8-36.9,17.6-58.2,18.9l-8-8l38.5-38.6L194.2,232.8z"/>
				</g>
			</g>
		</g>
	</g>
	<g>
		<g>
			<g>
				<g>
					<path class="st5" d="M128,243.8l-8,8c-21.3-1.4-41.2-8.1-58.2-18.9l27.6-27.7L128,243.8z"/>
				</g>
			</g>
		</g>
	</g>
	<g>
		<g>
			<g>
				<g>
					<path class="st5" d="M136,251.7c-2.6,0.2-5.3,0.3-8,0.3c-2.7,0-5.3-0.1-8-0.3l8-8L136,251.7z"/>
				</g>
			</g>
		</g>
	</g>
	<g>
		<g>
			<g>
				<g>
					<path class="st5" d="M89.5,205.2l-27.6,27.7c-15.5-9.8-28.7-23.1-38.5-38.6l27.6-27.7L89.5,205.2z"/>
				</g>
			</g>
		</g>
	</g>
	<g>
		<g>
			<g>
				<g>
					<path class="st5" d="M50.9,166.6l-27.6,27.7C12.5,177.2,5.7,157.3,4.4,136l8-8L50.9,166.6z"/>
				</g>
			</g>
		</g>
	</g>
	<g>
		<g>
			<g>
				<g>
					<path class="st5" d="M50.9,89.4L12.4,128l-8-8c1.4-21.3,8.1-41.2,18.9-58.3L50.9,89.4z"/>
				</g>
			</g>
		</g>
	</g>
	<g>
		<g>
			<g>
				<g>
					<polygon class="st5" points="166.6,128 128,166.6 89.5,128 128,89.4 					"/>
				</g>
			</g>
		</g>
	</g>
	<g>
		<g>
			<g>
				<g>
					<path class="st5" d="M251.9,128c0,2.7-0.1,5.3-0.3,8l-8-8l8-8C251.8,122.7,251.9,125.3,251.9,128z"/>
				</g>
			</g>
		</g>
	</g>
	<g>
		<g>
			<g>
				<g>
					<g>
						<polygon class="st5" points="166.5,205.2 128,243.8 89.5,205.2 128,166.6 						"/>
					</g>
				</g>
			</g>
		</g>
		<g>
			<g>
				<g>
					<g>
						
							<rect x="139.3" y="139.3" transform="matrix(0.7068 -0.7074 0.7074 0.7068 -69.0111 166.6501)" class="st5" width="54.5" height="54.5"/>
					</g>
				</g>
			</g>
		</g>
		<g>
			<g>
				<g>
					<g>
						<polygon class="st5" points="166.5,50.8 128,89.4 89.5,50.8 128,12.2 						"/>
					</g>
				</g>
			</g>
		</g>
	</g>
	<g>
		<g>
			<g>
				<g>
					<polygon class="st5" points="243.6,128 205.1,166.6 166.6,128 205.1,89.4 					"/>
				</g>
			</g>
		</g>
	</g>
	<g>
		<g>
			<g>
				<g>
					<polygon class="st5" points="128,89.4 89.5,128 50.9,89.4 89.5,50.8 					"/>
				</g>
			</g>
		</g>
	</g>
	<g>
		<g>
			<g>
				<g>
					<path class="st5" d="M89.5,50.8L50.9,89.4L23.3,61.7c9.8-15.5,23-28.8,38.6-38.6L89.5,50.8z"/>
				</g>
			</g>
		</g>
	</g>
	<g>
		<g>
			<g>
				<g>
					<polygon class="st5" points="128,166.6 89.5,205.2 50.9,166.6 89.5,128 					"/>
				</g>
			</g>
		</g>
	</g>
	<g>
		<g>
			<g>
				<g>
					<polygon class="st5" points="89.5,128 50.9,166.6 12.4,128 50.9,89.4 					"/>
				</g>
			</g>
		</g>
	</g>
	<g>
		<g>
			<g>
				<g>
					<path class="st19" d="M89.5,54.8c-1.1,0-2.1-0.4-2.8-1.2L59,26c-0.9-0.9-1.3-2.1-1.1-3.3c0.1-1.2,0.8-2.3,1.8-2.9
						c18-11.4,38.8-18.2,60.1-19.5c1.1-0.1,2.3,0.4,3.1,1.2l8,8c1.6,1.6,1.6,4.1,0,5.7L92.3,53.6C91.5,54.4,90.5,54.8,89.5,54.8z
						 M68.3,23.9l21.2,21.2l32.9-32.9l-3.9-3.9C100.8,9.8,83.6,15.1,68.3,23.9z"/>
				</g>
			</g>
		</g>
	</g>
	<g>
		<g>
			<g>
				<g>
					<path class="st19" d="M166.5,54.8c-1.1,0-2.1-0.4-2.8-1.2l-38.5-38.6c-1.6-1.6-1.6-4.1,0-5.7l8-8c0.8-0.8,1.9-1.2,3.1-1.2
						c21.3,1.4,42.1,8.1,60.1,19.5c1,0.6,1.7,1.7,1.8,2.9c0.1,1.2-0.3,2.4-1.1,3.3l-27.6,27.7C168.6,54.4,167.6,54.8,166.5,54.8z
						 M133.7,12.2l32.9,32.9l21.2-21.2c-15.3-8.8-32.6-14.2-50.2-15.6L133.7,12.2z"/>
				</g>
			</g>
		</g>
	</g>
	<g>
		<g>
			<g>
				<g>
					<path class="st19" d="M128,16.2c-1.1,0-2.1-0.4-2.8-1.2l-8-8c-1.1-1.1-1.5-2.8-0.9-4.2c0.6-1.5,1.9-2.5,3.5-2.6
						c5.5-0.3,10.9-0.3,16.4,0c1.6,0.1,2.9,1.1,3.5,2.6c0.6,1.5,0.2,3.1-0.9,4.2l-8,8C130.1,15.8,129.1,16.2,128,16.2L128,16.2z"/>
				</g>
			</g>
		</g>
	</g>
	<g>
		<g>
			<g>
				<g>
					<path class="st19" d="M205.1,93.4c-1.1,0-2.1-0.4-2.8-1.2l-38.6-38.6c-1.6-1.6-1.6-4.1,0-5.7l27.6-27.7c1.3-1.3,3.4-1.6,5-0.6
						c15.9,10.1,29.7,23.9,39.8,39.8c1,1.6,0.8,3.6-0.6,5l-27.6,27.7C207.2,93,206.2,93.4,205.1,93.4z M172.2,50.8l32.9,32.9
						l22.5-22.5c-8.7-12.9-20-24.2-32.9-32.9L172.2,50.8z"/>
				</g>
			</g>
		</g>
	</g>
	<g>
		<g>
			<g>
				<g>
					<path class="st19" d="M243.6,132c-1.1,0-2.1-0.4-2.8-1.2l-38.5-38.6c-1.6-1.6-1.6-4.1,0-5.7l27.6-27.7c0.9-0.9,2.1-1.3,3.3-1.1
						c1.2,0.1,2.3,0.8,2.9,1.8c11.4,18,18.1,38.8,19.5,60.1c0.1,1.1-0.4,2.3-1.2,3.1l-8,8C245.7,131.6,244.7,132,243.6,132
						L243.6,132z M210.8,89.4l32.9,32.9l3.9-3.9c-1.4-17.7-6.7-34.9-15.6-50.3L210.8,89.4z"/>
				</g>
			</g>
		</g>
	</g>
	<g>
		<g>
			<g>
				<g>
					<path class="st19" d="M166.6,132c-1.1,0-2.1-0.4-2.8-1.2l-38.6-38.6c-1.6-1.6-1.6-4.1,0-5.7L163.7,48c0.8-0.8,1.8-1.2,2.8-1.2
						c1.1,0,2.1,0.4,2.8,1.2l38.6,38.6c1.6,1.6,1.6,4.1,0,5.7l-38.5,38.6C168.6,131.6,167.6,132,166.6,132z M133.7,89.4l32.9,32.9
						l32.9-32.9l-32.9-32.9L133.7,89.4z"/>
				</g>
			</g>
		</g>
	</g>
	<g>
		<g>
			<g>
				<g>
					<path class="st19" d="M232.7,198.2c-1.1,0-2.1-0.4-2.8-1.2l-27.6-27.7c-1.6-1.6-1.6-4.1,0-5.7l38.5-38.6
						c0.8-0.8,1.8-1.2,2.8-1.2c1.1,0,2.1,0.4,2.8,1.2l8,8c0.8,0.8,1.2,1.9,1.2,3.1c-1.4,21.3-8.1,42.1-19.5,60.1
						c-0.6,1-1.7,1.7-2.9,1.8C233,198.2,232.9,198.2,232.7,198.2z M210.8,166.6l21.2,21.2c8.8-15.3,14.2-32.6,15.6-50.3l-3.9-3.9
						L210.8,166.6z"/>
				</g>
			</g>
		</g>
	</g>
	<g>
		<g>
			<g>
				<g>
					<path class="st19" d="M194.2,236.8c-1,0-2.1-0.4-2.8-1.2L163.7,208c-1.6-1.6-1.6-4.1,0-5.7l38.6-38.6c0.8-0.8,1.8-1.2,2.8-1.2
						l0,0c1.1,0,2.1,0.4,2.8,1.2l27.6,27.7c1.3,1.3,1.6,3.4,0.6,5c-10.1,16-23.9,29.7-39.8,39.8
						C195.7,236.6,194.9,236.8,194.2,236.8z M172.2,205.2l22.5,22.5c12.9-8.7,24.2-20,32.9-32.9l-22.5-22.5L172.2,205.2z"/>
				</g>
			</g>
		</g>
	</g>
	<g>
		<g>
			<g>
				<g>
					<path class="st19" d="M136,255.7c-1.1,0-2.1-0.4-2.8-1.2l-8-8c-1.6-1.6-1.6-4.1,0-5.7l38.5-38.6c0.8-0.8,1.8-1.2,2.8-1.2
						c1.1,0,2.1,0.4,2.8,1.2L197,230c0.9,0.9,1.3,2.1,1.1,3.3c-0.1,1.2-0.8,2.3-1.8,2.9c-18,11.4-38.8,18.2-60.1,19.5
						C136.1,255.7,136.1,255.7,136,255.7z M133.7,243.8l3.9,3.9c17.7-1.4,34.9-6.7,50.2-15.6l-21.2-21.2L133.7,243.8z"/>
				</g>
			</g>
		</g>
	</g>
	<g>
		<g>
			<g>
				<g>
					<path class="st19" d="M120,255.7c-0.1,0-0.2,0-0.3,0c-21.3-1.4-42.1-8.1-60.1-19.5c-1-0.7-1.7-1.7-1.8-2.9
						c-0.1-1.2,0.3-2.4,1.1-3.3l27.6-27.7c0.8-0.8,1.8-1.2,2.8-1.2h0c1.1,0,2.1,0.4,2.8,1.2l38.5,38.6c1.6,1.6,1.6,4.1,0,5.7l-8,8
						C122.1,255.3,121.1,255.7,120,255.7z M68.3,232.1c15.3,8.8,32.6,14.2,50.2,15.6l3.9-3.9l-32.9-32.9L68.3,232.1z"/>
				</g>
			</g>
		</g>
	</g>
	<g>
		<g>
			<g>
				<g>
					<path class="st19" d="M128,256c-2.7,0-5.5-0.1-8.2-0.3c-1.6-0.1-2.9-1.1-3.5-2.6c-0.6-1.5-0.2-3.1,0.9-4.2l8-8
						c0.8-0.8,1.8-1.2,2.8-1.2h0c1.1,0,2.1,0.4,2.8,1.2l8,8c1.1,1.1,1.5,2.8,0.9,4.2c-0.6,1.5-1.9,2.5-3.5,2.6
						C133.4,255.9,130.7,256,128,256z"/>
				</g>
			</g>
		</g>
	</g>
	<g>
		<g>
			<g>
				<g>
					<path class="st19" d="M61.8,236.8c-0.7,0-1.5-0.2-2.1-0.6c-15.9-10.1-29.7-23.9-39.8-39.8c-1-1.6-0.8-3.6,0.6-5l27.6-27.7
						c0.8-0.8,1.8-1.2,2.8-1.2s2.1,0.4,2.8,1.2l38.6,38.6c1.6,1.6,1.6,4.1,0,5.7l-27.6,27.7C63.9,236.4,62.8,236.8,61.8,236.8z
						 M28.4,194.8c8.7,12.9,20,24.2,32.9,32.9l22.5-22.5l-32.9-32.9L28.4,194.8z"/>
				</g>
			</g>
		</g>
	</g>
	<g>
		<g>
			<g>
				<g>
					<path class="st19" d="M23.3,198.2c-0.1,0-0.3,0-0.4,0c-1.2-0.1-2.3-0.8-2.9-1.8c-11.4-18-18.1-38.8-19.5-60.2
						c-0.1-1.1,0.4-2.3,1.2-3.1l8-8c0.8-0.8,1.8-1.2,2.8-1.2h0c1.1,0,2.1,0.4,2.8,1.2l38.5,38.6c1.6,1.6,1.6,4.1,0,5.7l-27.6,27.7
						C25.3,197.8,24.3,198.2,23.3,198.2z M8.5,137.5c1.4,17.7,6.7,35,15.6,50.3l21.2-21.2l-32.9-32.9L8.5,137.5z"/>
				</g>
			</g>
		</g>
	</g>
	<g>
		<g>
			<g>
				<g>
					<path class="st19" d="M12.4,132c-1.1,0-2.1-0.4-2.8-1.2l-8-8c-0.8-0.8-1.2-1.9-1.2-3.1c1.4-21.3,8.1-42.1,19.5-60.2
						c0.6-1,1.7-1.7,2.9-1.8c1.2-0.1,2.4,0.3,3.3,1.1l27.6,27.7c1.6,1.6,1.6,4.1,0,5.7l-38.5,38.6C14.4,131.6,13.4,132,12.4,132z
						 M8.5,118.5l3.9,3.9l32.9-32.9L24.1,68.2C15.2,83.5,9.9,100.8,8.5,118.5z"/>
				</g>
			</g>
		</g>
	</g>
	<g>
		<g>
			<g>
				<g>
					<path class="st19" d="M4.4,140c-0.5,0-1-0.1-1.4-0.3c-1.5-0.6-2.5-1.9-2.6-3.5c-0.2-2.8-0.3-5.5-0.3-8.2c0-2.7,0.1-5.5,0.3-8.2
						c0.1-1.6,1.1-2.9,2.6-3.5c1.5-0.6,3.1-0.2,4.2,0.9l8,8c1.6,1.6,1.6,4.1,0,5.7l-8,8C6.4,139.6,5.4,140,4.4,140z"/>
				</g>
			</g>
		</g>
	</g>
	<g>
		<g>
			<g>
				<g>
					<path class="st19" d="M128,170.6L128,170.6c-1.1,0-2.1-0.4-2.8-1.2l-38.5-38.6c-1.6-1.6-1.6-4.1,0-5.7l38.5-38.6
						c0.8-0.8,1.8-1.2,2.8-1.2c1.1,0,2.1,0.4,2.8,1.2l38.6,38.6c1.6,1.6,1.6,4.1,0,5.7l-38.6,38.6
						C130.1,170.2,129.1,170.6,128,170.6z M95.1,128l32.9,32.9l32.9-32.9L128,95.1L95.1,128z"/>
				</g>
			</g>
		</g>
	</g>
	<g>
		<g>
			<g>
				<g>
					<path class="st19" d="M251.6,140c-1,0-2.1-0.4-2.8-1.2l-8-8c-1.6-1.6-1.6-4.1,0-5.7l8-8c1.1-1.1,2.8-1.5,4.2-0.9
						c1.5,0.6,2.5,1.9,2.6,3.5c0.2,2.8,0.3,5.5,0.3,8.2c0,2.7-0.1,5.5-0.3,8.2c-0.1,1.6-1.1,2.9-2.6,3.5
						C252.6,139.9,252.1,140,251.6,140z"/>
				</g>
			</g>
		</g>
	</g>
	<g>
		<g>
			<g>
				<g>
					<g>
						<path class="st19" d="M128,247.8c-1.1,0-2.1-0.4-2.8-1.2L86.6,208c-1.6-1.6-1.6-4.1,0-5.7l38.5-38.6c0.8-0.8,1.8-1.2,2.8-1.2
							c1.1,0,2.1,0.4,2.8,1.2l38.5,38.6c1.6,1.6,1.6,4.1,0,5.7l-38.5,38.6C130.1,247.3,129.1,247.8,128,247.8z M95.1,205.2
							l32.9,32.9l32.9-32.9L128,172.2L95.1,205.2z"/>
					</g>
				</g>
			</g>
		</g>
		<g>
			<g>
				<g>
					<g>
						<path class="st19" d="M166.5,209.2L166.5,209.2c-1.1,0-2.1-0.4-2.8-1.2l-38.5-38.6c-1.6-1.6-1.6-4.1,0-5.7l38.6-38.6
							c0.8-0.8,1.8-1.2,2.8-1.2h0c1.1,0,2.1,0.4,2.8,1.2l38.5,38.6c1.6,1.6,1.6,4.1,0,5.7L169.4,208
							C168.6,208.7,167.6,209.2,166.5,209.2z M133.7,166.6l32.9,32.9l32.9-32.9l-32.9-32.9L133.7,166.6z"/>
					</g>
				</g>
			</g>
		</g>
		<g>
			<g>
				<g>
					<g>
						<path class="st19" d="M128,93.4c-1.1,0-2.1-0.4-2.8-1.2L86.6,53.6c-1.6-1.6-1.6-4.1,0-5.7l38.5-38.6c0.8-0.8,1.8-1.2,2.8-1.2
							c1.1,0,2.1,0.4,2.8,1.2L169.4,48c1.6,1.6,1.6,4.1,0,5.7l-38.5,38.6C130.1,93,129.1,93.4,128,93.4z M95.1,50.8L128,83.7
							l32.9-32.9L128,17.9L95.1,50.8z"/>
					</g>
				</g>
			</g>
		</g>
	</g>
	<g>
		<g>
			<g>
				<g>
					<g>
						<path class="st19" d="M205.1,170.6c-1.1,0-2.1-0.4-2.8-1.2l-38.5-38.6c-1.6-1.6-1.6-4.1,0-5.7l38.5-38.6
							c0.8-0.8,1.8-1.2,2.8-1.2c1.1,0,2.1,0.4,2.8,1.2l38.5,38.6c1.6,1.6,1.6,4.1,0,5.7l-38.5,38.6
							C207.2,170.2,206.2,170.6,205.1,170.6z M172.2,128l32.9,32.9L238,128l-32.9-32.9L172.2,128z"/>
					</g>
				</g>
			</g>
		</g>
		<g>
			<g>
				<g>
					<g>
						<path class="st19" d="M89.5,132c-1.1,0-2.1-0.4-2.8-1.2L48.1,92.2c-1.6-1.6-1.6-4.1,0-5.7L86.6,48c0.8-0.8,1.8-1.2,2.8-1.2h0
							c1.1,0,2.1,0.4,2.8,1.2l38.5,38.6c1.6,1.6,1.6,4.1,0,5.7l-38.5,38.6C91.5,131.6,90.5,132,89.5,132z M56.6,89.4l32.9,32.9
							l32.9-32.9L89.5,56.5L56.6,89.4z"/>
					</g>
				</g>
			</g>
		</g>
		<g>
			<g>
				<g>
					<g>
						<path class="st19" d="M50.9,93.4L50.9,93.4c-1.1,0-2.1-0.4-2.8-1.2L20.4,64.6c-1.3-1.3-1.5-3.4-0.6-5
							c10.1-16,23.9-29.7,39.8-39.8c1.6-1,3.6-0.8,5,0.6L92.3,48c1.6,1.6,1.6,4.1,0,5.7L53.7,92.2C53,93,52,93.4,50.9,93.4z
							 M28.4,61.2l22.5,22.5l32.9-32.9L61.3,28.3C48.4,37,37.1,48.3,28.4,61.2z"/>
					</g>
				</g>
			</g>
		</g>
		<g>
			<g>
				<g>
					<g>
						<path class="st19" d="M89.5,209.2c-1.1,0-2.1-0.4-2.8-1.2l-38.6-38.6c-1.6-1.6-1.6-4.1,0-5.7l38.6-38.6
							c0.8-0.8,1.8-1.2,2.8-1.2h0c1.1,0,2.1,0.4,2.8,1.2l38.5,38.6c1.6,1.6,1.6,4.1,0,5.7L92.3,208
							C91.5,208.8,90.5,209.2,89.5,209.2z M56.6,166.6l32.9,32.9l32.9-32.9l-32.9-32.9L56.6,166.6z"/>
					</g>
				</g>
			</g>
		</g>
		<g>
			<g>
				<g>
					<g>
						<path class="st19" d="M50.9,170.6L50.9,170.6c-1.1,0-2.1-0.4-2.8-1.2L9.5,130.8c-1.6-1.6-1.6-4.1,0-5.7l38.5-38.6
							c0.8-0.8,1.8-1.2,2.8-1.2c1.1,0,2.1,0.4,2.8,1.2l38.6,38.6c1.6,1.6,1.6,4.1,0,5.7l-38.6,38.6C53,170.2,52,170.6,50.9,170.6z
							 M18,128l32.9,32.9L83.8,128L50.9,95.1L18,128z"/>
					</g>
				</g>
			</g>
		</g>
	</g>
</g>
</svg>
