<?xml version="1.0" encoding="utf-8"?>
<!-- Generator: Adobe Illustrator 22.1.0, SVG Export Plug-In . SVG Version: 6.00 Build 0)  -->
<svg version="1.1" id="Layer_1" xmlns="http://www.w3.org/2000/svg" xmlns:xlink="http://www.w3.org/1999/xlink" x="0px" y="0px"
	 viewBox="0 0 256 256" style="enable-background:new 0 0 256 256;" xml:space="preserve">
<style type="text/css">
	.st0{fill:#F6D67A;}
	.st1{fill:#E77CAE;}
	.st2{fill:#AC6535;}
	.st3{fill:#EB573B;}
	.st4{fill:#464646;}
	.st5{fill:#F5B31F;}
	.st6{fill:#9B592D;}
	.st7{fill:#9B5B2F;}
	.st8{fill:#E8A41A;}
	.st9{fill:#6D6E71;}
	.st10{fill:#E5A21C;}
	.st11{fill:#C66395;}
	.st12{fill:#E09F1E;}
	.st13{fill:#FFFFFF;}
	.st14{fill:#DDB95E;}
	.st15{fill:#EAC771;}
	.st16{fill:#F9F6CD;}
	.st17{fill:#009345;}
	.st18{fill:#008438;}
	.st19{fill:#EAA51B;}
	.st20{opacity:0.1;}
	.st21{fill:#FFD11D;}
	.st22{fill:#FFE37B;}
	.st23{fill:#FFA755;}
	.st24{fill:#FFEC97;}
	.st25{fill:#BC7532;}
	.st26{fill:#EFEFEF;}
	.st27{fill:#60ACF7;}
	.st28{fill:#876C6C;}
	.st29{fill:#1DDCFF;}
	.st30{fill:#BDF3FF;}
	.st31{fill:#EFCA70;}
	.st32{fill:#EFA91D;}
	.st33{fill:#8FAE3C;}
	.st34{fill:#92A5AC;}
	.st35{fill:#E8E3BA;}
	.st36{fill:#F79932;}
	.st37{fill:#F4F4F4;}
	.st38{fill:#FFDF8F;}
	.st39{fill:#EAE5B9;}
	.st40{fill:#7E9E6A;}
	.st41{fill:#94B57F;}
	.st42{fill:#9B5D8C;}
	.st43{fill:#96557A;}
	.st44{fill:#C3755A;}
	.st45{fill:#9BD7DD;}
	.st46{fill:#90CAD3;}
	.st47{fill:#F7F7F7;}
	.st48{fill:#AFE6EF;}
	.st49{fill:#FFFAEB;}
	.st50{fill:#F4EFC3;}
	.st51{fill:#F9F9F9;}
	.st52{fill:#FFE5C4;}
	.st53{fill:#FFB024;}
	.st54{fill:#FFC612;}
	.st55{fill:#FFCE31;}
	.st56{fill:#A05C2D;}
	.st57{fill:#1DCAF2;}
	.st58{fill:#00B0E0;}
	.st59{fill:#F2A355;}
	.st60{fill:#D68032;}
	.st61{fill:#66625D;}
	.st62{fill:#54504D;}
	.st63{fill:#B76955;}
	.st64{fill:#EFE8B4;}
	.st65{fill:#B93226;}
	.st66{fill:#EFEABF;}
	.st67{fill:#90C056;}
	.st68{opacity:0.15;}
	.st69{fill:#E8C56D;}
	.st70{fill:#F7BE4B;}
	.st71{fill:#E0A338;}
	.st72{fill:#F68455;}
	.st73{fill:#E26F47;}
	.st74{fill:#EC754B;}
	.st75{fill:#4AA5BA;}
	.st76{opacity:0.5;}
	.st77{fill:#A0B1B5;}
	.st78{opacity:0.7;}
	.st79{fill:#00ADEE;}
	.st80{fill:#F4D4B3;}
	.st81{fill:#F9D97A;}
	.st82{fill:#EDC96E;}
	.st83{fill:none;}
	.st84{fill:#AF6535;}
	.st85{fill:#F18BB4;}
	.st86{fill:#B3E4FF;}
	.st87{fill:#97DFFF;}
	.st88{fill:#D06E3C;}
	.st89{fill:#B55931;}
	.st90{fill:#DA4F4B;}
	.st91{fill:#EFCAA8;}
	.st92{fill:#EA7CB1;}
	.st93{fill:#EA7DAE;}
	.st94{fill:#BC7646;}
	.st95{fill:#00A1C6;}
	.st96{fill:#FCC230;}
	.st97{fill:#F2EBB1;}
	.st98{fill:#F9D6AF;}
	.st99{fill:#D34735;}
	.st100{fill:#E5A21A;}
	.st101{fill:#849E33;}
	.st102{fill:#EFBB14;}
	.st103{fill:#D8402B;}
	.st104{fill:#829B34;}
	.st105{fill:#F88916;}
	.st106{fill:#E27513;}
	.st107{fill:#FFB41F;}
	.st108{fill:#8AA538;}
	.st109{fill:#BE6BB2;}
	.st110{fill:#AA5BA3;}
	.st111{fill:#FFDF66;}
	.st112{fill:#F4BA00;}
	.st113{fill:#E28529;}
	.st114{fill:#FF9945;}
	.st115{fill:#BA6C45;}
	.st116{fill:#EDBA15;}
	.st117{fill:#E0452F;}
	.st118{fill:#F7F2D5;}
	.st119{fill:#4C4E51;}
	.st120{fill:#EA615D;}
	.st121{fill:#DD4A36;}
	.st122{fill:#F6AF72;}
	.st123{fill:#E8955D;}
	.st124{fill:#E4C074;}
	.st125{fill:#EAE4C3;}
	.st126{fill:#BF3522;}
	.st127{fill:#D13E33;}
	.st128{fill:#AA5EA3;}
	.st129{fill:#DD443C;}
	.st130{fill:#AA5FA3;}
	.st131{fill:#B7C536;}
	.st132{fill:#F2872F;}
	.st133{fill:#AF5FA7;}
	.st134{fill:#E29F17;}
	.st135{fill:#FFC86E;}
	.st136{fill:#A55937;}
	.st137{fill:#D8422E;}
	.st138{fill:#C3556D;}
	.st139{fill:#B24965;}
	.st140{fill:#D1A962;}
	.st141{fill:#A3961A;}
	.st142{fill:#AFA51D;}
	.st143{fill:#968A1C;}
</style>
<g>
	<g>
		<g>
			<g>
				<g>
					<g>
						<path class="st33" d="M255.8,112.9c-0.9,22.3-6.9,44.4-17.3,64c-6.9,13-15.7,24.9-26.2,35.4c-10.5,10.5-22.4,19.3-35.4,26.3
							c-19.5,10.4-41.6,16.4-63.9,17.3c-2,0.1-4.1,0.1-6.1,0.1c-21.7,0-43.5-4.8-63.1-14c-15.7-7.4-30-17.4-42.4-29.7
							c-1.6-1.6-1.6-4.1,0-5.7l23.1-23.2c0.8-0.8,1.8-1.2,2.8-1.2c1.1,0,2.1,0.4,2.8,1.2c9,9,19.4,16.3,30.8,21.6
							c15.6,7.3,33.1,10.8,50.3,10.1c16.2-0.7,32.2-5,46.4-12.6c9.4-5,18.1-11.5,25.7-19.1c7.6-7.6,14.1-16.3,19.1-25.8
							c7.6-14.2,11.9-30.3,12.6-46.5c0.7-17.3-2.8-34.8-10.1-50.4C199.7,49.4,192.4,39,183.4,30c-1.6-1.6-1.6-4.1,0-5.7l23.1-23.2
							c0.8-0.8,1.8-1.2,2.8-1.2c1.1,0,2.1,0.4,2.8,1.2c12.4,12.4,22.4,26.6,29.7,42.4C251.9,65.1,256.7,89,255.8,112.9z"/>
					</g>
				</g>
			</g>
		</g>
	</g>
	<g>
		<g>
			<g>
				<g>
					<g>
						<path class="st3" d="M223.1,111.5c-0.7,17.4-5.4,34.7-13.5,49.9c-5.4,10.1-12.3,19.4-20.5,27.7c-8.2,8.2-17.5,15.1-27.6,20.5
							c-15.3,8.1-32.5,12.8-49.9,13.5c-1.6,0.1-3.2,0.1-4.8,0.1c-16.9,0-33.9-3.8-49.2-10.9c-12.3-5.7-23.4-13.5-33.1-23.2
							c-1.6-1.6-1.6-4.1,0-5.7l159-159.1c0.8-0.8,1.8-1.2,2.8-1.2s2.1,0.4,2.8,1.2c9.7,9.7,17.5,20.8,23.2,33.1
							C220.1,74.2,223.8,92.9,223.1,111.5z"/>
					</g>
				</g>
			</g>
		</g>
	</g>
	<g>
		<g>
			<g>
				<g>
					<g>
						<g>
							<path class="st126" d="M78.7,186.7c-2.2,0-4-1.8-4-4v-13.4c0-2.2,1.8-4,4-4c2.2,0,4,1.8,4,4v13.4
								C82.7,184.9,80.9,186.7,78.7,186.7z"/>
						</g>
					</g>
				</g>
			</g>
		</g>
		<g>
			<g>
				<g>
					<g>
						<g>
							<path class="st126" d="M111.5,185.7c-1.7,0-3.3-1.1-3.8-2.8l-3.9-12.9c-0.6-2.1,0.5-4.3,2.7-5c2.1-0.6,4.3,0.5,5,2.7
								l3.9,12.9c0.6,2.1-0.5,4.3-2.7,5C112.3,185.6,111.9,185.7,111.5,185.7z"/>
						</g>
					</g>
				</g>
			</g>
		</g>
		<g>
			<g>
				<g>
					<g>
						<g>
							<path class="st126" d="M143.5,171.1c-1.2,0-2.4-0.5-3.2-1.6l-8.1-10.7c-1.3-1.8-1-4.3,0.8-5.6c1.8-1.3,4.3-1,5.6,0.8
								l8.1,10.7c1.3,1.8,1,4.3-0.8,5.6C145.2,170.8,144.4,171.1,143.5,171.1z"/>
						</g>
					</g>
				</g>
			</g>
		</g>
		<g>
			<g>
				<g>
					<g>
						<g>
							<path class="st126" d="M182.6,82.7h-13.4c-2.2,0-4-1.8-4-4s1.8-4,4-4h13.4c2.2,0,4,1.8,4,4S184.8,82.7,182.6,82.7z"/>
						</g>
					</g>
				</g>
			</g>
		</g>
		<g>
			<g>
				<g>
					<g>
						<g>
							<path class="st126" d="M181.6,115.5c-0.4,0-0.8-0.1-1.2-0.2l-12.8-3.9c-2.1-0.6-3.3-2.9-2.7-5c0.6-2.1,2.9-3.3,5-2.7
								l12.8,3.9c2.1,0.6,3.3,2.9,2.7,5C184.9,114.4,183.3,115.5,181.6,115.5z"/>
						</g>
					</g>
				</g>
			</g>
		</g>
		<g>
			<g>
				<g>
					<g>
						<g>
							<path class="st126" d="M167,147.5c-0.8,0-1.7-0.3-2.4-0.8l-10.7-8.2c-1.8-1.3-2.1-3.9-0.8-5.6c1.3-1.8,3.8-2.1,5.6-0.8
								l10.7,8.2c1.8,1.3,2.1,3.9,0.8,5.6C169.4,147,168.2,147.5,167,147.5z"/>
						</g>
					</g>
				</g>
			</g>
		</g>
	</g>
	<g>
		<g>
			<g>
				<g>
					<g>
						<g>
							<path class="st126" d="M96,156c-0.1,0-0.2,0-0.3,0c-2.2-0.2-3.9-2.1-3.7-4.3l0.6-7.7c0.2-2.2,2.1-3.9,4.3-3.7
								c2.2,0.2,3.9,2.1,3.7,4.3l-0.6,7.7C99.8,154.4,98,156,96,156z"/>
						</g>
					</g>
				</g>
			</g>
		</g>
		<g>
			<g>
				<g>
					<g>
						<g>
							<path class="st126" d="M119.8,143.3c-1.6,0-3-0.9-3.7-2.4l-3.4-7.8c-0.9-2,0.1-4.4,2.1-5.3c2-0.9,4.4,0.1,5.3,2.1l3.4,7.8
								c0.9,2-0.1,4.4-2.1,5.3C120.9,143.2,120.3,143.3,119.8,143.3z"/>
						</g>
					</g>
				</g>
			</g>
		</g>
		<g>
			<g>
				<g>
					<g>
						<g>
							<path class="st126" d="M144.3,100.5c-2.1,0-3.8-1.6-4-3.7c-0.2-2.2,1.5-4.1,3.7-4.3l7.6-0.6c2.2-0.2,4.1,1.5,4.3,3.7
								c0.2,2.2-1.5,4.1-3.7,4.3l-7.6,0.6C144.5,100.5,144.4,100.5,144.3,100.5z"/>
						</g>
					</g>
				</g>
			</g>
		</g>
		<g>
			<g>
				<g>
					<g>
						<g>
							<path class="st126" d="M139.3,123.8c-0.5,0-1.1-0.1-1.6-0.3l-7.8-3.4c-2-0.9-3-3.2-2.1-5.3c0.9-2,3.2-3,5.3-2.1l7.8,3.4
								c2,0.9,3,3.2,2.1,5.3C142.4,122.9,140.9,123.8,139.3,123.8z"/>
						</g>
					</g>
				</g>
			</g>
		</g>
	</g>
</g>
</svg>
