<svg xmlns="http://www.w3.org/2000/svg" xmlns:xlink="http://www.w3.org/1999/xlink" width="262" zoomAndPan="magnify" viewBox="0 0 196.5 404.999988" height="540" preserveAspectRatio="xMidYMid meet" version="1.0"><defs><clipPath id="ca554872ff"><path d="M 1 3 L 196 3 L 196 404.484375 L 1 404.484375 Z M 1 3 " clip-rule="nonzero"/></clipPath></defs><g clip-path="url(#ca554872ff)"><path fill="#00bf63" d="M 40.605469 72.859375 C 41.707031 62.867188 43.425781 52.9375 44.96875 43.007812 C 45.6875 38.324219 46.429688 33.640625 46.96875 28.933594 C 47.648438 23.070312 48.488281 16.882812 47.648438 10.996094 C 47.308594 8.59375 48.210938 6.132812 50.789062 5.449219 C 52.929688 4.890625 55.972656 6.171875 56.332031 8.59375 C 57.953125 19.84375 55.792969 31.476562 54.09375 42.609375 C 52.570312 52.675781 50.75 62.726562 49.628906 72.859375 C 49.371094 75.261719 47.789062 77.382812 45.128906 77.363281 C 42.867188 77.34375 40.347656 75.300781 40.605469 72.859375 Z M 80.042969 76.160156 C 84.746094 55.921875 87.324219 35.199219 87.6875 14.421875 C 87.785156 8.613281 78.78125 8.613281 78.683594 14.421875 C 78.320312 34.441406 75.878906 54.28125 71.359375 73.777344 C 70.058594 79.425781 78.742188 81.828125 80.042969 76.160156 Z M 112.457031 14.441406 C 108.734375 34.058594 105.652344 53.980469 100.769531 73.339844 C 96.988281 88.292969 91.765625 104.527344 79.703125 114.917969 C 75.519531 118.523438 70.578125 121.285156 65.257812 122.808594 C 57.734375 124.929688 50.46875 121.503906 44.207031 117.382812 C 30.300781 108.210938 26.101562 89.054688 23.820312 73.636719 C 20.660156 52.117188 22.417969 29.976562 26.28125 8.675781 C 27.300781 3.007812 18.636719 0.566406 17.597656 6.273438 C 13.753906 27.472656 11.855469 49.234375 14.4375 70.695312 C 16.496094 87.8125 20.636719 109.492188 34.523438 121.304688 C 39.386719 125.449219 45.449219 129.214844 51.8125 131.195312 C 48.929688 160.402344 46.449219 189.691406 42.386719 218.761719 C 32.582031 217.941406 23.21875 220.863281 17.898438 229.871094 C 15.496094 233.9375 14.914062 238.339844 14.414062 242.886719 C 11.335938 271.132812 8.273438 299.382812 5.191406 327.628906 C 3.910156 339.339844 2.652344 351.03125 1.371094 362.742188 C 0.871094 367.328125 0.648438 371.753906 2.3125 376.238281 C 4.292969 381.5625 8.191406 386.226562 13.253906 388.890625 C 17.035156 390.871094 21.039062 391.414062 25.199219 391.871094 C 28.28125 392.214844 31.34375 392.535156 34.425781 392.875 C 46.449219 393.855469 57.695312 385.328125 59.554688 373.292969 C 59.933594 370.8125 60.15625 368.289062 60.414062 365.785156 C 61.816406 353.015625 63.195312 340.222656 64.597656 327.449219 C 67.539062 300.503906 70.539062 273.554688 73.398438 246.609375 C 74.121094 239.882812 72.558594 233.375 68.175781 228.070312 C 63.597656 222.546875 57.632812 220.722656 51.269531 219.761719 C 55.273438 190.8125 57.8125 161.683594 60.675781 132.617188 C 67.015625 132.515625 73.460938 129.773438 78.78125 126.671875 C 92.746094 118.5625 100.289062 104.007812 105.433594 89.273438 C 109.335938 78.101562 111.675781 66.472656 113.894531 54.878906 C 116.316406 42.1875 118.71875 29.496094 121.140625 16.824219 C 122.21875 11.15625 113.535156 8.734375 112.457031 14.441406 Z M 195.628906 40.464844 C 194.808594 52.398438 192.988281 64.308594 191.566406 76.199219 C 188.988281 97.800781 186.386719 119.402344 183.804688 140.984375 C 181.683594 158.722656 178.941406 176.480469 177.460938 194.277344 C 176.203125 209.511719 175.140625 224.769531 173.980469 240.023438 C 174.660156 240.523438 175.320312 241.042969 175.941406 241.683594 C 180.484375 246.308594 181.925781 252.453125 181.242188 258.703125 C 178.304688 285.667969 175.363281 312.65625 172.441406 339.621094 C 171 352.8125 169.558594 365.988281 168.136719 379.179688 C 167.859375 381.742188 167.617188 384.304688 167.296875 386.847656 C 166.019531 397.5 157.234375 405.566406 146.269531 404.746094 C 143.25 404.425781 140.246094 404.085938 137.226562 403.765625 C 133.785156 403.382812 130.042969 403.285156 126.761719 402.0625 C 121.320312 400.019531 117.039062 395.695312 115.097656 390.210938 C 113.695312 386.246094 114.054688 382.464844 114.496094 378.4375 C 115.777344 366.707031 117.058594 354.996094 118.316406 343.265625 C 121.460938 314.457031 124.582031 285.648438 127.722656 256.839844 C 128.042969 253.9375 128.140625 250.714844 129.023438 247.949219 C 130.804688 242.40625 134.925781 237.921875 140.308594 235.71875 C 141.226562 235.339844 142.148438 235.078125 143.070312 234.878906 C 143.648438 227.992188 144.207031 221.105469 144.789062 214.21875 C 140.289062 213.816406 135.765625 213.417969 131.261719 213.035156 C 128.941406 212.835938 126.640625 211.113281 126.761719 208.53125 C 127.640625 190.195312 128.5625 171.855469 130.222656 153.558594 C 133.144531 121.503906 138.347656 89.332031 149.75 59.105469 C 154.671875 46.070312 160.234375 32.257812 170.199219 22.1875 C 174.199219 18.144531 181.285156 11.898438 187.386719 12.117188 C 190.988281 12.238281 192.707031 14.679688 192.847656 17.242188 C 192.96875 17.363281 193.109375 17.464844 193.230469 17.582031 C 194.828125 19.304688 194.890625 21.628906 195.210938 23.847656 C 195.96875 29.355469 196.011719 34.921875 195.628906 40.464844 Z M 186.667969 27.832031 C 186.546875 26.371094 186.246094 24.910156 186.105469 23.449219 C 186.125 23.589844 187.328125 24.449219 186.324219 23.488281 C 185.785156 22.96875 185.1875 22.527344 184.605469 22.066406 C 182.464844 23.289062 179.84375 25.570312 178.984375 26.3125 C 176.761719 28.234375 174.703125 30.394531 172.921875 32.71875 C 169.097656 37.664062 166.179688 43.308594 163.617188 48.972656 C 141.566406 97.480469 138.507812 151.914062 135.964844 204.425781 C 140.527344 204.828125 145.089844 205.226562 149.632812 205.628906 C 151.890625 205.828125 154.351562 207.550781 154.132812 210.132812 C 153.453125 218.320312 152.773438 226.488281 152.09375 234.675781 C 152.152344 234.675781 152.191406 234.675781 152.253906 234.699219 C 156.515625 235.15625 161.035156 235.339844 165.277344 236.257812 C 165.757812 229.871094 166.257812 223.488281 166.738281 217.101562 C 168.757812 190.632812 172 164.386719 175.160156 138.023438 C 177.722656 116.679688 180.285156 95.320312 182.84375 73.980469 C 184.066406 63.769531 185.503906 53.558594 186.425781 43.308594 C 186.867188 38.144531 187.085938 32.976562 186.667969 27.832031 Z M 186.667969 27.832031 " fill-opacity="1" fill-rule="nonzero"/></g></svg>