<svg id="Capa_1" enable-background="new 0 0 512 512" height="512" viewBox="0 0 512 512" width="512" xmlns="http://www.w3.org/2000/svg"><path fill="#57b182" d="m131.029 321.175c-34.574-12.223-74.613-4.536-102.272 23.123-27.018 27.018-34.988 65.851-23.952 99.862l68.348-43.137 37.817 37.817-43.145 68.355c34.012 11.037 72.851 3.06 99.87-23.959 27.662-27.662 35.367-67.713 23.141-102.289l43.673-43.673-59.79-59.79z"/><path fill="#57b182" d="m380.947 190.836c34.577 12.226 74.627 4.521 102.289-23.14 27.019-27.019 34.997-65.858 23.959-99.87l-68.355 43.144-37.817-37.817 43.137-68.348c-34.011-11.036-72.844-3.067-99.862 23.952-27.659 27.659-35.346 67.698-23.123 102.272l-43.69 43.69 59.79 59.79z"/><path fill="#93e3ab" d="m60.34 150.849 22.627-7.542 176.362 176.362 60.34-60.34-176.362-176.362 7.543-22.627-105.595-60.34-45.255 45.255z"/><path fill="#93e3ab" d="m339.167 276.835h106.667v231.33h-106.667z" transform="matrix(.707 -.707 .707 .707 -162.579 392.5)"/></svg>